<?xml version="1.0" encoding="utf-8" standalone="no"?>
<!DOCTYPE svg PUBLIC "-//W3C//DTD SVG 1.1//EN"
  "http://www.w3.org/Graphics/SVG/1.1/DTD/svg11.dtd">
<svg xmlns:xlink="http://www.w3.org/1999/xlink" width="340.909375pt" height="325.755469pt" viewBox="0 0 340.909375 325.755469" xmlns="http://www.w3.org/2000/svg" version="1.1">
 <metadata>
  <rdf:RDF xmlns:dc="http://purl.org/dc/elements/1.1/" xmlns:cc="http://creativecommons.org/ns#" xmlns:rdf="http://www.w3.org/1999/02/22-rdf-syntax-ns#">
   <cc:Work>
    <dc:type rdf:resource="http://purl.org/dc/dcmitype/StillImage"/>
    <dc:date>2022-10-14T20:02:48.365831</dc:date>
    <dc:format>image/svg+xml</dc:format>
    <dc:creator>
     <cc:Agent>
      <dc:title>Matplotlib v3.5.3, https://matplotlib.org/</dc:title>
     </cc:Agent>
    </dc:creator>
   </cc:Work>
  </rdf:RDF>
 </metadata>
 <defs>
  <style type="text/css">*{stroke-linejoin: round; stroke-linecap: butt}</style>
 </defs>
 <g id="figure_1">
  <g id="patch_1">
   <path d="M 0 325.755469 
L 340.909375 325.755469 
L 340.909375 0 
L 0 0 
z
" style="fill: #ffffff"/>
  </g>
  <g id="axes_1">
   <g id="patch_2">
    <path d="M 46.965625 288.199219 
L 324.165625 288.199219 
L 324.165625 10.999219 
L 46.965625 10.999219 
z
" style="fill: #ffffff"/>
   </g>
   <g id="matplotlib.axis_1">
    <g id="xtick_1">
     <g id="line2d_1">
      <path d="M 46.965625 288.199219 
L 46.965625 10.999219 
" clip-path="url(#pa08af3f2aa)" style="fill: none; stroke: #b0b0b0; stroke-width: 0.8; stroke-linecap: square"/>
     </g>
     <g id="line2d_2">
      <defs>
       <path id="m5ec0bb0ac6" d="M 0 0 
L 0 3.5 
" style="stroke: #000000; stroke-width: 0.8"/>
      </defs>
      <g>
       <use xlink:href="#m5ec0bb0ac6" x="46.965625" y="288.199219" style="stroke: #000000; stroke-width: 0.8"/>
      </g>
     </g>
     <g id="text_1">
      <!-- 0 -->
      <g transform="translate(43.784375 302.797656)scale(0.1 -0.1)">
       <defs>
        <path id="DejaVuSans-30" d="M 2034 4250 
Q 1547 4250 1301 3770 
Q 1056 3291 1056 2328 
Q 1056 1369 1301 889 
Q 1547 409 2034 409 
Q 2525 409 2770 889 
Q 3016 1369 3016 2328 
Q 3016 3291 2770 3770 
Q 2525 4250 2034 4250 
z
M 2034 4750 
Q 2819 4750 3233 4129 
Q 3647 3509 3647 2328 
Q 3647 1150 3233 529 
Q 2819 -91 2034 -91 
Q 1250 -91 836 529 
Q 422 1150 422 2328 
Q 422 3509 836 4129 
Q 1250 4750 2034 4750 
z
" transform="scale(0.015625)"/>
       </defs>
       <use xlink:href="#DejaVuSans-30"/>
      </g>
     </g>
    </g>
    <g id="xtick_2">
     <g id="line2d_3">
      <path d="M 102.405625 288.199219 
L 102.405625 10.999219 
" clip-path="url(#pa08af3f2aa)" style="fill: none; stroke: #b0b0b0; stroke-width: 0.8; stroke-linecap: square"/>
     </g>
     <g id="line2d_4">
      <g>
       <use xlink:href="#m5ec0bb0ac6" x="102.405625" y="288.199219" style="stroke: #000000; stroke-width: 0.8"/>
      </g>
     </g>
     <g id="text_2">
      <!-- 20 -->
      <g transform="translate(96.043125 302.797656)scale(0.1 -0.1)">
       <defs>
        <path id="DejaVuSans-32" d="M 1228 531 
L 3431 531 
L 3431 0 
L 469 0 
L 469 531 
Q 828 903 1448 1529 
Q 2069 2156 2228 2338 
Q 2531 2678 2651 2914 
Q 2772 3150 2772 3378 
Q 2772 3750 2511 3984 
Q 2250 4219 1831 4219 
Q 1534 4219 1204 4116 
Q 875 4013 500 3803 
L 500 4441 
Q 881 4594 1212 4672 
Q 1544 4750 1819 4750 
Q 2544 4750 2975 4387 
Q 3406 4025 3406 3419 
Q 3406 3131 3298 2873 
Q 3191 2616 2906 2266 
Q 2828 2175 2409 1742 
Q 1991 1309 1228 531 
z
" transform="scale(0.015625)"/>
       </defs>
       <use xlink:href="#DejaVuSans-32"/>
       <use xlink:href="#DejaVuSans-30" x="63.623047"/>
      </g>
     </g>
    </g>
    <g id="xtick_3">
     <g id="line2d_5">
      <path d="M 157.845625 288.199219 
L 157.845625 10.999219 
" clip-path="url(#pa08af3f2aa)" style="fill: none; stroke: #b0b0b0; stroke-width: 0.8; stroke-linecap: square"/>
     </g>
     <g id="line2d_6">
      <g>
       <use xlink:href="#m5ec0bb0ac6" x="157.845625" y="288.199219" style="stroke: #000000; stroke-width: 0.8"/>
      </g>
     </g>
     <g id="text_3">
      <!-- 40 -->
      <g transform="translate(151.483125 302.797656)scale(0.1 -0.1)">
       <defs>
        <path id="DejaVuSans-34" d="M 2419 4116 
L 825 1625 
L 2419 1625 
L 2419 4116 
z
M 2253 4666 
L 3047 4666 
L 3047 1625 
L 3713 1625 
L 3713 1100 
L 3047 1100 
L 3047 0 
L 2419 0 
L 2419 1100 
L 313 1100 
L 313 1709 
L 2253 4666 
z
" transform="scale(0.015625)"/>
       </defs>
       <use xlink:href="#DejaVuSans-34"/>
       <use xlink:href="#DejaVuSans-30" x="63.623047"/>
      </g>
     </g>
    </g>
    <g id="xtick_4">
     <g id="line2d_7">
      <path d="M 213.285625 288.199219 
L 213.285625 10.999219 
" clip-path="url(#pa08af3f2aa)" style="fill: none; stroke: #b0b0b0; stroke-width: 0.8; stroke-linecap: square"/>
     </g>
     <g id="line2d_8">
      <g>
       <use xlink:href="#m5ec0bb0ac6" x="213.285625" y="288.199219" style="stroke: #000000; stroke-width: 0.8"/>
      </g>
     </g>
     <g id="text_4">
      <!-- 60 -->
      <g transform="translate(206.923125 302.797656)scale(0.1 -0.1)">
       <defs>
        <path id="DejaVuSans-36" d="M 2113 2584 
Q 1688 2584 1439 2293 
Q 1191 2003 1191 1497 
Q 1191 994 1439 701 
Q 1688 409 2113 409 
Q 2538 409 2786 701 
Q 3034 994 3034 1497 
Q 3034 2003 2786 2293 
Q 2538 2584 2113 2584 
z
M 3366 4563 
L 3366 3988 
Q 3128 4100 2886 4159 
Q 2644 4219 2406 4219 
Q 1781 4219 1451 3797 
Q 1122 3375 1075 2522 
Q 1259 2794 1537 2939 
Q 1816 3084 2150 3084 
Q 2853 3084 3261 2657 
Q 3669 2231 3669 1497 
Q 3669 778 3244 343 
Q 2819 -91 2113 -91 
Q 1303 -91 875 529 
Q 447 1150 447 2328 
Q 447 3434 972 4092 
Q 1497 4750 2381 4750 
Q 2619 4750 2861 4703 
Q 3103 4656 3366 4563 
z
" transform="scale(0.015625)"/>
       </defs>
       <use xlink:href="#DejaVuSans-36"/>
       <use xlink:href="#DejaVuSans-30" x="63.623047"/>
      </g>
     </g>
    </g>
    <g id="xtick_5">
     <g id="line2d_9">
      <path d="M 268.725625 288.199219 
L 268.725625 10.999219 
" clip-path="url(#pa08af3f2aa)" style="fill: none; stroke: #b0b0b0; stroke-width: 0.8; stroke-linecap: square"/>
     </g>
     <g id="line2d_10">
      <g>
       <use xlink:href="#m5ec0bb0ac6" x="268.725625" y="288.199219" style="stroke: #000000; stroke-width: 0.8"/>
      </g>
     </g>
     <g id="text_5">
      <!-- 80 -->
      <g transform="translate(262.363125 302.797656)scale(0.1 -0.1)">
       <defs>
        <path id="DejaVuSans-38" d="M 2034 2216 
Q 1584 2216 1326 1975 
Q 1069 1734 1069 1313 
Q 1069 891 1326 650 
Q 1584 409 2034 409 
Q 2484 409 2743 651 
Q 3003 894 3003 1313 
Q 3003 1734 2745 1975 
Q 2488 2216 2034 2216 
z
M 1403 2484 
Q 997 2584 770 2862 
Q 544 3141 544 3541 
Q 544 4100 942 4425 
Q 1341 4750 2034 4750 
Q 2731 4750 3128 4425 
Q 3525 4100 3525 3541 
Q 3525 3141 3298 2862 
Q 3072 2584 2669 2484 
Q 3125 2378 3379 2068 
Q 3634 1759 3634 1313 
Q 3634 634 3220 271 
Q 2806 -91 2034 -91 
Q 1263 -91 848 271 
Q 434 634 434 1313 
Q 434 1759 690 2068 
Q 947 2378 1403 2484 
z
M 1172 3481 
Q 1172 3119 1398 2916 
Q 1625 2713 2034 2713 
Q 2441 2713 2670 2916 
Q 2900 3119 2900 3481 
Q 2900 3844 2670 4047 
Q 2441 4250 2034 4250 
Q 1625 4250 1398 4047 
Q 1172 3844 1172 3481 
z
" transform="scale(0.015625)"/>
       </defs>
       <use xlink:href="#DejaVuSans-38"/>
       <use xlink:href="#DejaVuSans-30" x="63.623047"/>
      </g>
     </g>
    </g>
    <g id="xtick_6">
     <g id="line2d_11">
      <path d="M 324.165625 288.199219 
L 324.165625 10.999219 
" clip-path="url(#pa08af3f2aa)" style="fill: none; stroke: #b0b0b0; stroke-width: 0.8; stroke-linecap: square"/>
     </g>
     <g id="line2d_12">
      <g>
       <use xlink:href="#m5ec0bb0ac6" x="324.165625" y="288.199219" style="stroke: #000000; stroke-width: 0.8"/>
      </g>
     </g>
     <g id="text_6">
      <!-- 100 -->
      <g transform="translate(314.621875 302.797656)scale(0.1 -0.1)">
       <defs>
        <path id="DejaVuSans-31" d="M 794 531 
L 1825 531 
L 1825 4091 
L 703 3866 
L 703 4441 
L 1819 4666 
L 2450 4666 
L 2450 531 
L 3481 531 
L 3481 0 
L 794 0 
L 794 531 
z
" transform="scale(0.015625)"/>
       </defs>
       <use xlink:href="#DejaVuSans-31"/>
       <use xlink:href="#DejaVuSans-30" x="63.623047"/>
       <use xlink:href="#DejaVuSans-30" x="127.246094"/>
      </g>
     </g>
    </g>
    <g id="text_7">
     <!-- ice thickness RRDP [cm] -->
     <g transform="translate(124.632031 316.475781)scale(0.1 -0.1)">
      <defs>
       <path id="DejaVuSans-69" d="M 603 3500 
L 1178 3500 
L 1178 0 
L 603 0 
L 603 3500 
z
M 603 4863 
L 1178 4863 
L 1178 4134 
L 603 4134 
L 603 4863 
z
" transform="scale(0.015625)"/>
       <path id="DejaVuSans-63" d="M 3122 3366 
L 3122 2828 
Q 2878 2963 2633 3030 
Q 2388 3097 2138 3097 
Q 1578 3097 1268 2742 
Q 959 2388 959 1747 
Q 959 1106 1268 751 
Q 1578 397 2138 397 
Q 2388 397 2633 464 
Q 2878 531 3122 666 
L 3122 134 
Q 2881 22 2623 -34 
Q 2366 -91 2075 -91 
Q 1284 -91 818 406 
Q 353 903 353 1747 
Q 353 2603 823 3093 
Q 1294 3584 2113 3584 
Q 2378 3584 2631 3529 
Q 2884 3475 3122 3366 
z
" transform="scale(0.015625)"/>
       <path id="DejaVuSans-65" d="M 3597 1894 
L 3597 1613 
L 953 1613 
Q 991 1019 1311 708 
Q 1631 397 2203 397 
Q 2534 397 2845 478 
Q 3156 559 3463 722 
L 3463 178 
Q 3153 47 2828 -22 
Q 2503 -91 2169 -91 
Q 1331 -91 842 396 
Q 353 884 353 1716 
Q 353 2575 817 3079 
Q 1281 3584 2069 3584 
Q 2775 3584 3186 3129 
Q 3597 2675 3597 1894 
z
M 3022 2063 
Q 3016 2534 2758 2815 
Q 2500 3097 2075 3097 
Q 1594 3097 1305 2825 
Q 1016 2553 972 2059 
L 3022 2063 
z
" transform="scale(0.015625)"/>
       <path id="DejaVuSans-20" transform="scale(0.015625)"/>
       <path id="DejaVuSans-74" d="M 1172 4494 
L 1172 3500 
L 2356 3500 
L 2356 3053 
L 1172 3053 
L 1172 1153 
Q 1172 725 1289 603 
Q 1406 481 1766 481 
L 2356 481 
L 2356 0 
L 1766 0 
Q 1100 0 847 248 
Q 594 497 594 1153 
L 594 3053 
L 172 3053 
L 172 3500 
L 594 3500 
L 594 4494 
L 1172 4494 
z
" transform="scale(0.015625)"/>
       <path id="DejaVuSans-68" d="M 3513 2113 
L 3513 0 
L 2938 0 
L 2938 2094 
Q 2938 2591 2744 2837 
Q 2550 3084 2163 3084 
Q 1697 3084 1428 2787 
Q 1159 2491 1159 1978 
L 1159 0 
L 581 0 
L 581 4863 
L 1159 4863 
L 1159 2956 
Q 1366 3272 1645 3428 
Q 1925 3584 2291 3584 
Q 2894 3584 3203 3211 
Q 3513 2838 3513 2113 
z
" transform="scale(0.015625)"/>
       <path id="DejaVuSans-6b" d="M 581 4863 
L 1159 4863 
L 1159 1991 
L 2875 3500 
L 3609 3500 
L 1753 1863 
L 3688 0 
L 2938 0 
L 1159 1709 
L 1159 0 
L 581 0 
L 581 4863 
z
" transform="scale(0.015625)"/>
       <path id="DejaVuSans-6e" d="M 3513 2113 
L 3513 0 
L 2938 0 
L 2938 2094 
Q 2938 2591 2744 2837 
Q 2550 3084 2163 3084 
Q 1697 3084 1428 2787 
Q 1159 2491 1159 1978 
L 1159 0 
L 581 0 
L 581 3500 
L 1159 3500 
L 1159 2956 
Q 1366 3272 1645 3428 
Q 1925 3584 2291 3584 
Q 2894 3584 3203 3211 
Q 3513 2838 3513 2113 
z
" transform="scale(0.015625)"/>
       <path id="DejaVuSans-73" d="M 2834 3397 
L 2834 2853 
Q 2591 2978 2328 3040 
Q 2066 3103 1784 3103 
Q 1356 3103 1142 2972 
Q 928 2841 928 2578 
Q 928 2378 1081 2264 
Q 1234 2150 1697 2047 
L 1894 2003 
Q 2506 1872 2764 1633 
Q 3022 1394 3022 966 
Q 3022 478 2636 193 
Q 2250 -91 1575 -91 
Q 1294 -91 989 -36 
Q 684 19 347 128 
L 347 722 
Q 666 556 975 473 
Q 1284 391 1588 391 
Q 1994 391 2212 530 
Q 2431 669 2431 922 
Q 2431 1156 2273 1281 
Q 2116 1406 1581 1522 
L 1381 1569 
Q 847 1681 609 1914 
Q 372 2147 372 2553 
Q 372 3047 722 3315 
Q 1072 3584 1716 3584 
Q 2034 3584 2315 3537 
Q 2597 3491 2834 3397 
z
" transform="scale(0.015625)"/>
       <path id="DejaVuSans-52" d="M 2841 2188 
Q 3044 2119 3236 1894 
Q 3428 1669 3622 1275 
L 4263 0 
L 3584 0 
L 2988 1197 
Q 2756 1666 2539 1819 
Q 2322 1972 1947 1972 
L 1259 1972 
L 1259 0 
L 628 0 
L 628 4666 
L 2053 4666 
Q 2853 4666 3247 4331 
Q 3641 3997 3641 3322 
Q 3641 2881 3436 2590 
Q 3231 2300 2841 2188 
z
M 1259 4147 
L 1259 2491 
L 2053 2491 
Q 2509 2491 2742 2702 
Q 2975 2913 2975 3322 
Q 2975 3731 2742 3939 
Q 2509 4147 2053 4147 
L 1259 4147 
z
" transform="scale(0.015625)"/>
       <path id="DejaVuSans-44" d="M 1259 4147 
L 1259 519 
L 2022 519 
Q 2988 519 3436 956 
Q 3884 1394 3884 2338 
Q 3884 3275 3436 3711 
Q 2988 4147 2022 4147 
L 1259 4147 
z
M 628 4666 
L 1925 4666 
Q 3281 4666 3915 4102 
Q 4550 3538 4550 2338 
Q 4550 1131 3912 565 
Q 3275 0 1925 0 
L 628 0 
L 628 4666 
z
" transform="scale(0.015625)"/>
       <path id="DejaVuSans-50" d="M 1259 4147 
L 1259 2394 
L 2053 2394 
Q 2494 2394 2734 2622 
Q 2975 2850 2975 3272 
Q 2975 3691 2734 3919 
Q 2494 4147 2053 4147 
L 1259 4147 
z
M 628 4666 
L 2053 4666 
Q 2838 4666 3239 4311 
Q 3641 3956 3641 3272 
Q 3641 2581 3239 2228 
Q 2838 1875 2053 1875 
L 1259 1875 
L 1259 0 
L 628 0 
L 628 4666 
z
" transform="scale(0.015625)"/>
       <path id="DejaVuSans-5b" d="M 550 4863 
L 1875 4863 
L 1875 4416 
L 1125 4416 
L 1125 -397 
L 1875 -397 
L 1875 -844 
L 550 -844 
L 550 4863 
z
" transform="scale(0.015625)"/>
       <path id="DejaVuSans-6d" d="M 3328 2828 
Q 3544 3216 3844 3400 
Q 4144 3584 4550 3584 
Q 5097 3584 5394 3201 
Q 5691 2819 5691 2113 
L 5691 0 
L 5113 0 
L 5113 2094 
Q 5113 2597 4934 2840 
Q 4756 3084 4391 3084 
Q 3944 3084 3684 2787 
Q 3425 2491 3425 1978 
L 3425 0 
L 2847 0 
L 2847 2094 
Q 2847 2600 2669 2842 
Q 2491 3084 2119 3084 
Q 1678 3084 1418 2786 
Q 1159 2488 1159 1978 
L 1159 0 
L 581 0 
L 581 3500 
L 1159 3500 
L 1159 2956 
Q 1356 3278 1631 3431 
Q 1906 3584 2284 3584 
Q 2666 3584 2933 3390 
Q 3200 3197 3328 2828 
z
" transform="scale(0.015625)"/>
       <path id="DejaVuSans-5d" d="M 1947 4863 
L 1947 -844 
L 622 -844 
L 622 -397 
L 1369 -397 
L 1369 4416 
L 622 4416 
L 622 4863 
L 1947 4863 
z
" transform="scale(0.015625)"/>
      </defs>
      <use xlink:href="#DejaVuSans-69"/>
      <use xlink:href="#DejaVuSans-63" x="27.783203"/>
      <use xlink:href="#DejaVuSans-65" x="82.763672"/>
      <use xlink:href="#DejaVuSans-20" x="144.287109"/>
      <use xlink:href="#DejaVuSans-74" x="176.074219"/>
      <use xlink:href="#DejaVuSans-68" x="215.283203"/>
      <use xlink:href="#DejaVuSans-69" x="278.662109"/>
      <use xlink:href="#DejaVuSans-63" x="306.445312"/>
      <use xlink:href="#DejaVuSans-6b" x="361.425781"/>
      <use xlink:href="#DejaVuSans-6e" x="419.335938"/>
      <use xlink:href="#DejaVuSans-65" x="482.714844"/>
      <use xlink:href="#DejaVuSans-73" x="544.238281"/>
      <use xlink:href="#DejaVuSans-73" x="596.337891"/>
      <use xlink:href="#DejaVuSans-20" x="648.4375"/>
      <use xlink:href="#DejaVuSans-52" x="680.224609"/>
      <use xlink:href="#DejaVuSans-52" x="749.707031"/>
      <use xlink:href="#DejaVuSans-44" x="819.189453"/>
      <use xlink:href="#DejaVuSans-50" x="896.191406"/>
      <use xlink:href="#DejaVuSans-20" x="956.494141"/>
      <use xlink:href="#DejaVuSans-5b" x="988.28125"/>
      <use xlink:href="#DejaVuSans-63" x="1027.294922"/>
      <use xlink:href="#DejaVuSans-6d" x="1082.275391"/>
      <use xlink:href="#DejaVuSans-5d" x="1179.6875"/>
     </g>
    </g>
   </g>
   <g id="matplotlib.axis_2">
    <g id="ytick_1">
     <g id="line2d_13">
      <path d="M 46.965625 288.199219 
L 324.165625 288.199219 
" clip-path="url(#pa08af3f2aa)" style="fill: none; stroke: #b0b0b0; stroke-width: 0.8; stroke-linecap: square"/>
     </g>
     <g id="line2d_14">
      <defs>
       <path id="m3feed35884" d="M 0 0 
L -3.5 0 
" style="stroke: #000000; stroke-width: 0.8"/>
      </defs>
      <g>
       <use xlink:href="#m3feed35884" x="46.965625" y="288.199219" style="stroke: #000000; stroke-width: 0.8"/>
      </g>
     </g>
     <g id="text_8">
      <!-- 0 -->
      <g transform="translate(33.603125 291.998438)scale(0.1 -0.1)">
       <use xlink:href="#DejaVuSans-30"/>
      </g>
     </g>
    </g>
    <g id="ytick_2">
     <g id="line2d_15">
      <path d="M 46.965625 232.759219 
L 324.165625 232.759219 
" clip-path="url(#pa08af3f2aa)" style="fill: none; stroke: #b0b0b0; stroke-width: 0.8; stroke-linecap: square"/>
     </g>
     <g id="line2d_16">
      <g>
       <use xlink:href="#m3feed35884" x="46.965625" y="232.759219" style="stroke: #000000; stroke-width: 0.8"/>
      </g>
     </g>
     <g id="text_9">
      <!-- 20 -->
      <g transform="translate(27.240625 236.558438)scale(0.1 -0.1)">
       <use xlink:href="#DejaVuSans-32"/>
       <use xlink:href="#DejaVuSans-30" x="63.623047"/>
      </g>
     </g>
    </g>
    <g id="ytick_3">
     <g id="line2d_17">
      <path d="M 46.965625 177.319219 
L 324.165625 177.319219 
" clip-path="url(#pa08af3f2aa)" style="fill: none; stroke: #b0b0b0; stroke-width: 0.8; stroke-linecap: square"/>
     </g>
     <g id="line2d_18">
      <g>
       <use xlink:href="#m3feed35884" x="46.965625" y="177.319219" style="stroke: #000000; stroke-width: 0.8"/>
      </g>
     </g>
     <g id="text_10">
      <!-- 40 -->
      <g transform="translate(27.240625 181.118437)scale(0.1 -0.1)">
       <use xlink:href="#DejaVuSans-34"/>
       <use xlink:href="#DejaVuSans-30" x="63.623047"/>
      </g>
     </g>
    </g>
    <g id="ytick_4">
     <g id="line2d_19">
      <path d="M 46.965625 121.879219 
L 324.165625 121.879219 
" clip-path="url(#pa08af3f2aa)" style="fill: none; stroke: #b0b0b0; stroke-width: 0.8; stroke-linecap: square"/>
     </g>
     <g id="line2d_20">
      <g>
       <use xlink:href="#m3feed35884" x="46.965625" y="121.879219" style="stroke: #000000; stroke-width: 0.8"/>
      </g>
     </g>
     <g id="text_11">
      <!-- 60 -->
      <g transform="translate(27.240625 125.678437)scale(0.1 -0.1)">
       <use xlink:href="#DejaVuSans-36"/>
       <use xlink:href="#DejaVuSans-30" x="63.623047"/>
      </g>
     </g>
    </g>
    <g id="ytick_5">
     <g id="line2d_21">
      <path d="M 46.965625 66.439219 
L 324.165625 66.439219 
" clip-path="url(#pa08af3f2aa)" style="fill: none; stroke: #b0b0b0; stroke-width: 0.8; stroke-linecap: square"/>
     </g>
     <g id="line2d_22">
      <g>
       <use xlink:href="#m3feed35884" x="46.965625" y="66.439219" style="stroke: #000000; stroke-width: 0.8"/>
      </g>
     </g>
     <g id="text_12">
      <!-- 80 -->
      <g transform="translate(27.240625 70.238437)scale(0.1 -0.1)">
       <use xlink:href="#DejaVuSans-38"/>
       <use xlink:href="#DejaVuSans-30" x="63.623047"/>
      </g>
     </g>
    </g>
    <g id="ytick_6">
     <g id="line2d_23">
      <path d="M 46.965625 10.999219 
L 324.165625 10.999219 
" clip-path="url(#pa08af3f2aa)" style="fill: none; stroke: #b0b0b0; stroke-width: 0.8; stroke-linecap: square"/>
     </g>
     <g id="line2d_24">
      <g>
       <use xlink:href="#m3feed35884" x="46.965625" y="10.999219" style="stroke: #000000; stroke-width: 0.8"/>
      </g>
     </g>
     <g id="text_13">
      <!-- 100 -->
      <g transform="translate(20.878125 14.798438)scale(0.1 -0.1)">
       <use xlink:href="#DejaVuSans-31"/>
       <use xlink:href="#DejaVuSans-30" x="63.623047"/>
       <use xlink:href="#DejaVuSans-30" x="127.246094"/>
      </g>
     </g>
    </g>
    <g id="text_14">
     <!-- ice thickness CIMR retrieval [cm] -->
     <g transform="translate(14.798438 231.976562)rotate(-90)scale(0.1 -0.1)">
      <defs>
       <path id="DejaVuSans-43" d="M 4122 4306 
L 4122 3641 
Q 3803 3938 3442 4084 
Q 3081 4231 2675 4231 
Q 1875 4231 1450 3742 
Q 1025 3253 1025 2328 
Q 1025 1406 1450 917 
Q 1875 428 2675 428 
Q 3081 428 3442 575 
Q 3803 722 4122 1019 
L 4122 359 
Q 3791 134 3420 21 
Q 3050 -91 2638 -91 
Q 1578 -91 968 557 
Q 359 1206 359 2328 
Q 359 3453 968 4101 
Q 1578 4750 2638 4750 
Q 3056 4750 3426 4639 
Q 3797 4528 4122 4306 
z
" transform="scale(0.015625)"/>
       <path id="DejaVuSans-49" d="M 628 4666 
L 1259 4666 
L 1259 0 
L 628 0 
L 628 4666 
z
" transform="scale(0.015625)"/>
       <path id="DejaVuSans-4d" d="M 628 4666 
L 1569 4666 
L 2759 1491 
L 3956 4666 
L 4897 4666 
L 4897 0 
L 4281 0 
L 4281 4097 
L 3078 897 
L 2444 897 
L 1241 4097 
L 1241 0 
L 628 0 
L 628 4666 
z
" transform="scale(0.015625)"/>
       <path id="DejaVuSans-72" d="M 2631 2963 
Q 2534 3019 2420 3045 
Q 2306 3072 2169 3072 
Q 1681 3072 1420 2755 
Q 1159 2438 1159 1844 
L 1159 0 
L 581 0 
L 581 3500 
L 1159 3500 
L 1159 2956 
Q 1341 3275 1631 3429 
Q 1922 3584 2338 3584 
Q 2397 3584 2469 3576 
Q 2541 3569 2628 3553 
L 2631 2963 
z
" transform="scale(0.015625)"/>
       <path id="DejaVuSans-76" d="M 191 3500 
L 800 3500 
L 1894 563 
L 2988 3500 
L 3597 3500 
L 2284 0 
L 1503 0 
L 191 3500 
z
" transform="scale(0.015625)"/>
       <path id="DejaVuSans-61" d="M 2194 1759 
Q 1497 1759 1228 1600 
Q 959 1441 959 1056 
Q 959 750 1161 570 
Q 1363 391 1709 391 
Q 2188 391 2477 730 
Q 2766 1069 2766 1631 
L 2766 1759 
L 2194 1759 
z
M 3341 1997 
L 3341 0 
L 2766 0 
L 2766 531 
Q 2569 213 2275 61 
Q 1981 -91 1556 -91 
Q 1019 -91 701 211 
Q 384 513 384 1019 
Q 384 1609 779 1909 
Q 1175 2209 1959 2209 
L 2766 2209 
L 2766 2266 
Q 2766 2663 2505 2880 
Q 2244 3097 1772 3097 
Q 1472 3097 1187 3025 
Q 903 2953 641 2809 
L 641 3341 
Q 956 3463 1253 3523 
Q 1550 3584 1831 3584 
Q 2591 3584 2966 3190 
Q 3341 2797 3341 1997 
z
" transform="scale(0.015625)"/>
       <path id="DejaVuSans-6c" d="M 603 4863 
L 1178 4863 
L 1178 0 
L 603 0 
L 603 4863 
z
" transform="scale(0.015625)"/>
      </defs>
      <use xlink:href="#DejaVuSans-69"/>
      <use xlink:href="#DejaVuSans-63" x="27.783203"/>
      <use xlink:href="#DejaVuSans-65" x="82.763672"/>
      <use xlink:href="#DejaVuSans-20" x="144.287109"/>
      <use xlink:href="#DejaVuSans-74" x="176.074219"/>
      <use xlink:href="#DejaVuSans-68" x="215.283203"/>
      <use xlink:href="#DejaVuSans-69" x="278.662109"/>
      <use xlink:href="#DejaVuSans-63" x="306.445312"/>
      <use xlink:href="#DejaVuSans-6b" x="361.425781"/>
      <use xlink:href="#DejaVuSans-6e" x="419.335938"/>
      <use xlink:href="#DejaVuSans-65" x="482.714844"/>
      <use xlink:href="#DejaVuSans-73" x="544.238281"/>
      <use xlink:href="#DejaVuSans-73" x="596.337891"/>
      <use xlink:href="#DejaVuSans-20" x="648.4375"/>
      <use xlink:href="#DejaVuSans-43" x="680.224609"/>
      <use xlink:href="#DejaVuSans-49" x="750.048828"/>
      <use xlink:href="#DejaVuSans-4d" x="779.541016"/>
      <use xlink:href="#DejaVuSans-52" x="865.820312"/>
      <use xlink:href="#DejaVuSans-20" x="935.302734"/>
      <use xlink:href="#DejaVuSans-72" x="967.089844"/>
      <use xlink:href="#DejaVuSans-65" x="1005.953125"/>
      <use xlink:href="#DejaVuSans-74" x="1067.476562"/>
      <use xlink:href="#DejaVuSans-72" x="1106.685547"/>
      <use xlink:href="#DejaVuSans-69" x="1147.798828"/>
      <use xlink:href="#DejaVuSans-65" x="1175.582031"/>
      <use xlink:href="#DejaVuSans-76" x="1237.105469"/>
      <use xlink:href="#DejaVuSans-61" x="1296.285156"/>
      <use xlink:href="#DejaVuSans-6c" x="1357.564453"/>
      <use xlink:href="#DejaVuSans-20" x="1385.347656"/>
      <use xlink:href="#DejaVuSans-5b" x="1417.134766"/>
      <use xlink:href="#DejaVuSans-63" x="1456.148438"/>
      <use xlink:href="#DejaVuSans-6d" x="1511.128906"/>
      <use xlink:href="#DejaVuSans-5d" x="1608.541016"/>
     </g>
    </g>
   </g>
   <g id="line2d_25">
    <path d="M 96.861625 218.53502 
L 130.125625 190.290587 
L 74.685625 250.48748 
L 119.037625 197.880412 
L 77.457625 250.369253 
L 102.405625 229.929412 
L 99.633625 216.280501 
L 113.493625 203.546332 
L 66.369625 265.359528 
L 96.861625 211.238251 
L 130.125625 158.989171 
L 80.229625 240.697622 
L 96.861625 228.032352 
L 143.985625 152.497511 
L 80.229625 251.544518 
L 83.001625 234.33953 
L 132.897625 160.964917 
L 88.545625 244.941904 
L 105.177625 203.96793 
L 66.369625 263.202739 
L 66.369625 259.481883 
L 71.913625 260.371101 
L 132.897625 190.03456 
L 99.633625 220.980501 
L 152.301625 198.300953 
L 113.493625 203.396631 
L 88.545625 237.937132 
L 91.317625 234.417687 
L 116.265625 203.087176 
L 88.545625 230.24204 
L 88.545625 246.468941 
L 113.493625 233.40482 
L 99.633625 227.521885 
L 132.897625 184.435821 
L 132.897625 184.499299 
L 110.721625 197.065252 
L 105.177625 215.825049 
L 130.125625 165.15921 
L 160.617625 157.814832 
L 177.249625 124.463613 
L 113.493625 217.085611 
L 121.809625 176.536542 
L 107.949625 220.143653 
L 132.897625 184.599805 
L 157.845625 161.565839 
L 107.949625 222.080254 
L 99.633625 222.437316 
L 113.493625 219.384564 
L 105.177625 200.575044 
L 135.669625 169.877724 
L 166.161625 118.97067 
L 113.493625 201.417711 
L 113.493625 199.494335 
L 99.633625 232.271741 
L 160.617625 160.94217 
L 121.809625 196.311983 
L 105.177625 225.262077 
L 91.317625 229.69018 
L 94.089625 234.085619 
L 85.773625 243.107793 
L 135.669625 179.096283 
L 141.213625 120.443354 
L 155.073625 168.432547 
L 94.089625 223.907355 
L 88.545625 234.851319 
L 80.229625 247.957495 
L 102.405625 198.786029 
L 105.177625 203.622506 
L 130.125625 164.223442 
L 152.301625 149.109914 
L 80.229625 249.352419 
L 177.249625 144.444298 
L 130.125625 168.237882 
L 160.617625 118.454384 
L 174.477625 78.268725 
L 160.617625 136.171029 
L 130.125625 168.11939 
L 127.353625 179.189913 
L 155.073625 151.58396 
L 143.985625 163.938321 
L 163.389625 145.159481 
L 138.441625 129.237141 
L 171.705625 111.80403 
L 143.985625 117.483174 
L 121.809625 192.651431 
L 157.845625 81.563222 
L 168.933625 179.354955 
L 116.265625 219.187254 
L 88.545625 239.835911 
L 166.161625 11.955617 
L 177.249625 152.199166 
L 135.669625 165.863813 
L 152.301625 89.051482 
L 163.389625 163.561686 
L 113.493625 194.125703 
L 146.757625 171.174787 
L 132.897625 101.569298 
L 174.477625 124.785234 
L 180.021625 158.663318 
L 96.861625 215.948301 
L 132.897625 166.39544 
L 141.213625 164.609069 
L 119.037625 190.848663 
L 138.441625 171.720695 
L 177.249625 127.772921 
L 132.897625 140.089724 
L 132.897625 101.943817 
L 121.809625 167.154528 
L 113.493625 139.717321 
L 166.161625 126.560495 
L 157.845625 121.676939 
L 141.213625 113.97497 
L 185.565625 131.833382 
L 110.721625 202.45187 
L 80.229625 249.24887 
L 91.317625 253.355221 
L 113.493625 186.561797 
L 83.001625 239.270165 
L 88.545625 245.026409 
L 113.493625 204.569911 
L 159.160927 -1 
M 174.477625 -1 
L 174.477625 112.790051 
L 152.301625 146.181473 
L 130.125625 127.478807 
L 121.809625 179.566547 
L 163.389625 165.427933 
L 185.565625 77.820149 
L 110.721625 175.030003 
L 119.037625 212.788166 
L 124.581625 187.114583 
L 110.721625 212.816202 
L 107.949625 185.912737 
L 132.897625 208.563721 
L 171.705625 153.039188 
L 124.581625 213.945578 
L 138.441625 178.885219 
L 107.949625 193.19734 
L 124.581625 153.384084 
L 174.477625 108.687272 
L 116.265625 212.776 
L 171.705625 83.981724 
L 127.353625 175.38971 
L 141.213625 74.637797 
L 119.037625 208.089225 
L 85.773625 220.785307 
L 119.037625 177.502991 
L 163.389625 94.14716 
L 110.721625 217.162842 
L 130.125625 185.084881 
L 113.493625 172.581877 
L 130.125625 202.251386 
L 113.493625 200.696709 
L 143.985625 157.979874 
L 182.793625 40.757596 
L 162.594174 -1 
M 142.874175 -1 
L 152.301625 105.193879 
L 152.301625 105.193879 
" clip-path="url(#pa08af3f2aa)" style="fill: none"/>
    <defs>
     <path id="m417ca82f2a" d="M 0 2.5 
C 0.663008 2.5 1.29895 2.236584 1.767767 1.767767 
C 2.236584 1.29895 2.5 0.663008 2.5 0 
C 2.5 -0.663008 2.236584 -1.29895 1.767767 -1.767767 
C 1.29895 -2.236584 0.663008 -2.5 0 -2.5 
C -0.663008 -2.5 -1.29895 -2.236584 -1.767767 -1.767767 
C -2.236584 -1.29895 -2.5 -0.663008 -2.5 0 
C -2.5 0.663008 -2.236584 1.29895 -1.767767 1.767767 
C -1.29895 2.236584 -0.663008 2.5 0 2.5 
z
" style="stroke: #1f77b4"/>
    </defs>
    <g clip-path="url(#pa08af3f2aa)">
     <use xlink:href="#m417ca82f2a" x="96.861625" y="218.53502" style="fill: #1f77b4; stroke: #1f77b4"/>
     <use xlink:href="#m417ca82f2a" x="130.125625" y="190.290587" style="fill: #1f77b4; stroke: #1f77b4"/>
     <use xlink:href="#m417ca82f2a" x="74.685625" y="250.48748" style="fill: #1f77b4; stroke: #1f77b4"/>
     <use xlink:href="#m417ca82f2a" x="119.037625" y="197.880412" style="fill: #1f77b4; stroke: #1f77b4"/>
     <use xlink:href="#m417ca82f2a" x="77.457625" y="250.369253" style="fill: #1f77b4; stroke: #1f77b4"/>
     <use xlink:href="#m417ca82f2a" x="102.405625" y="229.929412" style="fill: #1f77b4; stroke: #1f77b4"/>
     <use xlink:href="#m417ca82f2a" x="99.633625" y="216.280501" style="fill: #1f77b4; stroke: #1f77b4"/>
     <use xlink:href="#m417ca82f2a" x="113.493625" y="203.546332" style="fill: #1f77b4; stroke: #1f77b4"/>
     <use xlink:href="#m417ca82f2a" x="66.369625" y="265.359528" style="fill: #1f77b4; stroke: #1f77b4"/>
     <use xlink:href="#m417ca82f2a" x="96.861625" y="211.238251" style="fill: #1f77b4; stroke: #1f77b4"/>
     <use xlink:href="#m417ca82f2a" x="130.125625" y="158.989171" style="fill: #1f77b4; stroke: #1f77b4"/>
     <use xlink:href="#m417ca82f2a" x="80.229625" y="240.697622" style="fill: #1f77b4; stroke: #1f77b4"/>
     <use xlink:href="#m417ca82f2a" x="96.861625" y="228.032352" style="fill: #1f77b4; stroke: #1f77b4"/>
     <use xlink:href="#m417ca82f2a" x="143.985625" y="152.497511" style="fill: #1f77b4; stroke: #1f77b4"/>
     <use xlink:href="#m417ca82f2a" x="80.229625" y="251.544518" style="fill: #1f77b4; stroke: #1f77b4"/>
     <use xlink:href="#m417ca82f2a" x="83.001625" y="234.33953" style="fill: #1f77b4; stroke: #1f77b4"/>
     <use xlink:href="#m417ca82f2a" x="132.897625" y="160.964917" style="fill: #1f77b4; stroke: #1f77b4"/>
     <use xlink:href="#m417ca82f2a" x="88.545625" y="244.941904" style="fill: #1f77b4; stroke: #1f77b4"/>
     <use xlink:href="#m417ca82f2a" x="105.177625" y="203.96793" style="fill: #1f77b4; stroke: #1f77b4"/>
     <use xlink:href="#m417ca82f2a" x="66.369625" y="263.202739" style="fill: #1f77b4; stroke: #1f77b4"/>
     <use xlink:href="#m417ca82f2a" x="66.369625" y="259.481883" style="fill: #1f77b4; stroke: #1f77b4"/>
     <use xlink:href="#m417ca82f2a" x="71.913625" y="260.371101" style="fill: #1f77b4; stroke: #1f77b4"/>
     <use xlink:href="#m417ca82f2a" x="132.897625" y="190.03456" style="fill: #1f77b4; stroke: #1f77b4"/>
     <use xlink:href="#m417ca82f2a" x="99.633625" y="220.980501" style="fill: #1f77b4; stroke: #1f77b4"/>
     <use xlink:href="#m417ca82f2a" x="152.301625" y="198.300953" style="fill: #1f77b4; stroke: #1f77b4"/>
     <use xlink:href="#m417ca82f2a" x="113.493625" y="203.396631" style="fill: #1f77b4; stroke: #1f77b4"/>
     <use xlink:href="#m417ca82f2a" x="88.545625" y="237.937132" style="fill: #1f77b4; stroke: #1f77b4"/>
     <use xlink:href="#m417ca82f2a" x="91.317625" y="234.417687" style="fill: #1f77b4; stroke: #1f77b4"/>
     <use xlink:href="#m417ca82f2a" x="116.265625" y="203.087176" style="fill: #1f77b4; stroke: #1f77b4"/>
     <use xlink:href="#m417ca82f2a" x="88.545625" y="230.24204" style="fill: #1f77b4; stroke: #1f77b4"/>
     <use xlink:href="#m417ca82f2a" x="88.545625" y="246.468941" style="fill: #1f77b4; stroke: #1f77b4"/>
     <use xlink:href="#m417ca82f2a" x="113.493625" y="233.40482" style="fill: #1f77b4; stroke: #1f77b4"/>
     <use xlink:href="#m417ca82f2a" x="99.633625" y="227.521885" style="fill: #1f77b4; stroke: #1f77b4"/>
     <use xlink:href="#m417ca82f2a" x="132.897625" y="184.435821" style="fill: #1f77b4; stroke: #1f77b4"/>
     <use xlink:href="#m417ca82f2a" x="132.897625" y="184.499299" style="fill: #1f77b4; stroke: #1f77b4"/>
     <use xlink:href="#m417ca82f2a" x="110.721625" y="197.065252" style="fill: #1f77b4; stroke: #1f77b4"/>
     <use xlink:href="#m417ca82f2a" x="105.177625" y="215.825049" style="fill: #1f77b4; stroke: #1f77b4"/>
     <use xlink:href="#m417ca82f2a" x="130.125625" y="165.15921" style="fill: #1f77b4; stroke: #1f77b4"/>
     <use xlink:href="#m417ca82f2a" x="160.617625" y="157.814832" style="fill: #1f77b4; stroke: #1f77b4"/>
     <use xlink:href="#m417ca82f2a" x="177.249625" y="124.463613" style="fill: #1f77b4; stroke: #1f77b4"/>
     <use xlink:href="#m417ca82f2a" x="113.493625" y="217.085611" style="fill: #1f77b4; stroke: #1f77b4"/>
     <use xlink:href="#m417ca82f2a" x="121.809625" y="176.536542" style="fill: #1f77b4; stroke: #1f77b4"/>
     <use xlink:href="#m417ca82f2a" x="107.949625" y="220.143653" style="fill: #1f77b4; stroke: #1f77b4"/>
     <use xlink:href="#m417ca82f2a" x="132.897625" y="184.599805" style="fill: #1f77b4; stroke: #1f77b4"/>
     <use xlink:href="#m417ca82f2a" x="157.845625" y="161.565839" style="fill: #1f77b4; stroke: #1f77b4"/>
     <use xlink:href="#m417ca82f2a" x="107.949625" y="222.080254" style="fill: #1f77b4; stroke: #1f77b4"/>
     <use xlink:href="#m417ca82f2a" x="99.633625" y="222.437316" style="fill: #1f77b4; stroke: #1f77b4"/>
     <use xlink:href="#m417ca82f2a" x="113.493625" y="219.384564" style="fill: #1f77b4; stroke: #1f77b4"/>
     <use xlink:href="#m417ca82f2a" x="105.177625" y="200.575044" style="fill: #1f77b4; stroke: #1f77b4"/>
     <use xlink:href="#m417ca82f2a" x="135.669625" y="169.877724" style="fill: #1f77b4; stroke: #1f77b4"/>
     <use xlink:href="#m417ca82f2a" x="166.161625" y="118.97067" style="fill: #1f77b4; stroke: #1f77b4"/>
     <use xlink:href="#m417ca82f2a" x="113.493625" y="201.417711" style="fill: #1f77b4; stroke: #1f77b4"/>
     <use xlink:href="#m417ca82f2a" x="113.493625" y="199.494335" style="fill: #1f77b4; stroke: #1f77b4"/>
     <use xlink:href="#m417ca82f2a" x="99.633625" y="232.271741" style="fill: #1f77b4; stroke: #1f77b4"/>
     <use xlink:href="#m417ca82f2a" x="160.617625" y="160.94217" style="fill: #1f77b4; stroke: #1f77b4"/>
     <use xlink:href="#m417ca82f2a" x="121.809625" y="196.311983" style="fill: #1f77b4; stroke: #1f77b4"/>
     <use xlink:href="#m417ca82f2a" x="105.177625" y="225.262077" style="fill: #1f77b4; stroke: #1f77b4"/>
     <use xlink:href="#m417ca82f2a" x="91.317625" y="229.69018" style="fill: #1f77b4; stroke: #1f77b4"/>
     <use xlink:href="#m417ca82f2a" x="94.089625" y="234.085619" style="fill: #1f77b4; stroke: #1f77b4"/>
     <use xlink:href="#m417ca82f2a" x="85.773625" y="243.107793" style="fill: #1f77b4; stroke: #1f77b4"/>
     <use xlink:href="#m417ca82f2a" x="135.669625" y="179.096283" style="fill: #1f77b4; stroke: #1f77b4"/>
     <use xlink:href="#m417ca82f2a" x="141.213625" y="120.443354" style="fill: #1f77b4; stroke: #1f77b4"/>
     <use xlink:href="#m417ca82f2a" x="155.073625" y="168.432547" style="fill: #1f77b4; stroke: #1f77b4"/>
     <use xlink:href="#m417ca82f2a" x="94.089625" y="223.907355" style="fill: #1f77b4; stroke: #1f77b4"/>
     <use xlink:href="#m417ca82f2a" x="88.545625" y="234.851319" style="fill: #1f77b4; stroke: #1f77b4"/>
     <use xlink:href="#m417ca82f2a" x="80.229625" y="247.957495" style="fill: #1f77b4; stroke: #1f77b4"/>
     <use xlink:href="#m417ca82f2a" x="102.405625" y="198.786029" style="fill: #1f77b4; stroke: #1f77b4"/>
     <use xlink:href="#m417ca82f2a" x="105.177625" y="203.622506" style="fill: #1f77b4; stroke: #1f77b4"/>
     <use xlink:href="#m417ca82f2a" x="130.125625" y="164.223442" style="fill: #1f77b4; stroke: #1f77b4"/>
     <use xlink:href="#m417ca82f2a" x="152.301625" y="149.109914" style="fill: #1f77b4; stroke: #1f77b4"/>
     <use xlink:href="#m417ca82f2a" x="80.229625" y="249.352419" style="fill: #1f77b4; stroke: #1f77b4"/>
     <use xlink:href="#m417ca82f2a" x="177.249625" y="144.444298" style="fill: #1f77b4; stroke: #1f77b4"/>
     <use xlink:href="#m417ca82f2a" x="130.125625" y="168.237882" style="fill: #1f77b4; stroke: #1f77b4"/>
     <use xlink:href="#m417ca82f2a" x="160.617625" y="118.454384" style="fill: #1f77b4; stroke: #1f77b4"/>
     <use xlink:href="#m417ca82f2a" x="174.477625" y="78.268725" style="fill: #1f77b4; stroke: #1f77b4"/>
     <use xlink:href="#m417ca82f2a" x="160.617625" y="136.171029" style="fill: #1f77b4; stroke: #1f77b4"/>
     <use xlink:href="#m417ca82f2a" x="130.125625" y="168.11939" style="fill: #1f77b4; stroke: #1f77b4"/>
     <use xlink:href="#m417ca82f2a" x="127.353625" y="179.189913" style="fill: #1f77b4; stroke: #1f77b4"/>
     <use xlink:href="#m417ca82f2a" x="155.073625" y="151.58396" style="fill: #1f77b4; stroke: #1f77b4"/>
     <use xlink:href="#m417ca82f2a" x="143.985625" y="163.938321" style="fill: #1f77b4; stroke: #1f77b4"/>
     <use xlink:href="#m417ca82f2a" x="163.389625" y="145.159481" style="fill: #1f77b4; stroke: #1f77b4"/>
     <use xlink:href="#m417ca82f2a" x="138.441625" y="129.237141" style="fill: #1f77b4; stroke: #1f77b4"/>
     <use xlink:href="#m417ca82f2a" x="171.705625" y="111.80403" style="fill: #1f77b4; stroke: #1f77b4"/>
     <use xlink:href="#m417ca82f2a" x="143.985625" y="117.483174" style="fill: #1f77b4; stroke: #1f77b4"/>
     <use xlink:href="#m417ca82f2a" x="121.809625" y="192.651431" style="fill: #1f77b4; stroke: #1f77b4"/>
     <use xlink:href="#m417ca82f2a" x="157.845625" y="81.563222" style="fill: #1f77b4; stroke: #1f77b4"/>
     <use xlink:href="#m417ca82f2a" x="168.933625" y="179.354955" style="fill: #1f77b4; stroke: #1f77b4"/>
     <use xlink:href="#m417ca82f2a" x="116.265625" y="219.187254" style="fill: #1f77b4; stroke: #1f77b4"/>
     <use xlink:href="#m417ca82f2a" x="88.545625" y="239.835911" style="fill: #1f77b4; stroke: #1f77b4"/>
     <use xlink:href="#m417ca82f2a" x="166.161625" y="11.955617" style="fill: #1f77b4; stroke: #1f77b4"/>
     <use xlink:href="#m417ca82f2a" x="177.249625" y="152.199166" style="fill: #1f77b4; stroke: #1f77b4"/>
     <use xlink:href="#m417ca82f2a" x="135.669625" y="165.863813" style="fill: #1f77b4; stroke: #1f77b4"/>
     <use xlink:href="#m417ca82f2a" x="152.301625" y="89.051482" style="fill: #1f77b4; stroke: #1f77b4"/>
     <use xlink:href="#m417ca82f2a" x="163.389625" y="163.561686" style="fill: #1f77b4; stroke: #1f77b4"/>
     <use xlink:href="#m417ca82f2a" x="113.493625" y="194.125703" style="fill: #1f77b4; stroke: #1f77b4"/>
     <use xlink:href="#m417ca82f2a" x="146.757625" y="171.174787" style="fill: #1f77b4; stroke: #1f77b4"/>
     <use xlink:href="#m417ca82f2a" x="132.897625" y="101.569298" style="fill: #1f77b4; stroke: #1f77b4"/>
     <use xlink:href="#m417ca82f2a" x="174.477625" y="124.785234" style="fill: #1f77b4; stroke: #1f77b4"/>
     <use xlink:href="#m417ca82f2a" x="180.021625" y="158.663318" style="fill: #1f77b4; stroke: #1f77b4"/>
     <use xlink:href="#m417ca82f2a" x="96.861625" y="215.948301" style="fill: #1f77b4; stroke: #1f77b4"/>
     <use xlink:href="#m417ca82f2a" x="132.897625" y="166.39544" style="fill: #1f77b4; stroke: #1f77b4"/>
     <use xlink:href="#m417ca82f2a" x="141.213625" y="164.609069" style="fill: #1f77b4; stroke: #1f77b4"/>
     <use xlink:href="#m417ca82f2a" x="119.037625" y="190.848663" style="fill: #1f77b4; stroke: #1f77b4"/>
     <use xlink:href="#m417ca82f2a" x="138.441625" y="171.720695" style="fill: #1f77b4; stroke: #1f77b4"/>
     <use xlink:href="#m417ca82f2a" x="177.249625" y="127.772921" style="fill: #1f77b4; stroke: #1f77b4"/>
     <use xlink:href="#m417ca82f2a" x="132.897625" y="140.089724" style="fill: #1f77b4; stroke: #1f77b4"/>
     <use xlink:href="#m417ca82f2a" x="132.897625" y="101.943817" style="fill: #1f77b4; stroke: #1f77b4"/>
     <use xlink:href="#m417ca82f2a" x="121.809625" y="167.154528" style="fill: #1f77b4; stroke: #1f77b4"/>
     <use xlink:href="#m417ca82f2a" x="113.493625" y="139.717321" style="fill: #1f77b4; stroke: #1f77b4"/>
     <use xlink:href="#m417ca82f2a" x="166.161625" y="126.560495" style="fill: #1f77b4; stroke: #1f77b4"/>
     <use xlink:href="#m417ca82f2a" x="157.845625" y="121.676939" style="fill: #1f77b4; stroke: #1f77b4"/>
     <use xlink:href="#m417ca82f2a" x="141.213625" y="113.97497" style="fill: #1f77b4; stroke: #1f77b4"/>
     <use xlink:href="#m417ca82f2a" x="185.565625" y="131.833382" style="fill: #1f77b4; stroke: #1f77b4"/>
     <use xlink:href="#m417ca82f2a" x="110.721625" y="202.45187" style="fill: #1f77b4; stroke: #1f77b4"/>
     <use xlink:href="#m417ca82f2a" x="80.229625" y="249.24887" style="fill: #1f77b4; stroke: #1f77b4"/>
     <use xlink:href="#m417ca82f2a" x="91.317625" y="253.355221" style="fill: #1f77b4; stroke: #1f77b4"/>
     <use xlink:href="#m417ca82f2a" x="113.493625" y="186.561797" style="fill: #1f77b4; stroke: #1f77b4"/>
     <use xlink:href="#m417ca82f2a" x="83.001625" y="239.270165" style="fill: #1f77b4; stroke: #1f77b4"/>
     <use xlink:href="#m417ca82f2a" x="88.545625" y="245.026409" style="fill: #1f77b4; stroke: #1f77b4"/>
     <use xlink:href="#m417ca82f2a" x="113.493625" y="204.569911" style="fill: #1f77b4; stroke: #1f77b4"/>
     <use xlink:href="#m417ca82f2a" x="159.160927" y="-1" style="fill: #1f77b4; stroke: #1f77b4"/>
     <use xlink:href="#m417ca82f2a" x="174.477625" y="-1" style="fill: #1f77b4; stroke: #1f77b4"/>
     <use xlink:href="#m417ca82f2a" x="174.477625" y="112.790051" style="fill: #1f77b4; stroke: #1f77b4"/>
     <use xlink:href="#m417ca82f2a" x="152.301625" y="146.181473" style="fill: #1f77b4; stroke: #1f77b4"/>
     <use xlink:href="#m417ca82f2a" x="130.125625" y="127.478807" style="fill: #1f77b4; stroke: #1f77b4"/>
     <use xlink:href="#m417ca82f2a" x="121.809625" y="179.566547" style="fill: #1f77b4; stroke: #1f77b4"/>
     <use xlink:href="#m417ca82f2a" x="163.389625" y="165.427933" style="fill: #1f77b4; stroke: #1f77b4"/>
     <use xlink:href="#m417ca82f2a" x="185.565625" y="77.820149" style="fill: #1f77b4; stroke: #1f77b4"/>
     <use xlink:href="#m417ca82f2a" x="110.721625" y="175.030003" style="fill: #1f77b4; stroke: #1f77b4"/>
     <use xlink:href="#m417ca82f2a" x="119.037625" y="212.788166" style="fill: #1f77b4; stroke: #1f77b4"/>
     <use xlink:href="#m417ca82f2a" x="124.581625" y="187.114583" style="fill: #1f77b4; stroke: #1f77b4"/>
     <use xlink:href="#m417ca82f2a" x="110.721625" y="212.816202" style="fill: #1f77b4; stroke: #1f77b4"/>
     <use xlink:href="#m417ca82f2a" x="107.949625" y="185.912737" style="fill: #1f77b4; stroke: #1f77b4"/>
     <use xlink:href="#m417ca82f2a" x="132.897625" y="208.563721" style="fill: #1f77b4; stroke: #1f77b4"/>
     <use xlink:href="#m417ca82f2a" x="171.705625" y="153.039188" style="fill: #1f77b4; stroke: #1f77b4"/>
     <use xlink:href="#m417ca82f2a" x="124.581625" y="213.945578" style="fill: #1f77b4; stroke: #1f77b4"/>
     <use xlink:href="#m417ca82f2a" x="138.441625" y="178.885219" style="fill: #1f77b4; stroke: #1f77b4"/>
     <use xlink:href="#m417ca82f2a" x="107.949625" y="193.19734" style="fill: #1f77b4; stroke: #1f77b4"/>
     <use xlink:href="#m417ca82f2a" x="124.581625" y="153.384084" style="fill: #1f77b4; stroke: #1f77b4"/>
     <use xlink:href="#m417ca82f2a" x="174.477625" y="108.687272" style="fill: #1f77b4; stroke: #1f77b4"/>
     <use xlink:href="#m417ca82f2a" x="116.265625" y="212.776" style="fill: #1f77b4; stroke: #1f77b4"/>
     <use xlink:href="#m417ca82f2a" x="171.705625" y="83.981724" style="fill: #1f77b4; stroke: #1f77b4"/>
     <use xlink:href="#m417ca82f2a" x="127.353625" y="175.38971" style="fill: #1f77b4; stroke: #1f77b4"/>
     <use xlink:href="#m417ca82f2a" x="141.213625" y="74.637797" style="fill: #1f77b4; stroke: #1f77b4"/>
     <use xlink:href="#m417ca82f2a" x="119.037625" y="208.089225" style="fill: #1f77b4; stroke: #1f77b4"/>
     <use xlink:href="#m417ca82f2a" x="85.773625" y="220.785307" style="fill: #1f77b4; stroke: #1f77b4"/>
     <use xlink:href="#m417ca82f2a" x="119.037625" y="177.502991" style="fill: #1f77b4; stroke: #1f77b4"/>
     <use xlink:href="#m417ca82f2a" x="163.389625" y="94.14716" style="fill: #1f77b4; stroke: #1f77b4"/>
     <use xlink:href="#m417ca82f2a" x="110.721625" y="217.162842" style="fill: #1f77b4; stroke: #1f77b4"/>
     <use xlink:href="#m417ca82f2a" x="130.125625" y="185.084881" style="fill: #1f77b4; stroke: #1f77b4"/>
     <use xlink:href="#m417ca82f2a" x="113.493625" y="172.581877" style="fill: #1f77b4; stroke: #1f77b4"/>
     <use xlink:href="#m417ca82f2a" x="130.125625" y="202.251386" style="fill: #1f77b4; stroke: #1f77b4"/>
     <use xlink:href="#m417ca82f2a" x="113.493625" y="200.696709" style="fill: #1f77b4; stroke: #1f77b4"/>
     <use xlink:href="#m417ca82f2a" x="143.985625" y="157.979874" style="fill: #1f77b4; stroke: #1f77b4"/>
     <use xlink:href="#m417ca82f2a" x="182.793625" y="40.757596" style="fill: #1f77b4; stroke: #1f77b4"/>
     <use xlink:href="#m417ca82f2a" x="162.594174" y="-1" style="fill: #1f77b4; stroke: #1f77b4"/>
     <use xlink:href="#m417ca82f2a" x="142.874175" y="-1" style="fill: #1f77b4; stroke: #1f77b4"/>
     <use xlink:href="#m417ca82f2a" x="152.301625" y="105.193879" style="fill: #1f77b4; stroke: #1f77b4"/>
    </g>
   </g>
   <g id="line2d_26">
    <path d="M 46.965625 288.199219 
L 324.165625 10.999219 
" clip-path="url(#pa08af3f2aa)" style="fill: none; stroke: #000000; stroke-width: 1.5; stroke-linecap: square"/>
   </g>
   <g id="line2d_27">
    <path d="M 46.965625 296.422323 
L 49.737625 292.26339 
L 52.509625 288.104457 
L 55.281625 283.945524 
L 58.053625 279.786591 
L 60.825625 275.627658 
L 63.597625 271.468725 
L 66.369625 267.309792 
L 69.141625 263.150859 
L 71.913625 258.991926 
L 74.685625 254.832992 
L 77.457625 250.674059 
L 80.229625 246.515126 
L 83.001625 242.356193 
L 85.773625 238.19726 
L 88.545625 234.038327 
L 91.317625 229.879394 
L 94.089625 225.720461 
L 96.861625 221.561528 
L 99.633625 217.402595 
L 102.405625 213.243662 
L 105.177625 209.084728 
L 107.949625 204.925795 
L 110.721625 200.766862 
L 113.493625 196.607929 
L 116.265625 192.448996 
L 119.037625 188.290063 
L 121.809625 184.13113 
L 124.581625 179.972197 
L 127.353625 175.813264 
L 130.125625 171.654331 
L 132.897625 167.495398 
L 135.669625 163.336465 
L 138.441625 159.177531 
L 141.213625 155.018598 
L 143.985625 150.859665 
L 146.757625 146.700732 
L 149.529625 142.541799 
L 152.301625 138.382866 
L 155.073625 134.223933 
L 157.845625 130.065 
L 160.617625 125.906067 
L 163.389625 121.747134 
L 166.161625 117.588201 
L 168.933625 113.429267 
L 171.705625 109.270334 
L 174.477625 105.111401 
L 177.249625 100.952468 
L 180.021625 96.793535 
L 182.793625 92.634602 
L 185.565625 88.475669 
L 188.337625 84.316736 
L 191.109625 80.157803 
L 193.881625 75.99887 
L 196.653625 71.839937 
L 199.425625 67.681004 
L 202.197625 63.52207 
L 204.969625 59.363137 
L 207.741625 55.204204 
L 210.513625 51.045271 
L 213.285625 46.886338 
L 216.057625 42.727405 
L 218.829625 38.568472 
L 221.601625 34.409539 
L 224.373625 30.250606 
L 227.145625 26.091673 
L 229.917625 21.93274 
L 232.689625 17.773806 
L 235.461625 13.614873 
L 238.233625 9.45594 
L 241.005625 5.297007 
L 243.777625 1.138074 
L 245.202688 -1 
" clip-path="url(#pa08af3f2aa)" style="fill: none; stroke: #ff7f0e; stroke-width: 1.5; stroke-linecap: square"/>
   </g>
   <g id="patch_3">
    <path d="M 46.965625 288.199219 
L 46.965625 10.999219 
" style="fill: none; stroke: #000000; stroke-width: 0.8; stroke-linejoin: miter; stroke-linecap: square"/>
   </g>
   <g id="patch_4">
    <path d="M 324.165625 288.199219 
L 324.165625 10.999219 
" style="fill: none; stroke: #000000; stroke-width: 0.8; stroke-linejoin: miter; stroke-linecap: square"/>
   </g>
   <g id="patch_5">
    <path d="M 46.965625 288.199219 
L 324.165625 288.199219 
" style="fill: none; stroke: #000000; stroke-width: 0.8; stroke-linejoin: miter; stroke-linecap: square"/>
   </g>
   <g id="patch_6">
    <path d="M 46.965625 10.999219 
L 324.165625 10.999219 
" style="fill: none; stroke: #000000; stroke-width: 0.8; stroke-linejoin: miter; stroke-linecap: square"/>
   </g>
   <g id="text_15">
    <!-- y=mx+b -->
    <g transform="translate(216 220.162031)scale(0.1 -0.1)">
     <defs>
      <path id="DejaVuSans-79" d="M 2059 -325 
Q 1816 -950 1584 -1140 
Q 1353 -1331 966 -1331 
L 506 -1331 
L 506 -850 
L 844 -850 
Q 1081 -850 1212 -737 
Q 1344 -625 1503 -206 
L 1606 56 
L 191 3500 
L 800 3500 
L 1894 763 
L 2988 3500 
L 3597 3500 
L 2059 -325 
z
" transform="scale(0.015625)"/>
      <path id="DejaVuSans-3d" d="M 678 2906 
L 4684 2906 
L 4684 2381 
L 678 2381 
L 678 2906 
z
M 678 1631 
L 4684 1631 
L 4684 1100 
L 678 1100 
L 678 1631 
z
" transform="scale(0.015625)"/>
      <path id="DejaVuSans-78" d="M 3513 3500 
L 2247 1797 
L 3578 0 
L 2900 0 
L 1881 1375 
L 863 0 
L 184 0 
L 1544 1831 
L 300 3500 
L 978 3500 
L 1906 2253 
L 2834 3500 
L 3513 3500 
z
" transform="scale(0.015625)"/>
      <path id="DejaVuSans-2b" d="M 2944 4013 
L 2944 2272 
L 4684 2272 
L 4684 1741 
L 2944 1741 
L 2944 0 
L 2419 0 
L 2419 1741 
L 678 1741 
L 678 2272 
L 2419 2272 
L 2419 4013 
L 2944 4013 
z
" transform="scale(0.015625)"/>
      <path id="DejaVuSans-62" d="M 3116 1747 
Q 3116 2381 2855 2742 
Q 2594 3103 2138 3103 
Q 1681 3103 1420 2742 
Q 1159 2381 1159 1747 
Q 1159 1113 1420 752 
Q 1681 391 2138 391 
Q 2594 391 2855 752 
Q 3116 1113 3116 1747 
z
M 1159 2969 
Q 1341 3281 1617 3432 
Q 1894 3584 2278 3584 
Q 2916 3584 3314 3078 
Q 3713 2572 3713 1747 
Q 3713 922 3314 415 
Q 2916 -91 2278 -91 
Q 1894 -91 1617 61 
Q 1341 213 1159 525 
L 1159 0 
L 581 0 
L 581 4863 
L 1159 4863 
L 1159 2969 
z
" transform="scale(0.015625)"/>
     </defs>
     <use xlink:href="#DejaVuSans-79"/>
     <use xlink:href="#DejaVuSans-3d" x="59.179688"/>
     <use xlink:href="#DejaVuSans-6d" x="142.96875"/>
     <use xlink:href="#DejaVuSans-78" x="240.380859"/>
     <use xlink:href="#DejaVuSans-2b" x="299.560547"/>
     <use xlink:href="#DejaVuSans-62" x="383.349609"/>
    </g>
    <!--  m=1.50 -->
    <g transform="translate(216 231.359844)scale(0.1 -0.1)">
     <defs>
      <path id="DejaVuSans-2e" d="M 684 794 
L 1344 794 
L 1344 0 
L 684 0 
L 684 794 
z
" transform="scale(0.015625)"/>
      <path id="DejaVuSans-35" d="M 691 4666 
L 3169 4666 
L 3169 4134 
L 1269 4134 
L 1269 2991 
Q 1406 3038 1543 3061 
Q 1681 3084 1819 3084 
Q 2600 3084 3056 2656 
Q 3513 2228 3513 1497 
Q 3513 744 3044 326 
Q 2575 -91 1722 -91 
Q 1428 -91 1123 -41 
Q 819 9 494 109 
L 494 744 
Q 775 591 1075 516 
Q 1375 441 1709 441 
Q 2250 441 2565 725 
Q 2881 1009 2881 1497 
Q 2881 1984 2565 2268 
Q 2250 2553 1709 2553 
Q 1456 2553 1204 2497 
Q 953 2441 691 2322 
L 691 4666 
z
" transform="scale(0.015625)"/>
     </defs>
     <use xlink:href="#DejaVuSans-20"/>
     <use xlink:href="#DejaVuSans-6d" x="31.787109"/>
     <use xlink:href="#DejaVuSans-3d" x="129.199219"/>
     <use xlink:href="#DejaVuSans-31" x="212.988281"/>
     <use xlink:href="#DejaVuSans-2e" x="276.611328"/>
     <use xlink:href="#DejaVuSans-35" x="308.398438"/>
     <use xlink:href="#DejaVuSans-30" x="372.021484"/>
    </g>
    <!-- b=-2.97 -->
    <g transform="translate(216 242.557656)scale(0.1 -0.1)">
     <defs>
      <path id="DejaVuSans-2d" d="M 313 2009 
L 1997 2009 
L 1997 1497 
L 313 1497 
L 313 2009 
z
" transform="scale(0.015625)"/>
      <path id="DejaVuSans-39" d="M 703 97 
L 703 672 
Q 941 559 1184 500 
Q 1428 441 1663 441 
Q 2288 441 2617 861 
Q 2947 1281 2994 2138 
Q 2813 1869 2534 1725 
Q 2256 1581 1919 1581 
Q 1219 1581 811 2004 
Q 403 2428 403 3163 
Q 403 3881 828 4315 
Q 1253 4750 1959 4750 
Q 2769 4750 3195 4129 
Q 3622 3509 3622 2328 
Q 3622 1225 3098 567 
Q 2575 -91 1691 -91 
Q 1453 -91 1209 -44 
Q 966 3 703 97 
z
M 1959 2075 
Q 2384 2075 2632 2365 
Q 2881 2656 2881 3163 
Q 2881 3666 2632 3958 
Q 2384 4250 1959 4250 
Q 1534 4250 1286 3958 
Q 1038 3666 1038 3163 
Q 1038 2656 1286 2365 
Q 1534 2075 1959 2075 
z
" transform="scale(0.015625)"/>
      <path id="DejaVuSans-37" d="M 525 4666 
L 3525 4666 
L 3525 4397 
L 1831 0 
L 1172 0 
L 2766 4134 
L 525 4134 
L 525 4666 
z
" transform="scale(0.015625)"/>
     </defs>
     <use xlink:href="#DejaVuSans-62"/>
     <use xlink:href="#DejaVuSans-3d" x="63.476562"/>
     <use xlink:href="#DejaVuSans-2d" x="147.265625"/>
     <use xlink:href="#DejaVuSans-32" x="183.349609"/>
     <use xlink:href="#DejaVuSans-2e" x="246.972656"/>
     <use xlink:href="#DejaVuSans-39" x="278.759766"/>
     <use xlink:href="#DejaVuSans-37" x="342.382812"/>
    </g>
    <!-- r=0.80 -->
    <g transform="translate(216 253.755469)scale(0.1 -0.1)">
     <use xlink:href="#DejaVuSans-72"/>
     <use xlink:href="#DejaVuSans-3d" x="41.113281"/>
     <use xlink:href="#DejaVuSans-30" x="124.902344"/>
     <use xlink:href="#DejaVuSans-2e" x="188.525391"/>
     <use xlink:href="#DejaVuSans-38" x="220.3125"/>
     <use xlink:href="#DejaVuSans-30" x="283.935547"/>
    </g>
   </g>
  </g>
 </g>
 <defs>
  <clipPath id="pa08af3f2aa">
   <rect x="46.965625" y="10.999219" width="277.2" height="277.2"/>
  </clipPath>
 </defs>
</svg>