<?xml version="1.0" encoding="utf-8" standalone="no"?>
<!DOCTYPE svg PUBLIC "-//W3C//DTD SVG 1.1//EN"
  "http://www.w3.org/Graphics/SVG/1.1/DTD/svg11.dtd">
<svg xmlns:xlink="http://www.w3.org/1999/xlink" width="621.709375pt" height="291.164164pt" viewBox="0 0 621.709375 291.164164" xmlns="http://www.w3.org/2000/svg" version="1.1">
 <metadata>
  <rdf:RDF xmlns:dc="http://purl.org/dc/elements/1.1/" xmlns:cc="http://creativecommons.org/ns#" xmlns:rdf="http://www.w3.org/1999/02/22-rdf-syntax-ns#">
   <cc:Work>
    <dc:type rdf:resource="http://purl.org/dc/dcmitype/StillImage"/>
    <dc:date>2022-10-11T19:47:53.722801</dc:date>
    <dc:format>image/svg+xml</dc:format>
    <dc:creator>
     <cc:Agent>
      <dc:title>Matplotlib v3.5.3, https://matplotlib.org/</dc:title>
     </cc:Agent>
    </dc:creator>
   </cc:Work>
  </rdf:RDF>
 </metadata>
 <defs>
  <style type="text/css">*{stroke-linejoin: round; stroke-linecap: butt}</style>
 </defs>
 <g id="figure_1">
  <g id="patch_1">
   <path d="M 0 291.164164 
L 621.709375 291.164164 
L 621.709375 0 
L 0 0 
z
" style="fill: #ffffff"/>
  </g>
  <g id="axes_1">
   <g id="patch_2">
    <path d="M 46.965625 253.607914 
L 289.574321 253.607914 
L 289.574321 10.999219 
L 46.965625 10.999219 
z
" style="fill: #ffffff"/>
   </g>
   <g id="matplotlib.axis_1">
    <g id="xtick_1">
     <g id="line2d_1">
      <path d="M 46.965625 253.607914 
L 46.965625 10.999219 
" clip-path="url(#p5a717c6df6)" style="fill: none; stroke-dasharray: 2.96,1.28; stroke-dashoffset: 0; stroke: #b0b0b0; stroke-opacity: 0.3; stroke-width: 0.8"/>
     </g>
     <g id="line2d_2">
      <defs>
       <path id="m6af223225a" d="M 0 0 
L 0 3.5 
" style="stroke: #000000; stroke-width: 0.8"/>
      </defs>
      <g>
       <use xlink:href="#m6af223225a" x="46.965625" y="253.607914" style="stroke: #000000; stroke-width: 0.8"/>
      </g>
     </g>
     <g id="text_1">
      <!-- 0 -->
      <g transform="translate(43.784375 268.206352)scale(0.1 -0.1)">
       <defs>
        <path id="DejaVuSans-30" d="M 2034 4250 
Q 1547 4250 1301 3770 
Q 1056 3291 1056 2328 
Q 1056 1369 1301 889 
Q 1547 409 2034 409 
Q 2525 409 2770 889 
Q 3016 1369 3016 2328 
Q 3016 3291 2770 3770 
Q 2525 4250 2034 4250 
z
M 2034 4750 
Q 2819 4750 3233 4129 
Q 3647 3509 3647 2328 
Q 3647 1150 3233 529 
Q 2819 -91 2034 -91 
Q 1250 -91 836 529 
Q 422 1150 422 2328 
Q 422 3509 836 4129 
Q 1250 4750 2034 4750 
z
" transform="scale(0.015625)"/>
       </defs>
       <use xlink:href="#DejaVuSans-30"/>
      </g>
     </g>
    </g>
    <g id="xtick_2">
     <g id="line2d_3">
      <path d="M 95.487364 253.607914 
L 95.487364 10.999219 
" clip-path="url(#p5a717c6df6)" style="fill: none; stroke-dasharray: 2.96,1.28; stroke-dashoffset: 0; stroke: #b0b0b0; stroke-opacity: 0.3; stroke-width: 0.8"/>
     </g>
     <g id="line2d_4">
      <g>
       <use xlink:href="#m6af223225a" x="95.487364" y="253.607914" style="stroke: #000000; stroke-width: 0.8"/>
      </g>
     </g>
     <g id="text_2">
      <!-- 20 -->
      <g transform="translate(89.124864 268.206352)scale(0.1 -0.1)">
       <defs>
        <path id="DejaVuSans-32" d="M 1228 531 
L 3431 531 
L 3431 0 
L 469 0 
L 469 531 
Q 828 903 1448 1529 
Q 2069 2156 2228 2338 
Q 2531 2678 2651 2914 
Q 2772 3150 2772 3378 
Q 2772 3750 2511 3984 
Q 2250 4219 1831 4219 
Q 1534 4219 1204 4116 
Q 875 4013 500 3803 
L 500 4441 
Q 881 4594 1212 4672 
Q 1544 4750 1819 4750 
Q 2544 4750 2975 4387 
Q 3406 4025 3406 3419 
Q 3406 3131 3298 2873 
Q 3191 2616 2906 2266 
Q 2828 2175 2409 1742 
Q 1991 1309 1228 531 
z
" transform="scale(0.015625)"/>
       </defs>
       <use xlink:href="#DejaVuSans-32"/>
       <use xlink:href="#DejaVuSans-30" x="63.623047"/>
      </g>
     </g>
    </g>
    <g id="xtick_3">
     <g id="line2d_5">
      <path d="M 144.009103 253.607914 
L 144.009103 10.999219 
" clip-path="url(#p5a717c6df6)" style="fill: none; stroke-dasharray: 2.96,1.28; stroke-dashoffset: 0; stroke: #b0b0b0; stroke-opacity: 0.3; stroke-width: 0.8"/>
     </g>
     <g id="line2d_6">
      <g>
       <use xlink:href="#m6af223225a" x="144.009103" y="253.607914" style="stroke: #000000; stroke-width: 0.8"/>
      </g>
     </g>
     <g id="text_3">
      <!-- 40 -->
      <g transform="translate(137.646603 268.206352)scale(0.1 -0.1)">
       <defs>
        <path id="DejaVuSans-34" d="M 2419 4116 
L 825 1625 
L 2419 1625 
L 2419 4116 
z
M 2253 4666 
L 3047 4666 
L 3047 1625 
L 3713 1625 
L 3713 1100 
L 3047 1100 
L 3047 0 
L 2419 0 
L 2419 1100 
L 313 1100 
L 313 1709 
L 2253 4666 
z
" transform="scale(0.015625)"/>
       </defs>
       <use xlink:href="#DejaVuSans-34"/>
       <use xlink:href="#DejaVuSans-30" x="63.623047"/>
      </g>
     </g>
    </g>
    <g id="xtick_4">
     <g id="line2d_7">
      <path d="M 192.530842 253.607914 
L 192.530842 10.999219 
" clip-path="url(#p5a717c6df6)" style="fill: none; stroke-dasharray: 2.96,1.28; stroke-dashoffset: 0; stroke: #b0b0b0; stroke-opacity: 0.3; stroke-width: 0.8"/>
     </g>
     <g id="line2d_8">
      <g>
       <use xlink:href="#m6af223225a" x="192.530842" y="253.607914" style="stroke: #000000; stroke-width: 0.8"/>
      </g>
     </g>
     <g id="text_4">
      <!-- 60 -->
      <g transform="translate(186.168342 268.206352)scale(0.1 -0.1)">
       <defs>
        <path id="DejaVuSans-36" d="M 2113 2584 
Q 1688 2584 1439 2293 
Q 1191 2003 1191 1497 
Q 1191 994 1439 701 
Q 1688 409 2113 409 
Q 2538 409 2786 701 
Q 3034 994 3034 1497 
Q 3034 2003 2786 2293 
Q 2538 2584 2113 2584 
z
M 3366 4563 
L 3366 3988 
Q 3128 4100 2886 4159 
Q 2644 4219 2406 4219 
Q 1781 4219 1451 3797 
Q 1122 3375 1075 2522 
Q 1259 2794 1537 2939 
Q 1816 3084 2150 3084 
Q 2853 3084 3261 2657 
Q 3669 2231 3669 1497 
Q 3669 778 3244 343 
Q 2819 -91 2113 -91 
Q 1303 -91 875 529 
Q 447 1150 447 2328 
Q 447 3434 972 4092 
Q 1497 4750 2381 4750 
Q 2619 4750 2861 4703 
Q 3103 4656 3366 4563 
z
" transform="scale(0.015625)"/>
       </defs>
       <use xlink:href="#DejaVuSans-36"/>
       <use xlink:href="#DejaVuSans-30" x="63.623047"/>
      </g>
     </g>
    </g>
    <g id="xtick_5">
     <g id="line2d_9">
      <path d="M 241.052582 253.607914 
L 241.052582 10.999219 
" clip-path="url(#p5a717c6df6)" style="fill: none; stroke-dasharray: 2.96,1.28; stroke-dashoffset: 0; stroke: #b0b0b0; stroke-opacity: 0.3; stroke-width: 0.8"/>
     </g>
     <g id="line2d_10">
      <g>
       <use xlink:href="#m6af223225a" x="241.052582" y="253.607914" style="stroke: #000000; stroke-width: 0.8"/>
      </g>
     </g>
     <g id="text_5">
      <!-- 80 -->
      <g transform="translate(234.690082 268.206352)scale(0.1 -0.1)">
       <defs>
        <path id="DejaVuSans-38" d="M 2034 2216 
Q 1584 2216 1326 1975 
Q 1069 1734 1069 1313 
Q 1069 891 1326 650 
Q 1584 409 2034 409 
Q 2484 409 2743 651 
Q 3003 894 3003 1313 
Q 3003 1734 2745 1975 
Q 2488 2216 2034 2216 
z
M 1403 2484 
Q 997 2584 770 2862 
Q 544 3141 544 3541 
Q 544 4100 942 4425 
Q 1341 4750 2034 4750 
Q 2731 4750 3128 4425 
Q 3525 4100 3525 3541 
Q 3525 3141 3298 2862 
Q 3072 2584 2669 2484 
Q 3125 2378 3379 2068 
Q 3634 1759 3634 1313 
Q 3634 634 3220 271 
Q 2806 -91 2034 -91 
Q 1263 -91 848 271 
Q 434 634 434 1313 
Q 434 1759 690 2068 
Q 947 2378 1403 2484 
z
M 1172 3481 
Q 1172 3119 1398 2916 
Q 1625 2713 2034 2713 
Q 2441 2713 2670 2916 
Q 2900 3119 2900 3481 
Q 2900 3844 2670 4047 
Q 2441 4250 2034 4250 
Q 1625 4250 1398 4047 
Q 1172 3844 1172 3481 
z
" transform="scale(0.015625)"/>
       </defs>
       <use xlink:href="#DejaVuSans-38"/>
       <use xlink:href="#DejaVuSans-30" x="63.623047"/>
      </g>
     </g>
    </g>
    <g id="xtick_6">
     <g id="line2d_11">
      <path d="M 289.574321 253.607914 
L 289.574321 10.999219 
" clip-path="url(#p5a717c6df6)" style="fill: none; stroke-dasharray: 2.96,1.28; stroke-dashoffset: 0; stroke: #b0b0b0; stroke-opacity: 0.3; stroke-width: 0.8"/>
     </g>
     <g id="line2d_12">
      <g>
       <use xlink:href="#m6af223225a" x="289.574321" y="253.607914" style="stroke: #000000; stroke-width: 0.8"/>
      </g>
     </g>
     <g id="text_6">
      <!-- 100 -->
      <g transform="translate(280.030571 268.206352)scale(0.1 -0.1)">
       <defs>
        <path id="DejaVuSans-31" d="M 794 531 
L 1825 531 
L 1825 4091 
L 703 3866 
L 703 4441 
L 1819 4666 
L 2450 4666 
L 2450 531 
L 3481 531 
L 3481 0 
L 794 0 
L 794 531 
z
" transform="scale(0.015625)"/>
       </defs>
       <use xlink:href="#DejaVuSans-31"/>
       <use xlink:href="#DejaVuSans-30" x="63.623047"/>
       <use xlink:href="#DejaVuSans-30" x="127.246094"/>
      </g>
     </g>
    </g>
    <g id="text_7">
     <!-- Ice thickness [cm] -->
     <g transform="translate(122.652785 281.884477)scale(0.1 -0.1)">
      <defs>
       <path id="DejaVuSans-49" d="M 628 4666 
L 1259 4666 
L 1259 0 
L 628 0 
L 628 4666 
z
" transform="scale(0.015625)"/>
       <path id="DejaVuSans-63" d="M 3122 3366 
L 3122 2828 
Q 2878 2963 2633 3030 
Q 2388 3097 2138 3097 
Q 1578 3097 1268 2742 
Q 959 2388 959 1747 
Q 959 1106 1268 751 
Q 1578 397 2138 397 
Q 2388 397 2633 464 
Q 2878 531 3122 666 
L 3122 134 
Q 2881 22 2623 -34 
Q 2366 -91 2075 -91 
Q 1284 -91 818 406 
Q 353 903 353 1747 
Q 353 2603 823 3093 
Q 1294 3584 2113 3584 
Q 2378 3584 2631 3529 
Q 2884 3475 3122 3366 
z
" transform="scale(0.015625)"/>
       <path id="DejaVuSans-65" d="M 3597 1894 
L 3597 1613 
L 953 1613 
Q 991 1019 1311 708 
Q 1631 397 2203 397 
Q 2534 397 2845 478 
Q 3156 559 3463 722 
L 3463 178 
Q 3153 47 2828 -22 
Q 2503 -91 2169 -91 
Q 1331 -91 842 396 
Q 353 884 353 1716 
Q 353 2575 817 3079 
Q 1281 3584 2069 3584 
Q 2775 3584 3186 3129 
Q 3597 2675 3597 1894 
z
M 3022 2063 
Q 3016 2534 2758 2815 
Q 2500 3097 2075 3097 
Q 1594 3097 1305 2825 
Q 1016 2553 972 2059 
L 3022 2063 
z
" transform="scale(0.015625)"/>
       <path id="DejaVuSans-20" transform="scale(0.015625)"/>
       <path id="DejaVuSans-74" d="M 1172 4494 
L 1172 3500 
L 2356 3500 
L 2356 3053 
L 1172 3053 
L 1172 1153 
Q 1172 725 1289 603 
Q 1406 481 1766 481 
L 2356 481 
L 2356 0 
L 1766 0 
Q 1100 0 847 248 
Q 594 497 594 1153 
L 594 3053 
L 172 3053 
L 172 3500 
L 594 3500 
L 594 4494 
L 1172 4494 
z
" transform="scale(0.015625)"/>
       <path id="DejaVuSans-68" d="M 3513 2113 
L 3513 0 
L 2938 0 
L 2938 2094 
Q 2938 2591 2744 2837 
Q 2550 3084 2163 3084 
Q 1697 3084 1428 2787 
Q 1159 2491 1159 1978 
L 1159 0 
L 581 0 
L 581 4863 
L 1159 4863 
L 1159 2956 
Q 1366 3272 1645 3428 
Q 1925 3584 2291 3584 
Q 2894 3584 3203 3211 
Q 3513 2838 3513 2113 
z
" transform="scale(0.015625)"/>
       <path id="DejaVuSans-69" d="M 603 3500 
L 1178 3500 
L 1178 0 
L 603 0 
L 603 3500 
z
M 603 4863 
L 1178 4863 
L 1178 4134 
L 603 4134 
L 603 4863 
z
" transform="scale(0.015625)"/>
       <path id="DejaVuSans-6b" d="M 581 4863 
L 1159 4863 
L 1159 1991 
L 2875 3500 
L 3609 3500 
L 1753 1863 
L 3688 0 
L 2938 0 
L 1159 1709 
L 1159 0 
L 581 0 
L 581 4863 
z
" transform="scale(0.015625)"/>
       <path id="DejaVuSans-6e" d="M 3513 2113 
L 3513 0 
L 2938 0 
L 2938 2094 
Q 2938 2591 2744 2837 
Q 2550 3084 2163 3084 
Q 1697 3084 1428 2787 
Q 1159 2491 1159 1978 
L 1159 0 
L 581 0 
L 581 3500 
L 1159 3500 
L 1159 2956 
Q 1366 3272 1645 3428 
Q 1925 3584 2291 3584 
Q 2894 3584 3203 3211 
Q 3513 2838 3513 2113 
z
" transform="scale(0.015625)"/>
       <path id="DejaVuSans-73" d="M 2834 3397 
L 2834 2853 
Q 2591 2978 2328 3040 
Q 2066 3103 1784 3103 
Q 1356 3103 1142 2972 
Q 928 2841 928 2578 
Q 928 2378 1081 2264 
Q 1234 2150 1697 2047 
L 1894 2003 
Q 2506 1872 2764 1633 
Q 3022 1394 3022 966 
Q 3022 478 2636 193 
Q 2250 -91 1575 -91 
Q 1294 -91 989 -36 
Q 684 19 347 128 
L 347 722 
Q 666 556 975 473 
Q 1284 391 1588 391 
Q 1994 391 2212 530 
Q 2431 669 2431 922 
Q 2431 1156 2273 1281 
Q 2116 1406 1581 1522 
L 1381 1569 
Q 847 1681 609 1914 
Q 372 2147 372 2553 
Q 372 3047 722 3315 
Q 1072 3584 1716 3584 
Q 2034 3584 2315 3537 
Q 2597 3491 2834 3397 
z
" transform="scale(0.015625)"/>
       <path id="DejaVuSans-5b" d="M 550 4863 
L 1875 4863 
L 1875 4416 
L 1125 4416 
L 1125 -397 
L 1875 -397 
L 1875 -844 
L 550 -844 
L 550 4863 
z
" transform="scale(0.015625)"/>
       <path id="DejaVuSans-6d" d="M 3328 2828 
Q 3544 3216 3844 3400 
Q 4144 3584 4550 3584 
Q 5097 3584 5394 3201 
Q 5691 2819 5691 2113 
L 5691 0 
L 5113 0 
L 5113 2094 
Q 5113 2597 4934 2840 
Q 4756 3084 4391 3084 
Q 3944 3084 3684 2787 
Q 3425 2491 3425 1978 
L 3425 0 
L 2847 0 
L 2847 2094 
Q 2847 2600 2669 2842 
Q 2491 3084 2119 3084 
Q 1678 3084 1418 2786 
Q 1159 2488 1159 1978 
L 1159 0 
L 581 0 
L 581 3500 
L 1159 3500 
L 1159 2956 
Q 1356 3278 1631 3431 
Q 1906 3584 2284 3584 
Q 2666 3584 2933 3390 
Q 3200 3197 3328 2828 
z
" transform="scale(0.015625)"/>
       <path id="DejaVuSans-5d" d="M 1947 4863 
L 1947 -844 
L 622 -844 
L 622 -397 
L 1369 -397 
L 1369 4416 
L 622 4416 
L 622 4863 
L 1947 4863 
z
" transform="scale(0.015625)"/>
      </defs>
      <use xlink:href="#DejaVuSans-49"/>
      <use xlink:href="#DejaVuSans-63" x="29.492188"/>
      <use xlink:href="#DejaVuSans-65" x="84.472656"/>
      <use xlink:href="#DejaVuSans-20" x="145.996094"/>
      <use xlink:href="#DejaVuSans-74" x="177.783203"/>
      <use xlink:href="#DejaVuSans-68" x="216.992188"/>
      <use xlink:href="#DejaVuSans-69" x="280.371094"/>
      <use xlink:href="#DejaVuSans-63" x="308.154297"/>
      <use xlink:href="#DejaVuSans-6b" x="363.134766"/>
      <use xlink:href="#DejaVuSans-6e" x="421.044922"/>
      <use xlink:href="#DejaVuSans-65" x="484.423828"/>
      <use xlink:href="#DejaVuSans-73" x="545.947266"/>
      <use xlink:href="#DejaVuSans-73" x="598.046875"/>
      <use xlink:href="#DejaVuSans-20" x="650.146484"/>
      <use xlink:href="#DejaVuSans-5b" x="681.933594"/>
      <use xlink:href="#DejaVuSans-63" x="720.947266"/>
      <use xlink:href="#DejaVuSans-6d" x="775.927734"/>
      <use xlink:href="#DejaVuSans-5d" x="873.339844"/>
     </g>
    </g>
   </g>
   <g id="matplotlib.axis_2">
    <g id="ytick_1">
     <g id="line2d_13">
      <path d="M 46.965625 253.607914 
L 289.574321 253.607914 
" clip-path="url(#p5a717c6df6)" style="fill: none; stroke-dasharray: 2.96,1.28; stroke-dashoffset: 0; stroke: #b0b0b0; stroke-opacity: 0.3; stroke-width: 0.8"/>
     </g>
     <g id="line2d_14">
      <defs>
       <path id="mfe8e1b21a3" d="M 0 0 
L -3.5 0 
" style="stroke: #000000; stroke-width: 0.8"/>
      </defs>
      <g>
       <use xlink:href="#mfe8e1b21a3" x="46.965625" y="253.607914" style="stroke: #000000; stroke-width: 0.8"/>
      </g>
     </g>
     <g id="text_8">
      <!-- 0 -->
      <g transform="translate(33.603125 257.407133)scale(0.1 -0.1)">
       <use xlink:href="#DejaVuSans-30"/>
      </g>
     </g>
    </g>
    <g id="ytick_2">
     <g id="line2d_15">
      <path d="M 46.965625 205.086175 
L 289.574321 205.086175 
" clip-path="url(#p5a717c6df6)" style="fill: none; stroke-dasharray: 2.96,1.28; stroke-dashoffset: 0; stroke: #b0b0b0; stroke-opacity: 0.3; stroke-width: 0.8"/>
     </g>
     <g id="line2d_16">
      <g>
       <use xlink:href="#mfe8e1b21a3" x="46.965625" y="205.086175" style="stroke: #000000; stroke-width: 0.8"/>
      </g>
     </g>
     <g id="text_9">
      <!-- 20 -->
      <g transform="translate(27.240625 208.885394)scale(0.1 -0.1)">
       <use xlink:href="#DejaVuSans-32"/>
       <use xlink:href="#DejaVuSans-30" x="63.623047"/>
      </g>
     </g>
    </g>
    <g id="ytick_3">
     <g id="line2d_17">
      <path d="M 46.965625 156.564436 
L 289.574321 156.564436 
" clip-path="url(#p5a717c6df6)" style="fill: none; stroke-dasharray: 2.96,1.28; stroke-dashoffset: 0; stroke: #b0b0b0; stroke-opacity: 0.3; stroke-width: 0.8"/>
     </g>
     <g id="line2d_18">
      <g>
       <use xlink:href="#mfe8e1b21a3" x="46.965625" y="156.564436" style="stroke: #000000; stroke-width: 0.8"/>
      </g>
     </g>
     <g id="text_10">
      <!-- 40 -->
      <g transform="translate(27.240625 160.363655)scale(0.1 -0.1)">
       <use xlink:href="#DejaVuSans-34"/>
       <use xlink:href="#DejaVuSans-30" x="63.623047"/>
      </g>
     </g>
    </g>
    <g id="ytick_4">
     <g id="line2d_19">
      <path d="M 46.965625 108.042697 
L 289.574321 108.042697 
" clip-path="url(#p5a717c6df6)" style="fill: none; stroke-dasharray: 2.96,1.28; stroke-dashoffset: 0; stroke: #b0b0b0; stroke-opacity: 0.3; stroke-width: 0.8"/>
     </g>
     <g id="line2d_20">
      <g>
       <use xlink:href="#mfe8e1b21a3" x="46.965625" y="108.042697" style="stroke: #000000; stroke-width: 0.8"/>
      </g>
     </g>
     <g id="text_11">
      <!-- 60 -->
      <g transform="translate(27.240625 111.841916)scale(0.1 -0.1)">
       <use xlink:href="#DejaVuSans-36"/>
       <use xlink:href="#DejaVuSans-30" x="63.623047"/>
      </g>
     </g>
    </g>
    <g id="ytick_5">
     <g id="line2d_21">
      <path d="M 46.965625 59.520958 
L 289.574321 59.520958 
" clip-path="url(#p5a717c6df6)" style="fill: none; stroke-dasharray: 2.96,1.28; stroke-dashoffset: 0; stroke: #b0b0b0; stroke-opacity: 0.3; stroke-width: 0.8"/>
     </g>
     <g id="line2d_22">
      <g>
       <use xlink:href="#mfe8e1b21a3" x="46.965625" y="59.520958" style="stroke: #000000; stroke-width: 0.8"/>
      </g>
     </g>
     <g id="text_12">
      <!-- 80 -->
      <g transform="translate(27.240625 63.320177)scale(0.1 -0.1)">
       <use xlink:href="#DejaVuSans-38"/>
       <use xlink:href="#DejaVuSans-30" x="63.623047"/>
      </g>
     </g>
    </g>
    <g id="ytick_6">
     <g id="line2d_23">
      <path d="M 46.965625 10.999219 
L 289.574321 10.999219 
" clip-path="url(#p5a717c6df6)" style="fill: none; stroke-dasharray: 2.96,1.28; stroke-dashoffset: 0; stroke: #b0b0b0; stroke-opacity: 0.3; stroke-width: 0.8"/>
     </g>
     <g id="line2d_24">
      <g>
       <use xlink:href="#mfe8e1b21a3" x="46.965625" y="10.999219" style="stroke: #000000; stroke-width: 0.8"/>
      </g>
     </g>
     <g id="text_13">
      <!-- 100 -->
      <g transform="translate(20.878125 14.798438)scale(0.1 -0.1)">
       <use xlink:href="#DejaVuSans-31"/>
       <use xlink:href="#DejaVuSans-30" x="63.623047"/>
       <use xlink:href="#DejaVuSans-30" x="127.246094"/>
      </g>
     </g>
    </g>
    <g id="text_14">
     <!-- Absolut SIT error [cm] -->
     <g transform="translate(14.798438 187.173879)rotate(-90)scale(0.1 -0.1)">
      <defs>
       <path id="DejaVuSans-41" d="M 2188 4044 
L 1331 1722 
L 3047 1722 
L 2188 4044 
z
M 1831 4666 
L 2547 4666 
L 4325 0 
L 3669 0 
L 3244 1197 
L 1141 1197 
L 716 0 
L 50 0 
L 1831 4666 
z
" transform="scale(0.015625)"/>
       <path id="DejaVuSans-62" d="M 3116 1747 
Q 3116 2381 2855 2742 
Q 2594 3103 2138 3103 
Q 1681 3103 1420 2742 
Q 1159 2381 1159 1747 
Q 1159 1113 1420 752 
Q 1681 391 2138 391 
Q 2594 391 2855 752 
Q 3116 1113 3116 1747 
z
M 1159 2969 
Q 1341 3281 1617 3432 
Q 1894 3584 2278 3584 
Q 2916 3584 3314 3078 
Q 3713 2572 3713 1747 
Q 3713 922 3314 415 
Q 2916 -91 2278 -91 
Q 1894 -91 1617 61 
Q 1341 213 1159 525 
L 1159 0 
L 581 0 
L 581 4863 
L 1159 4863 
L 1159 2969 
z
" transform="scale(0.015625)"/>
       <path id="DejaVuSans-6f" d="M 1959 3097 
Q 1497 3097 1228 2736 
Q 959 2375 959 1747 
Q 959 1119 1226 758 
Q 1494 397 1959 397 
Q 2419 397 2687 759 
Q 2956 1122 2956 1747 
Q 2956 2369 2687 2733 
Q 2419 3097 1959 3097 
z
M 1959 3584 
Q 2709 3584 3137 3096 
Q 3566 2609 3566 1747 
Q 3566 888 3137 398 
Q 2709 -91 1959 -91 
Q 1206 -91 779 398 
Q 353 888 353 1747 
Q 353 2609 779 3096 
Q 1206 3584 1959 3584 
z
" transform="scale(0.015625)"/>
       <path id="DejaVuSans-6c" d="M 603 4863 
L 1178 4863 
L 1178 0 
L 603 0 
L 603 4863 
z
" transform="scale(0.015625)"/>
       <path id="DejaVuSans-75" d="M 544 1381 
L 544 3500 
L 1119 3500 
L 1119 1403 
Q 1119 906 1312 657 
Q 1506 409 1894 409 
Q 2359 409 2629 706 
Q 2900 1003 2900 1516 
L 2900 3500 
L 3475 3500 
L 3475 0 
L 2900 0 
L 2900 538 
Q 2691 219 2414 64 
Q 2138 -91 1772 -91 
Q 1169 -91 856 284 
Q 544 659 544 1381 
z
M 1991 3584 
L 1991 3584 
z
" transform="scale(0.015625)"/>
       <path id="DejaVuSans-53" d="M 3425 4513 
L 3425 3897 
Q 3066 4069 2747 4153 
Q 2428 4238 2131 4238 
Q 1616 4238 1336 4038 
Q 1056 3838 1056 3469 
Q 1056 3159 1242 3001 
Q 1428 2844 1947 2747 
L 2328 2669 
Q 3034 2534 3370 2195 
Q 3706 1856 3706 1288 
Q 3706 609 3251 259 
Q 2797 -91 1919 -91 
Q 1588 -91 1214 -16 
Q 841 59 441 206 
L 441 856 
Q 825 641 1194 531 
Q 1563 422 1919 422 
Q 2459 422 2753 634 
Q 3047 847 3047 1241 
Q 3047 1584 2836 1778 
Q 2625 1972 2144 2069 
L 1759 2144 
Q 1053 2284 737 2584 
Q 422 2884 422 3419 
Q 422 4038 858 4394 
Q 1294 4750 2059 4750 
Q 2388 4750 2728 4690 
Q 3069 4631 3425 4513 
z
" transform="scale(0.015625)"/>
       <path id="DejaVuSans-54" d="M -19 4666 
L 3928 4666 
L 3928 4134 
L 2272 4134 
L 2272 0 
L 1638 0 
L 1638 4134 
L -19 4134 
L -19 4666 
z
" transform="scale(0.015625)"/>
       <path id="DejaVuSans-72" d="M 2631 2963 
Q 2534 3019 2420 3045 
Q 2306 3072 2169 3072 
Q 1681 3072 1420 2755 
Q 1159 2438 1159 1844 
L 1159 0 
L 581 0 
L 581 3500 
L 1159 3500 
L 1159 2956 
Q 1341 3275 1631 3429 
Q 1922 3584 2338 3584 
Q 2397 3584 2469 3576 
Q 2541 3569 2628 3553 
L 2631 2963 
z
" transform="scale(0.015625)"/>
      </defs>
      <use xlink:href="#DejaVuSans-41"/>
      <use xlink:href="#DejaVuSans-62" x="68.408203"/>
      <use xlink:href="#DejaVuSans-73" x="131.884766"/>
      <use xlink:href="#DejaVuSans-6f" x="183.984375"/>
      <use xlink:href="#DejaVuSans-6c" x="245.166016"/>
      <use xlink:href="#DejaVuSans-75" x="272.949219"/>
      <use xlink:href="#DejaVuSans-74" x="336.328125"/>
      <use xlink:href="#DejaVuSans-20" x="375.537109"/>
      <use xlink:href="#DejaVuSans-53" x="407.324219"/>
      <use xlink:href="#DejaVuSans-49" x="470.800781"/>
      <use xlink:href="#DejaVuSans-54" x="500.292969"/>
      <use xlink:href="#DejaVuSans-20" x="561.376953"/>
      <use xlink:href="#DejaVuSans-65" x="593.164062"/>
      <use xlink:href="#DejaVuSans-72" x="654.6875"/>
      <use xlink:href="#DejaVuSans-72" x="694.050781"/>
      <use xlink:href="#DejaVuSans-6f" x="732.914062"/>
      <use xlink:href="#DejaVuSans-72" x="794.095703"/>
      <use xlink:href="#DejaVuSans-20" x="835.208984"/>
      <use xlink:href="#DejaVuSans-5b" x="866.996094"/>
      <use xlink:href="#DejaVuSans-63" x="906.009766"/>
      <use xlink:href="#DejaVuSans-6d" x="960.990234"/>
      <use xlink:href="#DejaVuSans-5d" x="1058.402344"/>
     </g>
    </g>
   </g>
   <g id="line2d_25">
    <path d="M 49.391712 241.460032 
L 51.817799 242.641957 
L 54.243886 243.631928 
L 56.669973 244.468802 
L 59.09606 245.181582 
L 61.522147 245.793109 
L 63.948234 246.321594 
L 66.374321 246.781608 
L 68.800408 247.184827 
L 71.226495 247.54063 
L 73.652582 247.856585 
L 76.078668 248.138822 
L 78.504755 248.39234 
L 80.930842 248.621235 
L 83.356929 248.82889 
L 85.783016 249.018113 
L 88.209103 249.19125 
L 90.63519 249.350274 
L 93.061277 249.496853 
L 95.487364 249.632406 
L 97.913451 249.758148 
L 100.339538 249.875122 
L 102.765625 249.98423 
L 105.191712 250.086254 
L 107.617799 250.181877 
L 110.043886 250.271697 
L 112.469973 250.356239 
L 114.89606 250.435966 
L 117.322147 250.511291 
L 119.748234 250.582578 
L 122.174321 250.650152 
L 124.600408 250.714306 
L 127.026495 250.7753 
L 129.452582 250.833371 
L 131.878668 250.88873 
L 134.304755 250.941569 
L 136.730842 250.992063 
L 139.156929 251.040369 
L 141.583016 251.086633 
L 144.009103 251.130985 
L 146.43519 251.173547 
L 148.861277 251.214428 
L 151.287364 251.25373 
L 153.713451 251.291547 
L 156.139538 251.327963 
L 158.565625 251.36306 
L 160.991712 251.396909 
L 163.417799 251.42958 
L 165.843886 251.461134 
L 168.269973 251.491632 
L 170.69606 251.521126 
L 173.122147 251.549669 
L 175.548234 251.577306 
L 177.974321 251.604083 
L 180.400408 251.630041 
L 182.826495 251.655218 
L 185.252582 251.679651 
L 187.678668 251.703373 
L 190.104755 251.726416 
L 192.530842 251.748811 
L 194.956929 251.770586 
L 197.383016 251.791767 
L 199.809103 251.812379 
L 202.23519 251.832446 
L 204.661277 251.85199 
L 207.087364 251.871032 
L 209.513451 251.889593 
L 211.939538 251.907691 
L 214.365625 251.925344 
L 216.791712 251.942569 
L 219.217799 251.959382 
L 221.643886 251.975798 
L 224.069973 251.991832 
L 226.49606 252.007498 
L 228.922147 252.022809 
L 231.348234 252.037777 
L 233.774321 252.052414 
L 236.200408 252.066732 
L 238.626495 252.080742 
L 241.052582 252.094453 
L 243.478668 252.107876 
L 245.904755 252.12102 
L 248.330842 252.133894 
L 250.756929 252.146507 
L 253.183016 252.158866 
L 255.609103 252.170981 
L 258.03519 252.182858 
L 260.461277 252.194505 
L 262.887364 252.205928 
L 265.313451 252.217135 
L 267.739538 252.228131 
L 270.165625 252.238924 
L 272.591712 252.249518 
L 275.017799 252.25992 
L 277.443886 252.270134 
L 279.869973 252.280167 
L 282.29606 252.290023 
L 284.722147 252.299707 
L 287.148234 252.309224 
L 289.574321 252.318578 
" clip-path="url(#p5a717c6df6)" style="fill: none; stroke: #808080; stroke-width: 2; stroke-linecap: square"/>
   </g>
   <g id="line2d_26">
    <path d="M 49.391712 253.431224 
L 51.817799 253.232289 
L 54.243886 253.019558 
L 56.669973 252.792558 
L 59.09606 252.55171 
L 61.522147 252.296595 
L 63.948234 252.027373 
L 66.374321 251.744296 
L 68.800408 251.447764 
L 71.226495 251.137774 
L 73.652582 250.814825 
L 76.078668 250.479319 
L 78.504755 250.131585 
L 80.930842 249.771539 
L 83.356929 249.399439 
L 85.783016 249.015267 
L 88.209103 248.620223 
L 90.63519 248.212612 
L 93.061277 247.793179 
L 95.487364 247.3618 
L 97.913451 246.917319 
L 100.339538 246.460157 
L 102.765625 245.989181 
L 105.191712 245.504658 
L 107.617799 245.004518 
L 110.043886 244.488874 
L 112.469973 243.954906 
L 114.89606 243.405034 
L 117.322147 242.835219 
L 119.748234 242.244711 
L 122.174321 241.633867 
L 124.600408 240.999621 
L 127.026495 240.340198 
L 129.452582 239.654242 
L 131.878668 238.939953 
L 134.304755 238.197019 
L 136.730842 237.422543 
L 139.156929 236.609296 
L 141.583016 235.762305 
L 144.009103 234.874138 
L 146.43519 233.945132 
L 148.861277 232.970124 
L 151.287364 231.945168 
L 153.713451 230.866159 
L 156.139538 229.735108 
L 158.565625 228.53362 
L 160.991712 227.271944 
L 163.417799 225.940797 
L 165.843886 224.520054 
L 168.269973 223.015744 
L 170.69606 221.416708 
L 173.122147 219.708833 
L 175.548234 217.893521 
L 177.974321 215.942893 
L 180.400408 213.845092 
L 182.826495 211.58511 
L 185.252582 209.147086 
L 187.678668 206.49886 
L 190.104755 203.613886 
L 192.530842 200.46193 
L 194.956929 196.987984 
L 197.383016 193.182318 
L 199.809103 188.980577 
L 202.23519 184.297006 
L 204.661277 179.147475 
L 207.087364 173.518204 
L 209.513451 167.447831 
L 211.939538 161.140554 
L 214.365625 154.894305 
L 216.791712 148.986622 
L 219.217799 143.72883 
L 221.643886 139.218437 
L 224.069973 135.465224 
L 226.49606 132.377602 
L 228.922147 129.919797 
L 231.348234 127.948699 
L 233.774321 126.381786 
L 236.200408 125.190228 
L 238.626495 124.278396 
L 241.052582 123.611183 
L 243.478668 123.146944 
L 245.904755 122.845074 
L 248.330842 122.65032 
L 250.756929 122.666682 
L 253.183016 122.728992 
L 255.609103 122.862038 
L 258.03519 123.061534 
L 260.461277 123.29894 
L 262.887364 123.590477 
L 265.313451 123.949625 
L 267.739538 124.231843 
L 270.165625 124.563612 
L 272.591712 124.892736 
L 275.017799 125.232376 
L 277.443886 125.555836 
L 279.869973 125.832929 
L 282.29606 126.105388 
L 284.722147 126.34668 
L 287.148234 126.551594 
L 289.574321 126.710732 
" clip-path="url(#p5a717c6df6)" style="fill: none; stroke-dasharray: 7.4,3.2; stroke-dashoffset: 0; stroke: #008000; stroke-width: 2"/>
   </g>
   <g id="line2d_27">
    <path d="M 49.391712 252.081783 
L 51.817799 251.972547 
L 54.243886 251.857672 
L 56.669973 251.737067 
L 59.09606 251.610839 
L 61.522147 251.478821 
L 63.948234 251.341054 
L 66.374321 251.197492 
L 68.800408 251.048135 
L 71.226495 250.892945 
L 73.652582 250.731872 
L 76.078668 250.564887 
L 78.504755 250.391869 
L 80.930842 250.212718 
L 83.356929 250.027363 
L 85.783016 249.835485 
L 88.209103 249.63702 
L 90.63519 249.431714 
L 93.061277 249.219301 
L 95.487364 248.999419 
L 97.913451 248.771795 
L 100.339538 248.53605 
L 102.765625 248.291758 
L 105.191712 248.038518 
L 107.617799 247.775708 
L 110.043886 247.50318 
L 112.469973 247.220097 
L 114.89606 246.925824 
L 117.322147 246.619922 
L 119.748234 246.30176 
L 122.174321 245.970612 
L 124.600408 245.625774 
L 127.026495 245.266578 
L 129.452582 244.892188 
L 131.878668 244.50149 
L 134.304755 244.094312 
L 136.730842 243.669155 
L 139.156929 243.225408 
L 141.583016 242.761751 
L 144.009103 242.277512 
L 146.43519 241.770857 
L 148.861277 241.24274 
L 151.287364 240.693159 
L 153.713451 240.111262 
L 156.139538 239.506402 
L 158.565625 238.873466 
L 160.991712 238.210136 
L 163.417799 237.517889 
L 165.843886 236.79195 
L 168.269973 236.032287 
L 170.69606 235.236641 
L 173.122147 234.40321 
L 175.548234 233.530109 
L 177.974321 232.616774 
L 180.400408 231.657643 
L 182.826495 230.651798 
L 185.252582 229.60173 
L 187.678668 228.497997 
L 190.104755 227.343 
L 192.530842 226.130682 
L 194.956929 224.861017 
L 197.383016 223.530308 
L 199.809103 222.133487 
L 202.23519 220.67056 
L 204.661277 219.136152 
L 207.087364 217.529245 
L 209.513451 215.842712 
L 211.939538 214.072624 
L 214.365625 212.21913 
L 216.791712 210.269714 
L 219.217799 208.242575 
L 221.643886 206.11147 
L 224.069973 203.872818 
L 226.49606 201.537332 
L 228.922147 199.086978 
L 231.348234 196.508784 
L 233.774321 193.844985 
L 236.200408 191.044756 
L 238.626495 188.110457 
L 241.052582 185.055121 
L 243.478668 181.875712 
L 245.904755 178.549278 
L 248.330842 175.081104 
L 250.756929 171.532881 
L 253.183016 167.784269 
L 255.609103 163.955245 
L 258.03519 159.953262 
L 260.461277 155.836891 
L 262.887364 151.621718 
L 265.313451 147.284913 
L 267.739538 142.870953 
L 270.165625 138.299764 
L 272.591712 133.705504 
L 275.017799 129.100178 
L 277.443886 124.369926 
L 279.869973 119.66315 
L 282.29606 114.944193 
L 284.722147 110.206771 
L 287.148234 105.563549 
L 289.574321 100.942257 
" clip-path="url(#p5a717c6df6)" style="fill: none; stroke-dasharray: 7.4,3.2; stroke-dashoffset: 0; stroke: #ff0000; stroke-width: 2"/>
   </g>
   <g id="line2d_28">
    <path d="M 49.391712 241.363269 
L 51.817799 242.514324 
L 54.243886 243.462481 
L 56.669973 244.243713 
L 59.09606 244.883985 
L 61.522147 245.402807 
L 63.948234 245.815146 
L 66.374321 246.13251 
L 68.800408 246.363967 
L 71.226495 246.516752 
L 73.652582 246.597154 
L 76.078668 246.610837 
L 78.504755 246.563056 
L 80.930842 246.458642 
L 83.356929 246.30239 
L 85.783016 246.098593 
L 88.209103 245.852143 
L 90.63519 245.565685 
L 93.061277 245.242993 
L 95.487364 244.886857 
L 97.913451 244.498973 
L 100.339538 244.081741 
L 102.765625 243.636069 
L 105.191712 243.163632 
L 107.617799 242.66393 
L 110.043886 242.138171 
L 112.469973 241.58468 
L 114.89606 241.005917 
L 117.322147 240.399126 
L 119.748234 239.763964 
L 122.174321 239.100862 
L 124.600408 238.407369 
L 127.026495 237.682027 
L 129.452582 236.923582 
L 131.878668 236.130214 
L 134.304755 235.301802 
L 136.730842 234.435333 
L 139.156929 233.524544 
L 141.583016 232.573136 
L 144.009103 231.574585 
L 146.43519 230.528333 
L 148.861277 229.430555 
L 151.287364 228.277939 
L 153.713451 227.061491 
L 156.139538 225.787746 
L 158.565625 224.438348 
L 160.991712 223.020933 
L 163.417799 221.528272 
L 165.843886 219.940587 
L 168.269973 218.263011 
L 170.69606 216.484712 
L 173.122147 214.592472 
L 175.548234 212.586462 
L 177.974321 210.441989 
L 180.400408 208.14575 
L 182.826495 205.683887 
L 185.252582 203.043299 
L 187.678668 200.190705 
L 190.104755 197.103148 
L 192.530842 193.750165 
L 194.956929 190.081728 
L 197.383016 186.085966 
L 199.809103 181.701334 
L 202.23519 176.848396 
L 204.661277 171.536343 
L 207.087364 165.749797 
L 209.513451 159.519004 
L 211.939538 153.028877 
L 214.365625 146.555408 
L 216.791712 140.353387 
L 219.217799 134.720805 
L 221.643886 129.738917 
L 224.069973 125.413193 
L 226.49606 121.65832 
L 228.922147 118.427312 
L 231.348234 115.575258 
L 233.774321 113.035815 
L 236.200408 110.752651 
L 238.626495 108.630766 
L 241.052582 106.635379 
L 243.478668 104.719286 
L 245.904755 102.826847 
L 248.330842 100.903873 
L 250.756929 99.06325 
L 253.183016 97.092451 
L 255.609103 95.070379 
L 258.03519 92.935632 
L 260.461277 90.691986 
L 262.887364 88.357548 
L 265.313451 85.924323 
L 267.739538 83.305988 
L 270.165625 80.546435 
L 272.591712 77.693076 
L 275.017799 74.766442 
L 277.443886 71.669513 
L 279.869973 68.487927 
L 282.29606 65.229947 
L 284.722147 61.876276 
L 287.148234 58.512734 
L 289.574321 55.084968 
" clip-path="url(#p5a717c6df6)" style="fill: none; stroke-dasharray: 7.4,3.2; stroke-dashoffset: 0; stroke: #000000; stroke-width: 2"/>
   </g>
   <g id="patch_3">
    <path d="M 46.965625 253.607914 
L 46.965625 10.999219 
" style="fill: none; stroke: #000000; stroke-width: 0.8; stroke-linejoin: miter; stroke-linecap: square"/>
   </g>
   <g id="patch_4">
    <path d="M 289.574321 253.607914 
L 289.574321 10.999219 
" style="fill: none; stroke: #000000; stroke-width: 0.8; stroke-linejoin: miter; stroke-linecap: square"/>
   </g>
   <g id="patch_5">
    <path d="M 46.965625 253.607914 
L 289.574321 253.607914 
" style="fill: none; stroke: #000000; stroke-width: 0.8; stroke-linejoin: miter; stroke-linecap: square"/>
   </g>
   <g id="patch_6">
    <path d="M 46.965625 10.999219 
L 289.574321 10.999219 
" style="fill: none; stroke: #000000; stroke-width: 0.8; stroke-linejoin: miter; stroke-linecap: square"/>
   </g>
   <g id="legend_1">
    <g id="patch_7">
     <path d="M 53.965625 77.711719 
L 221.914063 77.711719 
Q 223.914063 77.711719 223.914063 75.711719 
L 223.914063 17.999219 
Q 223.914063 15.999219 221.914063 15.999219 
L 53.965625 15.999219 
Q 51.965625 15.999219 51.965625 17.999219 
L 51.965625 75.711719 
Q 51.965625 77.711719 53.965625 77.711719 
z
" style="fill: #ffffff; opacity: 0.8; stroke: #cccccc; stroke-linejoin: miter"/>
    </g>
    <g id="line2d_29">
     <path d="M 55.965625 24.097656 
L 65.965625 24.097656 
L 75.965625 24.097656 
" style="fill: none; stroke: #808080; stroke-width: 2; stroke-linecap: square"/>
    </g>
    <g id="text_15">
     <!-- Daily SIT variability (-25°C) -->
     <g transform="translate(83.965625 27.597656)scale(0.1 -0.1)">
      <defs>
       <path id="DejaVuSans-44" d="M 1259 4147 
L 1259 519 
L 2022 519 
Q 2988 519 3436 956 
Q 3884 1394 3884 2338 
Q 3884 3275 3436 3711 
Q 2988 4147 2022 4147 
L 1259 4147 
z
M 628 4666 
L 1925 4666 
Q 3281 4666 3915 4102 
Q 4550 3538 4550 2338 
Q 4550 1131 3912 565 
Q 3275 0 1925 0 
L 628 0 
L 628 4666 
z
" transform="scale(0.015625)"/>
       <path id="DejaVuSans-61" d="M 2194 1759 
Q 1497 1759 1228 1600 
Q 959 1441 959 1056 
Q 959 750 1161 570 
Q 1363 391 1709 391 
Q 2188 391 2477 730 
Q 2766 1069 2766 1631 
L 2766 1759 
L 2194 1759 
z
M 3341 1997 
L 3341 0 
L 2766 0 
L 2766 531 
Q 2569 213 2275 61 
Q 1981 -91 1556 -91 
Q 1019 -91 701 211 
Q 384 513 384 1019 
Q 384 1609 779 1909 
Q 1175 2209 1959 2209 
L 2766 2209 
L 2766 2266 
Q 2766 2663 2505 2880 
Q 2244 3097 1772 3097 
Q 1472 3097 1187 3025 
Q 903 2953 641 2809 
L 641 3341 
Q 956 3463 1253 3523 
Q 1550 3584 1831 3584 
Q 2591 3584 2966 3190 
Q 3341 2797 3341 1997 
z
" transform="scale(0.015625)"/>
       <path id="DejaVuSans-79" d="M 2059 -325 
Q 1816 -950 1584 -1140 
Q 1353 -1331 966 -1331 
L 506 -1331 
L 506 -850 
L 844 -850 
Q 1081 -850 1212 -737 
Q 1344 -625 1503 -206 
L 1606 56 
L 191 3500 
L 800 3500 
L 1894 763 
L 2988 3500 
L 3597 3500 
L 2059 -325 
z
" transform="scale(0.015625)"/>
       <path id="DejaVuSans-76" d="M 191 3500 
L 800 3500 
L 1894 563 
L 2988 3500 
L 3597 3500 
L 2284 0 
L 1503 0 
L 191 3500 
z
" transform="scale(0.015625)"/>
       <path id="DejaVuSans-28" d="M 1984 4856 
Q 1566 4138 1362 3434 
Q 1159 2731 1159 2009 
Q 1159 1288 1364 580 
Q 1569 -128 1984 -844 
L 1484 -844 
Q 1016 -109 783 600 
Q 550 1309 550 2009 
Q 550 2706 781 3412 
Q 1013 4119 1484 4856 
L 1984 4856 
z
" transform="scale(0.015625)"/>
       <path id="DejaVuSans-2d" d="M 313 2009 
L 1997 2009 
L 1997 1497 
L 313 1497 
L 313 2009 
z
" transform="scale(0.015625)"/>
       <path id="DejaVuSans-35" d="M 691 4666 
L 3169 4666 
L 3169 4134 
L 1269 4134 
L 1269 2991 
Q 1406 3038 1543 3061 
Q 1681 3084 1819 3084 
Q 2600 3084 3056 2656 
Q 3513 2228 3513 1497 
Q 3513 744 3044 326 
Q 2575 -91 1722 -91 
Q 1428 -91 1123 -41 
Q 819 9 494 109 
L 494 744 
Q 775 591 1075 516 
Q 1375 441 1709 441 
Q 2250 441 2565 725 
Q 2881 1009 2881 1497 
Q 2881 1984 2565 2268 
Q 2250 2553 1709 2553 
Q 1456 2553 1204 2497 
Q 953 2441 691 2322 
L 691 4666 
z
" transform="scale(0.015625)"/>
       <path id="DejaVuSans-b0" d="M 1600 4347 
Q 1350 4347 1178 4173 
Q 1006 4000 1006 3750 
Q 1006 3503 1178 3333 
Q 1350 3163 1600 3163 
Q 1850 3163 2022 3333 
Q 2194 3503 2194 3750 
Q 2194 3997 2020 4172 
Q 1847 4347 1600 4347 
z
M 1600 4750 
Q 1800 4750 1984 4673 
Q 2169 4597 2303 4453 
Q 2447 4313 2519 4134 
Q 2591 3956 2591 3750 
Q 2591 3338 2302 3052 
Q 2013 2766 1594 2766 
Q 1172 2766 890 3047 
Q 609 3328 609 3750 
Q 609 4169 896 4459 
Q 1184 4750 1600 4750 
z
" transform="scale(0.015625)"/>
       <path id="DejaVuSans-43" d="M 4122 4306 
L 4122 3641 
Q 3803 3938 3442 4084 
Q 3081 4231 2675 4231 
Q 1875 4231 1450 3742 
Q 1025 3253 1025 2328 
Q 1025 1406 1450 917 
Q 1875 428 2675 428 
Q 3081 428 3442 575 
Q 3803 722 4122 1019 
L 4122 359 
Q 3791 134 3420 21 
Q 3050 -91 2638 -91 
Q 1578 -91 968 557 
Q 359 1206 359 2328 
Q 359 3453 968 4101 
Q 1578 4750 2638 4750 
Q 3056 4750 3426 4639 
Q 3797 4528 4122 4306 
z
" transform="scale(0.015625)"/>
       <path id="DejaVuSans-29" d="M 513 4856 
L 1013 4856 
Q 1481 4119 1714 3412 
Q 1947 2706 1947 2009 
Q 1947 1309 1714 600 
Q 1481 -109 1013 -844 
L 513 -844 
Q 928 -128 1133 580 
Q 1338 1288 1338 2009 
Q 1338 2731 1133 3434 
Q 928 4138 513 4856 
z
" transform="scale(0.015625)"/>
      </defs>
      <use xlink:href="#DejaVuSans-44"/>
      <use xlink:href="#DejaVuSans-61" x="77.001953"/>
      <use xlink:href="#DejaVuSans-69" x="138.28125"/>
      <use xlink:href="#DejaVuSans-6c" x="166.064453"/>
      <use xlink:href="#DejaVuSans-79" x="193.847656"/>
      <use xlink:href="#DejaVuSans-20" x="253.027344"/>
      <use xlink:href="#DejaVuSans-53" x="284.814453"/>
      <use xlink:href="#DejaVuSans-49" x="348.291016"/>
      <use xlink:href="#DejaVuSans-54" x="377.783203"/>
      <use xlink:href="#DejaVuSans-20" x="438.867188"/>
      <use xlink:href="#DejaVuSans-76" x="470.654297"/>
      <use xlink:href="#DejaVuSans-61" x="529.833984"/>
      <use xlink:href="#DejaVuSans-72" x="591.113281"/>
      <use xlink:href="#DejaVuSans-69" x="632.226562"/>
      <use xlink:href="#DejaVuSans-61" x="660.009766"/>
      <use xlink:href="#DejaVuSans-62" x="721.289062"/>
      <use xlink:href="#DejaVuSans-69" x="784.765625"/>
      <use xlink:href="#DejaVuSans-6c" x="812.548828"/>
      <use xlink:href="#DejaVuSans-69" x="840.332031"/>
      <use xlink:href="#DejaVuSans-74" x="868.115234"/>
      <use xlink:href="#DejaVuSans-79" x="907.324219"/>
      <use xlink:href="#DejaVuSans-20" x="966.503906"/>
      <use xlink:href="#DejaVuSans-28" x="998.291016"/>
      <use xlink:href="#DejaVuSans-2d" x="1037.304688"/>
      <use xlink:href="#DejaVuSans-32" x="1073.388672"/>
      <use xlink:href="#DejaVuSans-35" x="1137.011719"/>
      <use xlink:href="#DejaVuSans-b0" x="1200.634766"/>
      <use xlink:href="#DejaVuSans-43" x="1250.634766"/>
      <use xlink:href="#DejaVuSans-29" x="1320.458984"/>
     </g>
    </g>
    <g id="line2d_30">
     <path d="M 55.965625 38.775781 
L 65.965625 38.775781 
L 75.965625 38.775781 
" style="fill: none; stroke-dasharray: 7.4,3.2; stroke-dashoffset: 0; stroke: #008000; stroke-width: 2"/>
    </g>
    <g id="text_16">
     <!-- Open water error (5%) -->
     <g transform="translate(83.965625 42.275781)scale(0.1 -0.1)">
      <defs>
       <path id="DejaVuSans-4f" d="M 2522 4238 
Q 1834 4238 1429 3725 
Q 1025 3213 1025 2328 
Q 1025 1447 1429 934 
Q 1834 422 2522 422 
Q 3209 422 3611 934 
Q 4013 1447 4013 2328 
Q 4013 3213 3611 3725 
Q 3209 4238 2522 4238 
z
M 2522 4750 
Q 3503 4750 4090 4092 
Q 4678 3434 4678 2328 
Q 4678 1225 4090 567 
Q 3503 -91 2522 -91 
Q 1538 -91 948 565 
Q 359 1222 359 2328 
Q 359 3434 948 4092 
Q 1538 4750 2522 4750 
z
" transform="scale(0.015625)"/>
       <path id="DejaVuSans-70" d="M 1159 525 
L 1159 -1331 
L 581 -1331 
L 581 3500 
L 1159 3500 
L 1159 2969 
Q 1341 3281 1617 3432 
Q 1894 3584 2278 3584 
Q 2916 3584 3314 3078 
Q 3713 2572 3713 1747 
Q 3713 922 3314 415 
Q 2916 -91 2278 -91 
Q 1894 -91 1617 61 
Q 1341 213 1159 525 
z
M 3116 1747 
Q 3116 2381 2855 2742 
Q 2594 3103 2138 3103 
Q 1681 3103 1420 2742 
Q 1159 2381 1159 1747 
Q 1159 1113 1420 752 
Q 1681 391 2138 391 
Q 2594 391 2855 752 
Q 3116 1113 3116 1747 
z
" transform="scale(0.015625)"/>
       <path id="DejaVuSans-77" d="M 269 3500 
L 844 3500 
L 1563 769 
L 2278 3500 
L 2956 3500 
L 3675 769 
L 4391 3500 
L 4966 3500 
L 4050 0 
L 3372 0 
L 2619 2869 
L 1863 0 
L 1184 0 
L 269 3500 
z
" transform="scale(0.015625)"/>
       <path id="DejaVuSans-25" d="M 4653 2053 
Q 4381 2053 4226 1822 
Q 4072 1591 4072 1178 
Q 4072 772 4226 539 
Q 4381 306 4653 306 
Q 4919 306 5073 539 
Q 5228 772 5228 1178 
Q 5228 1588 5073 1820 
Q 4919 2053 4653 2053 
z
M 4653 2450 
Q 5147 2450 5437 2106 
Q 5728 1763 5728 1178 
Q 5728 594 5436 251 
Q 5144 -91 4653 -91 
Q 4153 -91 3862 251 
Q 3572 594 3572 1178 
Q 3572 1766 3864 2108 
Q 4156 2450 4653 2450 
z
M 1428 4353 
Q 1159 4353 1004 4120 
Q 850 3888 850 3481 
Q 850 3069 1003 2837 
Q 1156 2606 1428 2606 
Q 1700 2606 1854 2837 
Q 2009 3069 2009 3481 
Q 2009 3884 1853 4118 
Q 1697 4353 1428 4353 
z
M 4250 4750 
L 4750 4750 
L 1831 -91 
L 1331 -91 
L 4250 4750 
z
M 1428 4750 
Q 1922 4750 2215 4408 
Q 2509 4066 2509 3481 
Q 2509 2891 2217 2550 
Q 1925 2209 1428 2209 
Q 931 2209 642 2551 
Q 353 2894 353 3481 
Q 353 4063 643 4406 
Q 934 4750 1428 4750 
z
" transform="scale(0.015625)"/>
      </defs>
      <use xlink:href="#DejaVuSans-4f"/>
      <use xlink:href="#DejaVuSans-70" x="78.710938"/>
      <use xlink:href="#DejaVuSans-65" x="142.1875"/>
      <use xlink:href="#DejaVuSans-6e" x="203.710938"/>
      <use xlink:href="#DejaVuSans-20" x="267.089844"/>
      <use xlink:href="#DejaVuSans-77" x="298.876953"/>
      <use xlink:href="#DejaVuSans-61" x="380.664062"/>
      <use xlink:href="#DejaVuSans-74" x="441.943359"/>
      <use xlink:href="#DejaVuSans-65" x="481.152344"/>
      <use xlink:href="#DejaVuSans-72" x="542.675781"/>
      <use xlink:href="#DejaVuSans-20" x="583.789062"/>
      <use xlink:href="#DejaVuSans-65" x="615.576172"/>
      <use xlink:href="#DejaVuSans-72" x="677.099609"/>
      <use xlink:href="#DejaVuSans-72" x="716.462891"/>
      <use xlink:href="#DejaVuSans-6f" x="755.326172"/>
      <use xlink:href="#DejaVuSans-72" x="816.507812"/>
      <use xlink:href="#DejaVuSans-20" x="857.621094"/>
      <use xlink:href="#DejaVuSans-28" x="889.408203"/>
      <use xlink:href="#DejaVuSans-35" x="928.421875"/>
      <use xlink:href="#DejaVuSans-25" x="992.044922"/>
      <use xlink:href="#DejaVuSans-29" x="1087.064453"/>
     </g>
    </g>
    <g id="line2d_31">
     <path d="M 55.965625 53.453906 
L 65.965625 53.453906 
L 75.965625 53.453906 
" style="fill: none; stroke-dasharray: 7.4,3.2; stroke-dashoffset: 0; stroke: #ff0000; stroke-width: 2"/>
    </g>
    <g id="text_17">
     <!-- retrieval error -->
     <g transform="translate(83.965625 56.953906)scale(0.1 -0.1)">
      <use xlink:href="#DejaVuSans-72"/>
      <use xlink:href="#DejaVuSans-65" x="38.863281"/>
      <use xlink:href="#DejaVuSans-74" x="100.386719"/>
      <use xlink:href="#DejaVuSans-72" x="139.595703"/>
      <use xlink:href="#DejaVuSans-69" x="180.708984"/>
      <use xlink:href="#DejaVuSans-65" x="208.492188"/>
      <use xlink:href="#DejaVuSans-76" x="270.015625"/>
      <use xlink:href="#DejaVuSans-61" x="329.195312"/>
      <use xlink:href="#DejaVuSans-6c" x="390.474609"/>
      <use xlink:href="#DejaVuSans-20" x="418.257812"/>
      <use xlink:href="#DejaVuSans-65" x="450.044922"/>
      <use xlink:href="#DejaVuSans-72" x="511.568359"/>
      <use xlink:href="#DejaVuSans-72" x="550.931641"/>
      <use xlink:href="#DejaVuSans-6f" x="589.794922"/>
      <use xlink:href="#DejaVuSans-72" x="650.976562"/>
     </g>
    </g>
    <g id="line2d_32">
     <path d="M 55.965625 68.132031 
L 65.965625 68.132031 
L 75.965625 68.132031 
" style="fill: none; stroke-dasharray: 7.4,3.2; stroke-dashoffset: 0; stroke: #000000; stroke-width: 2"/>
    </g>
    <g id="text_18">
     <!-- Total uncertainty -->
     <g transform="translate(83.965625 71.632031)scale(0.1 -0.1)">
      <use xlink:href="#DejaVuSans-54"/>
      <use xlink:href="#DejaVuSans-6f" x="44.083984"/>
      <use xlink:href="#DejaVuSans-74" x="105.265625"/>
      <use xlink:href="#DejaVuSans-61" x="144.474609"/>
      <use xlink:href="#DejaVuSans-6c" x="205.753906"/>
      <use xlink:href="#DejaVuSans-20" x="233.537109"/>
      <use xlink:href="#DejaVuSans-75" x="265.324219"/>
      <use xlink:href="#DejaVuSans-6e" x="328.703125"/>
      <use xlink:href="#DejaVuSans-63" x="392.082031"/>
      <use xlink:href="#DejaVuSans-65" x="447.0625"/>
      <use xlink:href="#DejaVuSans-72" x="508.585938"/>
      <use xlink:href="#DejaVuSans-74" x="549.699219"/>
      <use xlink:href="#DejaVuSans-61" x="588.908203"/>
      <use xlink:href="#DejaVuSans-69" x="650.1875"/>
      <use xlink:href="#DejaVuSans-6e" x="677.970703"/>
      <use xlink:href="#DejaVuSans-74" x="741.349609"/>
      <use xlink:href="#DejaVuSans-79" x="780.558594"/>
     </g>
    </g>
   </g>
  </g>
  <g id="axes_2">
   <g id="patch_8">
    <path d="M 362.356929 253.607914 
L 604.965625 253.607914 
L 604.965625 10.999219 
L 362.356929 10.999219 
z
" style="fill: #ffffff"/>
   </g>
   <g id="matplotlib.axis_3">
    <g id="xtick_7">
     <g id="line2d_33">
      <path d="M 362.356929 253.607914 
L 362.356929 10.999219 
" clip-path="url(#p3c1641d17c)" style="fill: none; stroke-dasharray: 2.96,1.28; stroke-dashoffset: 0; stroke: #b0b0b0; stroke-opacity: 0.3; stroke-width: 0.8"/>
     </g>
     <g id="line2d_34">
      <g>
       <use xlink:href="#m6af223225a" x="362.356929" y="253.607914" style="stroke: #000000; stroke-width: 0.8"/>
      </g>
     </g>
     <g id="text_19">
      <!-- 0 -->
      <g transform="translate(359.175679 268.206352)scale(0.1 -0.1)">
       <use xlink:href="#DejaVuSans-30"/>
      </g>
     </g>
    </g>
    <g id="xtick_8">
     <g id="line2d_35">
      <path d="M 410.878668 253.607914 
L 410.878668 10.999219 
" clip-path="url(#p3c1641d17c)" style="fill: none; stroke-dasharray: 2.96,1.28; stroke-dashoffset: 0; stroke: #b0b0b0; stroke-opacity: 0.3; stroke-width: 0.8"/>
     </g>
     <g id="line2d_36">
      <g>
       <use xlink:href="#m6af223225a" x="410.878668" y="253.607914" style="stroke: #000000; stroke-width: 0.8"/>
      </g>
     </g>
     <g id="text_20">
      <!-- 20 -->
      <g transform="translate(404.516168 268.206352)scale(0.1 -0.1)">
       <use xlink:href="#DejaVuSans-32"/>
       <use xlink:href="#DejaVuSans-30" x="63.623047"/>
      </g>
     </g>
    </g>
    <g id="xtick_9">
     <g id="line2d_37">
      <path d="M 459.400408 253.607914 
L 459.400408 10.999219 
" clip-path="url(#p3c1641d17c)" style="fill: none; stroke-dasharray: 2.96,1.28; stroke-dashoffset: 0; stroke: #b0b0b0; stroke-opacity: 0.3; stroke-width: 0.8"/>
     </g>
     <g id="line2d_38">
      <g>
       <use xlink:href="#m6af223225a" x="459.400408" y="253.607914" style="stroke: #000000; stroke-width: 0.8"/>
      </g>
     </g>
     <g id="text_21">
      <!-- 40 -->
      <g transform="translate(453.037908 268.206352)scale(0.1 -0.1)">
       <use xlink:href="#DejaVuSans-34"/>
       <use xlink:href="#DejaVuSans-30" x="63.623047"/>
      </g>
     </g>
    </g>
    <g id="xtick_10">
     <g id="line2d_39">
      <path d="M 507.922147 253.607914 
L 507.922147 10.999219 
" clip-path="url(#p3c1641d17c)" style="fill: none; stroke-dasharray: 2.96,1.28; stroke-dashoffset: 0; stroke: #b0b0b0; stroke-opacity: 0.3; stroke-width: 0.8"/>
     </g>
     <g id="line2d_40">
      <g>
       <use xlink:href="#m6af223225a" x="507.922147" y="253.607914" style="stroke: #000000; stroke-width: 0.8"/>
      </g>
     </g>
     <g id="text_22">
      <!-- 60 -->
      <g transform="translate(501.559647 268.206352)scale(0.1 -0.1)">
       <use xlink:href="#DejaVuSans-36"/>
       <use xlink:href="#DejaVuSans-30" x="63.623047"/>
      </g>
     </g>
    </g>
    <g id="xtick_11">
     <g id="line2d_41">
      <path d="M 556.443886 253.607914 
L 556.443886 10.999219 
" clip-path="url(#p3c1641d17c)" style="fill: none; stroke-dasharray: 2.96,1.28; stroke-dashoffset: 0; stroke: #b0b0b0; stroke-opacity: 0.3; stroke-width: 0.8"/>
     </g>
     <g id="line2d_42">
      <g>
       <use xlink:href="#m6af223225a" x="556.443886" y="253.607914" style="stroke: #000000; stroke-width: 0.8"/>
      </g>
     </g>
     <g id="text_23">
      <!-- 80 -->
      <g transform="translate(550.081386 268.206352)scale(0.1 -0.1)">
       <use xlink:href="#DejaVuSans-38"/>
       <use xlink:href="#DejaVuSans-30" x="63.623047"/>
      </g>
     </g>
    </g>
    <g id="xtick_12">
     <g id="line2d_43">
      <path d="M 604.965625 253.607914 
L 604.965625 10.999219 
" clip-path="url(#p3c1641d17c)" style="fill: none; stroke-dasharray: 2.96,1.28; stroke-dashoffset: 0; stroke: #b0b0b0; stroke-opacity: 0.3; stroke-width: 0.8"/>
     </g>
     <g id="line2d_44">
      <g>
       <use xlink:href="#m6af223225a" x="604.965625" y="253.607914" style="stroke: #000000; stroke-width: 0.8"/>
      </g>
     </g>
     <g id="text_24">
      <!-- 100 -->
      <g transform="translate(595.421875 268.206352)scale(0.1 -0.1)">
       <use xlink:href="#DejaVuSans-31"/>
       <use xlink:href="#DejaVuSans-30" x="63.623047"/>
       <use xlink:href="#DejaVuSans-30" x="127.246094"/>
      </g>
     </g>
    </g>
    <g id="text_25">
     <!-- Ice thickness [cm] -->
     <g transform="translate(438.04409 281.884477)scale(0.1 -0.1)">
      <use xlink:href="#DejaVuSans-49"/>
      <use xlink:href="#DejaVuSans-63" x="29.492188"/>
      <use xlink:href="#DejaVuSans-65" x="84.472656"/>
      <use xlink:href="#DejaVuSans-20" x="145.996094"/>
      <use xlink:href="#DejaVuSans-74" x="177.783203"/>
      <use xlink:href="#DejaVuSans-68" x="216.992188"/>
      <use xlink:href="#DejaVuSans-69" x="280.371094"/>
      <use xlink:href="#DejaVuSans-63" x="308.154297"/>
      <use xlink:href="#DejaVuSans-6b" x="363.134766"/>
      <use xlink:href="#DejaVuSans-6e" x="421.044922"/>
      <use xlink:href="#DejaVuSans-65" x="484.423828"/>
      <use xlink:href="#DejaVuSans-73" x="545.947266"/>
      <use xlink:href="#DejaVuSans-73" x="598.046875"/>
      <use xlink:href="#DejaVuSans-20" x="650.146484"/>
      <use xlink:href="#DejaVuSans-5b" x="681.933594"/>
      <use xlink:href="#DejaVuSans-63" x="720.947266"/>
      <use xlink:href="#DejaVuSans-6d" x="775.927734"/>
      <use xlink:href="#DejaVuSans-5d" x="873.339844"/>
     </g>
    </g>
   </g>
   <g id="matplotlib.axis_4">
    <g id="ytick_7">
     <g id="line2d_45">
      <path d="M 362.356929 253.607914 
L 604.965625 253.607914 
" clip-path="url(#p3c1641d17c)" style="fill: none; stroke-dasharray: 2.96,1.28; stroke-dashoffset: 0; stroke: #b0b0b0; stroke-opacity: 0.3; stroke-width: 0.8"/>
     </g>
     <g id="line2d_46">
      <g>
       <use xlink:href="#mfe8e1b21a3" x="362.356929" y="253.607914" style="stroke: #000000; stroke-width: 0.8"/>
      </g>
     </g>
     <g id="text_26">
      <!-- 0 % -->
      <g transform="translate(336.314742 257.407133)scale(0.1 -0.1)">
       <use xlink:href="#DejaVuSans-30"/>
       <use xlink:href="#DejaVuSans-20" x="63.623047"/>
       <use xlink:href="#DejaVuSans-25" x="95.410156"/>
      </g>
     </g>
    </g>
    <g id="ytick_8">
     <g id="line2d_47">
      <path d="M 362.356929 205.086175 
L 604.965625 205.086175 
" clip-path="url(#p3c1641d17c)" style="fill: none; stroke-dasharray: 2.96,1.28; stroke-dashoffset: 0; stroke: #b0b0b0; stroke-opacity: 0.3; stroke-width: 0.8"/>
     </g>
     <g id="line2d_48">
      <g>
       <use xlink:href="#mfe8e1b21a3" x="362.356929" y="205.086175" style="stroke: #000000; stroke-width: 0.8"/>
      </g>
     </g>
     <g id="text_27">
      <!-- 20 % -->
      <g transform="translate(329.952242 208.885394)scale(0.1 -0.1)">
       <use xlink:href="#DejaVuSans-32"/>
       <use xlink:href="#DejaVuSans-30" x="63.623047"/>
       <use xlink:href="#DejaVuSans-20" x="127.246094"/>
       <use xlink:href="#DejaVuSans-25" x="159.033203"/>
      </g>
     </g>
    </g>
    <g id="ytick_9">
     <g id="line2d_49">
      <path d="M 362.356929 156.564436 
L 604.965625 156.564436 
" clip-path="url(#p3c1641d17c)" style="fill: none; stroke-dasharray: 2.96,1.28; stroke-dashoffset: 0; stroke: #b0b0b0; stroke-opacity: 0.3; stroke-width: 0.8"/>
     </g>
     <g id="line2d_50">
      <g>
       <use xlink:href="#mfe8e1b21a3" x="362.356929" y="156.564436" style="stroke: #000000; stroke-width: 0.8"/>
      </g>
     </g>
     <g id="text_28">
      <!-- 40 % -->
      <g transform="translate(329.952242 160.363655)scale(0.1 -0.1)">
       <use xlink:href="#DejaVuSans-34"/>
       <use xlink:href="#DejaVuSans-30" x="63.623047"/>
       <use xlink:href="#DejaVuSans-20" x="127.246094"/>
       <use xlink:href="#DejaVuSans-25" x="159.033203"/>
      </g>
     </g>
    </g>
    <g id="ytick_10">
     <g id="line2d_51">
      <path d="M 362.356929 108.042697 
L 604.965625 108.042697 
" clip-path="url(#p3c1641d17c)" style="fill: none; stroke-dasharray: 2.96,1.28; stroke-dashoffset: 0; stroke: #b0b0b0; stroke-opacity: 0.3; stroke-width: 0.8"/>
     </g>
     <g id="line2d_52">
      <g>
       <use xlink:href="#mfe8e1b21a3" x="362.356929" y="108.042697" style="stroke: #000000; stroke-width: 0.8"/>
      </g>
     </g>
     <g id="text_29">
      <!-- 60 % -->
      <g transform="translate(329.952242 111.841916)scale(0.1 -0.1)">
       <use xlink:href="#DejaVuSans-36"/>
       <use xlink:href="#DejaVuSans-30" x="63.623047"/>
       <use xlink:href="#DejaVuSans-20" x="127.246094"/>
       <use xlink:href="#DejaVuSans-25" x="159.033203"/>
      </g>
     </g>
    </g>
    <g id="ytick_11">
     <g id="line2d_53">
      <path d="M 362.356929 59.520958 
L 604.965625 59.520958 
" clip-path="url(#p3c1641d17c)" style="fill: none; stroke-dasharray: 2.96,1.28; stroke-dashoffset: 0; stroke: #b0b0b0; stroke-opacity: 0.3; stroke-width: 0.8"/>
     </g>
     <g id="line2d_54">
      <g>
       <use xlink:href="#mfe8e1b21a3" x="362.356929" y="59.520958" style="stroke: #000000; stroke-width: 0.8"/>
      </g>
     </g>
     <g id="text_30">
      <!-- 80 % -->
      <g transform="translate(329.952242 63.320177)scale(0.1 -0.1)">
       <use xlink:href="#DejaVuSans-38"/>
       <use xlink:href="#DejaVuSans-30" x="63.623047"/>
       <use xlink:href="#DejaVuSans-20" x="127.246094"/>
       <use xlink:href="#DejaVuSans-25" x="159.033203"/>
      </g>
     </g>
    </g>
    <g id="ytick_12">
     <g id="line2d_55">
      <path d="M 362.356929 10.999219 
L 604.965625 10.999219 
" clip-path="url(#p3c1641d17c)" style="fill: none; stroke-dasharray: 2.96,1.28; stroke-dashoffset: 0; stroke: #b0b0b0; stroke-opacity: 0.3; stroke-width: 0.8"/>
     </g>
     <g id="line2d_56">
      <g>
       <use xlink:href="#mfe8e1b21a3" x="362.356929" y="10.999219" style="stroke: #000000; stroke-width: 0.8"/>
      </g>
     </g>
     <g id="text_31">
      <!-- 100 % -->
      <g transform="translate(323.589742 14.798438)scale(0.1 -0.1)">
       <use xlink:href="#DejaVuSans-31"/>
       <use xlink:href="#DejaVuSans-30" x="63.623047"/>
       <use xlink:href="#DejaVuSans-30" x="127.246094"/>
       <use xlink:href="#DejaVuSans-20" x="190.869141"/>
       <use xlink:href="#DejaVuSans-25" x="222.65625"/>
      </g>
     </g>
    </g>
    <g id="text_32">
     <!-- Relative SIT error -->
     <g transform="translate(317.510054 175.451223)rotate(-90)scale(0.1 -0.1)">
      <defs>
       <path id="DejaVuSans-52" d="M 2841 2188 
Q 3044 2119 3236 1894 
Q 3428 1669 3622 1275 
L 4263 0 
L 3584 0 
L 2988 1197 
Q 2756 1666 2539 1819 
Q 2322 1972 1947 1972 
L 1259 1972 
L 1259 0 
L 628 0 
L 628 4666 
L 2053 4666 
Q 2853 4666 3247 4331 
Q 3641 3997 3641 3322 
Q 3641 2881 3436 2590 
Q 3231 2300 2841 2188 
z
M 1259 4147 
L 1259 2491 
L 2053 2491 
Q 2509 2491 2742 2702 
Q 2975 2913 2975 3322 
Q 2975 3731 2742 3939 
Q 2509 4147 2053 4147 
L 1259 4147 
z
" transform="scale(0.015625)"/>
      </defs>
      <use xlink:href="#DejaVuSans-52"/>
      <use xlink:href="#DejaVuSans-65" x="64.982422"/>
      <use xlink:href="#DejaVuSans-6c" x="126.505859"/>
      <use xlink:href="#DejaVuSans-61" x="154.289062"/>
      <use xlink:href="#DejaVuSans-74" x="215.568359"/>
      <use xlink:href="#DejaVuSans-69" x="254.777344"/>
      <use xlink:href="#DejaVuSans-76" x="282.560547"/>
      <use xlink:href="#DejaVuSans-65" x="341.740234"/>
      <use xlink:href="#DejaVuSans-20" x="403.263672"/>
      <use xlink:href="#DejaVuSans-53" x="435.050781"/>
      <use xlink:href="#DejaVuSans-49" x="498.527344"/>
      <use xlink:href="#DejaVuSans-54" x="528.019531"/>
      <use xlink:href="#DejaVuSans-20" x="589.103516"/>
      <use xlink:href="#DejaVuSans-65" x="620.890625"/>
      <use xlink:href="#DejaVuSans-72" x="682.414062"/>
      <use xlink:href="#DejaVuSans-72" x="721.777344"/>
      <use xlink:href="#DejaVuSans-6f" x="760.640625"/>
      <use xlink:href="#DejaVuSans-72" x="821.822266"/>
     </g>
    </g>
   </g>
   <g id="line2d_57">
    <path d="M 371.58334 -1 
L 372.061277 19.502891 
L 374.487364 79.12932 
L 376.913451 116.856123 
L 379.339538 142.282655 
L 381.765625 160.165361 
L 384.191712 173.119605 
L 386.617799 182.696287 
L 389.043886 189.873731 
L 391.469973 195.298933 
L 393.89606 199.416693 
L 396.322147 202.54168 
L 398.748234 204.904418 
L 401.174321 206.674656 
L 403.600408 207.985729 
L 406.026495 208.928864 
L 408.452582 209.582014 
L 410.878668 210.002628 
L 413.304755 210.232001 
L 415.730842 210.307128 
L 418.156929 210.252065 
L 420.583016 210.090071 
L 423.009103 209.831976 
L 425.43519 209.493516 
L 427.861277 209.077415 
L 430.287364 208.60078 
L 432.713451 208.060369 
L 435.139538 207.461414 
L 437.565625 206.810972 
L 439.991712 206.106209 
L 442.417799 205.347649 
L 444.843886 204.536347 
L 447.269973 203.671628 
L 449.69606 202.757603 
L 452.122147 201.790127 
L 454.548234 200.75694 
L 456.974321 199.672586 
L 459.400408 198.524591 
L 461.826495 197.316252 
L 464.252582 196.042774 
L 466.678668 194.700995 
L 469.104755 193.275134 
L 471.530842 191.785319 
L 473.956929 190.195813 
L 476.383016 188.52923 
L 478.809103 186.775327 
L 481.23519 184.899083 
L 483.661277 182.918108 
L 486.087364 180.817322 
L 488.513451 178.578217 
L 490.939538 176.208948 
L 493.365625 173.671016 
L 495.791712 170.949433 
L 498.217799 168.029294 
L 500.643886 164.898062 
L 503.069973 161.509277 
L 505.49606 157.837125 
L 507.922147 153.844998 
L 510.348234 149.466625 
L 512.774321 144.701547 
L 515.200408 139.470485 
L 517.626495 133.671167 
L 520.052582 127.343959 
L 522.478668 120.489554 
L 524.904755 113.176704 
L 527.330842 105.697566 
L 529.756929 98.459354 
L 532.183016 91.815733 
L 534.609103 86.161281 
L 537.03519 81.56764 
L 539.461277 77.998706 
L 541.887364 75.297651 
L 544.313451 73.367111 
L 546.739538 71.985998 
L 549.165625 71.046746 
L 551.591712 70.460141 
L 554.017799 70.092537 
L 556.443886 69.892245 
L 558.869973 69.794792 
L 561.29606 69.728564 
L 563.722147 69.627141 
L 566.148234 69.626172 
L 568.574321 69.472075 
L 571.000408 69.261943 
L 573.426495 68.92713 
L 575.852582 68.476178 
L 578.278668 67.933345 
L 580.704755 67.292813 
L 583.130842 66.46294 
L 585.556929 65.497611 
L 587.983016 64.452174 
L 590.409103 63.351028 
L 592.83519 62.093807 
L 595.261277 60.774594 
L 597.687364 59.403824 
L 600.113451 57.963386 
L 602.539538 56.542076 
L 604.965625 55.084968 
" clip-path="url(#p3c1641d17c)" style="fill: none; stroke: #1f77b4; stroke-width: 1.5; stroke-linecap: square"/>
   </g>
   <g id="patch_9">
    <path d="M 362.356929 253.607914 
L 362.356929 10.999219 
" style="fill: none; stroke: #000000; stroke-width: 0.8; stroke-linejoin: miter; stroke-linecap: square"/>
   </g>
   <g id="patch_10">
    <path d="M 604.965625 253.607914 
L 604.965625 10.999219 
" style="fill: none; stroke: #000000; stroke-width: 0.8; stroke-linejoin: miter; stroke-linecap: square"/>
   </g>
   <g id="patch_11">
    <path d="M 362.356929 253.607914 
L 604.965625 253.607914 
" style="fill: none; stroke: #000000; stroke-width: 0.8; stroke-linejoin: miter; stroke-linecap: square"/>
   </g>
   <g id="patch_12">
    <path d="M 362.356929 10.999219 
L 604.965625 10.999219 
" style="fill: none; stroke: #000000; stroke-width: 0.8; stroke-linejoin: miter; stroke-linecap: square"/>
   </g>
  </g>
 </g>
 <defs>
  <clipPath id="p5a717c6df6">
   <rect x="46.965625" y="10.999219" width="242.608696" height="242.608696"/>
  </clipPath>
  <clipPath id="p3c1641d17c">
   <rect x="362.356929" y="10.999219" width="242.608696" height="242.608696"/>
  </clipPath>
 </defs>
</svg>