<?xml version="1.0" encoding="utf-8"?>
<svg xmlns="http://www.w3.org/2000/svg" xmlns:xlink="http://www.w3.org/1999/xlink" width="600" height="400" viewBox="0 0 2400 1600">
<defs>
  <clipPath id="clip010">
    <rect x="0" y="0" width="2400" height="1600"/>
  </clipPath>
</defs>
<path clip-path="url(#clip010)" d="
M0 1600 L2400 1600 L2400 0 L0 0  Z
  " fill="#ffffff" fill-rule="evenodd" fill-opacity="1"/>
<defs>
  <clipPath id="clip011">
    <rect x="480" y="0" width="1681" height="1600"/>
  </clipPath>
</defs>
<path clip-path="url(#clip010)" d="
M203.964 1423.18 L2352.76 1423.18 L2352.76 47.2441 L203.964 47.2441  Z
  " fill="#ffffff" fill-rule="evenodd" fill-opacity="1"/>
<defs>
  <clipPath id="clip012">
    <rect x="203" y="47" width="2150" height="1377"/>
  </clipPath>
</defs>
<polyline clip-path="url(#clip012)" style="stroke:#000000; stroke-linecap:butt; stroke-linejoin:round; stroke-width:2; stroke-opacity:0.1; fill:none" points="
  203.964,1423.18 203.964,47.2441 
  "/>
<polyline clip-path="url(#clip012)" style="stroke:#000000; stroke-linecap:butt; stroke-linejoin:round; stroke-width:2; stroke-opacity:0.1; fill:none" points="
  633.722,1423.18 633.722,47.2441 
  "/>
<polyline clip-path="url(#clip012)" style="stroke:#000000; stroke-linecap:butt; stroke-linejoin:round; stroke-width:2; stroke-opacity:0.1; fill:none" points="
  1063.48,1423.18 1063.48,47.2441 
  "/>
<polyline clip-path="url(#clip012)" style="stroke:#000000; stroke-linecap:butt; stroke-linejoin:round; stroke-width:2; stroke-opacity:0.1; fill:none" points="
  1493.24,1423.18 1493.24,47.2441 
  "/>
<polyline clip-path="url(#clip012)" style="stroke:#000000; stroke-linecap:butt; stroke-linejoin:round; stroke-width:2; stroke-opacity:0.1; fill:none" points="
  1923,1423.18 1923,47.2441 
  "/>
<polyline clip-path="url(#clip012)" style="stroke:#000000; stroke-linecap:butt; stroke-linejoin:round; stroke-width:2; stroke-opacity:0.1; fill:none" points="
  2352.76,1423.18 2352.76,47.2441 
  "/>
<polyline clip-path="url(#clip010)" style="stroke:#000000; stroke-linecap:butt; stroke-linejoin:round; stroke-width:4; stroke-opacity:1; fill:none" points="
  203.964,1423.18 2352.76,1423.18 
  "/>
<polyline clip-path="url(#clip010)" style="stroke:#000000; stroke-linecap:butt; stroke-linejoin:round; stroke-width:4; stroke-opacity:1; fill:none" points="
  203.964,1423.18 203.964,1404.28 
  "/>
<polyline clip-path="url(#clip010)" style="stroke:#000000; stroke-linecap:butt; stroke-linejoin:round; stroke-width:4; stroke-opacity:1; fill:none" points="
  633.722,1423.18 633.722,1404.28 
  "/>
<polyline clip-path="url(#clip010)" style="stroke:#000000; stroke-linecap:butt; stroke-linejoin:round; stroke-width:4; stroke-opacity:1; fill:none" points="
  1063.48,1423.18 1063.48,1404.28 
  "/>
<polyline clip-path="url(#clip010)" style="stroke:#000000; stroke-linecap:butt; stroke-linejoin:round; stroke-width:4; stroke-opacity:1; fill:none" points="
  1493.24,1423.18 1493.24,1404.28 
  "/>
<polyline clip-path="url(#clip010)" style="stroke:#000000; stroke-linecap:butt; stroke-linejoin:round; stroke-width:4; stroke-opacity:1; fill:none" points="
  1923,1423.18 1923,1404.28 
  "/>
<polyline clip-path="url(#clip010)" style="stroke:#000000; stroke-linecap:butt; stroke-linejoin:round; stroke-width:4; stroke-opacity:1; fill:none" points="
  2352.76,1423.18 2352.76,1404.28 
  "/>
<path clip-path="url(#clip010)" d="M203.964 1454.1 Q200.352 1454.1 198.524 1457.66 Q196.718 1461.2 196.718 1468.33 Q196.718 1475.44 198.524 1479.01 Q200.352 1482.55 203.964 1482.55 Q207.598 1482.55 209.403 1479.01 Q211.232 1475.44 211.232 1468.33 Q211.232 1461.2 209.403 1457.66 Q207.598 1454.1 203.964 1454.1 M203.964 1450.39 Q209.774 1450.39 212.829 1455 Q215.908 1459.58 215.908 1468.33 Q215.908 1477.06 212.829 1481.67 Q209.774 1486.25 203.964 1486.25 Q198.153 1486.25 195.075 1481.67 Q192.019 1477.06 192.019 1468.33 Q192.019 1459.58 195.075 1455 Q198.153 1450.39 203.964 1450.39 Z" fill="#000000" fill-rule="evenodd" fill-opacity="1" /><path clip-path="url(#clip010)" d="M608.41 1481.64 L616.049 1481.64 L616.049 1455.28 L607.738 1456.95 L607.738 1452.69 L616.002 1451.02 L620.678 1451.02 L620.678 1481.64 L628.317 1481.64 L628.317 1485.58 L608.41 1485.58 L608.41 1481.64 Z" fill="#000000" fill-rule="evenodd" fill-opacity="1" /><path clip-path="url(#clip010)" d="M647.761 1454.1 Q644.15 1454.1 642.322 1457.66 Q640.516 1461.2 640.516 1468.33 Q640.516 1475.44 642.322 1479.01 Q644.15 1482.55 647.761 1482.55 Q651.396 1482.55 653.201 1479.01 Q655.03 1475.44 655.03 1468.33 Q655.03 1461.2 653.201 1457.66 Q651.396 1454.1 647.761 1454.1 M647.761 1450.39 Q653.571 1450.39 656.627 1455 Q659.706 1459.58 659.706 1468.33 Q659.706 1477.06 656.627 1481.67 Q653.571 1486.25 647.761 1486.25 Q641.951 1486.25 638.872 1481.67 Q635.817 1477.06 635.817 1468.33 Q635.817 1459.58 638.872 1455 Q641.951 1450.39 647.761 1450.39 Z" fill="#000000" fill-rule="evenodd" fill-opacity="1" /><path clip-path="url(#clip010)" d="M1042.25 1481.64 L1058.57 1481.64 L1058.57 1485.58 L1036.63 1485.58 L1036.63 1481.64 Q1039.29 1478.89 1043.87 1474.26 Q1048.48 1469.61 1049.66 1468.27 Q1051.91 1465.74 1052.79 1464.01 Q1053.69 1462.25 1053.69 1460.56 Q1053.69 1457.8 1051.74 1456.07 Q1049.82 1454.33 1046.72 1454.33 Q1044.52 1454.33 1042.07 1455.09 Q1039.64 1455.86 1036.86 1457.41 L1036.86 1452.69 Q1039.68 1451.55 1042.14 1450.97 Q1044.59 1450.39 1046.63 1450.39 Q1052 1450.39 1055.19 1453.08 Q1058.39 1455.77 1058.39 1460.26 Q1058.39 1462.39 1057.58 1464.31 Q1056.79 1466.2 1054.68 1468.8 Q1054.11 1469.47 1051 1472.69 Q1047.9 1475.88 1042.25 1481.64 Z" fill="#000000" fill-rule="evenodd" fill-opacity="1" /><path clip-path="url(#clip010)" d="M1078.39 1454.1 Q1074.78 1454.1 1072.95 1457.66 Q1071.14 1461.2 1071.14 1468.33 Q1071.14 1475.44 1072.95 1479.01 Q1074.78 1482.55 1078.39 1482.55 Q1082.02 1482.55 1083.83 1479.01 Q1085.66 1475.44 1085.66 1468.33 Q1085.66 1461.2 1083.83 1457.66 Q1082.02 1454.1 1078.39 1454.1 M1078.39 1450.39 Q1084.2 1450.39 1087.25 1455 Q1090.33 1459.58 1090.33 1468.33 Q1090.33 1477.06 1087.25 1481.67 Q1084.2 1486.25 1078.39 1486.25 Q1072.58 1486.25 1069.5 1481.67 Q1066.44 1477.06 1066.44 1468.33 Q1066.44 1459.58 1069.5 1455 Q1072.58 1450.39 1078.39 1450.39 Z" fill="#000000" fill-rule="evenodd" fill-opacity="1" /><path clip-path="url(#clip010)" d="M1482.08 1466.95 Q1485.44 1467.66 1487.31 1469.93 Q1489.21 1472.2 1489.21 1475.53 Q1489.21 1480.65 1485.69 1483.45 Q1482.17 1486.25 1475.69 1486.25 Q1473.52 1486.25 1471.2 1485.81 Q1468.91 1485.39 1466.46 1484.54 L1466.46 1480.02 Q1468.4 1481.16 1470.72 1481.74 Q1473.03 1482.32 1475.55 1482.32 Q1479.95 1482.32 1482.24 1480.58 Q1484.56 1478.84 1484.56 1475.53 Q1484.56 1472.48 1482.41 1470.77 Q1480.28 1469.03 1476.46 1469.03 L1472.43 1469.03 L1472.43 1465.19 L1476.64 1465.19 Q1480.09 1465.19 1481.92 1463.82 Q1483.75 1462.43 1483.75 1459.84 Q1483.75 1457.18 1481.85 1455.77 Q1479.98 1454.33 1476.46 1454.33 Q1474.54 1454.33 1472.34 1454.75 Q1470.14 1455.16 1467.5 1456.04 L1467.5 1451.88 Q1470.16 1451.14 1472.48 1450.77 Q1474.81 1450.39 1476.87 1450.39 Q1482.2 1450.39 1485.3 1452.83 Q1488.4 1455.23 1488.4 1459.35 Q1488.4 1462.22 1486.76 1464.21 Q1485.11 1466.18 1482.08 1466.95 Z" fill="#000000" fill-rule="evenodd" fill-opacity="1" /><path clip-path="url(#clip010)" d="M1508.08 1454.1 Q1504.47 1454.1 1502.64 1457.66 Q1500.83 1461.2 1500.83 1468.33 Q1500.83 1475.44 1502.64 1479.01 Q1504.47 1482.55 1508.08 1482.55 Q1511.71 1482.55 1513.52 1479.01 Q1515.35 1475.44 1515.35 1468.33 Q1515.35 1461.2 1513.52 1457.66 Q1511.71 1454.1 1508.08 1454.1 M1508.08 1450.39 Q1513.89 1450.39 1516.94 1455 Q1520.02 1459.58 1520.02 1468.33 Q1520.02 1477.06 1516.94 1481.67 Q1513.89 1486.25 1508.08 1486.25 Q1502.27 1486.25 1499.19 1481.67 Q1496.13 1477.06 1496.13 1468.33 Q1496.13 1459.58 1499.19 1455 Q1502.27 1450.39 1508.08 1450.39 Z" fill="#000000" fill-rule="evenodd" fill-opacity="1" /><path clip-path="url(#clip010)" d="M1911.17 1455.09 L1899.36 1473.54 L1911.17 1473.54 L1911.17 1455.09 M1909.94 1451.02 L1915.82 1451.02 L1915.82 1473.54 L1920.75 1473.54 L1920.75 1477.43 L1915.82 1477.43 L1915.82 1485.58 L1911.17 1485.58 L1911.17 1477.43 L1895.57 1477.43 L1895.57 1472.92 L1909.94 1451.02 Z" fill="#000000" fill-rule="evenodd" fill-opacity="1" /><path clip-path="url(#clip010)" d="M1938.48 1454.1 Q1934.87 1454.1 1933.04 1457.66 Q1931.24 1461.2 1931.24 1468.33 Q1931.24 1475.44 1933.04 1479.01 Q1934.87 1482.55 1938.48 1482.55 Q1942.12 1482.55 1943.92 1479.01 Q1945.75 1475.44 1945.75 1468.33 Q1945.75 1461.2 1943.92 1457.66 Q1942.12 1454.1 1938.48 1454.1 M1938.48 1450.39 Q1944.29 1450.39 1947.35 1455 Q1950.43 1459.58 1950.43 1468.33 Q1950.43 1477.06 1947.35 1481.67 Q1944.29 1486.25 1938.48 1486.25 Q1932.67 1486.25 1929.59 1481.67 Q1926.54 1477.06 1926.54 1468.33 Q1926.54 1459.58 1929.59 1455 Q1932.67 1450.39 1938.48 1450.39 Z" fill="#000000" fill-rule="evenodd" fill-opacity="1" /><path clip-path="url(#clip010)" d="M2327.46 1451.02 L2345.81 1451.02 L2345.81 1454.96 L2331.74 1454.96 L2331.74 1463.43 Q2332.76 1463.08 2333.77 1462.92 Q2334.79 1462.73 2335.81 1462.73 Q2341.6 1462.73 2344.98 1465.9 Q2348.36 1469.08 2348.36 1474.49 Q2348.36 1480.07 2344.89 1483.17 Q2341.41 1486.25 2335.09 1486.25 Q2332.92 1486.25 2330.65 1485.88 Q2328.4 1485.51 2326 1484.77 L2326 1480.07 Q2328.08 1481.2 2330.3 1481.76 Q2332.52 1482.32 2335 1482.32 Q2339.01 1482.32 2341.34 1480.21 Q2343.68 1478.1 2343.68 1474.49 Q2343.68 1470.88 2341.34 1468.77 Q2339.01 1466.67 2335 1466.67 Q2333.13 1466.67 2331.25 1467.08 Q2329.4 1467.5 2327.46 1468.38 L2327.46 1451.02 Z" fill="#000000" fill-rule="evenodd" fill-opacity="1" /><path clip-path="url(#clip010)" d="M2367.57 1454.1 Q2363.96 1454.1 2362.13 1457.66 Q2360.33 1461.2 2360.33 1468.33 Q2360.33 1475.44 2362.13 1479.01 Q2363.96 1482.55 2367.57 1482.55 Q2371.2 1482.55 2373.01 1479.01 Q2374.84 1475.44 2374.84 1468.33 Q2374.84 1461.2 2373.01 1457.66 Q2371.2 1454.1 2367.57 1454.1 M2367.57 1450.39 Q2373.38 1450.39 2376.44 1455 Q2379.52 1459.58 2379.52 1468.33 Q2379.52 1477.06 2376.44 1481.67 Q2373.38 1486.25 2367.57 1486.25 Q2361.76 1486.25 2358.68 1481.67 Q2355.63 1477.06 2355.63 1468.33 Q2355.63 1459.58 2358.68 1455 Q2361.76 1450.39 2367.57 1450.39 Z" fill="#000000" fill-rule="evenodd" fill-opacity="1" /><path clip-path="url(#clip010)" d="M1178.23 1522.08 L1178.23 1528.35 Q1174.57 1526.6 1171.32 1525.74 Q1168.07 1524.88 1165.05 1524.88 Q1159.8 1524.88 1156.93 1526.92 Q1154.1 1528.96 1154.1 1532.71 Q1154.1 1535.87 1155.98 1537.49 Q1157.89 1539.08 1163.17 1540.07 L1167.06 1540.86 Q1174.25 1542.23 1177.65 1545.7 Q1181.09 1549.14 1181.09 1554.93 Q1181.09 1561.84 1176.44 1565.4 Q1171.83 1568.97 1162.89 1568.97 Q1159.51 1568.97 1155.69 1568.2 Q1151.9 1567.44 1147.83 1565.94 L1147.83 1559.32 Q1151.75 1561.52 1155.5 1562.63 Q1159.26 1563.75 1162.89 1563.75 Q1168.39 1563.75 1171.38 1561.58 Q1174.38 1559.42 1174.38 1555.41 Q1174.38 1551.91 1172.21 1549.93 Q1170.08 1547.96 1165.18 1546.97 L1161.26 1546.21 Q1154.07 1544.78 1150.85 1541.72 Q1147.64 1538.67 1147.64 1533.22 Q1147.64 1526.92 1152.06 1523.29 Q1156.52 1519.66 1164.32 1519.66 Q1167.66 1519.66 1171.13 1520.27 Q1174.6 1520.87 1178.23 1522.08 Z" fill="#000000" fill-rule="evenodd" fill-opacity="1" /><path clip-path="url(#clip010)" d="M1191.12 1520.52 L1197.55 1520.52 L1197.55 1568.04 L1191.12 1568.04 L1191.12 1520.52 Z" fill="#000000" fill-rule="evenodd" fill-opacity="1" /><path clip-path="url(#clip010)" d="M1203.75 1520.52 L1243.95 1520.52 L1243.95 1525.93 L1227.08 1525.93 L1227.08 1568.04 L1220.62 1568.04 L1220.62 1525.93 L1203.75 1525.93 L1203.75 1520.52 Z" fill="#000000" fill-rule="evenodd" fill-opacity="1" /><path clip-path="url(#clip010)" d="M1270.08 1518.52 L1283.58 1518.52 L1283.58 1523.07 L1275.94 1523.07 L1275.94 1572.09 L1283.58 1572.09 L1283.58 1576.64 L1270.08 1576.64 L1270.08 1518.52 Z" fill="#000000" fill-rule="evenodd" fill-opacity="1" /><path clip-path="url(#clip010)" d="M1321.71 1533.76 L1321.71 1539.24 Q1319.23 1537.87 1316.71 1537.2 Q1314.23 1536.5 1311.68 1536.5 Q1305.99 1536.5 1302.84 1540.13 Q1299.68 1543.73 1299.68 1550.25 Q1299.68 1556.78 1302.84 1560.4 Q1305.99 1564 1311.68 1564 Q1314.23 1564 1316.71 1563.33 Q1319.23 1562.63 1321.71 1561.26 L1321.71 1566.68 Q1319.26 1567.82 1316.62 1568.39 Q1314.01 1568.97 1311.05 1568.97 Q1303 1568.97 1298.25 1563.91 Q1293.51 1558.85 1293.51 1550.25 Q1293.51 1541.53 1298.28 1536.53 Q1303.09 1531.54 1311.43 1531.54 Q1314.14 1531.54 1316.71 1532.11 Q1319.29 1532.65 1321.71 1533.76 Z" fill="#000000" fill-rule="evenodd" fill-opacity="1" /><path clip-path="url(#clip010)" d="M1359.65 1539.24 Q1361.85 1535.29 1364.9 1533.41 Q1367.96 1531.54 1372.09 1531.54 Q1377.66 1531.54 1380.69 1535.45 Q1383.71 1539.33 1383.71 1546.53 L1383.71 1568.04 L1377.82 1568.04 L1377.82 1546.72 Q1377.82 1541.59 1376.01 1539.11 Q1374.2 1536.63 1370.47 1536.63 Q1365.92 1536.63 1363.28 1539.65 Q1360.64 1542.68 1360.64 1547.9 L1360.64 1568.04 L1354.75 1568.04 L1354.75 1546.72 Q1354.75 1541.56 1352.93 1539.11 Q1351.12 1536.63 1347.33 1536.63 Q1342.84 1536.63 1340.2 1539.68 Q1337.56 1542.71 1337.56 1547.9 L1337.56 1568.04 L1331.67 1568.04 L1331.67 1532.4 L1337.56 1532.4 L1337.56 1537.93 Q1339.57 1534.66 1342.37 1533.1 Q1345.17 1531.54 1349.02 1531.54 Q1352.9 1531.54 1355.61 1533.51 Q1358.34 1535.48 1359.65 1539.24 Z" fill="#000000" fill-rule="evenodd" fill-opacity="1" /><path clip-path="url(#clip010)" d="M1409.08 1518.52 L1409.08 1576.64 L1395.58 1576.64 L1395.58 1572.09 L1403.19 1572.09 L1403.19 1523.07 L1395.58 1523.07 L1395.58 1518.52 L1409.08 1518.52 Z" fill="#000000" fill-rule="evenodd" fill-opacity="1" /><polyline clip-path="url(#clip012)" style="stroke:#000000; stroke-linecap:butt; stroke-linejoin:round; stroke-width:2; stroke-opacity:0.1; fill:none" points="
  203.964,1423.18 2352.76,1423.18 
  "/>
<polyline clip-path="url(#clip012)" style="stroke:#000000; stroke-linecap:butt; stroke-linejoin:round; stroke-width:2; stroke-opacity:0.1; fill:none" points="
  203.964,1079.2 2352.76,1079.2 
  "/>
<polyline clip-path="url(#clip012)" style="stroke:#000000; stroke-linecap:butt; stroke-linejoin:round; stroke-width:2; stroke-opacity:0.1; fill:none" points="
  203.964,735.212 2352.76,735.212 
  "/>
<polyline clip-path="url(#clip012)" style="stroke:#000000; stroke-linecap:butt; stroke-linejoin:round; stroke-width:2; stroke-opacity:0.1; fill:none" points="
  203.964,391.228 2352.76,391.228 
  "/>
<polyline clip-path="url(#clip012)" style="stroke:#000000; stroke-linecap:butt; stroke-linejoin:round; stroke-width:2; stroke-opacity:0.1; fill:none" points="
  203.964,47.2441 2352.76,47.2441 
  "/>
<polyline clip-path="url(#clip010)" style="stroke:#000000; stroke-linecap:butt; stroke-linejoin:round; stroke-width:4; stroke-opacity:1; fill:none" points="
  203.964,1423.18 203.964,47.2441 
  "/>
<polyline clip-path="url(#clip010)" style="stroke:#000000; stroke-linecap:butt; stroke-linejoin:round; stroke-width:4; stroke-opacity:1; fill:none" points="
  203.964,1423.18 222.861,1423.18 
  "/>
<polyline clip-path="url(#clip010)" style="stroke:#000000; stroke-linecap:butt; stroke-linejoin:round; stroke-width:4; stroke-opacity:1; fill:none" points="
  203.964,1079.2 222.861,1079.2 
  "/>
<polyline clip-path="url(#clip010)" style="stroke:#000000; stroke-linecap:butt; stroke-linejoin:round; stroke-width:4; stroke-opacity:1; fill:none" points="
  203.964,735.212 222.861,735.212 
  "/>
<polyline clip-path="url(#clip010)" style="stroke:#000000; stroke-linecap:butt; stroke-linejoin:round; stroke-width:4; stroke-opacity:1; fill:none" points="
  203.964,391.228 222.861,391.228 
  "/>
<polyline clip-path="url(#clip010)" style="stroke:#000000; stroke-linecap:butt; stroke-linejoin:round; stroke-width:4; stroke-opacity:1; fill:none" points="
  203.964,47.2441 222.861,47.2441 
  "/>
<path clip-path="url(#clip010)" d="M156.019 1408.98 Q152.408 1408.98 150.579 1412.54 Q148.774 1416.08 148.774 1423.21 Q148.774 1430.32 150.579 1433.89 Q152.408 1437.43 156.019 1437.43 Q159.653 1437.43 161.459 1433.89 Q163.288 1430.32 163.288 1423.21 Q163.288 1416.08 161.459 1412.54 Q159.653 1408.98 156.019 1408.98 M156.019 1405.27 Q161.829 1405.27 164.885 1409.88 Q167.964 1414.46 167.964 1423.21 Q167.964 1431.94 164.885 1436.55 Q161.829 1441.13 156.019 1441.13 Q150.209 1441.13 147.13 1436.55 Q144.075 1431.94 144.075 1423.21 Q144.075 1414.46 147.13 1409.88 Q150.209 1405.27 156.019 1405.27 Z" fill="#000000" fill-rule="evenodd" fill-opacity="1" /><path clip-path="url(#clip010)" d="M147.061 1061.92 L165.417 1061.92 L165.417 1065.85 L151.343 1065.85 L151.343 1074.32 Q152.362 1073.98 153.38 1073.81 Q154.399 1073.63 155.417 1073.63 Q161.204 1073.63 164.584 1076.8 Q167.964 1079.97 167.964 1085.39 Q167.964 1090.97 164.491 1094.07 Q161.019 1097.15 154.7 1097.15 Q152.524 1097.15 150.255 1096.78 Q148.01 1096.41 145.603 1095.67 L145.603 1090.97 Q147.686 1092.1 149.908 1092.66 Q152.13 1093.21 154.607 1093.21 Q158.612 1093.21 160.95 1091.11 Q163.288 1089 163.288 1085.39 Q163.288 1081.78 160.95 1079.67 Q158.612 1077.56 154.607 1077.56 Q152.732 1077.56 150.857 1077.98 Q149.005 1078.4 147.061 1079.28 L147.061 1061.92 Z" fill="#000000" fill-rule="evenodd" fill-opacity="1" /><path clip-path="url(#clip010)" d="M116.668 748.557 L124.306 748.557 L124.306 722.191 L115.996 723.858 L115.996 719.599 L124.26 717.932 L128.936 717.932 L128.936 748.557 L136.575 748.557 L136.575 752.492 L116.668 752.492 L116.668 748.557 Z" fill="#000000" fill-rule="evenodd" fill-opacity="1" /><path clip-path="url(#clip010)" d="M156.019 721.011 Q152.408 721.011 150.579 724.575 Q148.774 728.117 148.774 735.247 Q148.774 742.353 150.579 745.918 Q152.408 749.46 156.019 749.46 Q159.653 749.46 161.459 745.918 Q163.288 742.353 163.288 735.247 Q163.288 728.117 161.459 724.575 Q159.653 721.011 156.019 721.011 M156.019 717.307 Q161.829 717.307 164.885 721.913 Q167.964 726.497 167.964 735.247 Q167.964 743.973 164.885 748.58 Q161.829 753.163 156.019 753.163 Q150.209 753.163 147.13 748.58 Q144.075 743.973 144.075 735.247 Q144.075 726.497 147.13 721.913 Q150.209 717.307 156.019 717.307 Z" fill="#000000" fill-rule="evenodd" fill-opacity="1" /><path clip-path="url(#clip010)" d="M117.663 404.573 L125.302 404.573 L125.302 378.207 L116.992 379.874 L116.992 375.615 L125.255 373.948 L129.931 373.948 L129.931 404.573 L137.57 404.573 L137.57 408.508 L117.663 408.508 L117.663 404.573 Z" fill="#000000" fill-rule="evenodd" fill-opacity="1" /><path clip-path="url(#clip010)" d="M147.061 373.948 L165.417 373.948 L165.417 377.883 L151.343 377.883 L151.343 386.355 Q152.362 386.008 153.38 385.846 Q154.399 385.661 155.417 385.661 Q161.204 385.661 164.584 388.832 Q167.964 392.003 167.964 397.42 Q167.964 402.999 164.491 406.101 Q161.019 409.179 154.7 409.179 Q152.524 409.179 150.255 408.809 Q148.01 408.439 145.603 407.698 L145.603 402.999 Q147.686 404.133 149.908 404.689 Q152.13 405.244 154.607 405.244 Q158.612 405.244 160.95 403.138 Q163.288 401.031 163.288 397.42 Q163.288 393.809 160.95 391.703 Q158.612 389.596 154.607 389.596 Q152.732 389.596 150.857 390.013 Q149.005 390.429 147.061 391.309 L147.061 373.948 Z" fill="#000000" fill-rule="evenodd" fill-opacity="1" /><path clip-path="url(#clip010)" d="M119.885 60.5889 L136.204 60.5889 L136.204 64.5241 L114.26 64.5241 L114.26 60.5889 Q116.922 57.8343 121.505 53.2047 Q126.112 48.552 127.292 47.2094 Q129.538 44.6862 130.417 42.9501 Q131.32 41.1909 131.32 39.5011 Q131.32 36.7465 129.376 35.0104 Q127.455 33.2743 124.353 33.2743 Q122.154 33.2743 119.7 34.0381 Q117.269 34.802 114.492 36.3529 L114.492 31.6308 Q117.316 30.4965 119.769 29.9178 Q122.223 29.3391 124.26 29.3391 Q129.63 29.3391 132.825 32.0243 Q136.019 34.7094 136.019 39.2002 Q136.019 41.3298 135.209 43.2511 Q134.422 45.1492 132.316 47.7418 Q131.737 48.4131 128.635 51.6306 Q125.533 54.8251 119.885 60.5889 Z" fill="#000000" fill-rule="evenodd" fill-opacity="1" /><path clip-path="url(#clip010)" d="M156.019 33.0428 Q152.408 33.0428 150.579 36.6076 Q148.774 40.1492 148.774 47.2788 Q148.774 54.3853 150.579 57.9501 Q152.408 61.4917 156.019 61.4917 Q159.653 61.4917 161.459 57.9501 Q163.288 54.3853 163.288 47.2788 Q163.288 40.1492 161.459 36.6076 Q159.653 33.0428 156.019 33.0428 M156.019 29.3391 Q161.829 29.3391 164.885 33.9456 Q167.964 38.5289 167.964 47.2788 Q167.964 56.0056 164.885 60.6121 Q161.829 65.1954 156.019 65.1954 Q150.209 65.1954 147.13 60.6121 Q144.075 56.0056 144.075 47.2788 Q144.075 38.5289 147.13 33.9456 Q150.209 29.3391 156.019 29.3391 Z" fill="#000000" fill-rule="evenodd" fill-opacity="1" /><path clip-path="url(#clip010)" d="M18.0438 924.608 L24.314 924.608 Q22.5634 928.268 21.704 931.514 Q20.8447 934.761 20.8447 937.785 Q20.8447 943.036 22.8817 945.901 Q24.9187 948.734 28.6745 948.734 Q31.8255 948.734 33.4488 946.856 Q35.0402 944.946 36.0269 939.663 L36.8226 935.779 Q38.1912 928.586 41.6605 925.181 Q45.098 921.743 50.8908 921.743 Q57.7976 921.743 61.3624 926.39 Q64.9272 931.005 64.9272 939.949 Q64.9272 943.323 64.1633 947.142 Q63.3994 950.93 61.9035 955.004 L55.2831 955.004 Q57.4793 951.089 58.5933 947.333 Q59.7073 943.577 59.7073 939.949 Q59.7073 934.443 57.543 931.451 Q55.3786 928.459 51.3682 928.459 Q47.8671 928.459 45.8937 930.623 Q43.9204 932.756 42.9337 937.657 L42.1698 941.572 Q40.7375 948.766 37.682 951.98 Q34.6264 955.195 29.1837 955.195 Q22.8817 955.195 19.2532 950.771 Q15.6248 946.315 15.6248 938.517 Q15.6248 935.175 16.2295 931.705 Q16.8343 928.236 18.0438 924.608 Z" fill="#000000" fill-rule="evenodd" fill-opacity="1" /><path clip-path="url(#clip010)" d="M16.4842 911.717 L16.4842 905.288 L64.0042 905.288 L64.0042 911.717 L16.4842 911.717 Z" fill="#000000" fill-rule="evenodd" fill-opacity="1" /><path clip-path="url(#clip010)" d="M16.4842 899.081 L16.4842 858.882 L21.895 858.882 L21.895 875.751 L64.0042 875.751 L64.0042 882.212 L21.895 882.212 L21.895 899.081 L16.4842 899.081 Z" fill="#000000" fill-rule="evenodd" fill-opacity="1" /><path clip-path="url(#clip010)" d="M44.7161 801.718 L47.5806 801.718 L47.5806 828.645 Q53.6281 828.263 56.8109 825.016 Q59.9619 821.738 59.9619 815.913 Q59.9619 812.539 59.1344 809.388 Q58.3069 806.206 56.6518 803.086 L62.1899 803.086 Q63.5267 806.237 64.227 809.548 Q64.9272 812.858 64.9272 816.263 Q64.9272 824.793 59.9619 829.79 Q54.9967 834.756 46.5303 834.756 Q37.7774 834.756 32.6531 830.045 Q27.4968 825.303 27.4968 817.282 Q27.4968 810.089 32.1438 805.919 Q36.7589 801.718 44.7161 801.718 M42.9973 807.574 Q38.1912 807.638 35.3266 810.28 Q32.4621 812.89 32.4621 817.218 Q32.4621 822.12 35.2312 825.08 Q38.0002 828.008 43.0292 828.454 L42.9973 807.574 Z" fill="#000000" fill-rule="evenodd" fill-opacity="1" /><path clip-path="url(#clip010)" d="M33.8307 771.449 Q33.2578 772.435 33.0032 773.613 Q32.7167 774.759 32.7167 776.159 Q32.7167 781.125 35.9632 783.798 Q39.1779 786.44 45.2253 786.44 L64.0042 786.44 L64.0042 792.328 L28.3562 792.328 L28.3562 786.44 L33.8944 786.44 Q30.6479 784.594 29.0883 781.634 Q27.4968 778.674 27.4968 774.441 Q27.4968 773.836 27.5923 773.104 Q27.656 772.372 27.8151 771.481 L33.8307 771.449 Z" fill="#000000" fill-rule="evenodd" fill-opacity="1" /><path clip-path="url(#clip010)" d="M33.8307 745.795 Q33.2578 746.782 33.0032 747.959 Q32.7167 749.105 32.7167 750.506 Q32.7167 755.471 35.9632 758.144 Q39.1779 760.786 45.2253 760.786 L64.0042 760.786 L64.0042 766.674 L28.3562 766.674 L28.3562 760.786 L33.8944 760.786 Q30.6479 758.94 29.0883 755.98 Q27.4968 753.02 27.4968 748.787 Q27.4968 748.182 27.5923 747.45 Q27.656 746.718 27.8151 745.827 L33.8307 745.795 Z" fill="#000000" fill-rule="evenodd" fill-opacity="1" /><path clip-path="url(#clip010)" d="M32.4621 727.271 Q32.4621 731.981 36.1542 734.719 Q39.8145 737.456 46.212 737.456 Q52.6095 737.456 56.3017 734.75 Q59.9619 732.013 59.9619 727.271 Q59.9619 722.592 56.2698 719.855 Q52.5777 717.117 46.212 717.117 Q39.8781 717.117 36.186 719.855 Q32.4621 722.592 32.4621 727.271 M27.4968 727.271 Q27.4968 719.632 32.4621 715.271 Q37.4273 710.911 46.212 710.911 Q54.9649 710.911 59.9619 715.271 Q64.9272 719.632 64.9272 727.271 Q64.9272 734.941 59.9619 739.302 Q54.9649 743.631 46.212 743.631 Q37.4273 743.631 32.4621 739.302 Q27.4968 734.941 27.4968 727.271 Z" fill="#000000" fill-rule="evenodd" fill-opacity="1" /><path clip-path="url(#clip010)" d="M33.8307 680.546 Q33.2578 681.533 33.0032 682.711 Q32.7167 683.857 32.7167 685.257 Q32.7167 690.222 35.9632 692.896 Q39.1779 695.538 45.2253 695.538 L64.0042 695.538 L64.0042 701.426 L28.3562 701.426 L28.3562 695.538 L33.8944 695.538 Q30.6479 693.692 29.0883 690.732 Q27.4968 687.772 27.4968 683.538 Q27.4968 682.934 27.5923 682.202 Q27.656 681.469 27.8151 680.578 L33.8307 680.546 Z" fill="#000000" fill-rule="evenodd" fill-opacity="1" /><path clip-path="url(#clip010)" d="M14.479 654.224 L14.479 640.729 L19.0304 640.729 L19.0304 648.368 L68.0464 648.368 L68.0464 640.729 L72.5979 640.729 L72.5979 654.224 L14.479 654.224 Z" fill="#000000" fill-rule="evenodd" fill-opacity="1" /><path clip-path="url(#clip010)" d="M29.7248 602.598 L35.1993 602.598 Q33.8307 605.081 33.1623 607.595 Q32.4621 610.078 32.4621 612.624 Q32.4621 618.322 36.0905 621.473 Q39.6872 624.624 46.212 624.624 Q52.7369 624.624 56.3653 621.473 Q59.9619 618.322 59.9619 612.624 Q59.9619 610.078 59.2935 607.595 Q58.5933 605.081 57.2247 602.598 L62.6355 602.598 Q63.7814 605.049 64.3543 607.691 Q64.9272 610.301 64.9272 613.261 Q64.9272 621.314 59.8664 626.056 Q54.8057 630.798 46.212 630.798 Q37.491 630.798 32.4939 626.024 Q27.4968 621.218 27.4968 612.879 Q27.4968 610.174 28.0697 607.595 Q28.6108 605.017 29.7248 602.598 Z" fill="#000000" fill-rule="evenodd" fill-opacity="1" /><path clip-path="url(#clip010)" d="M35.1993 564.659 Q31.2526 562.463 29.3747 559.407 Q27.4968 556.352 27.4968 552.214 Q27.4968 546.644 31.4117 543.62 Q35.2948 540.596 42.4881 540.596 L64.0042 540.596 L64.0042 546.485 L42.679 546.485 Q37.5546 546.485 35.072 548.299 Q32.5894 550.113 32.5894 553.837 Q32.5894 558.389 35.6131 561.03 Q38.6368 563.672 43.8567 563.672 L64.0042 563.672 L64.0042 569.56 L42.679 569.56 Q37.5228 569.56 35.072 571.375 Q32.5894 573.189 32.5894 576.976 Q32.5894 581.464 35.6449 584.106 Q38.6686 586.748 43.8567 586.748 L64.0042 586.748 L64.0042 592.636 L28.3562 592.636 L28.3562 586.748 L33.8944 586.748 Q30.616 584.743 29.0564 581.942 Q27.4968 579.141 27.4968 575.29 Q27.4968 571.406 29.4702 568.701 Q31.4436 565.964 35.1993 564.659 Z" fill="#000000" fill-rule="evenodd" fill-opacity="1" /><path clip-path="url(#clip010)" d="M14.479 515.229 L72.5979 515.229 L72.5979 528.724 L68.0464 528.724 L68.0464 521.117 L19.0304 521.117 L19.0304 528.724 L14.479 528.724 L14.479 515.229 Z" fill="#000000" fill-rule="evenodd" fill-opacity="1" /><polyline clip-path="url(#clip012)" style="stroke:#009af9; stroke-linecap:butt; stroke-linejoin:round; stroke-width:8; stroke-opacity:1; fill:none" points="
  203.964,1422.87 246.939,1420.19 289.915,1416.32 332.891,1412.16 375.867,1407.68 418.843,1402.86 461.819,1397.69 504.794,1392.15 547.77,1386.21 590.746,1379.88 
  633.722,1373.12 676.698,1365.95 719.674,1358.35 762.65,1350.32 805.625,1341.87 848.601,1333.01 891.577,1323.74 934.553,1314.1 977.529,1304.09 1020.5,1293.74 
  1063.48,1283.08 1106.46,1272.12 1149.43,1260.89 1192.41,1249.39 1235.38,1237.64 1278.36,1225.65 1321.34,1213.41 1364.31,1200.92 1407.29,1188.15 1450.26,1175.08 
  1493.24,1161.69 1536.21,1147.92 1579.19,1133.75 1622.17,1119.1 1665.14,1103.92 1708.12,1088.15 1751.09,1071.69 1794.07,1054.46 1837.05,1036.37 1880.02,1017.29 
  1923,997.112 1965.97,975.675 2008.95,952.817 2051.92,928.345 2094.9,902.029 2137.88,873.594 2180.85,842.706 2223.83,808.951 2266.8,771.8 2309.78,730.565 
  2352.76,684.312 2395.73,631.726 2438.71,570.848 2481.68,498.541 2524.66,409.192 2567.64,290.79 2610.61,-3903.54 2653.59,-3884.33 2696.56,-3865.68 2739.54,-3847.61 
  2782.51,-3830.14 2825.49,-3813.26 2868.47,-3796.98 2911.44,-3781.31 2954.42,-3766.25 2997.39,-3751.79 3040.37,-3737.94 3083.35,-3724.69 3126.32,-3712.04 3169.3,-3699.97 
  3212.27,-3688.49 3255.25,-3677.57 3298.22,-3667.21 3341.2,-3657.4 3384.18,-3648.11 3427.15,-3639.34 3470.13,-3631.07 3513.1,-3623.29 3556.08,-3615.96 3599.06,-3609.09 
  3642.03,-3602.64 3685.01,-3596.61 3727.98,-3590.96 3770.96,-3585.69 3813.93,-3580.77 3856.91,-3576.19 3899.89,-3571.93 3942.86,-3567.97 3985.84,-3564.29 4028.81,-3560.88 
  4071.79,-3557.72 
  "/>
<polyline clip-path="url(#clip012)" style="stroke:#e26f46; stroke-linecap:butt; stroke-linejoin:round; stroke-width:8; stroke-opacity:1; fill:none" points="
  203.964,1423.18 246.939,1395.23 289.915,1393.05 332.891,1390.69 375.867,1388.11 418.843,1385.31 461.819,1382.26 504.794,1378.93 547.77,1375.3 590.746,1371.34 
  633.722,1367.02 676.698,1362.32 719.674,1357.19 762.65,1351.63 805.625,1345.59 848.601,1339.07 891.577,1332.05 934.553,1324.51 977.529,1316.43 1020.5,1307.83 
  1063.48,1298.68 1106.46,1289 1149.43,1278.78 1192.41,1268.03 1235.38,1256.76 1278.36,1244.95 1321.34,1232.63 1364.31,1219.79 1407.29,1206.43 1450.26,1192.54 
  1493.24,1178.13 1536.21,1163.18 1579.19,1147.68 1622.17,1131.62 1665.14,1114.98 1708.12,1097.75 1751.09,1079.89 1794.07,1061.4 1837.05,1042.23 1880.02,1022.37 
  1923,1001.78 1965.97,980.429 2008.95,958.29 2051.92,935.327 2094.9,911.508 2137.88,886.798 2180.85,861.161 2223.83,834.565 2266.8,806.976 2309.78,778.359 
  2352.76,748.682 2395.73,717.913 2438.71,686.023 2481.68,652.981 2524.66,618.761 2567.64,583.336 2610.61,546.683 2653.59,508.779 2696.56,469.605 2739.54,429.143 
  2782.51,387.378 2825.49,344.295 2868.47,299.883 2911.44,254.134 2954.42,207.04 2997.39,158.596 3040.37,108.798 3083.35,57.6454 3126.32,5.13815 3169.3,-48.7219 
  3212.27,-103.931 3255.25,-160.485 3298.22,-218.377 3341.2,-277.601 3384.18,-338.145 3427.15,-400.002 3470.13,-463.158 3513.1,-527.601 3556.08,-593.317 3599.06,-660.29 
  3642.03,-728.503 3685.01,-797.936 3727.98,-868.569 3770.96,-940.381 3813.93,-1013.35 3856.91,-1087.44 3899.89,-1162.64 3942.86,-1238.91 3985.84,-1316.23 4028.81,-1394.55 
  4071.79,-1473.86 
  "/>
<polyline clip-path="url(#clip012)" style="stroke:#3da44d; stroke-linecap:butt; stroke-linejoin:round; stroke-width:8; stroke-opacity:1; fill:none" points="
  203.964,1037.78 246.939,1078.7 289.915,1112.22 332.891,1140.29 375.867,1164.02 418.843,1184.23 461.819,1201.57 504.794,1216.56 547.77,1229.61 590.746,1241.04 
  633.722,1251.13 676.698,1260.09 719.674,1268.09 762.65,1275.28 805.625,1281.77 848.601,1287.66 891.577,1293.03 934.553,1297.94 977.529,1302.45 1020.5,1306.6 
  1063.48,1310.45 1106.46,1314.01 1149.43,1317.33 1192.41,1320.42 1235.38,1323.32 1278.36,1326.03 1321.34,1328.57 1364.31,1330.97 1407.29,1333.23 1450.26,1335.37 
  1493.24,1337.39 1536.21,1339.31 1579.19,1341.13 1622.17,1342.86 1665.14,1344.5 1708.12,1346.07 1751.09,1347.57 1794.07,1349 1837.05,1350.37 1880.02,1351.68 
  1923,1352.94 1965.97,1354.15 2008.95,1355.31 2051.92,1356.42 2094.9,1357.49 2137.88,1358.53 2180.85,1359.52 2223.83,1360.48 2266.8,1361.41 2309.78,1362.3 
  2352.76,1363.17 2395.73,1364 2438.71,1364.81 2481.68,1365.6 2524.66,1366.36 2567.64,1367.09 2610.61,1367.81 2653.59,1368.5 2696.56,1369.17 2739.54,1369.83 
  2782.51,1370.46 2825.49,1371.08 2868.47,1371.68 2911.44,1372.26 2954.42,1372.83 2997.39,1373.39 3040.37,1373.93 3083.35,1374.45 3126.32,1374.97 3169.3,1375.47 
  3212.27,1375.96 3255.25,1376.43 3298.22,1376.9 3341.2,1377.35 3384.18,1377.8 3427.15,1378.23 3470.13,1378.66 3513.1,1379.07 3556.08,1379.48 3599.06,1379.87 
  3642.03,1380.26 3685.01,1380.64 3727.98,1381.02 3770.96,1381.38 3813.93,1381.74 3856.91,1382.09 3899.89,1382.43 3942.86,1382.77 3985.84,1383.1 4028.81,1383.42 
  4071.79,1383.74 
  "/>
<polyline clip-path="url(#clip012)" style="stroke:#c271d2; stroke-linecap:butt; stroke-linejoin:round; stroke-width:8; stroke-opacity:1; fill:none" points="
  203.964,1037.78 246.939,1077.56 289.915,1110.69 332.891,1138.22 375.867,1161.2 418.843,1180.4 461.819,1196.39 504.794,1209.61 547.77,1220.38 590.746,1228.92 
  633.722,1235.4 676.698,1239.94 719.674,1242.6 762.65,1243.45 805.625,1242.55 848.601,1239.96 891.577,1235.74 934.553,1229.99 977.529,1222.8 1020.5,1214.25 
  1063.48,1204.46 1106.46,1193.53 1149.43,1181.53 1192.41,1168.56 1235.38,1154.68 1278.36,1139.95 1321.34,1124.41 1364.31,1108.11 1407.29,1091.05 1450.26,1073.24 
  1493.24,1054.68 1536.21,1035.36 1579.19,1015.25 1622.17,994.317 1665.14,972.514 1708.12,949.79 1751.09,926.082 1794.07,901.318 1837.05,875.417 1880.02,848.285 
  1923,819.816 1965.97,789.891 2008.95,758.371 2051.92,725.098 2094.9,689.885 2137.88,652.511 2180.85,612.707 2223.83,570.141 2266.8,524.393 2309.78,474.91 
  2352.76,420.945 2395.73,361.435 2438.71,294.784 2481.68,218.406 2524.66,127.614 2567.64,12.226 2610.61,-3975.46 2653.59,-3962.8 2696.56,-3951.23 2739.54,-3940.79 
  2782.51,-3931.54 2825.49,-3923.5 2868.47,-3916.72 2911.44,-3911.24 2954.42,-3907.08 2997.39,-3904.3 3040.37,-3902.91 3083.35,-3902.95 3126.32,-3904.45 3169.3,-3907.44 
  3212.27,-3911.93 3255.25,-3917.97 3298.22,-3925.55 3341.2,-3934.71 3384.18,-3945.46 3427.15,-3957.82 3470.13,-3971.79 3513.1,-3987.39 3556.08,-4004.63 3599.06,-4023.51 
  3642.03,-4044.04 3685.01,-4066.21 3727.98,-4090.03 3770.96,-4115.5 3813.93,-4142.6 3856.91,-4171.34 3899.89,-4201.7 3942.86,-4233.67 3985.84,-4267.23 4028.81,-4302.38 
  4071.79,-4339.09 
  "/>
<path clip-path="url(#clip010)" d="
M275.59 352.309 L1336.01 352.309 L1336.01 93.1086 L275.59 93.1086  Z
  " fill="#ffffff" fill-rule="evenodd" fill-opacity="1"/>
<polyline clip-path="url(#clip010)" style="stroke:#000000; stroke-linecap:butt; stroke-linejoin:round; stroke-width:4; stroke-opacity:1; fill:none" points="
  275.59,352.309 1336.01,352.309 1336.01,93.1086 275.59,93.1086 275.59,352.309 
  "/>
<polyline clip-path="url(#clip010)" style="stroke:#009af9; stroke-linecap:butt; stroke-linejoin:round; stroke-width:4; stroke-opacity:1; fill:none" points="
  299.465,144.949 442.718,144.949 
  "/>
<path clip-path="url(#clip010)" d="M478.492 139.289 Q475.066 139.289 473.075 141.974 Q471.084 144.636 471.084 149.289 Q471.084 153.942 473.052 156.627 Q475.043 159.289 478.492 159.289 Q481.895 159.289 483.885 156.604 Q485.876 153.918 485.876 149.289 Q485.876 144.682 483.885 141.997 Q481.895 139.289 478.492 139.289 M478.492 135.678 Q484.047 135.678 487.219 139.289 Q490.39 142.9 490.39 149.289 Q490.39 155.655 487.219 159.289 Q484.047 162.9 478.492 162.9 Q472.913 162.9 469.742 159.289 Q466.594 155.655 466.594 149.289 Q466.594 142.9 469.742 139.289 Q472.913 135.678 478.492 135.678 Z" fill="#000000" fill-rule="evenodd" fill-opacity="1" /><path clip-path="url(#clip010)" d="M501.57 158.34 L501.57 172.09 L497.288 172.09 L497.288 136.303 L501.57 136.303 L501.57 140.238 Q502.913 137.923 504.95 136.812 Q507.01 135.678 509.857 135.678 Q514.58 135.678 517.519 139.428 Q520.482 143.178 520.482 149.289 Q520.482 155.4 517.519 159.15 Q514.58 162.9 509.857 162.9 Q507.01 162.9 504.95 161.789 Q502.913 160.655 501.57 158.34 M516.061 149.289 Q516.061 144.59 514.117 141.928 Q512.195 139.243 508.816 139.243 Q505.436 139.243 503.492 141.928 Q501.57 144.59 501.57 149.289 Q501.57 153.988 503.492 156.673 Q505.436 159.335 508.816 159.335 Q512.195 159.335 514.117 156.673 Q516.061 153.988 516.061 149.289 Z" fill="#000000" fill-rule="evenodd" fill-opacity="1" /><path clip-path="url(#clip010)" d="M549.718 148.201 L549.718 150.284 L530.135 150.284 Q530.413 154.682 532.774 156.997 Q535.158 159.289 539.394 159.289 Q541.848 159.289 544.14 158.687 Q546.454 158.085 548.723 156.881 L548.723 160.909 Q546.431 161.881 544.024 162.391 Q541.616 162.9 539.14 162.9 Q532.936 162.9 529.302 159.289 Q525.691 155.678 525.691 149.52 Q525.691 143.155 529.117 139.428 Q532.566 135.678 538.399 135.678 Q543.63 135.678 546.663 139.057 Q549.718 142.414 549.718 148.201 M545.459 146.951 Q545.413 143.456 543.491 141.372 Q541.593 139.289 538.445 139.289 Q534.88 139.289 532.728 141.303 Q530.598 143.317 530.274 146.974 L545.459 146.951 Z" fill="#000000" fill-rule="evenodd" fill-opacity="1" /><path clip-path="url(#clip010)" d="M578.26 146.581 L578.26 162.229 L574.001 162.229 L574.001 146.719 Q574.001 143.039 572.565 141.21 Q571.13 139.382 568.26 139.382 Q564.811 139.382 562.82 141.581 Q560.829 143.78 560.829 147.576 L560.829 162.229 L556.547 162.229 L556.547 136.303 L560.829 136.303 L560.829 140.331 Q562.357 137.993 564.417 136.835 Q566.501 135.678 569.209 135.678 Q573.677 135.678 575.968 138.456 Q578.26 141.21 578.26 146.581 Z" fill="#000000" fill-rule="evenodd" fill-opacity="1" /><path clip-path="url(#clip010)" d="M599.348 136.303 L603.607 136.303 L608.931 156.534 L614.232 136.303 L619.255 136.303 L624.579 156.534 L629.88 136.303 L634.139 136.303 L627.357 162.229 L622.334 162.229 L616.755 140.979 L611.153 162.229 L606.13 162.229 L599.348 136.303 Z" fill="#000000" fill-rule="evenodd" fill-opacity="1" /><path clip-path="url(#clip010)" d="M652.38 149.196 Q647.218 149.196 645.227 150.377 Q643.236 151.557 643.236 154.405 Q643.236 156.673 644.718 158.016 Q646.222 159.335 648.792 159.335 Q652.333 159.335 654.463 156.835 Q656.616 154.312 656.616 150.145 L656.616 149.196 L652.38 149.196 M660.875 147.437 L660.875 162.229 L656.616 162.229 L656.616 158.293 Q655.158 160.655 652.982 161.789 Q650.806 162.9 647.658 162.9 Q643.676 162.9 641.315 160.678 Q638.977 158.432 638.977 154.682 Q638.977 150.307 641.894 148.085 Q644.834 145.863 650.644 145.863 L656.616 145.863 L656.616 145.446 Q656.616 142.507 654.671 140.909 Q652.75 139.289 649.255 139.289 Q647.033 139.289 644.926 139.821 Q642.82 140.354 640.875 141.419 L640.875 137.483 Q643.213 136.581 645.412 136.141 Q647.611 135.678 649.695 135.678 Q655.32 135.678 658.097 138.594 Q660.875 141.511 660.875 147.437 Z" fill="#000000" fill-rule="evenodd" fill-opacity="1" /><path clip-path="url(#clip010)" d="M673.861 128.942 L673.861 136.303 L682.634 136.303 L682.634 139.613 L673.861 139.613 L673.861 153.687 Q673.861 156.858 674.718 157.761 Q675.597 158.664 678.259 158.664 L682.634 158.664 L682.634 162.229 L678.259 162.229 Q673.329 162.229 671.454 160.4 Q669.579 158.548 669.579 153.687 L669.579 139.613 L666.454 139.613 L666.454 136.303 L669.579 136.303 L669.579 128.942 L673.861 128.942 Z" fill="#000000" fill-rule="evenodd" fill-opacity="1" /><path clip-path="url(#clip010)" d="M710.412 148.201 L710.412 150.284 L690.829 150.284 Q691.106 154.682 693.468 156.997 Q695.852 159.289 700.088 159.289 Q702.542 159.289 704.833 158.687 Q707.148 158.085 709.417 156.881 L709.417 160.909 Q707.125 161.881 704.717 162.391 Q702.31 162.9 699.833 162.9 Q693.63 162.9 689.995 159.289 Q686.384 155.678 686.384 149.52 Q686.384 143.155 689.81 139.428 Q693.259 135.678 699.093 135.678 Q704.324 135.678 707.356 139.057 Q710.412 142.414 710.412 148.201 M706.153 146.951 Q706.106 143.456 704.185 141.372 Q702.287 139.289 699.139 139.289 Q695.574 139.289 693.421 141.303 Q691.292 143.317 690.968 146.974 L706.153 146.951 Z" fill="#000000" fill-rule="evenodd" fill-opacity="1" /><path clip-path="url(#clip010)" d="M732.426 140.284 Q731.708 139.868 730.852 139.682 Q730.018 139.474 729 139.474 Q725.389 139.474 723.444 141.835 Q721.523 144.173 721.523 148.571 L721.523 162.229 L717.241 162.229 L717.241 136.303 L721.523 136.303 L721.523 140.331 Q722.866 137.969 725.018 136.835 Q727.171 135.678 730.25 135.678 Q730.69 135.678 731.222 135.747 Q731.754 135.794 732.403 135.909 L732.426 140.284 Z" fill="#000000" fill-rule="evenodd" fill-opacity="1" /><path clip-path="url(#clip010)" d="M774.138 148.201 L774.138 150.284 L754.555 150.284 Q754.833 154.682 757.194 156.997 Q759.578 159.289 763.814 159.289 Q766.268 159.289 768.56 158.687 Q770.875 158.085 773.143 156.881 L773.143 160.909 Q770.851 161.881 768.444 162.391 Q766.037 162.9 763.56 162.9 Q757.356 162.9 753.722 159.289 Q750.111 155.678 750.111 149.52 Q750.111 143.155 753.537 139.428 Q756.986 135.678 762.819 135.678 Q768.05 135.678 771.083 139.057 Q774.138 142.414 774.138 148.201 M769.879 146.951 Q769.833 143.456 767.912 141.372 Q766.013 139.289 762.865 139.289 Q759.301 139.289 757.148 141.303 Q755.018 143.317 754.694 146.974 L769.879 146.951 Z" fill="#000000" fill-rule="evenodd" fill-opacity="1" /><path clip-path="url(#clip010)" d="M796.152 140.284 Q795.435 139.868 794.578 139.682 Q793.745 139.474 792.726 139.474 Q789.115 139.474 787.171 141.835 Q785.249 144.173 785.249 148.571 L785.249 162.229 L780.967 162.229 L780.967 136.303 L785.249 136.303 L785.249 140.331 Q786.592 137.969 788.745 136.835 Q790.898 135.678 793.976 135.678 Q794.416 135.678 794.948 135.747 Q795.481 135.794 796.129 135.909 L796.152 140.284 Z" fill="#000000" fill-rule="evenodd" fill-opacity="1" /><path clip-path="url(#clip010)" d="M814.809 140.284 Q814.092 139.868 813.235 139.682 Q812.402 139.474 811.384 139.474 Q807.772 139.474 805.828 141.835 Q803.907 144.173 803.907 148.571 L803.907 162.229 L799.624 162.229 L799.624 136.303 L803.907 136.303 L803.907 140.331 Q805.249 137.969 807.402 136.835 Q809.555 135.678 812.634 135.678 Q813.073 135.678 813.606 135.747 Q814.138 135.794 814.786 135.909 L814.809 140.284 Z" fill="#000000" fill-rule="evenodd" fill-opacity="1" /><path clip-path="url(#clip010)" d="M828.282 139.289 Q824.856 139.289 822.865 141.974 Q820.874 144.636 820.874 149.289 Q820.874 153.942 822.842 156.627 Q824.833 159.289 828.282 159.289 Q831.684 159.289 833.675 156.604 Q835.666 153.918 835.666 149.289 Q835.666 144.682 833.675 141.997 Q831.684 139.289 828.282 139.289 M828.282 135.678 Q833.837 135.678 837.008 139.289 Q840.18 142.9 840.18 149.289 Q840.18 155.655 837.008 159.289 Q833.837 162.9 828.282 162.9 Q822.703 162.9 819.532 159.289 Q816.384 155.655 816.384 149.289 Q816.384 142.9 819.532 139.289 Q822.703 135.678 828.282 135.678 Z" fill="#000000" fill-rule="evenodd" fill-opacity="1" /><path clip-path="url(#clip010)" d="M862.263 140.284 Q861.545 139.868 860.689 139.682 Q859.856 139.474 858.837 139.474 Q855.226 139.474 853.281 141.835 Q851.36 144.173 851.36 148.571 L851.36 162.229 L847.078 162.229 L847.078 136.303 L851.36 136.303 L851.36 140.331 Q852.703 137.969 854.856 136.835 Q857.008 135.678 860.087 135.678 Q860.527 135.678 861.059 135.747 Q861.592 135.794 862.24 135.909 L862.263 140.284 Z" fill="#000000" fill-rule="evenodd" fill-opacity="1" /><path clip-path="url(#clip010)" d="M892.031 126.257 Q888.929 131.581 887.425 136.789 Q885.92 141.997 885.92 147.344 Q885.92 152.692 887.425 157.946 Q888.953 163.178 892.031 168.479 L888.328 168.479 Q884.855 163.039 883.119 157.784 Q881.406 152.53 881.406 147.344 Q881.406 142.182 883.119 136.951 Q884.832 131.72 888.328 126.257 L892.031 126.257 Z" fill="#000000" fill-rule="evenodd" fill-opacity="1" /><path clip-path="url(#clip010)" d="M900.943 127.669 L919.3 127.669 L919.3 131.604 L905.226 131.604 L905.226 140.076 Q906.244 139.729 907.263 139.567 Q908.281 139.382 909.3 139.382 Q915.087 139.382 918.466 142.553 Q921.846 145.724 921.846 151.141 Q921.846 156.719 918.374 159.821 Q914.902 162.9 908.582 162.9 Q906.406 162.9 904.138 162.53 Q901.892 162.159 899.485 161.418 L899.485 156.719 Q901.568 157.854 903.79 158.409 Q906.013 158.965 908.49 158.965 Q912.494 158.965 914.832 156.858 Q917.17 154.752 917.17 151.141 Q917.17 147.53 914.832 145.423 Q912.494 143.317 908.49 143.317 Q906.615 143.317 904.74 143.733 Q902.888 144.15 900.943 145.03 L900.943 127.669 Z" fill="#000000" fill-rule="evenodd" fill-opacity="1" /><path clip-path="url(#clip010)" d="M960.457 147.02 Q958.443 147.02 957.286 148.733 Q956.151 150.446 956.151 153.502 Q956.151 156.511 957.286 158.247 Q958.443 159.96 960.457 159.96 Q962.424 159.96 963.559 158.247 Q964.716 156.511 964.716 153.502 Q964.716 150.469 963.559 148.756 Q962.424 147.02 960.457 147.02 M960.457 144.081 Q964.114 144.081 966.267 146.627 Q968.42 149.173 968.42 153.502 Q968.42 157.83 966.244 160.377 Q964.091 162.9 960.457 162.9 Q956.753 162.9 954.6 160.377 Q952.448 157.83 952.448 153.502 Q952.448 149.15 954.6 146.627 Q956.776 144.081 960.457 144.081 M936.568 129.983 Q934.577 129.983 933.42 131.72 Q932.286 133.432 932.286 136.442 Q932.286 139.497 933.42 141.21 Q934.554 142.923 936.568 142.923 Q938.582 142.923 939.716 141.21 Q940.874 139.497 940.874 136.442 Q940.874 133.456 939.716 131.72 Q938.559 129.983 936.568 129.983 M957.471 127.044 L961.174 127.044 L939.554 162.9 L935.85 162.9 L957.471 127.044 M936.568 127.044 Q940.225 127.044 942.401 129.59 Q944.577 132.113 944.577 136.442 Q944.577 140.817 942.401 143.34 Q940.249 145.863 936.568 145.863 Q932.888 145.863 930.735 143.34 Q928.605 140.794 928.605 136.442 Q928.605 132.136 930.758 129.59 Q932.911 127.044 936.568 127.044 Z" fill="#000000" fill-rule="evenodd" fill-opacity="1" /><path clip-path="url(#clip010)" d="M974.832 126.257 L978.535 126.257 Q982.008 131.72 983.721 136.951 Q985.457 142.182 985.457 147.344 Q985.457 152.53 983.721 157.784 Q982.008 163.039 978.535 168.479 L974.832 168.479 Q977.91 163.178 979.415 157.946 Q980.943 152.692 980.943 147.344 Q980.943 141.997 979.415 136.789 Q977.91 131.581 974.832 126.257 Z" fill="#000000" fill-rule="evenodd" fill-opacity="1" /><polyline clip-path="url(#clip010)" style="stroke:#e26f46; stroke-linecap:butt; stroke-linejoin:round; stroke-width:4; stroke-opacity:1; fill:none" points="
  299.465,196.789 442.718,196.789 
  "/>
<path clip-path="url(#clip010)" d="M481.779 192.124 Q481.061 191.708 480.205 191.522 Q479.371 191.314 478.353 191.314 Q474.742 191.314 472.797 193.675 Q470.876 196.013 470.876 200.411 L470.876 214.069 L466.594 214.069 L466.594 188.143 L470.876 188.143 L470.876 192.171 Q472.219 189.809 474.371 188.675 Q476.524 187.518 479.603 187.518 Q480.043 187.518 480.575 187.587 Q481.108 187.634 481.756 187.749 L481.779 192.124 Z" fill="#000000" fill-rule="evenodd" fill-opacity="1" /><path clip-path="url(#clip010)" d="M507.381 200.041 L507.381 202.124 L487.797 202.124 Q488.075 206.522 490.436 208.837 Q492.82 211.129 497.057 211.129 Q499.51 211.129 501.802 210.527 Q504.117 209.925 506.385 208.721 L506.385 212.749 Q504.094 213.721 501.686 214.231 Q499.279 214.74 496.802 214.74 Q490.598 214.74 486.964 211.129 Q483.353 207.518 483.353 201.36 Q483.353 194.995 486.779 191.268 Q490.228 187.518 496.061 187.518 Q501.293 187.518 504.325 190.897 Q507.381 194.254 507.381 200.041 M503.121 198.791 Q503.075 195.296 501.154 193.212 Q499.256 191.129 496.107 191.129 Q492.543 191.129 490.39 193.143 Q488.26 195.157 487.936 198.814 L503.121 198.791 Z" fill="#000000" fill-rule="evenodd" fill-opacity="1" /><path clip-path="url(#clip010)" d="M518.584 180.782 L518.584 188.143 L527.357 188.143 L527.357 191.453 L518.584 191.453 L518.584 205.527 Q518.584 208.698 519.441 209.601 Q520.32 210.504 522.982 210.504 L527.357 210.504 L527.357 214.069 L522.982 214.069 Q518.052 214.069 516.177 212.24 Q514.302 210.388 514.302 205.527 L514.302 191.453 L511.177 191.453 L511.177 188.143 L514.302 188.143 L514.302 180.782 L518.584 180.782 Z" fill="#000000" fill-rule="evenodd" fill-opacity="1" /><path clip-path="url(#clip010)" d="M547.982 192.124 Q547.265 191.708 546.408 191.522 Q545.575 191.314 544.556 191.314 Q540.945 191.314 539.001 193.675 Q537.079 196.013 537.079 200.411 L537.079 214.069 L532.797 214.069 L532.797 188.143 L537.079 188.143 L537.079 192.171 Q538.422 189.809 540.575 188.675 Q542.728 187.518 545.806 187.518 Q546.246 187.518 546.779 187.587 Q547.311 187.634 547.959 187.749 L547.982 192.124 Z" fill="#000000" fill-rule="evenodd" fill-opacity="1" /><path clip-path="url(#clip010)" d="M552.45 188.143 L556.709 188.143 L556.709 214.069 L552.45 214.069 L552.45 188.143 M552.45 178.05 L556.709 178.05 L556.709 183.444 L552.45 183.444 L552.45 178.05 Z" fill="#000000" fill-rule="evenodd" fill-opacity="1" /><path clip-path="url(#clip010)" d="M587.797 200.041 L587.797 202.124 L568.214 202.124 Q568.491 206.522 570.852 208.837 Q573.237 211.129 577.473 211.129 Q579.926 211.129 582.218 210.527 Q584.533 209.925 586.801 208.721 L586.801 212.749 Q584.51 213.721 582.102 214.231 Q579.695 214.74 577.218 214.74 Q571.014 214.74 567.38 211.129 Q563.769 207.518 563.769 201.36 Q563.769 194.995 567.195 191.268 Q570.644 187.518 576.477 187.518 Q581.709 187.518 584.741 190.897 Q587.797 194.254 587.797 200.041 M583.538 198.791 Q583.491 195.296 581.57 193.212 Q579.672 191.129 576.524 191.129 Q572.959 191.129 570.806 193.143 Q568.677 195.157 568.352 198.814 L583.538 198.791 Z" fill="#000000" fill-rule="evenodd" fill-opacity="1" /><path clip-path="url(#clip010)" d="M591.732 188.143 L596.246 188.143 L604.348 209.902 L612.449 188.143 L616.963 188.143 L607.241 214.069 L601.454 214.069 L591.732 188.143 Z" fill="#000000" fill-rule="evenodd" fill-opacity="1" /><path clip-path="url(#clip010)" d="M634.625 201.036 Q629.463 201.036 627.473 202.217 Q625.482 203.397 625.482 206.245 Q625.482 208.513 626.963 209.856 Q628.468 211.175 631.037 211.175 Q634.579 211.175 636.709 208.675 Q638.861 206.152 638.861 201.985 L638.861 201.036 L634.625 201.036 M643.121 199.277 L643.121 214.069 L638.861 214.069 L638.861 210.133 Q637.403 212.495 635.227 213.629 Q633.051 214.74 629.903 214.74 Q625.922 214.74 623.56 212.518 Q621.223 210.272 621.223 206.522 Q621.223 202.147 624.139 199.925 Q627.079 197.703 632.889 197.703 L638.861 197.703 L638.861 197.286 Q638.861 194.347 636.917 192.749 Q634.996 191.129 631.5 191.129 Q629.278 191.129 627.172 191.661 Q625.065 192.194 623.121 193.259 L623.121 189.323 Q625.459 188.421 627.658 187.981 Q629.857 187.518 631.94 187.518 Q637.565 187.518 640.343 190.434 Q643.121 193.351 643.121 199.277 Z" fill="#000000" fill-rule="evenodd" fill-opacity="1" /><path clip-path="url(#clip010)" d="M651.894 178.05 L656.153 178.05 L656.153 214.069 L651.894 214.069 L651.894 178.05 Z" fill="#000000" fill-rule="evenodd" fill-opacity="1" /><path clip-path="url(#clip010)" d="M702.31 200.041 L702.31 202.124 L682.727 202.124 Q683.005 206.522 685.366 208.837 Q687.75 211.129 691.986 211.129 Q694.44 211.129 696.731 210.527 Q699.046 209.925 701.315 208.721 L701.315 212.749 Q699.023 213.721 696.616 214.231 Q694.208 214.74 691.731 214.74 Q685.528 214.74 681.894 211.129 Q678.282 207.518 678.282 201.36 Q678.282 194.995 681.708 191.268 Q685.157 187.518 690.991 187.518 Q696.222 187.518 699.255 190.897 Q702.31 194.254 702.31 200.041 M698.051 198.791 Q698.005 195.296 696.083 193.212 Q694.185 191.129 691.037 191.129 Q687.472 191.129 685.319 193.143 Q683.19 195.157 682.866 198.814 L698.051 198.791 Z" fill="#000000" fill-rule="evenodd" fill-opacity="1" /><path clip-path="url(#clip010)" d="M724.324 192.124 Q723.606 191.708 722.75 191.522 Q721.916 191.314 720.898 191.314 Q717.287 191.314 715.342 193.675 Q713.421 196.013 713.421 200.411 L713.421 214.069 L709.139 214.069 L709.139 188.143 L713.421 188.143 L713.421 192.171 Q714.764 189.809 716.916 188.675 Q719.069 187.518 722.148 187.518 Q722.588 187.518 723.12 187.587 Q723.653 187.634 724.301 187.749 L724.324 192.124 Z" fill="#000000" fill-rule="evenodd" fill-opacity="1" /><path clip-path="url(#clip010)" d="M742.981 192.124 Q742.264 191.708 741.407 191.522 Q740.574 191.314 739.555 191.314 Q735.944 191.314 734 193.675 Q732.078 196.013 732.078 200.411 L732.078 214.069 L727.796 214.069 L727.796 188.143 L732.078 188.143 L732.078 192.171 Q733.421 189.809 735.574 188.675 Q737.727 187.518 740.805 187.518 Q741.245 187.518 741.777 187.587 Q742.31 187.634 742.958 187.749 L742.981 192.124 Z" fill="#000000" fill-rule="evenodd" fill-opacity="1" /><path clip-path="url(#clip010)" d="M756.453 191.129 Q753.027 191.129 751.037 193.814 Q749.046 196.476 749.046 201.129 Q749.046 205.782 751.014 208.467 Q753.004 211.129 756.453 211.129 Q759.856 211.129 761.847 208.444 Q763.838 205.758 763.838 201.129 Q763.838 196.522 761.847 193.837 Q759.856 191.129 756.453 191.129 M756.453 187.518 Q762.009 187.518 765.18 191.129 Q768.351 194.74 768.351 201.129 Q768.351 207.495 765.18 211.129 Q762.009 214.74 756.453 214.74 Q750.875 214.74 747.703 211.129 Q744.555 207.495 744.555 201.129 Q744.555 194.74 747.703 191.129 Q750.875 187.518 756.453 187.518 Z" fill="#000000" fill-rule="evenodd" fill-opacity="1" /><path clip-path="url(#clip010)" d="M790.435 192.124 Q789.717 191.708 788.861 191.522 Q788.027 191.314 787.009 191.314 Q783.398 191.314 781.453 193.675 Q779.532 196.013 779.532 200.411 L779.532 214.069 L775.25 214.069 L775.25 188.143 L779.532 188.143 L779.532 192.171 Q780.874 189.809 783.027 188.675 Q785.18 187.518 788.259 187.518 Q788.699 187.518 789.231 187.587 Q789.763 187.634 790.411 187.749 L790.435 192.124 Z" fill="#000000" fill-rule="evenodd" fill-opacity="1" /><path clip-path="url(#clip010)" d="M820.203 178.097 Q817.101 183.421 815.597 188.629 Q814.092 193.837 814.092 199.184 Q814.092 204.532 815.597 209.786 Q817.124 215.018 820.203 220.319 L816.499 220.319 Q813.027 214.879 811.291 209.624 Q809.578 204.37 809.578 199.184 Q809.578 194.022 811.291 188.791 Q813.004 183.56 816.499 178.097 L820.203 178.097 Z" fill="#000000" fill-rule="evenodd" fill-opacity="1" /><path clip-path="url(#clip010)" d="M823.86 179.509 L853.096 179.509 L853.096 183.444 L840.828 183.444 L840.828 214.069 L836.129 214.069 L836.129 183.444 L823.86 183.444 L823.86 179.509 Z" fill="#000000" fill-rule="evenodd" fill-opacity="1" /><path clip-path="url(#clip010)" d="M862.286 197.564 L862.286 210.226 L869.786 210.226 Q873.559 210.226 875.365 208.675 Q877.193 207.101 877.193 203.883 Q877.193 200.643 875.365 199.115 Q873.559 197.564 869.786 197.564 L862.286 197.564 M862.286 183.351 L862.286 193.768 L869.207 193.768 Q872.633 193.768 874.3 192.495 Q875.99 191.198 875.99 188.559 Q875.99 185.944 874.3 184.647 Q872.633 183.351 869.207 183.351 L862.286 183.351 M857.61 179.509 L869.555 179.509 Q874.902 179.509 877.795 181.731 Q880.689 183.953 880.689 188.05 Q880.689 191.222 879.207 193.097 Q877.726 194.971 874.855 195.434 Q878.305 196.175 880.203 198.536 Q882.124 200.874 882.124 204.393 Q882.124 209.022 878.976 211.545 Q875.828 214.069 870.018 214.069 L857.61 214.069 L857.61 179.509 Z" fill="#000000" fill-rule="evenodd" fill-opacity="1" /><path clip-path="url(#clip010)" d="M904.578 203.837 L904.578 188.143 L908.837 188.143 L908.837 203.675 Q908.837 207.356 910.272 209.208 Q911.707 211.036 914.577 211.036 Q918.027 211.036 920.017 208.837 Q922.031 206.638 922.031 202.842 L922.031 188.143 L926.29 188.143 L926.29 214.069 L922.031 214.069 L922.031 210.087 Q920.48 212.448 918.42 213.606 Q916.383 214.74 913.675 214.74 Q909.207 214.74 906.892 211.962 Q904.578 209.184 904.578 203.837 M915.295 187.518 L915.295 187.518 Z" fill="#000000" fill-rule="evenodd" fill-opacity="1" /><path clip-path="url(#clip010)" d="M956.614 198.421 L956.614 214.069 L952.355 214.069 L952.355 198.559 Q952.355 194.879 950.92 193.05 Q949.485 191.222 946.614 191.222 Q943.165 191.222 941.175 193.421 Q939.184 195.62 939.184 199.416 L939.184 214.069 L934.901 214.069 L934.901 188.143 L939.184 188.143 L939.184 192.171 Q940.712 189.833 942.772 188.675 Q944.855 187.518 947.563 187.518 Q952.031 187.518 954.323 190.296 Q956.614 193.05 956.614 198.421 Z" fill="#000000" fill-rule="evenodd" fill-opacity="1" /><path clip-path="url(#clip010)" d="M983.767 189.138 L983.767 193.12 Q981.961 192.124 980.133 191.638 Q978.327 191.129 976.475 191.129 Q972.332 191.129 970.04 193.768 Q967.748 196.384 967.748 201.129 Q967.748 205.874 970.04 208.513 Q972.332 211.129 976.475 211.129 Q978.327 211.129 980.133 210.643 Q981.961 210.133 983.767 209.138 L983.767 213.073 Q981.985 213.907 980.063 214.323 Q978.165 214.74 976.012 214.74 Q970.156 214.74 966.707 211.059 Q963.258 207.379 963.258 201.129 Q963.258 194.786 966.73 191.152 Q970.225 187.518 976.29 187.518 Q978.258 187.518 980.133 187.935 Q982.008 188.328 983.767 189.138 Z" fill="#000000" fill-rule="evenodd" fill-opacity="1" /><path clip-path="url(#clip010)" d="M1013.35 200.041 L1013.35 202.124 L993.767 202.124 Q994.045 206.522 996.406 208.837 Q998.79 211.129 1003.03 211.129 Q1005.48 211.129 1007.77 210.527 Q1010.09 209.925 1012.35 208.721 L1012.35 212.749 Q1010.06 213.721 1007.66 214.231 Q1005.25 214.74 1002.77 214.74 Q996.568 214.74 992.934 211.129 Q989.322 207.518 989.322 201.36 Q989.322 194.995 992.748 191.268 Q996.197 187.518 1002.03 187.518 Q1007.26 187.518 1010.29 190.897 Q1013.35 194.254 1013.35 200.041 M1009.09 198.791 Q1009.04 195.296 1007.12 193.212 Q1005.23 191.129 1002.08 191.129 Q998.512 191.129 996.359 193.143 Q994.23 195.157 993.906 198.814 L1009.09 198.791 Z" fill="#000000" fill-rule="evenodd" fill-opacity="1" /><path clip-path="url(#clip010)" d="M1035.36 192.124 Q1034.65 191.708 1033.79 191.522 Q1032.96 191.314 1031.94 191.314 Q1028.33 191.314 1026.38 193.675 Q1024.46 196.013 1024.46 200.411 L1024.46 214.069 L1020.18 214.069 L1020.18 188.143 L1024.46 188.143 L1024.46 192.171 Q1025.8 189.809 1027.96 188.675 Q1030.11 187.518 1033.19 187.518 Q1033.63 187.518 1034.16 187.587 Q1034.69 187.634 1035.34 187.749 L1035.36 192.124 Z" fill="#000000" fill-rule="evenodd" fill-opacity="1" /><path clip-path="url(#clip010)" d="M1044.04 180.782 L1044.04 188.143 L1052.82 188.143 L1052.82 191.453 L1044.04 191.453 L1044.04 205.527 Q1044.04 208.698 1044.9 209.601 Q1045.78 210.504 1048.44 210.504 L1052.82 210.504 L1052.82 214.069 L1048.44 214.069 Q1043.51 214.069 1041.64 212.24 Q1039.76 210.388 1039.76 205.527 L1039.76 191.453 L1036.64 191.453 L1036.64 188.143 L1039.76 188.143 L1039.76 180.782 L1044.04 180.782 Z" fill="#000000" fill-rule="evenodd" fill-opacity="1" /><path clip-path="url(#clip010)" d="M1070.2 201.036 Q1065.04 201.036 1063.05 202.217 Q1061.06 203.397 1061.06 206.245 Q1061.06 208.513 1062.54 209.856 Q1064.04 211.175 1066.61 211.175 Q1070.16 211.175 1072.28 208.675 Q1074.44 206.152 1074.44 201.985 L1074.44 201.036 L1070.2 201.036 M1078.7 199.277 L1078.7 214.069 L1074.44 214.069 L1074.44 210.133 Q1072.98 212.495 1070.8 213.629 Q1068.63 214.74 1065.48 214.74 Q1061.5 214.74 1059.14 212.518 Q1056.8 210.272 1056.8 206.522 Q1056.8 202.147 1059.72 199.925 Q1062.66 197.703 1068.47 197.703 L1074.44 197.703 L1074.44 197.286 Q1074.44 194.347 1072.49 192.749 Q1070.57 191.129 1067.08 191.129 Q1064.85 191.129 1062.75 191.661 Q1060.64 192.194 1058.7 193.259 L1058.7 189.323 Q1061.04 188.421 1063.23 187.981 Q1065.43 187.518 1067.52 187.518 Q1073.14 187.518 1075.92 190.434 Q1078.7 193.351 1078.7 199.277 Z" fill="#000000" fill-rule="evenodd" fill-opacity="1" /><path clip-path="url(#clip010)" d="M1087.47 188.143 L1091.73 188.143 L1091.73 214.069 L1087.47 214.069 L1087.47 188.143 M1087.47 178.05 L1091.73 178.05 L1091.73 183.444 L1087.47 183.444 L1087.47 178.05 Z" fill="#000000" fill-rule="evenodd" fill-opacity="1" /><path clip-path="url(#clip010)" d="M1122.19 198.421 L1122.19 214.069 L1117.93 214.069 L1117.93 198.559 Q1117.93 194.879 1116.5 193.05 Q1115.06 191.222 1112.19 191.222 Q1108.74 191.222 1106.75 193.421 Q1104.76 195.62 1104.76 199.416 L1104.76 214.069 L1100.48 214.069 L1100.48 188.143 L1104.76 188.143 L1104.76 192.171 Q1106.29 189.833 1108.35 188.675 Q1110.43 187.518 1113.14 187.518 Q1117.61 187.518 1119.9 190.296 Q1122.19 193.05 1122.19 198.421 Z" fill="#000000" fill-rule="evenodd" fill-opacity="1" /><path clip-path="url(#clip010)" d="M1134.9 180.782 L1134.9 188.143 L1143.67 188.143 L1143.67 191.453 L1134.9 191.453 L1134.9 205.527 Q1134.9 208.698 1135.76 209.601 Q1136.64 210.504 1139.3 210.504 L1143.67 210.504 L1143.67 214.069 L1139.3 214.069 Q1134.37 214.069 1132.49 212.24 Q1130.62 210.388 1130.62 205.527 L1130.62 191.453 L1127.49 191.453 L1127.49 188.143 L1130.62 188.143 L1130.62 180.782 L1134.9 180.782 Z" fill="#000000" fill-rule="evenodd" fill-opacity="1" /><path clip-path="url(#clip010)" d="M1160.06 216.476 Q1158.26 221.106 1156.54 222.518 Q1154.83 223.93 1151.96 223.93 L1148.56 223.93 L1148.56 220.365 L1151.06 220.365 Q1152.82 220.365 1153.79 219.532 Q1154.76 218.698 1155.94 215.596 L1156.71 213.652 L1146.22 188.143 L1150.73 188.143 L1158.84 208.421 L1166.94 188.143 L1171.45 188.143 L1160.06 216.476 Z" fill="#000000" fill-rule="evenodd" fill-opacity="1" /><path clip-path="url(#clip010)" d="M1177.89 192.541 L1207.56 192.541 L1207.56 196.43 L1177.89 196.43 L1177.89 192.541 M1177.89 201.985 L1207.56 201.985 L1207.56 205.921 L1177.89 205.921 L1177.89 201.985 Z" fill="#000000" fill-rule="evenodd" fill-opacity="1" /><path clip-path="url(#clip010)" d="M1217.7 179.509 L1236.06 179.509 L1236.06 183.444 L1221.98 183.444 L1221.98 191.916 Q1223 191.569 1224.02 191.407 Q1225.04 191.222 1226.06 191.222 Q1231.84 191.222 1235.22 194.393 Q1238.6 197.564 1238.6 202.981 Q1238.6 208.559 1235.13 211.661 Q1231.66 214.74 1225.34 214.74 Q1223.16 214.74 1220.9 214.37 Q1218.65 213.999 1216.24 213.258 L1216.24 208.559 Q1218.33 209.694 1220.55 210.249 Q1222.77 210.805 1225.25 210.805 Q1229.25 210.805 1231.59 208.698 Q1233.93 206.592 1233.93 202.981 Q1233.93 199.37 1231.59 197.263 Q1229.25 195.157 1225.25 195.157 Q1223.37 195.157 1221.5 195.573 Q1219.65 195.99 1217.7 196.87 L1217.7 179.509 Z" fill="#000000" fill-rule="evenodd" fill-opacity="1" /><path clip-path="url(#clip010)" d="M1247.4 179.509 L1252.08 179.509 L1252.08 194.115 L1267.58 179.509 L1273.6 179.509 L1256.45 195.62 L1274.83 214.069 L1268.67 214.069 L1252.08 197.425 L1252.08 214.069 L1247.4 214.069 L1247.4 179.509 Z" fill="#000000" fill-rule="evenodd" fill-opacity="1" /><path clip-path="url(#clip010)" d="M1277.63 178.097 L1281.33 178.097 Q1284.81 183.56 1286.52 188.791 Q1288.26 194.022 1288.26 199.184 Q1288.26 204.37 1286.52 209.624 Q1284.81 214.879 1281.33 220.319 L1277.63 220.319 Q1280.71 215.018 1282.21 209.786 Q1283.74 204.532 1283.74 199.184 Q1283.74 193.837 1282.21 188.629 Q1280.71 183.421 1277.63 178.097 Z" fill="#000000" fill-rule="evenodd" fill-opacity="1" /><polyline clip-path="url(#clip010)" style="stroke:#3da44d; stroke-linecap:butt; stroke-linejoin:round; stroke-width:4; stroke-opacity:1; fill:none" points="
  299.465,248.629 442.718,248.629 
  "/>
<path clip-path="url(#clip010)" d="M485.506 243.918 L485.506 229.89 L489.765 229.89 L489.765 265.909 L485.506 265.909 L485.506 262.02 Q484.163 264.335 482.103 265.469 Q480.066 266.58 477.196 266.58 Q472.496 266.58 469.534 262.83 Q466.594 259.08 466.594 252.969 Q466.594 246.858 469.534 243.108 Q472.496 239.358 477.196 239.358 Q480.066 239.358 482.103 240.492 Q484.163 241.603 485.506 243.918 M470.992 252.969 Q470.992 257.668 472.913 260.353 Q474.858 263.015 478.237 263.015 Q481.617 263.015 483.561 260.353 Q485.506 257.668 485.506 252.969 Q485.506 248.27 483.561 245.608 Q481.617 242.923 478.237 242.923 Q474.858 242.923 472.913 245.608 Q470.992 248.27 470.992 252.969 Z" fill="#000000" fill-rule="evenodd" fill-opacity="1" /><path clip-path="url(#clip010)" d="M510.32 252.876 Q505.158 252.876 503.168 254.057 Q501.177 255.237 501.177 258.085 Q501.177 260.353 502.658 261.696 Q504.163 263.015 506.732 263.015 Q510.274 263.015 512.404 260.515 Q514.556 257.992 514.556 253.825 L514.556 252.876 L510.32 252.876 M518.816 251.117 L518.816 265.909 L514.556 265.909 L514.556 261.973 Q513.098 264.335 510.922 265.469 Q508.746 266.58 505.598 266.58 Q501.617 266.58 499.256 264.358 Q496.918 262.112 496.918 258.362 Q496.918 253.987 499.834 251.765 Q502.774 249.543 508.584 249.543 L514.556 249.543 L514.556 249.126 Q514.556 246.187 512.612 244.589 Q510.691 242.969 507.195 242.969 Q504.973 242.969 502.867 243.501 Q500.76 244.034 498.816 245.099 L498.816 241.163 Q501.154 240.261 503.353 239.821 Q505.552 239.358 507.635 239.358 Q513.26 239.358 516.038 242.274 Q518.816 245.191 518.816 251.117 Z" fill="#000000" fill-rule="evenodd" fill-opacity="1" /><path clip-path="url(#clip010)" d="M527.589 239.983 L531.848 239.983 L531.848 265.909 L527.589 265.909 L527.589 239.983 M527.589 229.89 L531.848 229.89 L531.848 235.284 L527.589 235.284 L527.589 229.89 Z" fill="#000000" fill-rule="evenodd" fill-opacity="1" /><path clip-path="url(#clip010)" d="M540.76 229.89 L545.019 229.89 L545.019 265.909 L540.76 265.909 L540.76 229.89 Z" fill="#000000" fill-rule="evenodd" fill-opacity="1" /><path clip-path="url(#clip010)" d="M564.718 268.316 Q562.913 272.946 561.2 274.358 Q559.487 275.77 556.616 275.77 L553.214 275.77 L553.214 272.205 L555.714 272.205 Q557.473 272.205 558.445 271.372 Q559.417 270.538 560.598 267.436 L561.362 265.492 L550.876 239.983 L555.39 239.983 L563.491 260.261 L571.593 239.983 L576.107 239.983 L564.718 268.316 Z" fill="#000000" fill-rule="evenodd" fill-opacity="1" /><path clip-path="url(#clip010)" d="M617.959 232.483 L617.959 237.043 Q615.297 235.77 612.936 235.145 Q610.574 234.52 608.375 234.52 Q604.556 234.52 602.473 236.001 Q600.412 237.483 600.412 240.214 Q600.412 242.506 601.778 243.687 Q603.167 244.844 607.01 245.562 L609.834 246.14 Q615.065 247.136 617.542 249.659 Q620.042 252.159 620.042 256.372 Q620.042 261.395 616.662 263.987 Q613.306 266.58 606.801 266.58 Q604.348 266.58 601.57 266.024 Q598.815 265.469 595.852 264.381 L595.852 259.566 Q598.7 261.163 601.431 261.973 Q604.162 262.784 606.801 262.784 Q610.806 262.784 612.982 261.21 Q615.158 259.636 615.158 256.719 Q615.158 254.173 613.584 252.737 Q612.033 251.302 608.468 250.585 L605.621 250.029 Q600.389 248.987 598.051 246.765 Q595.713 244.543 595.713 240.585 Q595.713 236.001 598.931 233.362 Q602.172 230.724 607.843 230.724 Q610.274 230.724 612.797 231.163 Q615.32 231.603 617.959 232.483 Z" fill="#000000" fill-rule="evenodd" fill-opacity="1" /><path clip-path="url(#clip010)" d="M627.334 231.349 L632.01 231.349 L632.01 265.909 L627.334 265.909 L627.334 231.349 Z" fill="#000000" fill-rule="evenodd" fill-opacity="1" /><path clip-path="url(#clip010)" d="M636.523 231.349 L665.759 231.349 L665.759 235.284 L653.491 235.284 L653.491 265.909 L648.792 265.909 L648.792 235.284 L636.523 235.284 L636.523 231.349 Z" fill="#000000" fill-rule="evenodd" fill-opacity="1" /><path clip-path="url(#clip010)" d="M682.102 239.983 L686.616 239.983 L694.718 261.742 L702.819 239.983 L707.333 239.983 L697.611 265.909 L691.824 265.909 L682.102 239.983 Z" fill="#000000" fill-rule="evenodd" fill-opacity="1" /><path clip-path="url(#clip010)" d="M724.995 252.876 Q719.833 252.876 717.842 254.057 Q715.852 255.237 715.852 258.085 Q715.852 260.353 717.333 261.696 Q718.838 263.015 721.407 263.015 Q724.949 263.015 727.078 260.515 Q729.231 257.992 729.231 253.825 L729.231 252.876 L724.995 252.876 M733.49 251.117 L733.49 265.909 L729.231 265.909 L729.231 261.973 Q727.773 264.335 725.597 265.469 Q723.421 266.58 720.273 266.58 Q716.291 266.58 713.93 264.358 Q711.592 262.112 711.592 258.362 Q711.592 253.987 714.509 251.765 Q717.449 249.543 723.259 249.543 L729.231 249.543 L729.231 249.126 Q729.231 246.187 727.287 244.589 Q725.366 242.969 721.87 242.969 Q719.648 242.969 717.541 243.501 Q715.435 244.034 713.491 245.099 L713.491 241.163 Q715.829 240.261 718.028 239.821 Q720.227 239.358 722.31 239.358 Q727.935 239.358 730.713 242.274 Q733.49 245.191 733.49 251.117 Z" fill="#000000" fill-rule="evenodd" fill-opacity="1" /><path clip-path="url(#clip010)" d="M757.287 243.964 Q756.569 243.548 755.713 243.362 Q754.879 243.154 753.861 243.154 Q750.25 243.154 748.305 245.515 Q746.384 247.853 746.384 252.251 L746.384 265.909 L742.102 265.909 L742.102 239.983 L746.384 239.983 L746.384 244.011 Q747.727 241.649 749.879 240.515 Q752.032 239.358 755.111 239.358 Q755.551 239.358 756.083 239.427 Q756.615 239.474 757.263 239.589 L757.287 243.964 Z" fill="#000000" fill-rule="evenodd" fill-opacity="1" /><path clip-path="url(#clip010)" d="M761.754 239.983 L766.013 239.983 L766.013 265.909 L761.754 265.909 L761.754 239.983 M761.754 229.89 L766.013 229.89 L766.013 235.284 L761.754 235.284 L761.754 229.89 Z" fill="#000000" fill-rule="evenodd" fill-opacity="1" /><path clip-path="url(#clip010)" d="M786.708 252.876 Q781.546 252.876 779.555 254.057 Q777.564 255.237 777.564 258.085 Q777.564 260.353 779.046 261.696 Q780.55 263.015 783.12 263.015 Q786.661 263.015 788.791 260.515 Q790.944 257.992 790.944 253.825 L790.944 252.876 L786.708 252.876 M795.203 251.117 L795.203 265.909 L790.944 265.909 L790.944 261.973 Q789.486 264.335 787.31 265.469 Q785.134 266.58 781.986 266.58 Q778.004 266.58 775.643 264.358 Q773.305 262.112 773.305 258.362 Q773.305 253.987 776.222 251.765 Q779.162 249.543 784.972 249.543 L790.944 249.543 L790.944 249.126 Q790.944 246.187 788.999 244.589 Q787.078 242.969 783.583 242.969 Q781.361 242.969 779.254 243.501 Q777.148 244.034 775.203 245.099 L775.203 241.163 Q777.541 240.261 779.74 239.821 Q781.939 239.358 784.023 239.358 Q789.648 239.358 792.425 242.274 Q795.203 245.191 795.203 251.117 Z" fill="#000000" fill-rule="evenodd" fill-opacity="1" /><path clip-path="url(#clip010)" d="M822.587 252.969 Q822.587 248.27 820.643 245.608 Q818.721 242.923 815.342 242.923 Q811.962 242.923 810.018 245.608 Q808.097 248.27 808.097 252.969 Q808.097 257.668 810.018 260.353 Q811.962 263.015 815.342 263.015 Q818.721 263.015 820.643 260.353 Q822.587 257.668 822.587 252.969 M808.097 243.918 Q809.439 241.603 811.476 240.492 Q813.536 239.358 816.384 239.358 Q821.106 239.358 824.046 243.108 Q827.008 246.858 827.008 252.969 Q827.008 259.08 824.046 262.83 Q821.106 266.58 816.384 266.58 Q813.536 266.58 811.476 265.469 Q809.439 264.335 808.097 262.02 L808.097 265.909 L803.814 265.909 L803.814 229.89 L808.097 229.89 L808.097 243.918 Z" fill="#000000" fill-rule="evenodd" fill-opacity="1" /><path clip-path="url(#clip010)" d="M834.069 239.983 L838.328 239.983 L838.328 265.909 L834.069 265.909 L834.069 239.983 M834.069 229.89 L838.328 229.89 L838.328 235.284 L834.069 235.284 L834.069 229.89 Z" fill="#000000" fill-rule="evenodd" fill-opacity="1" /><path clip-path="url(#clip010)" d="M847.24 229.89 L851.499 229.89 L851.499 265.909 L847.24 265.909 L847.24 229.89 Z" fill="#000000" fill-rule="evenodd" fill-opacity="1" /><path clip-path="url(#clip010)" d="M860.411 239.983 L864.67 239.983 L864.67 265.909 L860.411 265.909 L860.411 239.983 M860.411 229.89 L864.67 229.89 L864.67 235.284 L860.411 235.284 L860.411 229.89 Z" fill="#000000" fill-rule="evenodd" fill-opacity="1" /><path clip-path="url(#clip010)" d="M877.795 232.622 L877.795 239.983 L886.568 239.983 L886.568 243.293 L877.795 243.293 L877.795 257.367 Q877.795 260.538 878.652 261.441 Q879.531 262.344 882.193 262.344 L886.568 262.344 L886.568 265.909 L882.193 265.909 Q877.263 265.909 875.388 264.08 Q873.513 262.228 873.513 257.367 L873.513 243.293 L870.388 243.293 L870.388 239.983 L873.513 239.983 L873.513 232.622 L877.795 232.622 Z" fill="#000000" fill-rule="evenodd" fill-opacity="1" /><path clip-path="url(#clip010)" d="M902.957 268.316 Q901.152 272.946 899.439 274.358 Q897.726 275.77 894.855 275.77 L891.453 275.77 L891.453 272.205 L893.953 272.205 Q895.712 272.205 896.684 271.372 Q897.656 270.538 898.837 267.436 L899.601 265.492 L889.115 239.983 L893.628 239.983 L901.73 260.261 L909.832 239.983 L914.346 239.983 L902.957 268.316 Z" fill="#000000" fill-rule="evenodd" fill-opacity="1" /><path clip-path="url(#clip010)" d="M945.526 229.937 Q942.425 235.261 940.92 240.469 Q939.415 245.677 939.415 251.024 Q939.415 256.372 940.92 261.626 Q942.448 266.858 945.526 272.159 L941.823 272.159 Q938.35 266.719 936.614 261.464 Q934.901 256.21 934.901 251.024 Q934.901 245.862 936.614 240.631 Q938.327 235.4 941.823 229.937 L945.526 229.937 Z" fill="#000000" fill-rule="evenodd" fill-opacity="1" /><path clip-path="url(#clip010)" d="M951.637 251.024 L964.114 251.024 L964.114 254.821 L951.637 254.821 L951.637 251.024 Z" fill="#000000" fill-rule="evenodd" fill-opacity="1" /><path clip-path="url(#clip010)" d="M975.526 261.973 L991.846 261.973 L991.846 265.909 L969.901 265.909 L969.901 261.973 Q972.563 259.219 977.147 254.589 Q981.753 249.936 982.934 248.594 Q985.179 246.071 986.059 244.335 Q986.961 242.575 986.961 240.886 Q986.961 238.131 985.017 236.395 Q983.096 234.659 979.994 234.659 Q977.795 234.659 975.341 235.423 Q972.91 236.187 970.133 237.737 L970.133 233.015 Q972.957 231.881 975.41 231.302 Q977.864 230.724 979.901 230.724 Q985.272 230.724 988.466 233.409 Q991.66 236.094 991.66 240.585 Q991.66 242.714 990.85 244.636 Q990.063 246.534 987.957 249.126 Q987.378 249.798 984.276 253.015 Q981.174 256.21 975.526 261.973 Z" fill="#000000" fill-rule="evenodd" fill-opacity="1" /><path clip-path="url(#clip010)" d="M1001.71 231.349 L1020.06 231.349 L1020.06 235.284 L1005.99 235.284 L1005.99 243.756 Q1007.01 243.409 1008.03 243.247 Q1009.04 243.062 1010.06 243.062 Q1015.85 243.062 1019.23 246.233 Q1022.61 249.404 1022.61 254.821 Q1022.61 260.399 1019.14 263.501 Q1015.66 266.58 1009.35 266.58 Q1007.17 266.58 1004.9 266.21 Q1002.66 265.839 1000.25 265.098 L1000.25 260.399 Q1002.33 261.534 1004.55 262.089 Q1006.78 262.645 1009.25 262.645 Q1013.26 262.645 1015.6 260.538 Q1017.93 258.432 1017.93 254.821 Q1017.93 251.21 1015.6 249.103 Q1013.26 246.997 1009.25 246.997 Q1007.38 246.997 1005.5 247.413 Q1003.65 247.83 1001.71 248.71 L1001.71 231.349 Z" fill="#000000" fill-rule="evenodd" fill-opacity="1" /><path clip-path="url(#clip010)" d="M1038.6 233.71 Q1036.75 233.71 1035.48 235.006 Q1034.21 236.279 1034.21 238.131 Q1034.21 239.96 1035.48 241.233 Q1036.75 242.483 1038.6 242.483 Q1040.46 242.483 1041.73 241.233 Q1043 239.96 1043 238.131 Q1043 236.302 1041.71 235.006 Q1040.43 233.71 1038.6 233.71 M1038.6 230.724 Q1040.09 230.724 1041.45 231.302 Q1042.82 231.858 1043.81 232.923 Q1044.88 233.964 1045.41 235.284 Q1045.94 236.603 1045.94 238.131 Q1045.94 241.187 1043.79 243.316 Q1041.66 245.423 1038.56 245.423 Q1035.43 245.423 1033.35 243.339 Q1031.27 241.256 1031.27 238.131 Q1031.27 235.029 1033.4 232.876 Q1035.53 230.724 1038.6 230.724 Z" fill="#000000" fill-rule="evenodd" fill-opacity="1" /><path clip-path="url(#clip010)" d="M1080.99 234.011 L1080.99 238.941 Q1078.63 236.742 1075.94 235.654 Q1073.28 234.566 1070.27 234.566 Q1064.35 234.566 1061.2 238.2 Q1058.05 241.812 1058.05 248.663 Q1058.05 255.492 1061.2 259.126 Q1064.35 262.737 1070.27 262.737 Q1073.28 262.737 1075.94 261.649 Q1078.63 260.561 1080.99 258.362 L1080.99 263.247 Q1078.53 264.913 1075.78 265.747 Q1073.05 266.58 1069.99 266.58 Q1062.15 266.58 1057.63 261.788 Q1053.12 256.973 1053.12 248.663 Q1053.12 240.33 1057.63 235.538 Q1062.15 230.724 1069.99 230.724 Q1073.1 230.724 1075.83 231.557 Q1078.58 232.367 1080.99 234.011 Z" fill="#000000" fill-rule="evenodd" fill-opacity="1" /><path clip-path="url(#clip010)" d="M1087.35 229.937 L1091.06 229.937 Q1094.53 235.4 1096.24 240.631 Q1097.98 245.862 1097.98 251.024 Q1097.98 256.21 1096.24 261.464 Q1094.53 266.719 1091.06 272.159 L1087.35 272.159 Q1090.43 266.858 1091.94 261.626 Q1093.47 256.372 1093.47 251.024 Q1093.47 245.677 1091.94 240.469 Q1090.43 235.261 1087.35 229.937 Z" fill="#000000" fill-rule="evenodd" fill-opacity="1" /><polyline clip-path="url(#clip010)" style="stroke:#c271d2; stroke-linecap:butt; stroke-linejoin:round; stroke-width:4; stroke-opacity:1; fill:none" points="
  299.465,300.469 442.718,300.469 
  "/>
<path clip-path="url(#clip010)" d="M474.001 284.462 L474.001 291.823 L482.774 291.823 L482.774 295.133 L474.001 295.133 L474.001 309.207 Q474.001 312.378 474.858 313.281 Q475.737 314.184 478.399 314.184 L482.774 314.184 L482.774 317.749 L478.399 317.749 Q473.469 317.749 471.594 315.92 Q469.719 314.068 469.719 309.207 L469.719 295.133 L466.594 295.133 L466.594 291.823 L469.719 291.823 L469.719 284.462 L474.001 284.462 Z" fill="#000000" fill-rule="evenodd" fill-opacity="1" /><path clip-path="url(#clip010)" d="M498.422 294.809 Q494.996 294.809 493.006 297.494 Q491.015 300.156 491.015 304.809 Q491.015 309.462 492.982 312.147 Q494.973 314.809 498.422 314.809 Q501.825 314.809 503.816 312.124 Q505.807 309.438 505.807 304.809 Q505.807 300.202 503.816 297.517 Q501.825 294.809 498.422 294.809 M498.422 291.198 Q503.978 291.198 507.149 294.809 Q510.32 298.42 510.32 304.809 Q510.32 311.175 507.149 314.809 Q503.978 318.42 498.422 318.42 Q492.844 318.42 489.672 314.809 Q486.524 311.175 486.524 304.809 Q486.524 298.42 489.672 294.809 Q492.844 291.198 498.422 291.198 Z" fill="#000000" fill-rule="evenodd" fill-opacity="1" /><path clip-path="url(#clip010)" d="M521.593 284.462 L521.593 291.823 L530.367 291.823 L530.367 295.133 L521.593 295.133 L521.593 309.207 Q521.593 312.378 522.45 313.281 Q523.33 314.184 525.992 314.184 L530.367 314.184 L530.367 317.749 L525.992 317.749 Q521.061 317.749 519.186 315.92 Q517.311 314.068 517.311 309.207 L517.311 295.133 L514.186 295.133 L514.186 291.823 L517.311 291.823 L517.311 284.462 L521.593 284.462 Z" fill="#000000" fill-rule="evenodd" fill-opacity="1" /><path clip-path="url(#clip010)" d="M547.751 304.716 Q542.589 304.716 540.598 305.897 Q538.607 307.077 538.607 309.925 Q538.607 312.193 540.089 313.536 Q541.593 314.855 544.163 314.855 Q547.704 314.855 549.834 312.355 Q551.987 309.832 551.987 305.665 L551.987 304.716 L547.751 304.716 M556.246 302.957 L556.246 317.749 L551.987 317.749 L551.987 313.813 Q550.528 316.175 548.353 317.309 Q546.177 318.42 543.029 318.42 Q539.047 318.42 536.686 316.198 Q534.348 313.952 534.348 310.202 Q534.348 305.827 537.265 303.605 Q540.204 301.383 546.015 301.383 L551.987 301.383 L551.987 300.966 Q551.987 298.027 550.042 296.429 Q548.121 294.809 544.626 294.809 Q542.404 294.809 540.297 295.341 Q538.191 295.874 536.246 296.939 L536.246 293.003 Q538.584 292.101 540.783 291.661 Q542.982 291.198 545.066 291.198 Q550.691 291.198 553.468 294.114 Q556.246 297.031 556.246 302.957 Z" fill="#000000" fill-rule="evenodd" fill-opacity="1" /><path clip-path="url(#clip010)" d="M565.019 281.73 L569.278 281.73 L569.278 317.749 L565.019 317.749 L565.019 281.73 Z" fill="#000000" fill-rule="evenodd" fill-opacity="1" /><path clip-path="url(#clip010)" d="M592.82 307.517 L592.82 291.823 L597.079 291.823 L597.079 307.355 Q597.079 311.036 598.514 312.888 Q599.95 314.716 602.82 314.716 Q606.269 314.716 608.26 312.517 Q610.274 310.318 610.274 306.522 L610.274 291.823 L614.533 291.823 L614.533 317.749 L610.274 317.749 L610.274 313.767 Q608.723 316.128 606.662 317.286 Q604.625 318.42 601.917 318.42 Q597.45 318.42 595.135 315.642 Q592.82 312.864 592.82 307.517 M603.537 291.198 L603.537 291.198 Z" fill="#000000" fill-rule="evenodd" fill-opacity="1" /><path clip-path="url(#clip010)" d="M644.857 302.101 L644.857 317.749 L640.597 317.749 L640.597 302.239 Q640.597 298.559 639.162 296.73 Q637.727 294.902 634.857 294.902 Q631.408 294.902 629.417 297.101 Q627.426 299.3 627.426 303.096 L627.426 317.749 L623.144 317.749 L623.144 291.823 L627.426 291.823 L627.426 295.851 Q628.954 293.513 631.014 292.355 Q633.097 291.198 635.806 291.198 Q640.273 291.198 642.565 293.976 Q644.857 296.73 644.857 302.101 Z" fill="#000000" fill-rule="evenodd" fill-opacity="1" /><path clip-path="url(#clip010)" d="M672.009 292.818 L672.009 296.8 Q670.204 295.804 668.375 295.318 Q666.57 294.809 664.718 294.809 Q660.574 294.809 658.283 297.448 Q655.991 300.064 655.991 304.809 Q655.991 309.554 658.283 312.193 Q660.574 314.809 664.718 314.809 Q666.57 314.809 668.375 314.323 Q670.204 313.813 672.009 312.818 L672.009 316.753 Q670.227 317.587 668.306 318.003 Q666.407 318.42 664.255 318.42 Q658.398 318.42 654.949 314.739 Q651.5 311.059 651.5 304.809 Q651.5 298.466 654.972 294.832 Q658.468 291.198 664.533 291.198 Q666.5 291.198 668.375 291.615 Q670.25 292.008 672.009 292.818 Z" fill="#000000" fill-rule="evenodd" fill-opacity="1" /><path clip-path="url(#clip010)" d="M701.592 303.721 L701.592 305.804 L682.009 305.804 Q682.287 310.202 684.648 312.517 Q687.032 314.809 691.268 314.809 Q693.722 314.809 696.014 314.207 Q698.329 313.605 700.597 312.401 L700.597 316.429 Q698.305 317.401 695.898 317.911 Q693.491 318.42 691.014 318.42 Q684.81 318.42 681.176 314.809 Q677.565 311.198 677.565 305.04 Q677.565 298.675 680.991 294.948 Q684.44 291.198 690.273 291.198 Q695.505 291.198 698.537 294.577 Q701.592 297.934 701.592 303.721 M697.333 302.471 Q697.287 298.976 695.366 296.892 Q693.468 294.809 690.319 294.809 Q686.755 294.809 684.602 296.823 Q682.472 298.837 682.148 302.494 L697.333 302.471 Z" fill="#000000" fill-rule="evenodd" fill-opacity="1" /><path clip-path="url(#clip010)" d="M723.606 295.804 Q722.889 295.388 722.032 295.202 Q721.199 294.994 720.18 294.994 Q716.569 294.994 714.625 297.355 Q712.704 299.693 712.704 304.091 L712.704 317.749 L708.421 317.749 L708.421 291.823 L712.704 291.823 L712.704 295.851 Q714.046 293.489 716.199 292.355 Q718.352 291.198 721.43 291.198 Q721.87 291.198 722.403 291.267 Q722.935 291.314 723.583 291.429 L723.606 295.804 Z" fill="#000000" fill-rule="evenodd" fill-opacity="1" /><path clip-path="url(#clip010)" d="M732.287 284.462 L732.287 291.823 L741.06 291.823 L741.06 295.133 L732.287 295.133 L732.287 309.207 Q732.287 312.378 733.143 313.281 Q734.023 314.184 736.685 314.184 L741.06 314.184 L741.06 317.749 L736.685 317.749 Q731.754 317.749 729.879 315.92 Q728.004 314.068 728.004 309.207 L728.004 295.133 L724.879 295.133 L724.879 291.823 L728.004 291.823 L728.004 284.462 L732.287 284.462 Z" fill="#000000" fill-rule="evenodd" fill-opacity="1" /><path clip-path="url(#clip010)" d="M758.444 304.716 Q753.282 304.716 751.291 305.897 Q749.301 307.077 749.301 309.925 Q749.301 312.193 750.782 313.536 Q752.287 314.855 754.856 314.855 Q758.398 314.855 760.527 312.355 Q762.68 309.832 762.68 305.665 L762.68 304.716 L758.444 304.716 M766.939 302.957 L766.939 317.749 L762.68 317.749 L762.68 313.813 Q761.222 316.175 759.046 317.309 Q756.87 318.42 753.722 318.42 Q749.74 318.42 747.379 316.198 Q745.041 313.952 745.041 310.202 Q745.041 305.827 747.958 303.605 Q750.898 301.383 756.708 301.383 L762.68 301.383 L762.68 300.966 Q762.68 298.027 760.736 296.429 Q758.814 294.809 755.319 294.809 Q753.097 294.809 750.99 295.341 Q748.884 295.874 746.939 296.939 L746.939 293.003 Q749.277 292.101 751.476 291.661 Q753.676 291.198 755.759 291.198 Q761.384 291.198 764.162 294.114 Q766.939 297.031 766.939 302.957 Z" fill="#000000" fill-rule="evenodd" fill-opacity="1" /><path clip-path="url(#clip010)" d="M775.712 291.823 L779.972 291.823 L779.972 317.749 L775.712 317.749 L775.712 291.823 M775.712 281.73 L779.972 281.73 L779.972 287.124 L775.712 287.124 L775.712 281.73 Z" fill="#000000" fill-rule="evenodd" fill-opacity="1" /><path clip-path="url(#clip010)" d="M810.434 302.101 L810.434 317.749 L806.175 317.749 L806.175 302.239 Q806.175 298.559 804.74 296.73 Q803.305 294.902 800.435 294.902 Q796.985 294.902 794.995 297.101 Q793.004 299.3 793.004 303.096 L793.004 317.749 L788.722 317.749 L788.722 291.823 L793.004 291.823 L793.004 295.851 Q794.532 293.513 796.592 292.355 Q798.675 291.198 801.384 291.198 Q805.851 291.198 808.143 293.976 Q810.434 296.73 810.434 302.101 Z" fill="#000000" fill-rule="evenodd" fill-opacity="1" /><path clip-path="url(#clip010)" d="M823.143 284.462 L823.143 291.823 L831.916 291.823 L831.916 295.133 L823.143 295.133 L823.143 309.207 Q823.143 312.378 823.999 313.281 Q824.879 314.184 827.541 314.184 L831.916 314.184 L831.916 317.749 L827.541 317.749 Q822.61 317.749 820.735 315.92 Q818.86 314.068 818.86 309.207 L818.86 295.133 L815.735 295.133 L815.735 291.823 L818.86 291.823 L818.86 284.462 L823.143 284.462 Z" fill="#000000" fill-rule="evenodd" fill-opacity="1" /><path clip-path="url(#clip010)" d="M848.305 320.156 Q846.499 324.786 844.786 326.198 Q843.073 327.61 840.203 327.61 L836.8 327.61 L836.8 324.045 L839.3 324.045 Q841.059 324.045 842.032 323.212 Q843.004 322.378 844.184 319.276 L844.948 317.332 L834.462 291.823 L838.976 291.823 L847.078 312.101 L855.18 291.823 L859.693 291.823 L848.305 320.156 Z" fill="#000000" fill-rule="evenodd" fill-opacity="1" /></svg>
