<?xml version="1.0" encoding="utf-8"?>
<svg xmlns="http://www.w3.org/2000/svg" xmlns:xlink="http://www.w3.org/1999/xlink" width="600" height="400" viewBox="0 0 2400 1600">
<defs>
  <clipPath id="clip930">
    <rect x="0" y="0" width="2400" height="1600"/>
  </clipPath>
</defs>
<path clip-path="url(#clip930)" d="
M0 1600 L2400 1600 L2400 0 L0 0  Z
  " fill="#ffffff" fill-rule="evenodd" fill-opacity="1"/>
<defs>
  <clipPath id="clip931">
    <rect x="480" y="0" width="1681" height="1600"/>
  </clipPath>
</defs>
<path clip-path="url(#clip930)" d="
M234.125 1423.18 L2352.76 1423.18 L2352.76 47.2441 L234.125 47.2441  Z
  " fill="#ffffff" fill-rule="evenodd" fill-opacity="1"/>
<defs>
  <clipPath id="clip932">
    <rect x="234" y="47" width="2120" height="1377"/>
  </clipPath>
</defs>
<polyline clip-path="url(#clip932)" style="stroke:#000000; stroke-linecap:butt; stroke-linejoin:round; stroke-width:2; stroke-opacity:0.1; fill:none" points="
  294.087,1423.18 294.087,47.2441 
  "/>
<polyline clip-path="url(#clip932)" style="stroke:#000000; stroke-linecap:butt; stroke-linejoin:round; stroke-width:2; stroke-opacity:0.1; fill:none" points="
  865.146,1423.18 865.146,47.2441 
  "/>
<polyline clip-path="url(#clip932)" style="stroke:#000000; stroke-linecap:butt; stroke-linejoin:round; stroke-width:2; stroke-opacity:0.1; fill:none" points="
  1436.21,1423.18 1436.21,47.2441 
  "/>
<polyline clip-path="url(#clip932)" style="stroke:#000000; stroke-linecap:butt; stroke-linejoin:round; stroke-width:2; stroke-opacity:0.1; fill:none" points="
  2007.26,1423.18 2007.26,47.2441 
  "/>
<polyline clip-path="url(#clip930)" style="stroke:#000000; stroke-linecap:butt; stroke-linejoin:round; stroke-width:4; stroke-opacity:1; fill:none" points="
  234.125,1423.18 2352.76,1423.18 
  "/>
<polyline clip-path="url(#clip930)" style="stroke:#000000; stroke-linecap:butt; stroke-linejoin:round; stroke-width:4; stroke-opacity:1; fill:none" points="
  294.087,1423.18 294.087,1404.28 
  "/>
<polyline clip-path="url(#clip930)" style="stroke:#000000; stroke-linecap:butt; stroke-linejoin:round; stroke-width:4; stroke-opacity:1; fill:none" points="
  865.146,1423.18 865.146,1404.28 
  "/>
<polyline clip-path="url(#clip930)" style="stroke:#000000; stroke-linecap:butt; stroke-linejoin:round; stroke-width:4; stroke-opacity:1; fill:none" points="
  1436.21,1423.18 1436.21,1404.28 
  "/>
<polyline clip-path="url(#clip930)" style="stroke:#000000; stroke-linecap:butt; stroke-linejoin:round; stroke-width:4; stroke-opacity:1; fill:none" points="
  2007.26,1423.18 2007.26,1404.28 
  "/>
<path clip-path="url(#clip930)" d="M272.86 1481.64 L289.179 1481.64 L289.179 1485.58 L267.235 1485.58 L267.235 1481.64 Q269.897 1478.89 274.48 1474.26 Q279.087 1469.61 280.267 1468.27 Q282.513 1465.74 283.392 1464.01 Q284.295 1462.25 284.295 1460.56 Q284.295 1457.8 282.351 1456.07 Q280.429 1454.33 277.328 1454.33 Q275.128 1454.33 272.675 1455.09 Q270.244 1455.86 267.466 1457.41 L267.466 1452.69 Q270.291 1451.55 272.744 1450.97 Q275.198 1450.39 277.235 1450.39 Q282.605 1450.39 285.8 1453.08 Q288.994 1455.77 288.994 1460.26 Q288.994 1462.39 288.184 1464.31 Q287.397 1466.2 285.29 1468.8 Q284.712 1469.47 281.61 1472.69 Q278.508 1475.88 272.86 1481.64 Z" fill="#000000" fill-rule="evenodd" fill-opacity="1" /><path clip-path="url(#clip930)" d="M308.994 1454.1 Q305.383 1454.1 303.554 1457.66 Q301.749 1461.2 301.749 1468.33 Q301.749 1475.44 303.554 1479.01 Q305.383 1482.55 308.994 1482.55 Q312.628 1482.55 314.434 1479.01 Q316.262 1475.44 316.262 1468.33 Q316.262 1461.2 314.434 1457.66 Q312.628 1454.1 308.994 1454.1 M308.994 1450.39 Q314.804 1450.39 317.86 1455 Q320.938 1459.58 320.938 1468.33 Q320.938 1477.06 317.86 1481.67 Q314.804 1486.25 308.994 1486.25 Q303.184 1486.25 300.105 1481.67 Q297.05 1477.06 297.05 1468.33 Q297.05 1459.58 300.105 1455 Q303.184 1450.39 308.994 1450.39 Z" fill="#000000" fill-rule="evenodd" fill-opacity="1" /><path clip-path="url(#clip930)" d="M853.317 1455.09 L841.512 1473.54 L853.317 1473.54 L853.317 1455.09 M852.091 1451.02 L857.97 1451.02 L857.97 1473.54 L862.901 1473.54 L862.901 1477.43 L857.97 1477.43 L857.97 1485.58 L853.317 1485.58 L853.317 1477.43 L837.716 1477.43 L837.716 1472.92 L852.091 1451.02 Z" fill="#000000" fill-rule="evenodd" fill-opacity="1" /><path clip-path="url(#clip930)" d="M880.632 1454.1 Q877.021 1454.1 875.192 1457.66 Q873.387 1461.2 873.387 1468.33 Q873.387 1475.44 875.192 1479.01 Q877.021 1482.55 880.632 1482.55 Q884.266 1482.55 886.072 1479.01 Q887.901 1475.44 887.901 1468.33 Q887.901 1461.2 886.072 1457.66 Q884.266 1454.1 880.632 1454.1 M880.632 1450.39 Q886.442 1450.39 889.498 1455 Q892.577 1459.58 892.577 1468.33 Q892.577 1477.06 889.498 1481.67 Q886.442 1486.25 880.632 1486.25 Q874.822 1486.25 871.743 1481.67 Q868.688 1477.06 868.688 1468.33 Q868.688 1459.58 871.743 1455 Q874.822 1450.39 880.632 1450.39 Z" fill="#000000" fill-rule="evenodd" fill-opacity="1" /><path clip-path="url(#clip930)" d="M1421.61 1466.44 Q1418.46 1466.44 1416.61 1468.59 Q1414.78 1470.74 1414.78 1474.49 Q1414.78 1478.22 1416.61 1480.39 Q1418.46 1482.55 1421.61 1482.55 Q1424.76 1482.55 1426.59 1480.39 Q1428.44 1478.22 1428.44 1474.49 Q1428.44 1470.74 1426.59 1468.59 Q1424.76 1466.44 1421.61 1466.44 M1430.89 1451.78 L1430.89 1456.04 Q1429.13 1455.21 1427.33 1454.77 Q1425.55 1454.33 1423.79 1454.33 Q1419.16 1454.33 1416.7 1457.45 Q1414.27 1460.58 1413.93 1466.9 Q1415.29 1464.89 1417.35 1463.82 Q1419.41 1462.73 1421.89 1462.73 Q1427.1 1462.73 1430.11 1465.9 Q1433.14 1469.05 1433.14 1474.49 Q1433.14 1479.82 1429.99 1483.03 Q1426.84 1486.25 1421.61 1486.25 Q1415.62 1486.25 1412.44 1481.67 Q1409.27 1477.06 1409.27 1468.33 Q1409.27 1460.14 1413.16 1455.28 Q1417.05 1450.39 1423.6 1450.39 Q1425.36 1450.39 1427.14 1450.74 Q1428.95 1451.09 1430.89 1451.78 Z" fill="#000000" fill-rule="evenodd" fill-opacity="1" /><path clip-path="url(#clip930)" d="M1451.19 1454.1 Q1447.58 1454.1 1445.75 1457.66 Q1443.95 1461.2 1443.95 1468.33 Q1443.95 1475.44 1445.75 1479.01 Q1447.58 1482.55 1451.19 1482.55 Q1454.83 1482.55 1456.63 1479.01 Q1458.46 1475.44 1458.46 1468.33 Q1458.46 1461.2 1456.63 1457.66 Q1454.83 1454.1 1451.19 1454.1 M1451.19 1450.39 Q1457 1450.39 1460.06 1455 Q1463.14 1459.58 1463.14 1468.33 Q1463.14 1477.06 1460.06 1481.67 Q1457 1486.25 1451.19 1486.25 Q1445.38 1486.25 1442.31 1481.67 Q1439.25 1477.06 1439.25 1468.33 Q1439.25 1459.58 1442.31 1455 Q1445.38 1450.39 1451.19 1450.39 Z" fill="#000000" fill-rule="evenodd" fill-opacity="1" /><path clip-path="url(#clip930)" d="M1992.14 1469.17 Q1988.8 1469.17 1986.88 1470.95 Q1984.98 1472.73 1984.98 1475.86 Q1984.98 1478.98 1986.88 1480.77 Q1988.8 1482.55 1992.14 1482.55 Q1995.47 1482.55 1997.39 1480.77 Q1999.31 1478.96 1999.31 1475.86 Q1999.31 1472.73 1997.39 1470.95 Q1995.49 1469.17 1992.14 1469.17 M1987.46 1467.18 Q1984.45 1466.44 1982.76 1464.38 Q1981.1 1462.32 1981.1 1459.35 Q1981.1 1455.21 1984.04 1452.8 Q1987 1450.39 1992.14 1450.39 Q1997.3 1450.39 2000.24 1452.8 Q2003.18 1455.21 2003.18 1459.35 Q2003.18 1462.32 2001.49 1464.38 Q1999.82 1466.44 1996.84 1467.18 Q2000.22 1467.96 2002.09 1470.26 Q2003.99 1472.55 2003.99 1475.86 Q2003.99 1480.88 2000.91 1483.57 Q1997.86 1486.25 1992.14 1486.25 Q1986.42 1486.25 1983.34 1483.57 Q1980.29 1480.88 1980.29 1475.86 Q1980.29 1472.55 1982.18 1470.26 Q1984.08 1467.96 1987.46 1467.18 M1985.75 1459.79 Q1985.75 1462.48 1987.42 1463.98 Q1989.11 1465.49 1992.14 1465.49 Q1995.15 1465.49 1996.84 1463.98 Q1998.55 1462.48 1998.55 1459.79 Q1998.55 1457.11 1996.84 1455.6 Q1995.15 1454.1 1992.14 1454.1 Q1989.11 1454.1 1987.42 1455.6 Q1985.75 1457.11 1985.75 1459.79 Z" fill="#000000" fill-rule="evenodd" fill-opacity="1" /><path clip-path="url(#clip930)" d="M2022.3 1454.1 Q2018.69 1454.1 2016.86 1457.66 Q2015.05 1461.2 2015.05 1468.33 Q2015.05 1475.44 2016.86 1479.01 Q2018.69 1482.55 2022.3 1482.55 Q2025.93 1482.55 2027.74 1479.01 Q2029.57 1475.44 2029.57 1468.33 Q2029.57 1461.2 2027.74 1457.66 Q2025.93 1454.1 2022.3 1454.1 M2022.3 1450.39 Q2028.11 1450.39 2031.17 1455 Q2034.24 1459.58 2034.24 1468.33 Q2034.24 1477.06 2031.17 1481.67 Q2028.11 1486.25 2022.3 1486.25 Q2016.49 1486.25 2013.41 1481.67 Q2010.36 1477.06 2010.36 1468.33 Q2010.36 1459.58 2013.41 1455 Q2016.49 1450.39 2022.3 1450.39 Z" fill="#000000" fill-rule="evenodd" fill-opacity="1" /><path clip-path="url(#clip930)" d="M848.796 1525.81 L848.796 1543.66 L856.881 1543.66 Q861.368 1543.66 863.819 1541.34 Q866.27 1539.02 866.27 1534.72 Q866.27 1530.45 863.819 1528.13 Q861.368 1525.81 856.881 1525.81 L848.796 1525.81 M842.367 1520.52 L856.881 1520.52 Q864.869 1520.52 868.944 1524.15 Q873.049 1527.75 873.049 1534.72 Q873.049 1541.75 868.944 1545.35 Q864.869 1548.95 856.881 1548.95 L848.796 1548.95 L848.796 1568.04 L842.367 1568.04 L842.367 1520.52 Z" fill="#000000" fill-rule="evenodd" fill-opacity="1" /><path clip-path="url(#clip930)" d="M892.91 1536.5 Q888.2 1536.5 885.463 1540.19 Q882.725 1543.85 882.725 1550.25 Q882.725 1556.65 885.431 1560.34 Q888.168 1564 892.91 1564 Q897.589 1564 900.326 1560.31 Q903.064 1556.62 903.064 1550.25 Q903.064 1543.92 900.326 1540.23 Q897.589 1536.5 892.91 1536.5 M892.91 1531.54 Q900.549 1531.54 904.91 1536.5 Q909.27 1541.47 909.27 1550.25 Q909.27 1559 904.91 1564 Q900.549 1568.97 892.91 1568.97 Q885.24 1568.97 880.879 1564 Q876.551 1559 876.551 1550.25 Q876.551 1541.47 880.879 1536.5 Q885.24 1531.54 892.91 1531.54 Z" fill="#000000" fill-rule="evenodd" fill-opacity="1" /><path clip-path="url(#clip930)" d="M918.978 1518.52 L924.834 1518.52 L924.834 1568.04 L918.978 1568.04 L918.978 1518.52 Z" fill="#000000" fill-rule="evenodd" fill-opacity="1" /><path clip-path="url(#clip930)" d="M953.289 1550.12 Q946.191 1550.12 943.454 1551.75 Q940.717 1553.37 940.717 1557.29 Q940.717 1560.4 942.754 1562.25 Q944.823 1564.07 948.356 1564.07 Q953.225 1564.07 956.154 1560.63 Q959.114 1557.16 959.114 1551.43 L959.114 1550.12 L953.289 1550.12 M964.97 1547.71 L964.97 1568.04 L959.114 1568.04 L959.114 1562.63 Q957.109 1565.88 954.117 1567.44 Q951.125 1568.97 946.796 1568.97 Q941.322 1568.97 938.075 1565.91 Q934.86 1562.82 934.86 1557.67 Q934.86 1551.65 938.871 1548.6 Q942.913 1545.54 950.902 1545.54 L959.114 1545.54 L959.114 1544.97 Q959.114 1540.93 956.44 1538.73 Q953.798 1536.5 948.992 1536.5 Q945.937 1536.5 943.04 1537.23 Q940.144 1537.97 937.47 1539.43 L937.47 1534.02 Q940.685 1532.78 943.709 1532.17 Q946.732 1531.54 949.597 1531.54 Q957.331 1531.54 961.151 1535.55 Q964.97 1539.56 964.97 1547.71 Z" fill="#000000" fill-rule="evenodd" fill-opacity="1" /><path clip-path="url(#clip930)" d="M997.69 1537.87 Q996.703 1537.3 995.526 1537.04 Q994.38 1536.76 992.979 1536.76 Q988.014 1536.76 985.34 1540 Q982.699 1543.22 982.699 1549.27 L982.699 1568.04 L976.81 1568.04 L976.81 1532.4 L982.699 1532.4 L982.699 1537.93 Q984.545 1534.69 987.505 1533.13 Q990.465 1531.54 994.698 1531.54 Q995.303 1531.54 996.035 1531.63 Q996.767 1531.7 997.658 1531.85 L997.69 1537.87 Z" fill="#000000" fill-rule="evenodd" fill-opacity="1" /><path clip-path="url(#clip930)" d="M1003.83 1532.4 L1009.69 1532.4 L1009.69 1568.04 L1003.83 1568.04 L1003.83 1532.4 M1003.83 1518.52 L1009.69 1518.52 L1009.69 1525.93 L1003.83 1525.93 L1003.83 1518.52 Z" fill="#000000" fill-rule="evenodd" fill-opacity="1" /><path clip-path="url(#clip930)" d="M1019.4 1532.4 L1047.22 1532.4 L1047.22 1537.74 L1025.19 1563.37 L1047.22 1563.37 L1047.22 1568.04 L1018.6 1568.04 L1018.6 1562.7 L1040.63 1537.07 L1019.4 1537.07 L1019.4 1532.4 Z" fill="#000000" fill-rule="evenodd" fill-opacity="1" /><path clip-path="url(#clip930)" d="M1072.36 1550.12 Q1065.26 1550.12 1062.52 1551.75 Q1059.79 1553.37 1059.79 1557.29 Q1059.79 1560.4 1061.82 1562.25 Q1063.89 1564.07 1067.43 1564.07 Q1072.3 1564.07 1075.22 1560.63 Q1078.18 1557.16 1078.18 1551.43 L1078.18 1550.12 L1072.36 1550.12 M1084.04 1547.71 L1084.04 1568.04 L1078.18 1568.04 L1078.18 1562.63 Q1076.18 1565.88 1073.19 1567.44 Q1070.2 1568.97 1065.87 1568.97 Q1060.39 1568.97 1057.15 1565.91 Q1053.93 1562.82 1053.93 1557.67 Q1053.93 1551.65 1057.94 1548.6 Q1061.98 1545.54 1069.97 1545.54 L1078.18 1545.54 L1078.18 1544.97 Q1078.18 1540.93 1075.51 1538.73 Q1072.87 1536.5 1068.06 1536.5 Q1065.01 1536.5 1062.11 1537.23 Q1059.21 1537.97 1056.54 1539.43 L1056.54 1534.02 Q1059.76 1532.78 1062.78 1532.17 Q1065.8 1531.54 1068.67 1531.54 Q1076.4 1531.54 1080.22 1535.55 Q1084.04 1539.56 1084.04 1547.71 Z" fill="#000000" fill-rule="evenodd" fill-opacity="1" /><path clip-path="url(#clip930)" d="M1101.9 1522.27 L1101.9 1532.4 L1113.96 1532.4 L1113.96 1536.95 L1101.9 1536.95 L1101.9 1556.3 Q1101.9 1560.66 1103.07 1561.9 Q1104.28 1563.14 1107.94 1563.14 L1113.96 1563.14 L1113.96 1568.04 L1107.94 1568.04 Q1101.16 1568.04 1098.59 1565.53 Q1096.01 1562.98 1096.01 1556.3 L1096.01 1536.95 L1091.71 1536.95 L1091.71 1532.4 L1096.01 1532.4 L1096.01 1522.27 L1101.9 1522.27 Z" fill="#000000" fill-rule="evenodd" fill-opacity="1" /><path clip-path="url(#clip930)" d="M1121.66 1532.4 L1127.52 1532.4 L1127.52 1568.04 L1121.66 1568.04 L1121.66 1532.4 M1121.66 1518.52 L1127.52 1518.52 L1127.52 1525.93 L1121.66 1525.93 L1121.66 1518.52 Z" fill="#000000" fill-rule="evenodd" fill-opacity="1" /><path clip-path="url(#clip930)" d="M1153.59 1536.5 Q1148.88 1536.5 1146.14 1540.19 Q1143.4 1543.85 1143.4 1550.25 Q1143.4 1556.65 1146.11 1560.34 Q1148.84 1564 1153.59 1564 Q1158.26 1564 1161 1560.31 Q1163.74 1556.62 1163.74 1550.25 Q1163.74 1543.92 1161 1540.23 Q1158.26 1536.5 1153.59 1536.5 M1153.59 1531.54 Q1161.22 1531.54 1165.59 1536.5 Q1169.95 1541.47 1169.95 1550.25 Q1169.95 1559 1165.59 1564 Q1161.22 1568.97 1153.59 1568.97 Q1145.92 1568.97 1141.55 1564 Q1137.23 1559 1137.23 1550.25 Q1137.23 1541.47 1141.55 1536.5 Q1145.92 1531.54 1153.59 1531.54 Z" fill="#000000" fill-rule="evenodd" fill-opacity="1" /><path clip-path="url(#clip930)" d="M1209.29 1546.53 L1209.29 1568.04 L1203.43 1568.04 L1203.43 1546.72 Q1203.43 1541.66 1201.46 1539.14 Q1199.48 1536.63 1195.54 1536.63 Q1190.79 1536.63 1188.06 1539.65 Q1185.32 1542.68 1185.32 1547.9 L1185.32 1568.04 L1179.43 1568.04 L1179.43 1532.4 L1185.32 1532.4 L1185.32 1537.93 Q1187.42 1534.72 1190.25 1533.13 Q1193.12 1531.54 1196.84 1531.54 Q1202.98 1531.54 1206.14 1535.36 Q1209.29 1539.14 1209.29 1546.53 Z" fill="#000000" fill-rule="evenodd" fill-opacity="1" /><path clip-path="url(#clip930)" d="M1265.15 1537.81 L1265.15 1518.52 L1271 1518.52 L1271 1568.04 L1265.15 1568.04 L1265.15 1562.7 Q1263.3 1565.88 1260.47 1567.44 Q1257.67 1568.97 1253.72 1568.97 Q1247.26 1568.97 1243.18 1563.81 Q1239.14 1558.65 1239.14 1550.25 Q1239.14 1541.85 1243.18 1536.69 Q1247.26 1531.54 1253.72 1531.54 Q1257.67 1531.54 1260.47 1533.1 Q1263.3 1534.62 1265.15 1537.81 M1245.19 1550.25 Q1245.19 1556.71 1247.83 1560.4 Q1250.5 1564.07 1255.15 1564.07 Q1259.8 1564.07 1262.47 1560.4 Q1265.15 1556.71 1265.15 1550.25 Q1265.15 1543.79 1262.47 1540.13 Q1259.8 1536.44 1255.15 1536.44 Q1250.5 1536.44 1247.83 1540.13 Q1245.19 1543.79 1245.19 1550.25 Z" fill="#000000" fill-rule="evenodd" fill-opacity="1" /><path clip-path="url(#clip930)" d="M1283.06 1532.4 L1288.92 1532.4 L1288.92 1568.04 L1283.06 1568.04 L1283.06 1532.4 M1283.06 1518.52 L1288.92 1518.52 L1288.92 1525.93 L1283.06 1525.93 L1283.06 1518.52 Z" fill="#000000" fill-rule="evenodd" fill-opacity="1" /><path clip-path="url(#clip930)" d="M1319.22 1518.52 L1319.22 1523.39 L1313.62 1523.39 Q1310.47 1523.39 1309.23 1524.66 Q1308.02 1525.93 1308.02 1529.24 L1308.02 1532.4 L1317.66 1532.4 L1317.66 1536.95 L1308.02 1536.95 L1308.02 1568.04 L1302.13 1568.04 L1302.13 1536.95 L1296.53 1536.95 L1296.53 1532.4 L1302.13 1532.4 L1302.13 1529.91 Q1302.13 1523.96 1304.9 1521.26 Q1307.67 1518.52 1313.68 1518.52 L1319.22 1518.52 Z" fill="#000000" fill-rule="evenodd" fill-opacity="1" /><path clip-path="url(#clip930)" d="M1342.17 1518.52 L1342.17 1523.39 L1336.57 1523.39 Q1333.42 1523.39 1332.18 1524.66 Q1330.97 1525.93 1330.97 1529.24 L1330.97 1532.4 L1340.61 1532.4 L1340.61 1536.95 L1330.97 1536.95 L1330.97 1568.04 L1325.08 1568.04 L1325.08 1536.95 L1319.48 1536.95 L1319.48 1532.4 L1325.08 1532.4 L1325.08 1529.91 Q1325.08 1523.96 1327.85 1521.26 Q1330.62 1518.52 1336.63 1518.52 L1342.17 1518.52 Z" fill="#000000" fill-rule="evenodd" fill-opacity="1" /><path clip-path="url(#clip930)" d="M1377.56 1548.76 L1377.56 1551.62 L1350.64 1551.62 Q1351.02 1557.67 1354.27 1560.85 Q1357.54 1564 1363.37 1564 Q1366.74 1564 1369.89 1563.17 Q1373.08 1562.35 1376.19 1560.69 L1376.19 1566.23 Q1373.04 1567.57 1369.73 1568.27 Q1366.42 1568.97 1363.02 1568.97 Q1354.49 1568.97 1349.49 1564 Q1344.53 1559.04 1344.53 1550.57 Q1344.53 1541.82 1349.24 1536.69 Q1353.98 1531.54 1362 1531.54 Q1369.19 1531.54 1373.36 1536.18 Q1377.56 1540.8 1377.56 1548.76 M1371.71 1547.04 Q1371.64 1542.23 1369 1539.37 Q1366.39 1536.5 1362.06 1536.5 Q1357.16 1536.5 1354.2 1539.27 Q1351.27 1542.04 1350.83 1547.07 L1371.71 1547.04 Z" fill="#000000" fill-rule="evenodd" fill-opacity="1" /><path clip-path="url(#clip930)" d="M1407.83 1537.87 Q1406.85 1537.3 1405.67 1537.04 Q1404.52 1536.76 1403.12 1536.76 Q1398.16 1536.76 1395.48 1540 Q1392.84 1543.22 1392.84 1549.27 L1392.84 1568.04 L1386.95 1568.04 L1386.95 1532.4 L1392.84 1532.4 L1392.84 1537.93 Q1394.69 1534.69 1397.65 1533.13 Q1400.61 1531.54 1404.84 1531.54 Q1405.45 1531.54 1406.18 1531.63 Q1406.91 1531.7 1407.8 1531.85 L1407.83 1537.87 Z" fill="#000000" fill-rule="evenodd" fill-opacity="1" /><path clip-path="url(#clip930)" d="M1443.03 1548.76 L1443.03 1551.62 L1416.11 1551.62 Q1416.49 1557.67 1419.74 1560.85 Q1423.01 1564 1428.84 1564 Q1432.21 1564 1435.36 1563.17 Q1438.55 1562.35 1441.67 1560.69 L1441.67 1566.23 Q1438.52 1567.57 1435.2 1568.27 Q1431.89 1568.97 1428.49 1568.97 Q1419.96 1568.97 1414.96 1564 Q1410 1559.04 1410 1550.57 Q1410 1541.82 1414.71 1536.69 Q1419.45 1531.54 1427.47 1531.54 Q1434.66 1531.54 1438.83 1536.18 Q1443.03 1540.8 1443.03 1548.76 M1437.18 1547.04 Q1437.11 1542.23 1434.47 1539.37 Q1431.86 1536.5 1427.53 1536.5 Q1422.63 1536.5 1419.67 1539.27 Q1416.74 1542.04 1416.3 1547.07 L1437.18 1547.04 Z" fill="#000000" fill-rule="evenodd" fill-opacity="1" /><path clip-path="url(#clip930)" d="M1482.28 1546.53 L1482.28 1568.04 L1476.42 1568.04 L1476.42 1546.72 Q1476.42 1541.66 1474.45 1539.14 Q1472.48 1536.63 1468.53 1536.63 Q1463.79 1536.63 1461.05 1539.65 Q1458.31 1542.68 1458.31 1547.9 L1458.31 1568.04 L1452.42 1568.04 L1452.42 1532.4 L1458.31 1532.4 L1458.31 1537.93 Q1460.41 1534.72 1463.25 1533.13 Q1466.11 1531.54 1469.83 1531.54 Q1475.98 1531.54 1479.13 1535.36 Q1482.28 1539.14 1482.28 1546.53 Z" fill="#000000" fill-rule="evenodd" fill-opacity="1" /><path clip-path="url(#clip930)" d="M1519.61 1533.76 L1519.61 1539.24 Q1517.13 1537.87 1514.62 1537.2 Q1512.13 1536.5 1509.59 1536.5 Q1503.89 1536.5 1500.74 1540.13 Q1497.59 1543.73 1497.59 1550.25 Q1497.59 1556.78 1500.74 1560.4 Q1503.89 1564 1509.59 1564 Q1512.13 1564 1514.62 1563.33 Q1517.13 1562.63 1519.61 1561.26 L1519.61 1566.68 Q1517.16 1567.82 1514.52 1568.39 Q1511.91 1568.97 1508.95 1568.97 Q1500.9 1568.97 1496.16 1563.91 Q1491.41 1558.85 1491.41 1550.25 Q1491.41 1541.53 1496.19 1536.53 Q1500.99 1531.54 1509.33 1531.54 Q1512.04 1531.54 1514.62 1532.11 Q1517.2 1532.65 1519.61 1533.76 Z" fill="#000000" fill-rule="evenodd" fill-opacity="1" /><path clip-path="url(#clip930)" d="M1560.29 1548.76 L1560.29 1551.62 L1533.36 1551.62 Q1533.75 1557.67 1536.99 1560.85 Q1540.27 1564 1546.1 1564 Q1549.47 1564 1552.62 1563.17 Q1555.8 1562.35 1558.92 1560.69 L1558.92 1566.23 Q1555.77 1567.57 1552.46 1568.27 Q1549.15 1568.97 1545.75 1568.97 Q1537.22 1568.97 1532.22 1564 Q1527.25 1559.04 1527.25 1550.57 Q1527.25 1541.82 1531.96 1536.69 Q1536.71 1531.54 1544.73 1531.54 Q1551.92 1531.54 1556.09 1536.18 Q1560.29 1540.8 1560.29 1548.76 M1554.43 1547.04 Q1554.37 1542.23 1551.73 1539.37 Q1549.12 1536.5 1544.79 1536.5 Q1539.89 1536.5 1536.93 1539.27 Q1534 1542.04 1533.56 1547.07 L1554.43 1547.04 Z" fill="#000000" fill-rule="evenodd" fill-opacity="1" /><path clip-path="url(#clip930)" d="M1610.17 1524.88 Q1603.16 1524.88 1599.03 1530.1 Q1594.92 1535.32 1594.92 1544.33 Q1594.92 1553.31 1599.03 1558.53 Q1603.16 1563.75 1610.17 1563.75 Q1617.17 1563.75 1621.24 1558.53 Q1625.35 1553.31 1625.35 1544.33 Q1625.35 1535.32 1621.24 1530.1 Q1617.17 1524.88 1610.17 1524.88 M1619.17 1567.18 L1627.64 1576.45 L1619.87 1576.45 L1612.84 1568.84 Q1611.79 1568.9 1611.22 1568.94 Q1610.68 1568.97 1610.17 1568.97 Q1600.14 1568.97 1594.12 1562.28 Q1588.14 1555.57 1588.14 1544.33 Q1588.14 1533.06 1594.12 1526.38 Q1600.14 1519.66 1610.17 1519.66 Q1620.16 1519.66 1626.14 1526.38 Q1632.13 1533.06 1632.13 1544.33 Q1632.13 1552.61 1628.79 1558.5 Q1625.48 1564.38 1619.17 1567.18 Z" fill="#000000" fill-rule="evenodd" fill-opacity="1" /><path clip-path="url(#clip930)" d="M1662.11 1518.52 L1675.61 1518.52 L1675.61 1523.07 L1667.97 1523.07 L1667.97 1572.09 L1675.61 1572.09 L1675.61 1576.64 L1662.11 1576.64 L1662.11 1518.52 Z" fill="#000000" fill-rule="evenodd" fill-opacity="1" /><path clip-path="url(#clip930)" d="M1688.34 1520.52 L1694.77 1520.52 L1694.77 1540.61 L1716.09 1520.52 L1724.37 1520.52 L1700.78 1542.68 L1726.05 1568.04 L1717.59 1568.04 L1694.77 1545.16 L1694.77 1568.04 L1688.34 1568.04 L1688.34 1520.52 Z" fill="#000000" fill-rule="evenodd" fill-opacity="1" /><path clip-path="url(#clip930)" d="M1744.51 1518.52 L1744.51 1576.64 L1731.02 1576.64 L1731.02 1572.09 L1738.63 1572.09 L1738.63 1523.07 L1731.02 1523.07 L1731.02 1518.52 L1744.51 1518.52 Z" fill="#000000" fill-rule="evenodd" fill-opacity="1" /><polyline clip-path="url(#clip932)" style="stroke:#000000; stroke-linecap:butt; stroke-linejoin:round; stroke-width:2; stroke-opacity:0.1; fill:none" points="
  234.125,1384.24 2352.76,1384.24 
  "/>
<polyline clip-path="url(#clip932)" style="stroke:#000000; stroke-linecap:butt; stroke-linejoin:round; stroke-width:2; stroke-opacity:0.1; fill:none" points="
  234.125,1002.46 2352.76,1002.46 
  "/>
<polyline clip-path="url(#clip932)" style="stroke:#000000; stroke-linecap:butt; stroke-linejoin:round; stroke-width:2; stroke-opacity:0.1; fill:none" points="
  234.125,620.678 2352.76,620.678 
  "/>
<polyline clip-path="url(#clip932)" style="stroke:#000000; stroke-linecap:butt; stroke-linejoin:round; stroke-width:2; stroke-opacity:0.1; fill:none" points="
  234.125,238.898 2352.76,238.898 
  "/>
<polyline clip-path="url(#clip930)" style="stroke:#000000; stroke-linecap:butt; stroke-linejoin:round; stroke-width:4; stroke-opacity:1; fill:none" points="
  234.125,1423.18 234.125,47.2441 
  "/>
<polyline clip-path="url(#clip930)" style="stroke:#000000; stroke-linecap:butt; stroke-linejoin:round; stroke-width:4; stroke-opacity:1; fill:none" points="
  234.125,1384.24 253.023,1384.24 
  "/>
<polyline clip-path="url(#clip930)" style="stroke:#000000; stroke-linecap:butt; stroke-linejoin:round; stroke-width:4; stroke-opacity:1; fill:none" points="
  234.125,1002.46 253.023,1002.46 
  "/>
<polyline clip-path="url(#clip930)" style="stroke:#000000; stroke-linecap:butt; stroke-linejoin:round; stroke-width:4; stroke-opacity:1; fill:none" points="
  234.125,620.678 253.023,620.678 
  "/>
<polyline clip-path="url(#clip930)" style="stroke:#000000; stroke-linecap:butt; stroke-linejoin:round; stroke-width:4; stroke-opacity:1; fill:none" points="
  234.125,238.898 253.023,238.898 
  "/>
<path clip-path="url(#clip930)" d="M116.668 1397.58 L124.306 1397.58 L124.306 1371.22 L115.996 1372.88 L115.996 1368.62 L124.26 1366.96 L128.936 1366.96 L128.936 1397.58 L136.575 1397.58 L136.575 1401.52 L116.668 1401.52 L116.668 1397.58 Z" fill="#000000" fill-rule="evenodd" fill-opacity="1" /><path clip-path="url(#clip930)" d="M156.019 1370.04 Q152.408 1370.04 150.579 1373.6 Q148.774 1377.14 148.774 1384.27 Q148.774 1391.38 150.579 1394.94 Q152.408 1398.49 156.019 1398.49 Q159.653 1398.49 161.459 1394.94 Q163.288 1391.38 163.288 1384.27 Q163.288 1377.14 161.459 1373.6 Q159.653 1370.04 156.019 1370.04 M156.019 1366.33 Q161.829 1366.33 164.885 1370.94 Q167.964 1375.52 167.964 1384.27 Q167.964 1393 164.885 1397.61 Q161.829 1402.19 156.019 1402.19 Q150.209 1402.19 147.13 1397.61 Q144.075 1393 144.075 1384.27 Q144.075 1375.52 147.13 1370.94 Q150.209 1366.33 156.019 1366.33 Z" fill="#000000" fill-rule="evenodd" fill-opacity="1" /><path clip-path="url(#clip930)" d="M186.181 1370.04 Q182.57 1370.04 180.741 1373.6 Q178.936 1377.14 178.936 1384.27 Q178.936 1391.38 180.741 1394.94 Q182.57 1398.49 186.181 1398.49 Q189.815 1398.49 191.621 1394.94 Q193.45 1391.38 193.45 1384.27 Q193.45 1377.14 191.621 1373.6 Q189.815 1370.04 186.181 1370.04 M186.181 1366.33 Q191.991 1366.33 195.047 1370.94 Q198.125 1375.52 198.125 1384.27 Q198.125 1393 195.047 1397.61 Q191.991 1402.19 186.181 1402.19 Q180.371 1402.19 177.292 1397.61 Q174.237 1393 174.237 1384.27 Q174.237 1375.52 177.292 1370.94 Q180.371 1366.33 186.181 1366.33 Z" fill="#000000" fill-rule="evenodd" fill-opacity="1" /><path clip-path="url(#clip930)" d="M116.668 1015.8 L124.306 1015.8 L124.306 989.437 L115.996 991.104 L115.996 986.845 L124.26 985.178 L128.936 985.178 L128.936 1015.8 L136.575 1015.8 L136.575 1019.74 L116.668 1019.74 L116.668 1015.8 Z" fill="#000000" fill-rule="evenodd" fill-opacity="1" /><path clip-path="url(#clip930)" d="M146.066 985.178 L164.422 985.178 L164.422 989.113 L150.348 989.113 L150.348 997.585 Q151.366 997.238 152.385 997.076 Q153.403 996.891 154.422 996.891 Q160.209 996.891 163.589 1000.06 Q166.968 1003.23 166.968 1008.65 Q166.968 1014.23 163.496 1017.33 Q160.024 1020.41 153.704 1020.41 Q151.528 1020.41 149.26 1020.04 Q147.015 1019.67 144.607 1018.93 L144.607 1014.23 Q146.691 1015.36 148.913 1015.92 Q151.135 1016.47 153.612 1016.47 Q157.616 1016.47 159.954 1014.37 Q162.292 1012.26 162.292 1008.65 Q162.292 1005.04 159.954 1002.93 Q157.616 1000.83 153.612 1000.83 Q151.737 1000.83 149.862 1001.24 Q148.01 1001.66 146.066 1002.54 L146.066 985.178 Z" fill="#000000" fill-rule="evenodd" fill-opacity="1" /><path clip-path="url(#clip930)" d="M186.181 988.257 Q182.57 988.257 180.741 991.822 Q178.936 995.363 178.936 1002.49 Q178.936 1009.6 180.741 1013.16 Q182.57 1016.71 186.181 1016.71 Q189.815 1016.71 191.621 1013.16 Q193.45 1009.6 193.45 1002.49 Q193.45 995.363 191.621 991.822 Q189.815 988.257 186.181 988.257 M186.181 984.553 Q191.991 984.553 195.047 989.16 Q198.125 993.743 198.125 1002.49 Q198.125 1011.22 195.047 1015.83 Q191.991 1020.41 186.181 1020.41 Q180.371 1020.41 177.292 1015.83 Q174.237 1011.22 174.237 1002.49 Q174.237 993.743 177.292 989.16 Q180.371 984.553 186.181 984.553 Z" fill="#000000" fill-rule="evenodd" fill-opacity="1" /><path clip-path="url(#clip930)" d="M119.885 634.023 L136.204 634.023 L136.204 637.958 L114.26 637.958 L114.26 634.023 Q116.922 631.268 121.505 626.639 Q126.112 621.986 127.292 620.643 Q129.538 618.12 130.417 616.384 Q131.32 614.625 131.32 612.935 Q131.32 610.18 129.376 608.444 Q127.455 606.708 124.353 606.708 Q122.154 606.708 119.7 607.472 Q117.269 608.236 114.492 609.787 L114.492 605.065 Q117.316 603.93 119.769 603.352 Q122.223 602.773 124.26 602.773 Q129.63 602.773 132.825 605.458 Q136.019 608.143 136.019 612.634 Q136.019 614.764 135.209 616.685 Q134.422 618.583 132.316 621.176 Q131.737 621.847 128.635 625.064 Q125.533 628.259 119.885 634.023 Z" fill="#000000" fill-rule="evenodd" fill-opacity="1" /><path clip-path="url(#clip930)" d="M156.019 606.477 Q152.408 606.477 150.579 610.041 Q148.774 613.583 148.774 620.713 Q148.774 627.819 150.579 631.384 Q152.408 634.926 156.019 634.926 Q159.653 634.926 161.459 631.384 Q163.288 627.819 163.288 620.713 Q163.288 613.583 161.459 610.041 Q159.653 606.477 156.019 606.477 M156.019 602.773 Q161.829 602.773 164.885 607.379 Q167.964 611.963 167.964 620.713 Q167.964 629.439 164.885 634.046 Q161.829 638.629 156.019 638.629 Q150.209 638.629 147.13 634.046 Q144.075 629.439 144.075 620.713 Q144.075 611.963 147.13 607.379 Q150.209 602.773 156.019 602.773 Z" fill="#000000" fill-rule="evenodd" fill-opacity="1" /><path clip-path="url(#clip930)" d="M186.181 606.477 Q182.57 606.477 180.741 610.041 Q178.936 613.583 178.936 620.713 Q178.936 627.819 180.741 631.384 Q182.57 634.926 186.181 634.926 Q189.815 634.926 191.621 631.384 Q193.45 627.819 193.45 620.713 Q193.45 613.583 191.621 610.041 Q189.815 606.477 186.181 606.477 M186.181 602.773 Q191.991 602.773 195.047 607.379 Q198.125 611.963 198.125 620.713 Q198.125 629.439 195.047 634.046 Q191.991 638.629 186.181 638.629 Q180.371 638.629 177.292 634.046 Q174.237 629.439 174.237 620.713 Q174.237 611.963 177.292 607.379 Q180.371 602.773 186.181 602.773 Z" fill="#000000" fill-rule="evenodd" fill-opacity="1" /><path clip-path="url(#clip930)" d="M119.885 252.243 L136.204 252.243 L136.204 256.178 L114.26 256.178 L114.26 252.243 Q116.922 249.488 121.505 244.858 Q126.112 240.206 127.292 238.863 Q129.538 236.34 130.417 234.604 Q131.32 232.845 131.32 231.155 Q131.32 228.4 129.376 226.664 Q127.455 224.928 124.353 224.928 Q122.154 224.928 119.7 225.692 Q117.269 226.456 114.492 228.007 L114.492 223.284 Q117.316 222.15 119.769 221.571 Q122.223 220.993 124.26 220.993 Q129.63 220.993 132.825 223.678 Q136.019 226.363 136.019 230.854 Q136.019 232.983 135.209 234.905 Q134.422 236.803 132.316 239.395 Q131.737 240.067 128.635 243.284 Q125.533 246.479 119.885 252.243 Z" fill="#000000" fill-rule="evenodd" fill-opacity="1" /><path clip-path="url(#clip930)" d="M146.066 221.618 L164.422 221.618 L164.422 225.553 L150.348 225.553 L150.348 234.025 Q151.366 233.678 152.385 233.516 Q153.403 233.331 154.422 233.331 Q160.209 233.331 163.589 236.502 Q166.968 239.673 166.968 245.09 Q166.968 250.669 163.496 253.77 Q160.024 256.849 153.704 256.849 Q151.528 256.849 149.26 256.479 Q147.015 256.108 144.607 255.368 L144.607 250.669 Q146.691 251.803 148.913 252.358 Q151.135 252.914 153.612 252.914 Q157.616 252.914 159.954 250.807 Q162.292 248.701 162.292 245.09 Q162.292 241.479 159.954 239.372 Q157.616 237.266 153.612 237.266 Q151.737 237.266 149.862 237.682 Q148.01 238.099 146.066 238.979 L146.066 221.618 Z" fill="#000000" fill-rule="evenodd" fill-opacity="1" /><path clip-path="url(#clip930)" d="M186.181 224.696 Q182.57 224.696 180.741 228.261 Q178.936 231.803 178.936 238.932 Q178.936 246.039 180.741 249.604 Q182.57 253.145 186.181 253.145 Q189.815 253.145 191.621 249.604 Q193.45 246.039 193.45 238.932 Q193.45 231.803 191.621 228.261 Q189.815 224.696 186.181 224.696 M186.181 220.993 Q191.991 220.993 195.047 225.599 Q198.125 230.183 198.125 238.932 Q198.125 247.659 195.047 252.266 Q191.991 256.849 186.181 256.849 Q180.371 256.849 177.292 252.266 Q174.237 247.659 174.237 238.932 Q174.237 230.183 177.292 225.599 Q180.371 220.993 186.181 220.993 Z" fill="#000000" fill-rule="evenodd" fill-opacity="1" /><path clip-path="url(#clip930)" d="M16.4842 948.209 L16.4842 941.779 L64.0042 941.779 L64.0042 948.209 L16.4842 948.209 Z" fill="#000000" fill-rule="evenodd" fill-opacity="1" /><path clip-path="url(#clip930)" d="M42.4881 899.606 L64.0042 899.606 L64.0042 905.463 L42.679 905.463 Q37.6183 905.463 35.1038 907.436 Q32.5894 909.41 32.5894 913.356 Q32.5894 918.099 35.6131 920.836 Q38.6368 923.573 43.8567 923.573 L64.0042 923.573 L64.0042 929.462 L28.3562 929.462 L28.3562 923.573 L33.8944 923.573 Q30.6797 921.473 29.0883 918.64 Q27.4968 915.775 27.4968 912.051 Q27.4968 905.908 31.3163 902.757 Q35.1038 899.606 42.4881 899.606 Z" fill="#000000" fill-rule="evenodd" fill-opacity="1" /><path clip-path="url(#clip930)" d="M18.2347 882.132 L28.3562 882.132 L28.3562 870.069 L32.9077 870.069 L32.9077 882.132 L52.2594 882.132 Q56.6199 882.132 57.8613 880.955 Q59.1026 879.745 59.1026 876.085 L59.1026 870.069 L64.0042 870.069 L64.0042 876.085 Q64.0042 882.865 61.4897 885.443 Q58.9434 888.021 52.2594 888.021 L32.9077 888.021 L32.9077 892.318 L28.3562 892.318 L28.3562 888.021 L18.2347 888.021 L18.2347 882.132 Z" fill="#000000" fill-rule="evenodd" fill-opacity="1" /><path clip-path="url(#clip930)" d="M44.7161 831.875 L47.5806 831.875 L47.5806 858.802 Q53.6281 858.42 56.8109 855.174 Q59.9619 851.895 59.9619 846.071 Q59.9619 842.697 59.1344 839.546 Q58.3069 836.363 56.6518 833.244 L62.1899 833.244 Q63.5267 836.395 64.227 839.705 Q64.9272 843.015 64.9272 846.421 Q64.9272 854.951 59.9619 859.948 Q54.9967 864.913 46.5303 864.913 Q37.7774 864.913 32.6531 860.203 Q27.4968 855.46 27.4968 847.439 Q27.4968 840.246 32.1438 836.077 Q36.7589 831.875 44.7161 831.875 M42.9973 837.732 Q38.1912 837.795 35.3266 840.437 Q32.4621 843.047 32.4621 847.376 Q32.4621 852.277 35.2312 855.237 Q38.0002 858.166 43.0292 858.611 L42.9973 837.732 Z" fill="#000000" fill-rule="evenodd" fill-opacity="1" /><path clip-path="url(#clip930)" d="M42.4881 792.631 L64.0042 792.631 L64.0042 798.487 L42.679 798.487 Q37.6183 798.487 35.1038 800.46 Q32.5894 802.434 32.5894 806.381 Q32.5894 811.123 35.6131 813.86 Q38.6368 816.598 43.8567 816.598 L64.0042 816.598 L64.0042 822.486 L28.3562 822.486 L28.3562 816.598 L33.8944 816.598 Q30.6797 814.497 29.0883 811.664 Q27.4968 808.8 27.4968 805.076 Q27.4968 798.933 31.3163 795.782 Q35.1038 792.631 42.4881 792.631 Z" fill="#000000" fill-rule="evenodd" fill-opacity="1" /><path clip-path="url(#clip930)" d="M29.4065 758.224 L34.9447 758.224 Q33.6716 760.707 33.035 763.38 Q32.3984 766.054 32.3984 768.918 Q32.3984 773.279 33.7352 775.475 Q35.072 777.639 37.7456 777.639 Q39.7826 777.639 40.9603 776.08 Q42.1061 774.52 43.1565 769.81 L43.6021 767.804 Q44.9389 761.566 47.3897 758.956 Q49.8086 756.314 54.1691 756.314 Q59.1344 756.314 62.0308 760.261 Q64.9272 764.176 64.9272 771.051 Q64.9272 773.915 64.3543 777.035 Q63.8132 780.122 62.6992 783.56 L56.6518 783.56 Q58.3387 780.313 59.198 777.162 Q60.0256 774.011 60.0256 770.924 Q60.0256 766.786 58.6251 764.558 Q57.1929 762.33 54.6147 762.33 Q52.2276 762.33 50.9545 763.953 Q49.6813 765.545 48.5037 770.987 L48.0262 773.024 Q46.8804 778.467 44.5251 780.886 Q42.138 783.305 38.0002 783.305 Q32.9713 783.305 30.2341 779.74 Q27.4968 776.175 27.4968 769.619 Q27.4968 766.372 27.9743 763.508 Q28.4517 760.643 29.4065 758.224 Z" fill="#000000" fill-rule="evenodd" fill-opacity="1" /><path clip-path="url(#clip930)" d="M28.3562 746.989 L28.3562 741.132 L64.0042 741.132 L64.0042 746.989 L28.3562 746.989 M14.479 746.989 L14.479 741.132 L21.895 741.132 L21.895 746.989 L14.479 746.989 Z" fill="#000000" fill-rule="evenodd" fill-opacity="1" /><path clip-path="url(#clip930)" d="M18.2347 723.085 L28.3562 723.085 L28.3562 711.022 L32.9077 711.022 L32.9077 723.085 L52.2594 723.085 Q56.6199 723.085 57.8613 721.908 Q59.1026 720.698 59.1026 717.038 L59.1026 711.022 L64.0042 711.022 L64.0042 717.038 Q64.0042 723.817 61.4897 726.395 Q58.9434 728.974 52.2594 728.974 L32.9077 728.974 L32.9077 733.27 L28.3562 733.27 L28.3562 728.974 L18.2347 728.974 L18.2347 723.085 Z" fill="#000000" fill-rule="evenodd" fill-opacity="1" /><path clip-path="url(#clip930)" d="M67.3143 688.488 Q73.68 690.97 75.6216 693.326 Q77.5631 695.681 77.5631 699.628 L77.5631 704.306 L72.6615 704.306 L72.6615 700.869 Q72.6615 698.45 71.5157 697.113 Q70.3699 695.776 66.1048 694.153 L63.4312 693.103 L28.3562 707.521 L28.3562 701.315 L56.238 690.175 L28.3562 679.035 L28.3562 672.828 L67.3143 688.488 Z" fill="#000000" fill-rule="evenodd" fill-opacity="1" /><path clip-path="url(#clip930)" d="M16.4842 643.769 L16.4842 637.339 L64.0042 637.339 L64.0042 643.769 L16.4842 643.769 Z" fill="#000000" fill-rule="evenodd" fill-opacity="1" /><path clip-path="url(#clip930)" d="M14.479 604.619 L14.479 591.124 L19.0304 591.124 L19.0304 598.763 L68.0464 598.763 L68.0464 591.124 L72.5979 591.124 L72.5979 604.619 L14.479 604.619 Z" fill="#000000" fill-rule="evenodd" fill-opacity="1" /><path clip-path="url(#clip930)" d="M16.4842 578.393 L16.4842 571.963 L36.568 571.963 L16.4842 550.638 L16.4842 542.363 L38.6368 565.948 L64.0042 540.676 L64.0042 549.142 L41.1194 571.963 L64.0042 571.963 L64.0042 578.393 L16.4842 578.393 Z" fill="#000000" fill-rule="evenodd" fill-opacity="1" /><path clip-path="url(#clip930)" d="M14.479 522.215 L72.5979 522.215 L72.5979 535.711 L68.0464 535.711 L68.0464 528.104 L19.0304 528.104 L19.0304 535.711 L14.479 535.711 L14.479 522.215 Z" fill="#000000" fill-rule="evenodd" fill-opacity="1" /><path clip-path="url(#clip930)" d="M1140.48 1032.01 L1158.83 1031.51 L1158.94 1035.44 L1144.87 1035.83 L1145.1 1044.3 Q1146.11 1043.92 1147.13 1043.73 Q1148.14 1043.52 1149.16 1043.49 Q1154.94 1043.33 1158.41 1046.41 Q1161.87 1049.49 1162.02 1054.9 Q1162.18 1060.48 1158.79 1063.67 Q1155.4 1066.85 1149.09 1067.02 Q1146.91 1067.08 1144.63 1066.77 Q1142.38 1066.46 1139.95 1065.79 L1139.82 1061.09 Q1141.94 1062.17 1144.17 1062.66 Q1146.41 1063.16 1148.89 1063.09 Q1152.89 1062.98 1155.17 1060.81 Q1157.45 1058.64 1157.35 1055.03 Q1157.25 1051.42 1154.85 1049.38 Q1152.46 1047.34 1148.46 1047.45 Q1146.58 1047.5 1144.72 1047.97 Q1142.88 1048.44 1140.96 1049.37 L1140.48 1032.01 Z" fill="#000000" fill-rule="evenodd" fill-opacity="1" /><polyline clip-path="url(#clip932)" style="stroke:#02010e; stroke-linecap:butt; stroke-linejoin:round; stroke-width:4; stroke-opacity:1; fill:none" points="
  294.087,1072.45 322.64,1071.66 340.282,1071.18 351.193,1070.88 379.746,1070.11 408.299,1069.33 436.852,1068.55 465.405,1067.77 493.957,1066.99 522.51,1066.21 
  551.063,1065.42 579.616,1064.64 608.169,1063.85 619.483,1063.54 636.722,1063.07 665.275,1062.3 693.828,1061.52 722.381,1060.74 750.934,1059.96 779.487,1059.18 
  808.04,1058.4 836.593,1057.61 865.146,1056.83 893.699,1056.04 898.673,1055.91 922.252,1055.27 950.805,1054.49 979.358,1053.71 1007.91,1052.93 1036.46,1052.15 
  1065.02,1051.37 1093.57,1050.59 1122.12,1049.8 1122.46,1049.8 
  "/>
<polyline clip-path="url(#clip932)" style="stroke:#02010e; stroke-linecap:butt; stroke-linejoin:round; stroke-width:4; stroke-opacity:1; fill:none" points="
  1178.89,1048.24 1179.23,1048.23 1207.78,1047.46 1236.33,1046.68 1264.89,1045.9 1293.44,1045.12 1321.99,1044.34 1350.55,1043.56 1379.1,1042.78 1407.65,1041.99 
  1436.21,1041.21 1457.08,1040.64 1464.76,1040.43 1493.31,1039.65 1521.86,1038.87 1550.42,1038.09 1578.97,1037.31 1607.52,1036.53 1636.08,1035.75 1664.63,1034.97 
  1693.18,1034.18 1721.74,1033.4 1736.29,1033 1750.29,1032.62 1778.84,1031.84 1807.39,1031.06 1835.95,1030.28 1864.5,1029.5 1893.05,1028.72 1921.61,1027.94 
  1950.16,1027.16 1978.71,1026.37 2007.26,1025.59 2015.49,1025.36 2035.82,1024.81 2064.37,1024.03 2092.92,1023.25 2121.48,1022.47 2150.03,1021.69 2178.58,1020.91 
  2207.14,1020.13 2235.69,1019.35 2264.24,1018.57 2292.79,1017.78 
  "/>
<path clip-path="url(#clip930)" d="M2039.85 827.098 L2047.48 826.667 L2045.99 800.344 L2037.79 802.476 L2037.55 798.224 L2045.7 796.094 L2050.37 795.83 L2052.1 826.406 L2059.73 825.976 L2059.95 829.904 L2040.07 831.027 L2039.85 827.098 Z" fill="#000000" fill-rule="evenodd" fill-opacity="1" /><path clip-path="url(#clip930)" d="M2077.59 797.377 Q2073.98 797.58 2072.36 801.243 Q2070.75 804.881 2071.16 811.999 Q2071.56 819.094 2073.56 822.551 Q2075.59 825.984 2079.19 825.78 Q2082.82 825.576 2084.42 821.938 Q2086.05 818.275 2085.65 811.18 Q2085.24 804.062 2083.22 800.629 Q2081.22 797.172 2077.59 797.377 M2077.38 793.679 Q2083.18 793.351 2086.49 797.778 Q2089.82 802.181 2090.32 810.917 Q2090.81 819.63 2087.99 824.402 Q2085.2 829.151 2079.4 829.478 Q2073.6 829.806 2070.27 825.403 Q2066.96 820.977 2066.46 812.264 Q2065.97 803.528 2068.76 798.779 Q2071.58 794.007 2077.38 793.679 Z" fill="#000000" fill-rule="evenodd" fill-opacity="1" /><polyline clip-path="url(#clip932)" style="stroke:#06041b; stroke-linecap:butt; stroke-linejoin:round; stroke-width:4; stroke-opacity:1; fill:none" points="
  2292.79,799.466 2264.24,801.076 2235.69,802.683 2213.48,803.932 2207.14,804.291 2178.58,805.908 2150.03,807.521 2121.48,809.131 2101.01,810.282 
  "/>
<polyline clip-path="url(#clip932)" style="stroke:#06041b; stroke-linecap:butt; stroke-linejoin:round; stroke-width:4; stroke-opacity:1; fill:none" points="
  2027.73,814.421 2007.26,815.576 1978.71,817.185 1950.16,818.789 1942.8,819.204 1921.61,820.404 1893.05,822.02 1864.5,823.632 1835.95,825.239 1807.43,826.839 
  1807.39,826.841 1778.84,828.461 1750.29,830.076 1721.74,831.686 1693.18,833.292 1672.13,834.475 1664.63,834.898 1636.08,836.517 1607.52,838.132 1578.97,839.741 
  1550.42,841.344 1536.8,842.11 1521.86,842.956 1493.31,844.574 1464.76,846.187 1436.21,847.795 1407.65,849.396 1401.44,849.746 1379.1,851.013 1350.55,852.631 
  1321.99,854.243 1293.44,855.848 1266.07,857.382 1264.89,857.449 1236.33,859.071 1207.78,860.687 1179.23,862.297 1150.68,863.901 1130.77,865.017 1122.12,865.507 
  1093.57,867.129 1065.02,868.744 1036.46,870.352 1007.91,871.953 995.444,872.653 979.358,873.565 950.805,875.186 922.252,876.8 893.699,878.406 865.146,880.004 
  860.08,880.288 836.593,881.624 808.04,883.244 779.487,884.855 750.934,886.459 724.722,887.924 722.381,888.057 693.828,889.683 665.275,891.301 636.722,892.91 
  608.169,894.511 589.424,895.56 579.616,896.116 551.063,897.742 522.51,899.358 493.957,900.965 465.405,902.562 454.091,903.195 436.852,904.176 408.299,905.801 
  379.746,907.415 351.193,909.019 322.64,910.611 318.717,910.831 294.087,912.237 
  "/>
<path clip-path="url(#clip930)" d="M1441.29 723.708 L1448.9 722.997 L1446.45 696.746 L1438.33 699.178 L1437.93 694.938 L1446 692.51 L1450.66 692.075 L1453.51 722.567 L1461.11 721.856 L1461.48 725.774 L1441.66 727.626 L1441.29 723.708 Z" fill="#000000" fill-rule="evenodd" fill-opacity="1" /><path clip-path="url(#clip930)" d="M1467.71 690.481 L1485.99 688.774 L1486.36 692.692 L1472.34 694.001 L1473.13 702.437 Q1474.11 701.996 1475.11 701.74 Q1476.11 701.461 1477.12 701.366 Q1482.89 700.828 1486.55 703.671 Q1490.21 706.514 1490.71 711.908 Q1491.23 717.462 1488.06 720.873 Q1484.89 724.262 1478.6 724.849 Q1476.43 725.052 1474.14 724.894 Q1471.87 724.734 1469.4 724.221 L1468.96 719.542 Q1471.14 720.477 1473.41 720.824 Q1475.67 721.17 1478.14 720.94 Q1482.13 720.567 1484.26 718.253 Q1486.39 715.938 1486.05 712.342 Q1485.72 708.747 1483.19 706.867 Q1480.67 704.987 1476.68 705.36 Q1474.82 705.534 1472.99 706.123 Q1471.18 706.71 1469.33 707.767 L1467.71 690.481 Z" fill="#000000" fill-rule="evenodd" fill-opacity="1" /><polyline clip-path="url(#clip932)" style="stroke:#0e082a; stroke-linecap:butt; stroke-linejoin:round; stroke-width:4; stroke-opacity:1; fill:none" points="
  294.087,817.454 322.64,814.801 351.193,812.091 356.755,811.568 379.746,809.455 408.299,806.794 436.852,804.082 438.448,803.932 465.405,801.456 493.957,798.787 
  520.234,796.297 522.51,796.085 551.063,793.455 579.616,790.781 602.064,788.661 608.169,788.093 636.722,785.454 665.275,782.776 683.865,781.026 693.828,780.099 
  722.381,777.453 750.934,774.771 765.641,773.39 779.487,772.103 808.04,769.451 836.593,766.766 847.398,765.754 865.146,764.107 893.699,761.449 922.252,758.762 
  929.139,758.119 950.805,756.109 979.358,753.447 1007.91,750.759 1010.86,750.483 1036.46,748.111 1065.02,745.445 1092.61,742.848 1093.57,742.758 1122.12,740.112 
  1150.68,737.443 1174.43,735.212 1179.23,734.763 1207.78,732.112 1236.33,729.441 1256.23,727.576 1264.89,726.767 1293.44,724.113 1321.99,721.439 1338.01,719.941 
  1350.55,718.771 1379.1,716.113 1407.65,713.438 1419.78,712.305 1428.56,711.486 
  "/>
<polyline clip-path="url(#clip932)" style="stroke:#0e082a; stroke-linecap:butt; stroke-linejoin:round; stroke-width:4; stroke-opacity:1; fill:none" points="
  1500.95,704.724 1501.53,704.67 1521.86,702.776 1550.42,700.113 1578.97,697.435 1583.28,697.034 1607.52,694.778 1636.08,692.112 1664.63,689.434 1665.01,689.398 
  1693.18,686.779 1721.74,684.112 1746.81,681.763 1750.29,681.437 1778.84,678.78 1807.39,676.112 1828.61,674.127 1835.95,673.44 1864.5,670.781 1893.05,668.111 
  1910.39,666.492 1921.61,665.443 1950.16,662.782 1978.71,660.111 1992.17,658.856 2007.26,657.445 2035.82,654.783 2064.37,652.111 2073.93,651.22 2092.92,649.448 
  2121.48,646.784 2150.03,644.111 2155.68,643.585 2178.58,641.449 2207.14,638.784 2235.69,636.111 2237.43,635.949 2264.24,633.451 2292.79,630.785 
  "/>
<path clip-path="url(#clip930)" d="M2216.5 511.546 L2232.66 509.301 L2233.21 513.199 L2211.47 516.218 L2210.93 512.32 Q2213.19 509.226 2217.09 504.009 Q2221.01 498.767 2222 497.275 Q2223.87 494.467 2224.51 492.626 Q2225.16 490.76 2224.92 489.086 Q2224.55 486.357 2222.38 484.905 Q2220.24 483.45 2217.17 483.877 Q2214.99 484.179 2212.66 485.273 Q2210.36 486.365 2207.82 488.283 L2207.17 483.606 Q2209.81 482.094 2212.17 481.183 Q2214.52 480.272 2216.53 479.992 Q2221.85 479.253 2225.39 481.473 Q2228.92 483.693 2229.54 488.141 Q2229.83 490.251 2229.29 492.265 Q2228.77 494.253 2227.04 497.111 Q2226.56 497.856 2223.93 501.469 Q2221.3 505.06 2216.5 511.546 Z" fill="#000000" fill-rule="evenodd" fill-opacity="1" /><path clip-path="url(#clip930)" d="M2248.5 479.291 Q2244.92 479.788 2243.6 483.57 Q2242.3 487.327 2243.28 494.388 Q2244.26 501.427 2246.54 504.71 Q2248.84 507.966 2252.41 507.469 Q2256.01 506.969 2257.32 503.213 Q2258.64 499.43 2257.66 492.392 Q2256.68 485.33 2254.38 482.073 Q2252.1 478.791 2248.5 479.291 M2247.99 475.622 Q2253.75 474.823 2257.41 478.965 Q2261.09 483.081 2262.29 491.748 Q2263.49 500.392 2261.07 505.378 Q2258.68 510.338 2252.92 511.138 Q2247.17 511.937 2243.49 507.821 Q2239.83 503.679 2238.63 495.035 Q2237.42 486.368 2239.82 481.408 Q2242.24 476.422 2247.99 475.622 Z" fill="#000000" fill-rule="evenodd" fill-opacity="1" /><polyline clip-path="url(#clip932)" style="stroke:#160b39; stroke-linecap:butt; stroke-linejoin:round; stroke-width:4; stroke-opacity:1; fill:none" points="
  2292.79,487.474 2272.65,490.274 
  "/>
<polyline clip-path="url(#clip932)" style="stroke:#160b39; stroke-linecap:butt; stroke-linejoin:round; stroke-width:4; stroke-opacity:1; fill:none" points="
  2198.72,500.543 2178.58,503.343 2158.47,506.144 2150.03,507.308 2121.48,511.277 2103.52,513.779 2092.92,515.243 2064.37,519.211 2048.57,521.415 2035.82,523.178 
  2007.26,527.145 1993.62,529.051 1978.71,531.113 1950.16,535.08 1938.66,536.686 1921.61,539.048 1893.05,543.014 1883.7,544.322 1864.5,546.983 1835.95,550.947 
  1828.73,551.957 1807.39,554.918 1778.84,558.881 1773.76,559.593 1750.29,562.853 1721.74,566.815 1718.78,567.229 1693.18,570.789 1664.63,574.748 1663.8,574.864 
  1636.08,578.724 1608.85,582.5 1607.52,582.682 1578.97,586.659 1553.93,590.136 1550.42,590.618 1521.86,594.594 1499,597.771 1493.31,598.554 1464.76,602.529 
  1444.06,605.407 1436.21,606.49 1407.65,610.463 1389.13,613.042 1379.1,614.427 1350.55,618.398 1334.19,620.678 1321.99,622.363 1293.44,626.332 1279.24,628.314 
  1264.89,630.3 1236.33,634.266 1224.29,635.949 1207.78,638.237 1179.23,642.2 1169.33,643.585 1150.68,646.174 1122.12,650.133 1114.36,651.22 1093.57,654.111 
  1065.02,658.066 1059.38,658.856 1036.46,662.049 1007.91,665.998 1004.39,666.492 979.358,669.986 950.805,673.928 949.392,674.127 922.252,677.924 894.416,681.763 
  893.699,681.861 865.146,685.861 839.521,689.398 836.593,689.801 808.04,693.799 784.624,697.034 779.487,697.742 750.934,701.737 729.722,704.67 722.381,705.683 
  693.828,709.674 674.817,712.305 665.275,713.626 636.722,717.612 619.905,719.941 608.169,721.57 579.616,725.549 564.986,727.576 551.063,729.516 522.51,733.485 
  510.057,735.212 493.957,737.463 465.405,741.419 455.115,742.848 436.852,745.413 408.299,749.352 400.155,750.483 379.746,753.365 351.193,757.283 345.172,758.119 
  322.64,761.321 294.087,765.209 
  "/>
<path clip-path="url(#clip930)" d="M2110.33 263.222 Q2113.76 263.09 2116.14 264.827 Q2118.53 266.558 2119.36 269.788 Q2120.62 274.746 2117.9 278.328 Q2115.18 281.909 2108.9 283.507 Q2106.79 284.043 2104.44 284.187 Q2102.11 284.348 2099.52 284.123 L2098.41 279.748 Q2100.57 280.368 2102.96 280.358 Q2105.35 280.349 2107.79 279.727 Q2112.05 278.643 2113.85 276.396 Q2115.66 274.143 2114.85 270.935 Q2114.09 267.973 2111.59 266.844 Q2109.09 265.686 2105.39 266.627 L2101.49 267.62 L2100.54 263.896 L2104.62 262.858 Q2107.97 262.008 2109.4 260.233 Q2110.83 258.437 2110.19 255.924 Q2109.54 253.344 2107.35 252.443 Q2105.18 251.515 2101.77 252.382 Q2099.91 252.855 2097.88 253.801 Q2095.85 254.747 2093.51 256.25 L2092.48 252.211 Q2094.88 250.837 2097.03 249.908 Q2099.21 248.973 2101.2 248.465 Q2106.36 247.153 2109.97 248.744 Q2113.57 250.313 2114.58 254.306 Q2115.29 257.088 2114.19 259.422 Q2113.08 261.734 2110.33 263.222 Z" fill="#000000" fill-rule="evenodd" fill-opacity="1" /><path clip-path="url(#clip930)" d="M2132.36 244.365 Q2128.86 245.255 2127.96 249.16 Q2127.09 253.038 2128.84 259.947 Q2130.6 266.835 2133.22 269.844 Q2135.87 272.826 2139.37 271.936 Q2142.89 271.041 2143.77 267.163 Q2144.66 263.258 2142.91 256.37 Q2141.15 249.461 2138.51 246.479 Q2135.88 243.469 2132.36 244.365 M2131.44 240.775 Q2137.08 239.343 2141.17 243.055 Q2145.29 246.738 2147.44 255.218 Q2149.59 263.676 2147.74 268.899 Q2145.91 274.094 2140.28 275.526 Q2134.65 276.958 2130.54 273.274 Q2126.44 269.563 2124.29 261.105 Q2122.13 252.625 2123.97 247.43 Q2125.81 242.207 2131.44 240.775 Z" fill="#000000" fill-rule="evenodd" fill-opacity="1" /><polyline clip-path="url(#clip932)" style="stroke:#2b0a56; stroke-linecap:butt; stroke-linejoin:round; stroke-width:4; stroke-opacity:1; fill:none" points="
  294.087,726.86 321.082,719.941 322.64,719.362 350.229,712.305 351.193,711.992 379.746,704.673 379.761,704.67 408.299,697.448 410.07,697.034 436.852,690.204 
  440.267,689.398 465.405,682.95 470.393,681.763 493.957,675.69 500.472,674.127 522.51,668.427 530.521,666.492 551.063,661.162 560.548,658.856 579.616,653.896 
  590.56,651.22 608.169,646.63 620.562,643.585 636.722,639.365 650.555,635.949 665.275,632.099 680.543,628.314 693.828,624.834 710.526,620.678 722.381,617.569 
  740.506,613.042 750.934,610.305 770.483,605.407 779.487,603.041 800.458,597.771 808.04,595.777 830.432,590.136 836.593,588.514 860.404,582.5 865.146,581.251 
  890.375,574.864 893.699,573.988 920.346,567.229 922.252,566.726 950.316,559.593 950.805,559.464 979.358,552.204 980.36,551.957 1007.91,544.944 1010.43,544.322 
  1036.46,537.685 1040.5,536.686 1065.02,530.424 1070.56,529.051 1093.57,523.164 1100.61,521.415 1122.12,515.904 1130.65,513.779 1150.68,508.643 1160.69,506.144 
  1179.23,501.382 1190.72,498.508 1207.78,494.121 1220.75,490.873 1236.33,486.861 1250.77,483.237 1264.89,479.6 1280.79,475.601 1293.44,472.339 1310.81,467.966 
  1321.99,465.078 1340.82,460.33 1350.55,457.818 1370.83,452.695 1379.1,450.557 1400.84,445.059 1407.65,443.296 1430.85,437.423 1436.21,436.036 1460.85,429.788 
  1464.76,428.775 1490.85,422.152 1493.31,421.515 1520.85,414.517 1521.86,414.254 1550.42,406.994 1550.87,406.881 1578.97,399.733 1580.93,399.245 1607.52,392.473 
  1610.98,391.61 1636.08,385.212 1641.02,383.974 1664.63,377.951 1671.07,376.339 1693.18,370.691 1701.11,368.703 1721.74,363.43 1731.14,361.067 1750.29,356.17 
  1761.18,353.432 1778.84,348.909 1791.21,345.796 1807.39,341.648 1821.23,338.161 1835.95,334.388 1851.26,330.525 1864.5,327.127 1881.28,322.889 1893.05,319.867 
  1911.3,315.254 1921.61,312.606 1941.32,307.618 1950.16,305.346 1971.34,299.983 1978.71,298.086 2001.36,292.347 2007.26,290.825 2031.37,284.711 2035.82,283.565 
  2061.38,277.076 2064.37,276.305 2085.36,270.973 
  "/>
<polyline clip-path="url(#clip932)" style="stroke:#2b0a56; stroke-linecap:butt; stroke-linejoin:round; stroke-width:4; stroke-opacity:1; fill:none" points="
  2157.6,252.603 2178.58,247.263 2181.49,246.533 2207.14,240.002 2211.53,238.898 2235.69,232.742 2241.57,231.262 2264.24,225.481 2271.61,223.627 2292.79,218.22 
  
  "/>
<path clip-path="url(#clip930)" d="M1813.11 108.754 L1808.86 130.24 L1819.85 125.929 L1813.11 108.754 M1810.48 105.409 L1815.96 103.262 L1824.18 124.23 L1828.77 122.429 L1830.19 126.049 L1825.6 127.85 L1828.58 135.435 L1824.25 137.134 L1821.27 129.549 L1806.75 135.247 L1805.1 131.044 L1810.48 105.409 Z" fill="#000000" fill-rule="evenodd" fill-opacity="1" /><path clip-path="url(#clip930)" d="M1838.18 97.8523 Q1834.82 99.171 1834.42 103.157 Q1834.03 107.114 1836.63 113.751 Q1839.23 120.367 1842.21 123.026 Q1845.21 125.655 1848.57 124.336 Q1851.95 123.009 1852.34 119.053 Q1852.74 115.066 1850.14 108.451 Q1847.54 101.814 1844.54 99.1843 Q1841.56 96.5251 1838.18 97.8523 M1836.83 94.4044 Q1842.23 92.2826 1846.76 95.4551 Q1851.3 98.5975 1854.5 106.743 Q1857.68 114.867 1856.5 120.28 Q1855.33 125.662 1849.92 127.784 Q1844.51 129.906 1839.97 126.764 Q1835.44 123.591 1832.26 115.467 Q1829.06 107.321 1830.23 101.939 Q1831.42 96.5262 1836.83 94.4044 Z" fill="#000000" fill-rule="evenodd" fill-opacity="1" /><polyline clip-path="url(#clip932)" style="stroke:#410967; stroke-linecap:butt; stroke-linejoin:round; stroke-width:4; stroke-opacity:1; fill:none" points="
  1906.94,86.1857 1893.05,91.5768 1887.4,93.8213 1867.89,101.457 1864.5,102.763 1864.07,102.93 
  "/>
<polyline clip-path="url(#clip932)" style="stroke:#410967; stroke-linecap:butt; stroke-linejoin:round; stroke-width:4; stroke-opacity:1; fill:none" points="
  1793.81,130.495 1790,131.999 1778.84,136.32 1770.49,139.635 1750.9,147.271 1750.29,147.506 1731.52,154.906 1721.74,158.691 1712.03,162.542 1693.18,169.877 
  1692.43,170.177 1673.04,177.813 1664.63,181.063 1653.57,185.449 1636.08,192.249 1633.98,193.084 1614.56,200.72 1607.52,203.434 1595.11,208.355 1578.97,214.62 
  1575.54,215.991 1556.08,223.627 1550.42,225.806 1536.65,231.262 1521.86,236.992 1517.09,238.898 1497.59,246.533 1493.31,248.177 1478.18,254.169 1464.76,259.363 
  1458.64,261.805 1439.1,269.44 1436.21,270.549 1419.72,277.076 1407.65,281.735 1400.19,284.711 1380.6,292.347 1379.1,292.92 1361.24,299.983 1350.55,304.106 
  1341.74,307.618 1322.09,315.254 1321.99,315.292 1302.77,322.889 1293.44,326.478 1283.29,330.525 1264.89,337.663 1263.65,338.161 1244.29,345.796 1236.33,348.849 
  1224.84,353.432 1207.78,360.035 1205.22,361.067 1185.81,368.703 1179.23,371.221 1166.39,376.339 1150.68,382.406 1146.79,383.974 1127.32,391.61 1122.12,393.592 
  1107.93,399.245 1093.57,404.778 1088.35,406.881 1068.82,414.517 1065.02,415.964 1049.48,422.152 1036.46,427.15 1029.92,429.788 1010.32,437.423 1007.91,438.335 
  991.016,445.059 979.358,449.521 971.491,452.695 951.804,460.33 950.805,460.707 932.553,467.966 922.252,471.893 913.064,475.601 893.699,483.078 893.312,483.237 
  874.085,490.873 865.146,494.265 854.639,498.508 836.593,505.45 834.905,506.144 815.612,513.779 808.04,516.636 796.217,521.415 779.487,527.822 776.506,529.051 
  757.131,536.686 750.934,539.008 737.801,544.322 722.381,550.194 718.118,551.957 698.639,559.593 693.828,561.38 679.391,567.229 665.275,572.566 659.746,574.864 
  640.131,582.5 636.722,583.752 620.993,590.136 608.169,594.939 601.399,597.771 581.598,605.407 579.616,606.123 562.612,613.042 551.063,617.313 543.092,620.678 
  523.02,628.314 522.51,628.494 504.262,635.949 493.957,639.688 484.859,643.585 465.405,650.866 464.625,651.22 445.979,658.856 436.852,662.069 426.785,666.492 
  408.299,673.244 406.457,674.127 387.87,681.763 379.746,684.467 369.145,689.398 351.193,695.634 348.623,697.034 330.491,704.67 322.64,706.992 313.359,712.305 
  294.087,718.121 
  "/>
<path clip-path="url(#clip930)" d="M863.249 391.369 L879.462 382.76 L881.307 386.236 L868.877 392.836 L872.85 400.319 Q873.587 399.535 874.41 398.914 Q875.223 398.273 876.123 397.795 Q881.234 395.081 885.706 396.297 Q890.178 397.513 892.718 402.297 Q895.335 407.224 893.722 411.592 Q892.1 415.94 886.518 418.903 Q884.596 419.924 882.419 420.661 Q880.262 421.386 877.789 421.861 L875.585 417.711 Q877.957 417.736 880.18 417.184 Q882.403 416.633 884.591 415.471 Q888.128 413.593 889.205 410.636 Q890.282 407.679 888.589 404.49 Q886.895 401.301 883.842 400.537 Q880.79 399.773 877.253 401.651 Q875.597 402.53 874.136 403.777 Q872.696 405.014 871.391 406.702 L863.249 391.369 Z" fill="#000000" fill-rule="evenodd" fill-opacity="1" /><path clip-path="url(#clip930)" d="M900.124 375.275 Q896.935 376.969 896.991 380.975 Q897.057 384.95 900.401 391.247 Q903.733 397.523 907 399.825 Q910.276 402.096 913.465 400.402 Q916.675 398.698 916.609 394.723 Q916.552 390.717 913.22 384.44 Q909.876 378.143 906.6 375.873 Q903.334 373.571 900.124 375.275 M898.387 372.004 Q903.519 369.279 908.378 371.915 Q913.246 374.519 917.35 382.248 Q921.442 389.955 920.883 395.468 Q920.334 400.949 915.202 403.673 Q910.071 406.398 905.202 403.794 Q900.343 401.158 896.251 393.45 Q892.147 385.722 892.697 380.241 Q893.255 374.729 898.387 372.004 Z" fill="#000000" fill-rule="evenodd" fill-opacity="1" /><polyline clip-path="url(#clip932)" style="stroke:#550f6d; stroke-linecap:butt; stroke-linejoin:round; stroke-width:4; stroke-opacity:1; fill:none" points="
  294.087,712.994 296.369,712.305 312.122,704.67 322.64,697.862 324.84,697.034 340.807,689.398 351.193,682.724 353.513,681.763 369.25,674.127 379.746,667.575 
  382.231,666.492 397.736,658.856 408.299,652.422 410.966,651.22 426.285,643.585 436.852,637.268 439.711,635.949 454.882,628.314 465.405,622.113 468.461,620.678 
  483.515,613.042 493.957,606.957 497.215,605.407 512.173,597.771 522.51,591.801 525.971,590.136 540.852,582.5 551.063,576.645 554.73,574.864 569.544,567.229 
  579.616,561.488 583.49,559.593 598.248,551.957 608.169,546.332 612.251,544.322 626.961,536.686 636.722,531.175 641.013,529.051 655.682,521.415 665.275,516.019 
  669.775,513.779 684.408,506.144 693.828,500.862 698.538,498.508 713.139,490.873 722.381,485.706 727.302,483.237 741.874,475.601 750.934,470.549 756.066,467.966 
  770.612,460.33 779.487,455.392 784.83,452.695 799.353,445.059 808.04,440.236 813.595,437.423 828.097,429.788 836.593,425.079 842.359,422.152 856.843,414.517 
  860.834,412.309 
  "/>
<polyline clip-path="url(#clip932)" style="stroke:#550f6d; stroke-linecap:butt; stroke-linejoin:round; stroke-width:4; stroke-opacity:1; fill:none" points="
  926.641,377.367 928.655,376.339 943.091,368.703 950.805,364.452 957.42,361.067 971.843,353.432 979.358,349.296 986.186,345.796 1000.6,338.161 1007.91,334.139 
  1014.95,330.525 1029.35,322.889 1036.46,318.982 1043.72,315.254 1058.11,307.618 1065.02,303.826 1072.48,299.983 1086.86,292.347 1093.57,288.669 1101.25,284.711 
  1115.62,277.076 1122.12,273.513 1130.02,269.44 1144.38,261.805 1150.68,258.356 1158.78,254.169 1173.13,246.533 1179.23,243.199 1187.55,238.898 1201.89,231.262 
  1207.78,228.043 1216.31,223.627 1230.65,215.991 1236.33,212.886 1245.08,208.355 1259.41,200.72 1264.89,197.729 1273.85,193.084 1288.17,185.449 1293.44,182.573 
  1302.61,177.813 1316.93,170.177 1321.99,167.416 1331.38,162.542 1345.69,154.906 1350.55,152.259 1360.15,147.271 1374.45,139.635 1379.1,137.103 1388.91,131.999 
  1403.21,124.364 1407.65,121.946 1417.68,116.728 1431.97,109.092 1436.21,106.789 1446.45,101.457 1460.74,93.8213 1464.76,91.6326 1475.21,86.1857 
  "/>
<path clip-path="url(#clip930)" d="M1080.3 196.394 Q1077.66 198.103 1077.27 200.917 Q1076.9 203.717 1078.94 206.867 Q1080.96 209.996 1083.68 210.831 Q1086.4 211.634 1089.05 209.925 Q1091.69 208.215 1092.06 205.415 Q1092.43 202.582 1090.41 199.452 Q1088.37 196.303 1085.65 195.5 Q1082.95 194.685 1080.3 196.394 M1080.14 179.05 L1082.45 182.627 Q1080.52 182.882 1078.77 183.493 Q1077.03 184.091 1075.56 185.046 Q1071.67 187.559 1071.3 191.516 Q1070.96 195.46 1074.1 200.955 Q1074.15 198.523 1075.3 196.51 Q1076.44 194.478 1078.52 193.133 Q1082.9 190.306 1087.15 191.335 Q1091.4 192.333 1094.36 196.901 Q1097.25 201.372 1096.35 205.784 Q1095.45 210.195 1091.06 213.035 Q1086.02 216.29 1080.87 214.162 Q1075.71 212.015 1070.97 204.686 Q1066.52 197.805 1067.15 191.611 Q1067.76 185.398 1073.26 181.842 Q1074.74 180.887 1076.43 180.211 Q1078.13 179.522 1080.14 179.05 Z" fill="#000000" fill-rule="evenodd" fill-opacity="1" /><path clip-path="url(#clip930)" d="M1098.45 169.973 Q1095.41 171.933 1095.81 175.92 Q1096.22 179.874 1100.09 185.862 Q1103.95 191.83 1107.4 193.843 Q1110.86 195.825 1113.89 193.864 Q1116.94 191.891 1116.54 187.937 Q1116.14 183.95 1112.28 177.982 Q1108.41 171.995 1104.95 170.013 Q1101.5 168 1098.45 169.973 M1096.44 166.862 Q1101.32 163.708 1106.38 165.918 Q1111.46 168.096 1116.21 175.444 Q1120.94 182.773 1120.86 188.313 Q1120.78 193.821 1115.9 196.975 Q1111.02 200.129 1105.95 197.951 Q1100.88 195.741 1096.15 188.413 Q1091.39 181.064 1091.47 175.556 Q1091.56 170.017 1096.44 166.862 Z" fill="#000000" fill-rule="evenodd" fill-opacity="1" /><polyline clip-path="url(#clip932)" style="stroke:#6a176e; stroke-linecap:butt; stroke-linejoin:round; stroke-width:4; stroke-opacity:1; fill:none" points="
  1254.57,86.1857 1242.63,93.8213 1236.33,97.7192 1230.83,101.457 1219.15,109.092 1207.78,116.16 1206.95,116.728 1195.57,124.364 1183.51,131.999 1179.23,134.643 
  1171.87,139.635 1160.09,147.271 1150.68,153.101 1148.04,154.906 1136.56,162.542 1124.99,169.789 
  "/>
<polyline clip-path="url(#clip932)" style="stroke:#6a176e; stroke-linecap:butt; stroke-linejoin:round; stroke-width:4; stroke-opacity:1; fill:none" points="
  1062.21,210.374 1053.94,215.991 1041.9,223.627 1036.46,226.964 1030.19,231.262 1018.49,238.898 1007.91,245.41 1006.29,246.533 994.947,254.169 982.764,261.805 
  979.358,263.883 971.258,269.44 959.42,277.076 950.805,282.351 947.402,284.711 935.942,292.347 923.589,299.983 922.252,300.794 912.313,307.618 900.321,315.254 
  893.699,319.284 888.511,322.889 876.916,330.525 865.146,337.714 864.513,338.161 853.355,345.796 841.187,353.432 836.593,356.209 829.616,361.067 817.865,368.703 
  808.04,374.663 805.669,376.339 794.382,383.974 782.011,391.61 779.487,393.122 770.713,399.245 758.783,406.881 750.934,411.604 746.828,414.517 735.39,422.152 
  722.779,429.788 722.381,430.024 711.803,437.423 699.661,445.059 693.828,448.535 687.988,452.695 676.373,460.33 665.275,466.971 663.906,467.966 652.882,475.601 
  640.487,483.237 636.722,485.453 629.15,490.873 617.323,498.508 608.169,503.921 605.133,506.144 593.946,513.779 581.242,521.415 579.616,522.357 570.312,529.051 
  558.229,536.686 551.063,540.86 546.37,544.322 534.99,551.957 522.51,559.269 522.082,559.593 511.468,567.229 499.072,574.864 493.957,577.783 487.603,582.5 
  476,590.136 465.405,596.228 463.368,597.771 452.601,605.407 439.822,613.042 436.852,614.688 428.785,620.678 416.956,628.314 408.299,633.16 404.55,635.949 
  393.651,643.585 380.425,651.22 379.746,651.578 369.723,658.856 357.8,666.492 351.193,670.03 345.238,674.127 334.351,681.763 322.64,688.436 321.069,689.398 
  309.545,697.034 298.305,704.67 294.087,706.66 
  "/>
<path clip-path="url(#clip930)" d="M369.824 622.038 L387.934 609.159 L389.087 610.781 L397.739 644.594 L393.759 647.424 L385.63 615.625 L372.105 625.245 L369.824 622.038 Z" fill="#000000" fill-rule="evenodd" fill-opacity="1" /><path clip-path="url(#clip930)" d="M405.299 600.586 Q402.357 602.679 402.932 606.644 Q403.514 610.576 407.646 616.386 Q411.765 622.177 415.302 624.036 Q418.845 625.862 421.788 623.769 Q424.749 621.663 424.168 617.731 Q423.592 613.766 419.473 607.974 Q415.341 602.164 411.798 600.338 Q408.261 598.48 405.299 600.586 M403.153 597.568 Q407.888 594.2 413.047 596.183 Q418.213 598.134 423.284 605.264 Q428.342 612.376 428.503 617.914 Q428.669 623.42 423.934 626.788 Q419.199 630.155 414.034 628.204 Q408.874 626.221 403.816 619.11 Q398.745 611.979 398.579 606.473 Q398.418 600.935 403.153 597.568 Z" fill="#000000" fill-rule="evenodd" fill-opacity="1" /><polyline clip-path="url(#clip932)" style="stroke:#7e1e6c; stroke-linecap:butt; stroke-linejoin:round; stroke-width:4; stroke-opacity:1; fill:none" points="
  294.087,697.744 295.114,697.034 304.137,689.398 315.094,681.763 322.64,677.179 326.974,674.127 336.777,666.492 347.988,658.856 351.193,656.808 359.106,651.22 
  369.253,643.585 371.256,642.217 
  "/>
<polyline clip-path="url(#clip932)" style="stroke:#7e1e6c; stroke-linecap:butt; stroke-linejoin:round; stroke-width:4; stroke-opacity:1; fill:none" points="
  431.84,599.13 433.654,597.771 436.852,595.466 445.029,590.136 455.521,582.5 465.405,574.967 465.569,574.864 477.216,567.229 487.444,559.593 493.957,554.541 
  498.053,551.957 509.298,544.322 519.192,536.686 522.51,534.067 530.418,529.051 541.246,521.415 550.73,513.779 551.063,513.512 562.653,506.144 573.032,498.508 
  579.616,493.099 583.164,490.873 594.744,483.237 604.627,475.601 608.169,472.636 615.593,467.966 626.674,460.33 635.994,452.695 636.722,452.072 647.869,445.059 
  658.424,437.423 665.275,431.631 668.209,429.788 679.986,422.152 689.969,414.517 693.828,411.186 700.674,406.881 711.931,399.245 721.275,391.61 722.381,390.631 
  732.98,383.974 743.688,376.339 750.934,370.152 753.232,368.703 765.123,361.067 775.236,353.432 779.487,349.724 785.715,345.796 797.091,338.161 806.543,330.525 
  808.04,329.185 818.041,322.889 828.873,315.254 836.593,308.667 838.248,307.618 850.205,299.983 860.447,292.347 865.146,288.254 870.739,284.711 882.199,277.076 
  891.788,269.44 893.699,267.733 903.079,261.805 914.009,254.169 922.252,247.178 923.264,246.533 935.261,238.898 945.621,231.262 950.805,226.78 955.759,223.627 
  967.277,215.991 977.008,208.355 979.358,206.276 988.107,200.72 999.118,193.084 1007.91,185.688 1008.28,185.449 1020.3,177.813 1030.77,170.177 1036.46,165.302 
  1040.78,162.542 1052.34,154.906 1064.9,147.271 1065.02,144.815 1073.13,139.635 1084.21,131.999 1093.56,124.364 1093.57,124.217 1105.34,116.728 1121.89,109.092 
  1122.12,103.822 1125.8,101.457 1137.4,93.8213 1150.55,86.1857 
  "/>
<polyline clip-path="url(#clip932)" style="stroke:#e26f46; stroke-linecap:butt; stroke-linejoin:round; stroke-width:4; stroke-opacity:1; fill:none" points="
  2041.53,1320.86 2037.31,1252.83 2028.42,1189.69 2016.15,1131.09 2001.08,1076.71 1983.59,1026.24 1963.99,979.392 1942.52,935.917 1919.4,895.568 1894.84,858.12 
  1869.01,823.365 1842.08,791.109 1814.2,761.173 1785.52,733.39 1756.19,707.604 1726.32,683.673 1696.03,661.463 1665.45,640.85 1634.68,621.719 1603.81,603.964 
  1572.95,587.485 1542.17,572.192 1511.56,557.998 1481.19,544.825 1451.13,532.599 1421.45,521.253 1392.19,510.722 1363.42,500.949 1335.17,491.878 1307.5,483.46 
  1280.43,475.647 1253.99,468.396 1228.23,461.666 1203.15,455.42 1178.77,449.624 1155.12,444.244 1132.21,439.251 1110.04,434.617 1088.61,430.317 1067.94,426.325 
  1048.02,422.621 1028.85,419.183 1010.42,415.992 992.733,413.031 975.768,410.282 959.521,407.732 943.978,405.364 929.127,403.167 914.951,401.128 901.435,399.236 
  888.563,397.479 876.316,395.849 864.677,394.337 853.627,392.933 843.147,391.629 833.217,390.42 823.818,389.298 814.93,388.256 806.534,387.289 798.61,386.392 
  791.138,385.559 784.099,384.786 777.474,384.069 771.245,383.403 765.393,382.785 759.901,382.212 754.75,381.68 749.924,381.186 745.406,380.728 741.18,380.302 
  737.231,379.907 733.543,379.541 730.103,379.201 726.896,378.885 723.909,378.592 721.129,378.32 718.544,378.068 716.142,377.834 713.912,377.616 711.843,377.415 
  709.925,377.228 708.149,377.054 706.505,376.893 704.984,376.743 703.579,376.604 702.282,376.475 701.085,376.355 699.981,376.244 698.964,376.141 698.028,376.046 
  697.166,375.957 
  "/>
</svg>
