<?xml version="1.0" encoding="utf-8" standalone="no"?>
<!DOCTYPE svg PUBLIC "-//W3C//DTD SVG 1.1//EN"
  "http://www.w3.org/Graphics/SVG/1.1/DTD/svg11.dtd">
<!-- Created with matplotlib (https://matplotlib.org/) -->
<svg height="291.164164pt" version="1.1" viewBox="0 0 621.709375 291.164164" width="621.709375pt" xmlns="http://www.w3.org/2000/svg" xmlns:xlink="http://www.w3.org/1999/xlink">
 <metadata>
  <rdf:RDF xmlns:cc="http://creativecommons.org/ns#" xmlns:dc="http://purl.org/dc/elements/1.1/" xmlns:rdf="http://www.w3.org/1999/02/22-rdf-syntax-ns#">
   <cc:Work>
    <dc:type rdf:resource="http://purl.org/dc/dcmitype/StillImage"/>
    <dc:date>2023-02-09T19:18:39.958495</dc:date>
    <dc:format>image/svg+xml</dc:format>
    <dc:creator>
     <cc:Agent>
      <dc:title>Matplotlib v3.3.2, https://matplotlib.org/</dc:title>
     </cc:Agent>
    </dc:creator>
   </cc:Work>
  </rdf:RDF>
 </metadata>
 <defs>
  <style type="text/css">*{stroke-linecap:butt;stroke-linejoin:round;}</style>
 </defs>
 <g id="figure_1">
  <g id="patch_1">
   <path d="M 0 291.164164 
L 621.709375 291.164164 
L 621.709375 0 
L 0 0 
z
" style="fill:#ffffff;"/>
  </g>
  <g id="axes_1">
   <g id="patch_2">
    <path d="M 46.965625 253.607914 
L 289.574321 253.607914 
L 289.574321 10.999219 
L 46.965625 10.999219 
z
" style="fill:#ffffff;"/>
   </g>
   <g id="matplotlib.axis_1">
    <g id="xtick_1">
     <g id="line2d_1">
      <path clip-path="url(#pedfc45c756)" d="M 46.965625 253.607914 
L 46.965625 10.999219 
" style="fill:none;stroke:#b0b0b0;stroke-dasharray:2.96,1.28;stroke-dashoffset:0;stroke-opacity:0.3;stroke-width:0.8;"/>
     </g>
     <g id="line2d_2">
      <defs>
       <path d="M 0 0 
L 0 3.5 
" id="m1d497fcf32" style="stroke:#000000;stroke-width:0.8;"/>
      </defs>
      <g>
       <use style="stroke:#000000;stroke-width:0.8;" x="46.965625" xlink:href="#m1d497fcf32" y="253.607914"/>
      </g>
     </g>
     <g id="text_1">
      <!-- 0 -->
      <g transform="translate(43.784375 268.206352)scale(0.1 -0.1)">
       <defs>
        <path d="M 31.78125 66.40625 
Q 24.171875 66.40625 20.328125 58.90625 
Q 16.5 51.421875 16.5 36.375 
Q 16.5 21.390625 20.328125 13.890625 
Q 24.171875 6.390625 31.78125 6.390625 
Q 39.453125 6.390625 43.28125 13.890625 
Q 47.125 21.390625 47.125 36.375 
Q 47.125 51.421875 43.28125 58.90625 
Q 39.453125 66.40625 31.78125 66.40625 
z
M 31.78125 74.21875 
Q 44.046875 74.21875 50.515625 64.515625 
Q 56.984375 54.828125 56.984375 36.375 
Q 56.984375 17.96875 50.515625 8.265625 
Q 44.046875 -1.421875 31.78125 -1.421875 
Q 19.53125 -1.421875 13.0625 8.265625 
Q 6.59375 17.96875 6.59375 36.375 
Q 6.59375 54.828125 13.0625 64.515625 
Q 19.53125 74.21875 31.78125 74.21875 
z
" id="DejaVuSans-48"/>
       </defs>
       <use xlink:href="#DejaVuSans-48"/>
      </g>
     </g>
    </g>
    <g id="xtick_2">
     <g id="line2d_3">
      <path clip-path="url(#pedfc45c756)" d="M 95.487364 253.607914 
L 95.487364 10.999219 
" style="fill:none;stroke:#b0b0b0;stroke-dasharray:2.96,1.28;stroke-dashoffset:0;stroke-opacity:0.3;stroke-width:0.8;"/>
     </g>
     <g id="line2d_4">
      <g>
       <use style="stroke:#000000;stroke-width:0.8;" x="95.487364" xlink:href="#m1d497fcf32" y="253.607914"/>
      </g>
     </g>
     <g id="text_2">
      <!-- 20 -->
      <g transform="translate(89.124864 268.206352)scale(0.1 -0.1)">
       <defs>
        <path d="M 19.1875 8.296875 
L 53.609375 8.296875 
L 53.609375 0 
L 7.328125 0 
L 7.328125 8.296875 
Q 12.9375 14.109375 22.625 23.890625 
Q 32.328125 33.6875 34.8125 36.53125 
Q 39.546875 41.84375 41.421875 45.53125 
Q 43.3125 49.21875 43.3125 52.78125 
Q 43.3125 58.59375 39.234375 62.25 
Q 35.15625 65.921875 28.609375 65.921875 
Q 23.96875 65.921875 18.8125 64.3125 
Q 13.671875 62.703125 7.8125 59.421875 
L 7.8125 69.390625 
Q 13.765625 71.78125 18.9375 73 
Q 24.125 74.21875 28.421875 74.21875 
Q 39.75 74.21875 46.484375 68.546875 
Q 53.21875 62.890625 53.21875 53.421875 
Q 53.21875 48.921875 51.53125 44.890625 
Q 49.859375 40.875 45.40625 35.40625 
Q 44.1875 33.984375 37.640625 27.21875 
Q 31.109375 20.453125 19.1875 8.296875 
z
" id="DejaVuSans-50"/>
       </defs>
       <use xlink:href="#DejaVuSans-50"/>
       <use x="63.623047" xlink:href="#DejaVuSans-48"/>
      </g>
     </g>
    </g>
    <g id="xtick_3">
     <g id="line2d_5">
      <path clip-path="url(#pedfc45c756)" d="M 144.009103 253.607914 
L 144.009103 10.999219 
" style="fill:none;stroke:#b0b0b0;stroke-dasharray:2.96,1.28;stroke-dashoffset:0;stroke-opacity:0.3;stroke-width:0.8;"/>
     </g>
     <g id="line2d_6">
      <g>
       <use style="stroke:#000000;stroke-width:0.8;" x="144.009103" xlink:href="#m1d497fcf32" y="253.607914"/>
      </g>
     </g>
     <g id="text_3">
      <!-- 40 -->
      <g transform="translate(137.646603 268.206352)scale(0.1 -0.1)">
       <defs>
        <path d="M 37.796875 64.3125 
L 12.890625 25.390625 
L 37.796875 25.390625 
z
M 35.203125 72.90625 
L 47.609375 72.90625 
L 47.609375 25.390625 
L 58.015625 25.390625 
L 58.015625 17.1875 
L 47.609375 17.1875 
L 47.609375 0 
L 37.796875 0 
L 37.796875 17.1875 
L 4.890625 17.1875 
L 4.890625 26.703125 
z
" id="DejaVuSans-52"/>
       </defs>
       <use xlink:href="#DejaVuSans-52"/>
       <use x="63.623047" xlink:href="#DejaVuSans-48"/>
      </g>
     </g>
    </g>
    <g id="xtick_4">
     <g id="line2d_7">
      <path clip-path="url(#pedfc45c756)" d="M 192.530842 253.607914 
L 192.530842 10.999219 
" style="fill:none;stroke:#b0b0b0;stroke-dasharray:2.96,1.28;stroke-dashoffset:0;stroke-opacity:0.3;stroke-width:0.8;"/>
     </g>
     <g id="line2d_8">
      <g>
       <use style="stroke:#000000;stroke-width:0.8;" x="192.530842" xlink:href="#m1d497fcf32" y="253.607914"/>
      </g>
     </g>
     <g id="text_4">
      <!-- 60 -->
      <g transform="translate(186.168342 268.206352)scale(0.1 -0.1)">
       <defs>
        <path d="M 33.015625 40.375 
Q 26.375 40.375 22.484375 35.828125 
Q 18.609375 31.296875 18.609375 23.390625 
Q 18.609375 15.53125 22.484375 10.953125 
Q 26.375 6.390625 33.015625 6.390625 
Q 39.65625 6.390625 43.53125 10.953125 
Q 47.40625 15.53125 47.40625 23.390625 
Q 47.40625 31.296875 43.53125 35.828125 
Q 39.65625 40.375 33.015625 40.375 
z
M 52.59375 71.296875 
L 52.59375 62.3125 
Q 48.875 64.0625 45.09375 64.984375 
Q 41.3125 65.921875 37.59375 65.921875 
Q 27.828125 65.921875 22.671875 59.328125 
Q 17.53125 52.734375 16.796875 39.40625 
Q 19.671875 43.65625 24.015625 45.921875 
Q 28.375 48.1875 33.59375 48.1875 
Q 44.578125 48.1875 50.953125 41.515625 
Q 57.328125 34.859375 57.328125 23.390625 
Q 57.328125 12.15625 50.6875 5.359375 
Q 44.046875 -1.421875 33.015625 -1.421875 
Q 20.359375 -1.421875 13.671875 8.265625 
Q 6.984375 17.96875 6.984375 36.375 
Q 6.984375 53.65625 15.1875 63.9375 
Q 23.390625 74.21875 37.203125 74.21875 
Q 40.921875 74.21875 44.703125 73.484375 
Q 48.484375 72.75 52.59375 71.296875 
z
" id="DejaVuSans-54"/>
       </defs>
       <use xlink:href="#DejaVuSans-54"/>
       <use x="63.623047" xlink:href="#DejaVuSans-48"/>
      </g>
     </g>
    </g>
    <g id="xtick_5">
     <g id="line2d_9">
      <path clip-path="url(#pedfc45c756)" d="M 241.052582 253.607914 
L 241.052582 10.999219 
" style="fill:none;stroke:#b0b0b0;stroke-dasharray:2.96,1.28;stroke-dashoffset:0;stroke-opacity:0.3;stroke-width:0.8;"/>
     </g>
     <g id="line2d_10">
      <g>
       <use style="stroke:#000000;stroke-width:0.8;" x="241.052582" xlink:href="#m1d497fcf32" y="253.607914"/>
      </g>
     </g>
     <g id="text_5">
      <!-- 80 -->
      <g transform="translate(234.690082 268.206352)scale(0.1 -0.1)">
       <defs>
        <path d="M 31.78125 34.625 
Q 24.75 34.625 20.71875 30.859375 
Q 16.703125 27.09375 16.703125 20.515625 
Q 16.703125 13.921875 20.71875 10.15625 
Q 24.75 6.390625 31.78125 6.390625 
Q 38.8125 6.390625 42.859375 10.171875 
Q 46.921875 13.96875 46.921875 20.515625 
Q 46.921875 27.09375 42.890625 30.859375 
Q 38.875 34.625 31.78125 34.625 
z
M 21.921875 38.8125 
Q 15.578125 40.375 12.03125 44.71875 
Q 8.5 49.078125 8.5 55.328125 
Q 8.5 64.0625 14.71875 69.140625 
Q 20.953125 74.21875 31.78125 74.21875 
Q 42.671875 74.21875 48.875 69.140625 
Q 55.078125 64.0625 55.078125 55.328125 
Q 55.078125 49.078125 51.53125 44.71875 
Q 48 40.375 41.703125 38.8125 
Q 48.828125 37.15625 52.796875 32.3125 
Q 56.78125 27.484375 56.78125 20.515625 
Q 56.78125 9.90625 50.3125 4.234375 
Q 43.84375 -1.421875 31.78125 -1.421875 
Q 19.734375 -1.421875 13.25 4.234375 
Q 6.78125 9.90625 6.78125 20.515625 
Q 6.78125 27.484375 10.78125 32.3125 
Q 14.796875 37.15625 21.921875 38.8125 
z
M 18.3125 54.390625 
Q 18.3125 48.734375 21.84375 45.5625 
Q 25.390625 42.390625 31.78125 42.390625 
Q 38.140625 42.390625 41.71875 45.5625 
Q 45.3125 48.734375 45.3125 54.390625 
Q 45.3125 60.0625 41.71875 63.234375 
Q 38.140625 66.40625 31.78125 66.40625 
Q 25.390625 66.40625 21.84375 63.234375 
Q 18.3125 60.0625 18.3125 54.390625 
z
" id="DejaVuSans-56"/>
       </defs>
       <use xlink:href="#DejaVuSans-56"/>
       <use x="63.623047" xlink:href="#DejaVuSans-48"/>
      </g>
     </g>
    </g>
    <g id="xtick_6">
     <g id="line2d_11">
      <path clip-path="url(#pedfc45c756)" d="M 289.574321 253.607914 
L 289.574321 10.999219 
" style="fill:none;stroke:#b0b0b0;stroke-dasharray:2.96,1.28;stroke-dashoffset:0;stroke-opacity:0.3;stroke-width:0.8;"/>
     </g>
     <g id="line2d_12">
      <g>
       <use style="stroke:#000000;stroke-width:0.8;" x="289.574321" xlink:href="#m1d497fcf32" y="253.607914"/>
      </g>
     </g>
     <g id="text_6">
      <!-- 100 -->
      <g transform="translate(280.030571 268.206352)scale(0.1 -0.1)">
       <defs>
        <path d="M 12.40625 8.296875 
L 28.515625 8.296875 
L 28.515625 63.921875 
L 10.984375 60.40625 
L 10.984375 69.390625 
L 28.421875 72.90625 
L 38.28125 72.90625 
L 38.28125 8.296875 
L 54.390625 8.296875 
L 54.390625 0 
L 12.40625 0 
z
" id="DejaVuSans-49"/>
       </defs>
       <use xlink:href="#DejaVuSans-49"/>
       <use x="63.623047" xlink:href="#DejaVuSans-48"/>
       <use x="127.246094" xlink:href="#DejaVuSans-48"/>
      </g>
     </g>
    </g>
    <g id="text_7">
     <!-- Ice thickness [cm] -->
     <g transform="translate(122.652785 281.884477)scale(0.1 -0.1)">
      <defs>
       <path d="M 9.8125 72.90625 
L 19.671875 72.90625 
L 19.671875 0 
L 9.8125 0 
z
" id="DejaVuSans-73"/>
       <path d="M 48.78125 52.59375 
L 48.78125 44.1875 
Q 44.96875 46.296875 41.140625 47.34375 
Q 37.3125 48.390625 33.40625 48.390625 
Q 24.65625 48.390625 19.8125 42.84375 
Q 14.984375 37.3125 14.984375 27.296875 
Q 14.984375 17.28125 19.8125 11.734375 
Q 24.65625 6.203125 33.40625 6.203125 
Q 37.3125 6.203125 41.140625 7.25 
Q 44.96875 8.296875 48.78125 10.40625 
L 48.78125 2.09375 
Q 45.015625 0.34375 40.984375 -0.53125 
Q 36.96875 -1.421875 32.421875 -1.421875 
Q 20.0625 -1.421875 12.78125 6.34375 
Q 5.515625 14.109375 5.515625 27.296875 
Q 5.515625 40.671875 12.859375 48.328125 
Q 20.21875 56 33.015625 56 
Q 37.15625 56 41.109375 55.140625 
Q 45.0625 54.296875 48.78125 52.59375 
z
" id="DejaVuSans-99"/>
       <path d="M 56.203125 29.59375 
L 56.203125 25.203125 
L 14.890625 25.203125 
Q 15.484375 15.921875 20.484375 11.0625 
Q 25.484375 6.203125 34.421875 6.203125 
Q 39.59375 6.203125 44.453125 7.46875 
Q 49.3125 8.734375 54.109375 11.28125 
L 54.109375 2.78125 
Q 49.265625 0.734375 44.1875 -0.34375 
Q 39.109375 -1.421875 33.890625 -1.421875 
Q 20.796875 -1.421875 13.15625 6.1875 
Q 5.515625 13.8125 5.515625 26.8125 
Q 5.515625 40.234375 12.765625 48.109375 
Q 20.015625 56 32.328125 56 
Q 43.359375 56 49.78125 48.890625 
Q 56.203125 41.796875 56.203125 29.59375 
z
M 47.21875 32.234375 
Q 47.125 39.59375 43.09375 43.984375 
Q 39.0625 48.390625 32.421875 48.390625 
Q 24.90625 48.390625 20.390625 44.140625 
Q 15.875 39.890625 15.1875 32.171875 
z
" id="DejaVuSans-101"/>
       <path id="DejaVuSans-32"/>
       <path d="M 18.3125 70.21875 
L 18.3125 54.6875 
L 36.8125 54.6875 
L 36.8125 47.703125 
L 18.3125 47.703125 
L 18.3125 18.015625 
Q 18.3125 11.328125 20.140625 9.421875 
Q 21.96875 7.515625 27.59375 7.515625 
L 36.8125 7.515625 
L 36.8125 0 
L 27.59375 0 
Q 17.1875 0 13.234375 3.875 
Q 9.28125 7.765625 9.28125 18.015625 
L 9.28125 47.703125 
L 2.6875 47.703125 
L 2.6875 54.6875 
L 9.28125 54.6875 
L 9.28125 70.21875 
z
" id="DejaVuSans-116"/>
       <path d="M 54.890625 33.015625 
L 54.890625 0 
L 45.90625 0 
L 45.90625 32.71875 
Q 45.90625 40.484375 42.875 44.328125 
Q 39.84375 48.1875 33.796875 48.1875 
Q 26.515625 48.1875 22.3125 43.546875 
Q 18.109375 38.921875 18.109375 30.90625 
L 18.109375 0 
L 9.078125 0 
L 9.078125 75.984375 
L 18.109375 75.984375 
L 18.109375 46.1875 
Q 21.34375 51.125 25.703125 53.5625 
Q 30.078125 56 35.796875 56 
Q 45.21875 56 50.046875 50.171875 
Q 54.890625 44.34375 54.890625 33.015625 
z
" id="DejaVuSans-104"/>
       <path d="M 9.421875 54.6875 
L 18.40625 54.6875 
L 18.40625 0 
L 9.421875 0 
z
M 9.421875 75.984375 
L 18.40625 75.984375 
L 18.40625 64.59375 
L 9.421875 64.59375 
z
" id="DejaVuSans-105"/>
       <path d="M 9.078125 75.984375 
L 18.109375 75.984375 
L 18.109375 31.109375 
L 44.921875 54.6875 
L 56.390625 54.6875 
L 27.390625 29.109375 
L 57.625 0 
L 45.90625 0 
L 18.109375 26.703125 
L 18.109375 0 
L 9.078125 0 
z
" id="DejaVuSans-107"/>
       <path d="M 54.890625 33.015625 
L 54.890625 0 
L 45.90625 0 
L 45.90625 32.71875 
Q 45.90625 40.484375 42.875 44.328125 
Q 39.84375 48.1875 33.796875 48.1875 
Q 26.515625 48.1875 22.3125 43.546875 
Q 18.109375 38.921875 18.109375 30.90625 
L 18.109375 0 
L 9.078125 0 
L 9.078125 54.6875 
L 18.109375 54.6875 
L 18.109375 46.1875 
Q 21.34375 51.125 25.703125 53.5625 
Q 30.078125 56 35.796875 56 
Q 45.21875 56 50.046875 50.171875 
Q 54.890625 44.34375 54.890625 33.015625 
z
" id="DejaVuSans-110"/>
       <path d="M 44.28125 53.078125 
L 44.28125 44.578125 
Q 40.484375 46.53125 36.375 47.5 
Q 32.28125 48.484375 27.875 48.484375 
Q 21.1875 48.484375 17.84375 46.4375 
Q 14.5 44.390625 14.5 40.28125 
Q 14.5 37.15625 16.890625 35.375 
Q 19.28125 33.59375 26.515625 31.984375 
L 29.59375 31.296875 
Q 39.15625 29.25 43.1875 25.515625 
Q 47.21875 21.78125 47.21875 15.09375 
Q 47.21875 7.46875 41.1875 3.015625 
Q 35.15625 -1.421875 24.609375 -1.421875 
Q 20.21875 -1.421875 15.453125 -0.5625 
Q 10.6875 0.296875 5.421875 2 
L 5.421875 11.28125 
Q 10.40625 8.6875 15.234375 7.390625 
Q 20.0625 6.109375 24.8125 6.109375 
Q 31.15625 6.109375 34.5625 8.28125 
Q 37.984375 10.453125 37.984375 14.40625 
Q 37.984375 18.0625 35.515625 20.015625 
Q 33.0625 21.96875 24.703125 23.78125 
L 21.578125 24.515625 
Q 13.234375 26.265625 9.515625 29.90625 
Q 5.8125 33.546875 5.8125 39.890625 
Q 5.8125 47.609375 11.28125 51.796875 
Q 16.75 56 26.8125 56 
Q 31.78125 56 36.171875 55.265625 
Q 40.578125 54.546875 44.28125 53.078125 
z
" id="DejaVuSans-115"/>
       <path d="M 8.59375 75.984375 
L 29.296875 75.984375 
L 29.296875 69 
L 17.578125 69 
L 17.578125 -6.203125 
L 29.296875 -6.203125 
L 29.296875 -13.1875 
L 8.59375 -13.1875 
z
" id="DejaVuSans-91"/>
       <path d="M 52 44.1875 
Q 55.375 50.25 60.0625 53.125 
Q 64.75 56 71.09375 56 
Q 79.640625 56 84.28125 50.015625 
Q 88.921875 44.046875 88.921875 33.015625 
L 88.921875 0 
L 79.890625 0 
L 79.890625 32.71875 
Q 79.890625 40.578125 77.09375 44.375 
Q 74.3125 48.1875 68.609375 48.1875 
Q 61.625 48.1875 57.5625 43.546875 
Q 53.515625 38.921875 53.515625 30.90625 
L 53.515625 0 
L 44.484375 0 
L 44.484375 32.71875 
Q 44.484375 40.625 41.703125 44.40625 
Q 38.921875 48.1875 33.109375 48.1875 
Q 26.21875 48.1875 22.15625 43.53125 
Q 18.109375 38.875 18.109375 30.90625 
L 18.109375 0 
L 9.078125 0 
L 9.078125 54.6875 
L 18.109375 54.6875 
L 18.109375 46.1875 
Q 21.1875 51.21875 25.484375 53.609375 
Q 29.78125 56 35.6875 56 
Q 41.65625 56 45.828125 52.96875 
Q 50 49.953125 52 44.1875 
z
" id="DejaVuSans-109"/>
       <path d="M 30.421875 75.984375 
L 30.421875 -13.1875 
L 9.71875 -13.1875 
L 9.71875 -6.203125 
L 21.390625 -6.203125 
L 21.390625 69 
L 9.71875 69 
L 9.71875 75.984375 
z
" id="DejaVuSans-93"/>
      </defs>
      <use xlink:href="#DejaVuSans-73"/>
      <use x="29.492188" xlink:href="#DejaVuSans-99"/>
      <use x="84.472656" xlink:href="#DejaVuSans-101"/>
      <use x="145.996094" xlink:href="#DejaVuSans-32"/>
      <use x="177.783203" xlink:href="#DejaVuSans-116"/>
      <use x="216.992188" xlink:href="#DejaVuSans-104"/>
      <use x="280.371094" xlink:href="#DejaVuSans-105"/>
      <use x="308.154297" xlink:href="#DejaVuSans-99"/>
      <use x="363.134766" xlink:href="#DejaVuSans-107"/>
      <use x="421.044922" xlink:href="#DejaVuSans-110"/>
      <use x="484.423828" xlink:href="#DejaVuSans-101"/>
      <use x="545.947266" xlink:href="#DejaVuSans-115"/>
      <use x="598.046875" xlink:href="#DejaVuSans-115"/>
      <use x="650.146484" xlink:href="#DejaVuSans-32"/>
      <use x="681.933594" xlink:href="#DejaVuSans-91"/>
      <use x="720.947266" xlink:href="#DejaVuSans-99"/>
      <use x="775.927734" xlink:href="#DejaVuSans-109"/>
      <use x="873.339844" xlink:href="#DejaVuSans-93"/>
     </g>
    </g>
   </g>
   <g id="matplotlib.axis_2">
    <g id="ytick_1">
     <g id="line2d_13">
      <path clip-path="url(#pedfc45c756)" d="M 46.965625 253.607914 
L 289.574321 253.607914 
" style="fill:none;stroke:#b0b0b0;stroke-dasharray:2.96,1.28;stroke-dashoffset:0;stroke-opacity:0.3;stroke-width:0.8;"/>
     </g>
     <g id="line2d_14">
      <defs>
       <path d="M 0 0 
L -3.5 0 
" id="mdae64e72b4" style="stroke:#000000;stroke-width:0.8;"/>
      </defs>
      <g>
       <use style="stroke:#000000;stroke-width:0.8;" x="46.965625" xlink:href="#mdae64e72b4" y="253.607914"/>
      </g>
     </g>
     <g id="text_8">
      <!-- 0 -->
      <g transform="translate(33.603125 257.407133)scale(0.1 -0.1)">
       <use xlink:href="#DejaVuSans-48"/>
      </g>
     </g>
    </g>
    <g id="ytick_2">
     <g id="line2d_15">
      <path clip-path="url(#pedfc45c756)" d="M 46.965625 205.086175 
L 289.574321 205.086175 
" style="fill:none;stroke:#b0b0b0;stroke-dasharray:2.96,1.28;stroke-dashoffset:0;stroke-opacity:0.3;stroke-width:0.8;"/>
     </g>
     <g id="line2d_16">
      <g>
       <use style="stroke:#000000;stroke-width:0.8;" x="46.965625" xlink:href="#mdae64e72b4" y="205.086175"/>
      </g>
     </g>
     <g id="text_9">
      <!-- 20 -->
      <g transform="translate(27.240625 208.885394)scale(0.1 -0.1)">
       <use xlink:href="#DejaVuSans-50"/>
       <use x="63.623047" xlink:href="#DejaVuSans-48"/>
      </g>
     </g>
    </g>
    <g id="ytick_3">
     <g id="line2d_17">
      <path clip-path="url(#pedfc45c756)" d="M 46.965625 156.564436 
L 289.574321 156.564436 
" style="fill:none;stroke:#b0b0b0;stroke-dasharray:2.96,1.28;stroke-dashoffset:0;stroke-opacity:0.3;stroke-width:0.8;"/>
     </g>
     <g id="line2d_18">
      <g>
       <use style="stroke:#000000;stroke-width:0.8;" x="46.965625" xlink:href="#mdae64e72b4" y="156.564436"/>
      </g>
     </g>
     <g id="text_10">
      <!-- 40 -->
      <g transform="translate(27.240625 160.363655)scale(0.1 -0.1)">
       <use xlink:href="#DejaVuSans-52"/>
       <use x="63.623047" xlink:href="#DejaVuSans-48"/>
      </g>
     </g>
    </g>
    <g id="ytick_4">
     <g id="line2d_19">
      <path clip-path="url(#pedfc45c756)" d="M 46.965625 108.042697 
L 289.574321 108.042697 
" style="fill:none;stroke:#b0b0b0;stroke-dasharray:2.96,1.28;stroke-dashoffset:0;stroke-opacity:0.3;stroke-width:0.8;"/>
     </g>
     <g id="line2d_20">
      <g>
       <use style="stroke:#000000;stroke-width:0.8;" x="46.965625" xlink:href="#mdae64e72b4" y="108.042697"/>
      </g>
     </g>
     <g id="text_11">
      <!-- 60 -->
      <g transform="translate(27.240625 111.841916)scale(0.1 -0.1)">
       <use xlink:href="#DejaVuSans-54"/>
       <use x="63.623047" xlink:href="#DejaVuSans-48"/>
      </g>
     </g>
    </g>
    <g id="ytick_5">
     <g id="line2d_21">
      <path clip-path="url(#pedfc45c756)" d="M 46.965625 59.520958 
L 289.574321 59.520958 
" style="fill:none;stroke:#b0b0b0;stroke-dasharray:2.96,1.28;stroke-dashoffset:0;stroke-opacity:0.3;stroke-width:0.8;"/>
     </g>
     <g id="line2d_22">
      <g>
       <use style="stroke:#000000;stroke-width:0.8;" x="46.965625" xlink:href="#mdae64e72b4" y="59.520958"/>
      </g>
     </g>
     <g id="text_12">
      <!-- 80 -->
      <g transform="translate(27.240625 63.320177)scale(0.1 -0.1)">
       <use xlink:href="#DejaVuSans-56"/>
       <use x="63.623047" xlink:href="#DejaVuSans-48"/>
      </g>
     </g>
    </g>
    <g id="ytick_6">
     <g id="line2d_23">
      <path clip-path="url(#pedfc45c756)" d="M 46.965625 10.999219 
L 289.574321 10.999219 
" style="fill:none;stroke:#b0b0b0;stroke-dasharray:2.96,1.28;stroke-dashoffset:0;stroke-opacity:0.3;stroke-width:0.8;"/>
     </g>
     <g id="line2d_24">
      <g>
       <use style="stroke:#000000;stroke-width:0.8;" x="46.965625" xlink:href="#mdae64e72b4" y="10.999219"/>
      </g>
     </g>
     <g id="text_13">
      <!-- 100 -->
      <g transform="translate(20.878125 14.798438)scale(0.1 -0.1)">
       <use xlink:href="#DejaVuSans-49"/>
       <use x="63.623047" xlink:href="#DejaVuSans-48"/>
       <use x="127.246094" xlink:href="#DejaVuSans-48"/>
      </g>
     </g>
    </g>
    <g id="text_14">
     <!-- Absolut SIT error [cm] -->
     <g transform="translate(14.798438 187.173879)rotate(-90)scale(0.1 -0.1)">
      <defs>
       <path d="M 34.1875 63.1875 
L 20.796875 26.90625 
L 47.609375 26.90625 
z
M 28.609375 72.90625 
L 39.796875 72.90625 
L 67.578125 0 
L 57.328125 0 
L 50.6875 18.703125 
L 17.828125 18.703125 
L 11.1875 0 
L 0.78125 0 
z
" id="DejaVuSans-65"/>
       <path d="M 48.6875 27.296875 
Q 48.6875 37.203125 44.609375 42.84375 
Q 40.53125 48.484375 33.40625 48.484375 
Q 26.265625 48.484375 22.1875 42.84375 
Q 18.109375 37.203125 18.109375 27.296875 
Q 18.109375 17.390625 22.1875 11.75 
Q 26.265625 6.109375 33.40625 6.109375 
Q 40.53125 6.109375 44.609375 11.75 
Q 48.6875 17.390625 48.6875 27.296875 
z
M 18.109375 46.390625 
Q 20.953125 51.265625 25.265625 53.625 
Q 29.59375 56 35.59375 56 
Q 45.5625 56 51.78125 48.09375 
Q 58.015625 40.1875 58.015625 27.296875 
Q 58.015625 14.40625 51.78125 6.484375 
Q 45.5625 -1.421875 35.59375 -1.421875 
Q 29.59375 -1.421875 25.265625 0.953125 
Q 20.953125 3.328125 18.109375 8.203125 
L 18.109375 0 
L 9.078125 0 
L 9.078125 75.984375 
L 18.109375 75.984375 
z
" id="DejaVuSans-98"/>
       <path d="M 30.609375 48.390625 
Q 23.390625 48.390625 19.1875 42.75 
Q 14.984375 37.109375 14.984375 27.296875 
Q 14.984375 17.484375 19.15625 11.84375 
Q 23.34375 6.203125 30.609375 6.203125 
Q 37.796875 6.203125 41.984375 11.859375 
Q 46.1875 17.53125 46.1875 27.296875 
Q 46.1875 37.015625 41.984375 42.703125 
Q 37.796875 48.390625 30.609375 48.390625 
z
M 30.609375 56 
Q 42.328125 56 49.015625 48.375 
Q 55.71875 40.765625 55.71875 27.296875 
Q 55.71875 13.875 49.015625 6.21875 
Q 42.328125 -1.421875 30.609375 -1.421875 
Q 18.84375 -1.421875 12.171875 6.21875 
Q 5.515625 13.875 5.515625 27.296875 
Q 5.515625 40.765625 12.171875 48.375 
Q 18.84375 56 30.609375 56 
z
" id="DejaVuSans-111"/>
       <path d="M 9.421875 75.984375 
L 18.40625 75.984375 
L 18.40625 0 
L 9.421875 0 
z
" id="DejaVuSans-108"/>
       <path d="M 8.5 21.578125 
L 8.5 54.6875 
L 17.484375 54.6875 
L 17.484375 21.921875 
Q 17.484375 14.15625 20.5 10.265625 
Q 23.53125 6.390625 29.59375 6.390625 
Q 36.859375 6.390625 41.078125 11.03125 
Q 45.3125 15.671875 45.3125 23.6875 
L 45.3125 54.6875 
L 54.296875 54.6875 
L 54.296875 0 
L 45.3125 0 
L 45.3125 8.40625 
Q 42.046875 3.421875 37.71875 1 
Q 33.40625 -1.421875 27.6875 -1.421875 
Q 18.265625 -1.421875 13.375 4.4375 
Q 8.5 10.296875 8.5 21.578125 
z
M 31.109375 56 
z
" id="DejaVuSans-117"/>
       <path d="M 53.515625 70.515625 
L 53.515625 60.890625 
Q 47.90625 63.578125 42.921875 64.890625 
Q 37.9375 66.21875 33.296875 66.21875 
Q 25.25 66.21875 20.875 63.09375 
Q 16.5 59.96875 16.5 54.203125 
Q 16.5 49.359375 19.40625 46.890625 
Q 22.3125 44.4375 30.421875 42.921875 
L 36.375 41.703125 
Q 47.40625 39.59375 52.65625 34.296875 
Q 57.90625 29 57.90625 20.125 
Q 57.90625 9.515625 50.796875 4.046875 
Q 43.703125 -1.421875 29.984375 -1.421875 
Q 24.8125 -1.421875 18.96875 -0.25 
Q 13.140625 0.921875 6.890625 3.21875 
L 6.890625 13.375 
Q 12.890625 10.015625 18.65625 8.296875 
Q 24.421875 6.59375 29.984375 6.59375 
Q 38.421875 6.59375 43.015625 9.90625 
Q 47.609375 13.234375 47.609375 19.390625 
Q 47.609375 24.75 44.3125 27.78125 
Q 41.015625 30.8125 33.5 32.328125 
L 27.484375 33.5 
Q 16.453125 35.6875 11.515625 40.375 
Q 6.59375 45.0625 6.59375 53.421875 
Q 6.59375 63.09375 13.40625 68.65625 
Q 20.21875 74.21875 32.171875 74.21875 
Q 37.3125 74.21875 42.625 73.28125 
Q 47.953125 72.359375 53.515625 70.515625 
z
" id="DejaVuSans-83"/>
       <path d="M -0.296875 72.90625 
L 61.375 72.90625 
L 61.375 64.59375 
L 35.5 64.59375 
L 35.5 0 
L 25.59375 0 
L 25.59375 64.59375 
L -0.296875 64.59375 
z
" id="DejaVuSans-84"/>
       <path d="M 41.109375 46.296875 
Q 39.59375 47.171875 37.8125 47.578125 
Q 36.03125 48 33.890625 48 
Q 26.265625 48 22.1875 43.046875 
Q 18.109375 38.09375 18.109375 28.8125 
L 18.109375 0 
L 9.078125 0 
L 9.078125 54.6875 
L 18.109375 54.6875 
L 18.109375 46.1875 
Q 20.953125 51.171875 25.484375 53.578125 
Q 30.03125 56 36.53125 56 
Q 37.453125 56 38.578125 55.875 
Q 39.703125 55.765625 41.0625 55.515625 
z
" id="DejaVuSans-114"/>
      </defs>
      <use xlink:href="#DejaVuSans-65"/>
      <use x="68.408203" xlink:href="#DejaVuSans-98"/>
      <use x="131.884766" xlink:href="#DejaVuSans-115"/>
      <use x="183.984375" xlink:href="#DejaVuSans-111"/>
      <use x="245.166016" xlink:href="#DejaVuSans-108"/>
      <use x="272.949219" xlink:href="#DejaVuSans-117"/>
      <use x="336.328125" xlink:href="#DejaVuSans-116"/>
      <use x="375.537109" xlink:href="#DejaVuSans-32"/>
      <use x="407.324219" xlink:href="#DejaVuSans-83"/>
      <use x="470.800781" xlink:href="#DejaVuSans-73"/>
      <use x="500.292969" xlink:href="#DejaVuSans-84"/>
      <use x="561.376953" xlink:href="#DejaVuSans-32"/>
      <use x="593.164062" xlink:href="#DejaVuSans-101"/>
      <use x="654.6875" xlink:href="#DejaVuSans-114"/>
      <use x="694.050781" xlink:href="#DejaVuSans-114"/>
      <use x="732.914062" xlink:href="#DejaVuSans-111"/>
      <use x="794.095703" xlink:href="#DejaVuSans-114"/>
      <use x="835.208984" xlink:href="#DejaVuSans-32"/>
      <use x="866.996094" xlink:href="#DejaVuSans-91"/>
      <use x="906.009766" xlink:href="#DejaVuSans-99"/>
      <use x="960.990234" xlink:href="#DejaVuSans-109"/>
      <use x="1058.402344" xlink:href="#DejaVuSans-93"/>
     </g>
    </g>
   </g>
   <g id="line2d_25">
    <path clip-path="url(#pedfc45c756)" d="M 49.391712 241.460032 
L 51.817799 242.641957 
L 54.243886 243.631928 
L 56.669973 244.468802 
L 59.09606 245.181582 
L 61.522147 245.793109 
L 63.948234 246.321594 
L 66.374321 246.781608 
L 68.800408 247.184827 
L 71.226495 247.54063 
L 73.652582 247.856585 
L 76.078668 248.138822 
L 78.504755 248.39234 
L 80.930842 248.621235 
L 83.356929 248.82889 
L 85.783016 249.018113 
L 88.209103 249.19125 
L 90.63519 249.350274 
L 93.061277 249.496853 
L 95.487364 249.632406 
L 97.913451 249.758148 
L 100.339538 249.875122 
L 102.765625 249.98423 
L 105.191712 250.086254 
L 107.617799 250.181877 
L 110.043886 250.271697 
L 112.469973 250.356239 
L 114.89606 250.435966 
L 117.322147 250.511291 
L 119.748234 250.582578 
L 122.174321 250.650152 
L 124.600408 250.714306 
L 127.026495 250.7753 
L 129.452582 250.833371 
L 131.878668 250.88873 
L 134.304755 250.941569 
L 136.730842 250.992063 
L 139.156929 251.040369 
L 141.583016 251.086633 
L 144.009103 251.130985 
L 146.43519 251.173547 
L 148.861277 251.214428 
L 151.287364 251.25373 
L 153.713451 251.291547 
L 156.139538 251.327963 
L 158.565625 251.36306 
L 160.991712 251.396909 
L 163.417799 251.42958 
L 165.843886 251.461134 
L 168.269973 251.491632 
L 170.69606 251.521126 
L 173.122147 251.549669 
L 175.548234 251.577306 
L 177.974321 251.604083 
L 180.400408 251.630041 
L 182.826495 251.655218 
L 185.252582 251.679651 
L 187.678668 251.703373 
L 190.104755 251.726416 
L 192.530842 251.748811 
L 194.956929 251.770586 
L 197.383016 251.791767 
L 199.809103 251.812379 
L 202.23519 251.832446 
L 204.661277 251.85199 
L 207.087364 251.871032 
L 209.513451 251.889593 
L 211.939538 251.907691 
L 214.365625 251.925344 
L 216.791712 251.942569 
L 219.217799 251.959382 
L 221.643886 251.975798 
L 224.069973 251.991832 
L 226.49606 252.007498 
L 228.922147 252.022809 
L 231.348234 252.037777 
L 233.774321 252.052414 
L 236.200408 252.066732 
L 238.626495 252.080742 
L 241.052582 252.094453 
L 243.478668 252.107876 
L 245.904755 252.12102 
L 248.330842 252.133894 
L 250.756929 252.146507 
L 253.183016 252.158866 
L 255.609103 252.170981 
L 258.03519 252.182858 
L 260.461277 252.194505 
L 262.887364 252.205928 
L 265.313451 252.217135 
L 267.739538 252.228131 
L 270.165625 252.238924 
L 272.591712 252.249518 
L 275.017799 252.25992 
L 277.443886 252.270134 
L 279.869973 252.280167 
L 282.29606 252.290023 
L 284.722147 252.299707 
L 287.148234 252.309224 
L 289.574321 252.318578 
" style="fill:none;stroke:#808080;stroke-linecap:square;stroke-width:2;"/>
   </g>
   <g id="line2d_26">
    <path clip-path="url(#pedfc45c756)" d="M 49.391712 253.431224 
L 51.817799 253.232289 
L 54.243886 253.019558 
L 56.669973 252.792558 
L 59.09606 252.55171 
L 61.522147 252.296595 
L 63.948234 252.027373 
L 66.374321 251.744296 
L 68.800408 251.447764 
L 71.226495 251.137774 
L 73.652582 250.814825 
L 76.078668 250.479319 
L 78.504755 250.131585 
L 80.930842 249.771539 
L 83.356929 249.399439 
L 85.783016 249.015267 
L 88.209103 248.620223 
L 90.63519 248.212612 
L 93.061277 247.793179 
L 95.487364 247.3618 
L 97.913451 246.917319 
L 100.339538 246.460157 
L 102.765625 245.989181 
L 105.191712 245.504658 
L 107.617799 245.004518 
L 110.043886 244.488874 
L 112.469973 243.954906 
L 114.89606 243.405034 
L 117.322147 242.835219 
L 119.748234 242.244711 
L 122.174321 241.633867 
L 124.600408 240.999621 
L 127.026495 240.340198 
L 129.452582 239.654242 
L 131.878668 238.939953 
L 134.304755 238.197019 
L 136.730842 237.422543 
L 139.156929 236.609296 
L 141.583016 235.762305 
L 144.009103 234.874138 
L 146.43519 233.945132 
L 148.861277 232.970124 
L 151.287364 231.945168 
L 153.713451 230.866159 
L 156.139538 229.735108 
L 158.565625 228.53362 
L 160.991712 227.271944 
L 163.417799 225.940797 
L 165.843886 224.520054 
L 168.269973 223.015744 
L 170.69606 221.416708 
L 173.122147 219.708833 
L 175.548234 217.893521 
L 177.974321 215.942893 
L 180.400408 213.845092 
L 182.826495 211.58511 
L 185.252582 209.147086 
L 187.678668 206.49886 
L 190.104755 203.613886 
L 192.530842 200.46193 
L 194.956929 196.987984 
L 197.383016 193.182318 
L 199.809103 188.980577 
L 202.23519 184.297006 
L 204.661277 179.147475 
L 207.087364 173.518204 
L 209.513451 167.447831 
L 211.939538 161.140554 
L 214.365625 154.894305 
L 216.791712 148.986622 
L 219.217799 143.72883 
L 221.643886 139.218437 
L 224.069973 135.465224 
L 226.49606 132.377602 
L 228.922147 129.919797 
L 231.348234 127.948699 
L 233.774321 126.381786 
L 236.200408 125.190228 
L 238.626495 124.278396 
L 241.052582 123.611183 
L 243.478668 123.146944 
L 245.904755 122.845074 
L 248.330842 122.65032 
L 250.756929 122.666682 
L 253.183016 122.728992 
L 255.609103 122.862038 
L 258.03519 123.061534 
L 260.461277 123.29894 
L 262.887364 123.590477 
L 265.313451 123.949625 
L 267.739538 124.231843 
L 270.165625 124.563612 
L 272.591712 124.892736 
L 275.017799 125.232376 
L 277.443886 125.555836 
L 279.869973 125.832929 
L 282.29606 126.105388 
L 284.722147 126.34668 
L 287.148234 126.551594 
L 289.574321 126.710732 
" style="fill:none;stroke:#008000;stroke-dasharray:7.4,3.2;stroke-dashoffset:0;stroke-width:2;"/>
   </g>
   <g id="line2d_27">
    <path clip-path="url(#pedfc45c756)" d="M 49.391712 252.081783 
L 51.817799 251.972547 
L 54.243886 251.857672 
L 56.669973 251.737067 
L 59.09606 251.610839 
L 61.522147 251.478821 
L 63.948234 251.341054 
L 66.374321 251.197492 
L 68.800408 251.048135 
L 71.226495 250.892945 
L 73.652582 250.731872 
L 76.078668 250.564887 
L 78.504755 250.391869 
L 80.930842 250.212718 
L 83.356929 250.027363 
L 85.783016 249.835485 
L 88.209103 249.63702 
L 90.63519 249.431714 
L 93.061277 249.219301 
L 95.487364 248.999419 
L 97.913451 248.771795 
L 100.339538 248.53605 
L 102.765625 248.291758 
L 105.191712 248.038518 
L 107.617799 247.775708 
L 110.043886 247.50318 
L 112.469973 247.220097 
L 114.89606 246.925824 
L 117.322147 246.619922 
L 119.748234 246.30176 
L 122.174321 245.970612 
L 124.600408 245.625774 
L 127.026495 245.266578 
L 129.452582 244.892188 
L 131.878668 244.50149 
L 134.304755 244.094312 
L 136.730842 243.669155 
L 139.156929 243.225407 
L 141.583016 242.761751 
L 144.009103 242.277512 
L 146.43519 241.770857 
L 148.861277 241.24274 
L 151.287364 240.693159 
L 153.713451 240.111262 
L 156.139538 239.506401 
L 158.565625 238.873465 
L 160.991712 238.210135 
L 163.417799 237.517889 
L 165.843886 236.79195 
L 168.269973 236.032287 
L 170.69606 235.236641 
L 173.122147 234.40321 
L 175.548234 233.530108 
L 177.974321 232.616774 
L 180.400408 231.657643 
L 182.826495 230.651798 
L 185.252582 229.60173 
L 187.678668 228.497997 
L 190.104755 227.343 
L 192.530842 226.130682 
L 194.956929 224.861017 
L 197.383016 223.530308 
L 199.809103 222.133486 
L 202.23519 220.670559 
L 204.661277 219.136151 
L 207.087364 217.529245 
L 209.513451 215.842711 
L 211.939538 214.072624 
L 214.365625 212.219129 
L 216.791712 210.269713 
L 219.217799 208.242574 
L 221.643886 206.111469 
L 224.069973 203.872817 
L 226.49606 201.537331 
L 228.922147 199.086977 
L 231.348234 196.508783 
L 233.774321 193.844984 
L 236.200408 191.044755 
L 238.626495 188.110456 
L 241.052582 185.055119 
L 243.478668 181.875711 
L 245.904755 178.549276 
L 248.330842 175.081102 
L 250.756929 171.53288 
L 253.183016 167.784267 
L 255.609103 163.955243 
L 258.03519 159.95326 
L 260.461277 155.836888 
L 262.887364 151.621716 
L 265.313451 147.28491 
L 267.739538 142.870951 
L 270.165625 138.299762 
L 272.591712 133.705502 
L 275.017799 129.100175 
L 277.443886 124.369923 
L 279.869973 119.663147 
L 282.29606 114.94419 
L 284.722147 110.206768 
L 287.148234 105.563546 
L 289.574321 100.942254 
" style="fill:none;stroke:#ff0000;stroke-dasharray:7.4,3.2;stroke-dashoffset:0;stroke-width:2;"/>
   </g>
   <g id="line2d_28">
    <path clip-path="url(#pedfc45c756)" d="M 49.391712 241.363269 
L 51.817799 242.514324 
L 54.243886 243.462481 
L 56.669973 244.243713 
L 59.09606 244.883985 
L 61.522147 245.402807 
L 63.948234 245.815146 
L 66.374321 246.13251 
L 68.800408 246.363967 
L 71.226495 246.516752 
L 73.652582 246.597154 
L 76.078668 246.610837 
L 78.504755 246.563056 
L 80.930842 246.458642 
L 83.356929 246.30239 
L 85.783016 246.098593 
L 88.209103 245.852143 
L 90.63519 245.565685 
L 93.061277 245.242993 
L 95.487364 244.886857 
L 97.913451 244.498973 
L 100.339538 244.081741 
L 102.765625 243.636069 
L 105.191712 243.163632 
L 107.617799 242.66393 
L 110.043886 242.138171 
L 112.469973 241.58468 
L 114.89606 241.005917 
L 117.322147 240.399126 
L 119.748234 239.763964 
L 122.174321 239.100862 
L 124.600408 238.407369 
L 127.026495 237.682027 
L 129.452582 236.923582 
L 131.878668 236.130214 
L 134.304755 235.301802 
L 136.730842 234.435333 
L 139.156929 233.524544 
L 141.583016 232.573136 
L 144.009103 231.574585 
L 146.43519 230.528333 
L 148.861277 229.430555 
L 151.287364 228.277939 
L 153.713451 227.061491 
L 156.139538 225.787746 
L 158.565625 224.438348 
L 160.991712 223.020933 
L 163.417799 221.528272 
L 165.843886 219.940587 
L 168.269973 218.263011 
L 170.69606 216.484712 
L 173.122147 214.592471 
L 175.548234 212.586462 
L 177.974321 210.441989 
L 180.400408 208.14575 
L 182.826495 205.683887 
L 185.252582 203.043298 
L 187.678668 200.190705 
L 190.104755 197.103148 
L 192.530842 193.750164 
L 194.956929 190.081728 
L 197.383016 186.085966 
L 199.809103 181.701334 
L 202.23519 176.848396 
L 204.661277 171.536343 
L 207.087364 165.749796 
L 209.513451 159.519003 
L 211.939538 153.028877 
L 214.365625 146.555408 
L 216.791712 140.353387 
L 219.217799 134.720804 
L 221.643886 129.738917 
L 224.069973 125.413192 
L 226.49606 121.658319 
L 228.922147 118.427311 
L 231.348234 115.575257 
L 233.774321 113.035815 
L 236.200408 110.752651 
L 238.626495 108.630765 
L 241.052582 106.635378 
L 243.478668 104.719285 
L 245.904755 102.826846 
L 248.330842 100.903872 
L 250.756929 99.063249 
L 253.183016 97.09245 
L 255.609103 95.070378 
L 258.03519 92.935631 
L 260.461277 90.691985 
L 262.887364 88.357546 
L 265.313451 85.924321 
L 267.739538 83.305986 
L 270.165625 80.546433 
L 272.591712 77.693074 
L 275.017799 74.76644 
L 277.443886 71.669511 
L 279.869973 68.487925 
L 282.29606 65.229944 
L 284.722147 61.876274 
L 287.148234 58.512732 
L 289.574321 55.084966 
" style="fill:none;stroke:#000000;stroke-dasharray:7.4,3.2;stroke-dashoffset:0;stroke-width:2;"/>
   </g>
   <g id="patch_3">
    <path d="M 46.965625 253.607914 
L 46.965625 10.999219 
" style="fill:none;stroke:#000000;stroke-linecap:square;stroke-linejoin:miter;stroke-width:0.8;"/>
   </g>
   <g id="patch_4">
    <path d="M 289.574321 253.607914 
L 289.574321 10.999219 
" style="fill:none;stroke:#000000;stroke-linecap:square;stroke-linejoin:miter;stroke-width:0.8;"/>
   </g>
   <g id="patch_5">
    <path d="M 46.965625 253.607914 
L 289.574321 253.607914 
" style="fill:none;stroke:#000000;stroke-linecap:square;stroke-linejoin:miter;stroke-width:0.8;"/>
   </g>
   <g id="patch_6">
    <path d="M 46.965625 10.999219 
L 289.574321 10.999219 
" style="fill:none;stroke:#000000;stroke-linecap:square;stroke-linejoin:miter;stroke-width:0.8;"/>
   </g>
   <g id="legend_1">
    <g id="patch_7">
     <path d="M 53.965625 77.711719 
L 221.914063 77.711719 
Q 223.914063 77.711719 223.914063 75.711719 
L 223.914063 17.999219 
Q 223.914063 15.999219 221.914063 15.999219 
L 53.965625 15.999219 
Q 51.965625 15.999219 51.965625 17.999219 
L 51.965625 75.711719 
Q 51.965625 77.711719 53.965625 77.711719 
z
" style="fill:#ffffff;opacity:0.8;stroke:#cccccc;stroke-linejoin:miter;"/>
    </g>
    <g id="line2d_29">
     <path d="M 55.965625 24.097656 
L 75.965625 24.097656 
" style="fill:none;stroke:#808080;stroke-linecap:square;stroke-width:2;"/>
    </g>
    <g id="line2d_30"/>
    <g id="text_15">
     <!-- Daily SIT variability (-25°C) -->
     <g transform="translate(83.965625 27.597656)scale(0.1 -0.1)">
      <defs>
       <path d="M 19.671875 64.796875 
L 19.671875 8.109375 
L 31.59375 8.109375 
Q 46.6875 8.109375 53.6875 14.9375 
Q 60.6875 21.78125 60.6875 36.53125 
Q 60.6875 51.171875 53.6875 57.984375 
Q 46.6875 64.796875 31.59375 64.796875 
z
M 9.8125 72.90625 
L 30.078125 72.90625 
Q 51.265625 72.90625 61.171875 64.09375 
Q 71.09375 55.28125 71.09375 36.53125 
Q 71.09375 17.671875 61.125 8.828125 
Q 51.171875 0 30.078125 0 
L 9.8125 0 
z
" id="DejaVuSans-68"/>
       <path d="M 34.28125 27.484375 
Q 23.390625 27.484375 19.1875 25 
Q 14.984375 22.515625 14.984375 16.5 
Q 14.984375 11.71875 18.140625 8.90625 
Q 21.296875 6.109375 26.703125 6.109375 
Q 34.1875 6.109375 38.703125 11.40625 
Q 43.21875 16.703125 43.21875 25.484375 
L 43.21875 27.484375 
z
M 52.203125 31.203125 
L 52.203125 0 
L 43.21875 0 
L 43.21875 8.296875 
Q 40.140625 3.328125 35.546875 0.953125 
Q 30.953125 -1.421875 24.3125 -1.421875 
Q 15.921875 -1.421875 10.953125 3.296875 
Q 6 8.015625 6 15.921875 
Q 6 25.140625 12.171875 29.828125 
Q 18.359375 34.515625 30.609375 34.515625 
L 43.21875 34.515625 
L 43.21875 35.40625 
Q 43.21875 41.609375 39.140625 45 
Q 35.0625 48.390625 27.6875 48.390625 
Q 23 48.390625 18.546875 47.265625 
Q 14.109375 46.140625 10.015625 43.890625 
L 10.015625 52.203125 
Q 14.9375 54.109375 19.578125 55.046875 
Q 24.21875 56 28.609375 56 
Q 40.484375 56 46.34375 49.84375 
Q 52.203125 43.703125 52.203125 31.203125 
z
" id="DejaVuSans-97"/>
       <path d="M 32.171875 -5.078125 
Q 28.375 -14.84375 24.75 -17.8125 
Q 21.140625 -20.796875 15.09375 -20.796875 
L 7.90625 -20.796875 
L 7.90625 -13.28125 
L 13.1875 -13.28125 
Q 16.890625 -13.28125 18.9375 -11.515625 
Q 21 -9.765625 23.484375 -3.21875 
L 25.09375 0.875 
L 2.984375 54.6875 
L 12.5 54.6875 
L 29.59375 11.921875 
L 46.6875 54.6875 
L 56.203125 54.6875 
z
" id="DejaVuSans-121"/>
       <path d="M 2.984375 54.6875 
L 12.5 54.6875 
L 29.59375 8.796875 
L 46.6875 54.6875 
L 56.203125 54.6875 
L 35.6875 0 
L 23.484375 0 
z
" id="DejaVuSans-118"/>
       <path d="M 31 75.875 
Q 24.46875 64.65625 21.28125 53.65625 
Q 18.109375 42.671875 18.109375 31.390625 
Q 18.109375 20.125 21.3125 9.0625 
Q 24.515625 -2 31 -13.1875 
L 23.1875 -13.1875 
Q 15.875 -1.703125 12.234375 9.375 
Q 8.59375 20.453125 8.59375 31.390625 
Q 8.59375 42.28125 12.203125 53.3125 
Q 15.828125 64.359375 23.1875 75.875 
z
" id="DejaVuSans-40"/>
       <path d="M 4.890625 31.390625 
L 31.203125 31.390625 
L 31.203125 23.390625 
L 4.890625 23.390625 
z
" id="DejaVuSans-45"/>
       <path d="M 10.796875 72.90625 
L 49.515625 72.90625 
L 49.515625 64.59375 
L 19.828125 64.59375 
L 19.828125 46.734375 
Q 21.96875 47.46875 24.109375 47.828125 
Q 26.265625 48.1875 28.421875 48.1875 
Q 40.625 48.1875 47.75 41.5 
Q 54.890625 34.8125 54.890625 23.390625 
Q 54.890625 11.625 47.5625 5.09375 
Q 40.234375 -1.421875 26.90625 -1.421875 
Q 22.3125 -1.421875 17.546875 -0.640625 
Q 12.796875 0.140625 7.71875 1.703125 
L 7.71875 11.625 
Q 12.109375 9.234375 16.796875 8.0625 
Q 21.484375 6.890625 26.703125 6.890625 
Q 35.15625 6.890625 40.078125 11.328125 
Q 45.015625 15.765625 45.015625 23.390625 
Q 45.015625 31 40.078125 35.4375 
Q 35.15625 39.890625 26.703125 39.890625 
Q 22.75 39.890625 18.8125 39.015625 
Q 14.890625 38.140625 10.796875 36.28125 
z
" id="DejaVuSans-53"/>
       <path d="M 25 67.921875 
Q 21.09375 67.921875 18.40625 65.203125 
Q 15.71875 62.5 15.71875 58.59375 
Q 15.71875 54.734375 18.40625 52.078125 
Q 21.09375 49.421875 25 49.421875 
Q 28.90625 49.421875 31.59375 52.078125 
Q 34.28125 54.734375 34.28125 58.59375 
Q 34.28125 62.453125 31.5625 65.1875 
Q 28.859375 67.921875 25 67.921875 
z
M 25 74.21875 
Q 28.125 74.21875 31 73.015625 
Q 33.890625 71.828125 35.984375 69.578125 
Q 38.234375 67.390625 39.359375 64.59375 
Q 40.484375 61.8125 40.484375 58.59375 
Q 40.484375 52.15625 35.96875 47.6875 
Q 31.453125 43.21875 24.90625 43.21875 
Q 18.3125 43.21875 13.90625 47.609375 
Q 9.515625 52 9.515625 58.59375 
Q 9.515625 65.140625 14 69.671875 
Q 18.5 74.21875 25 74.21875 
z
" id="DejaVuSans-176"/>
       <path d="M 64.40625 67.28125 
L 64.40625 56.890625 
Q 59.421875 61.53125 53.78125 63.8125 
Q 48.140625 66.109375 41.796875 66.109375 
Q 29.296875 66.109375 22.65625 58.46875 
Q 16.015625 50.828125 16.015625 36.375 
Q 16.015625 21.96875 22.65625 14.328125 
Q 29.296875 6.6875 41.796875 6.6875 
Q 48.140625 6.6875 53.78125 8.984375 
Q 59.421875 11.28125 64.40625 15.921875 
L 64.40625 5.609375 
Q 59.234375 2.09375 53.4375 0.328125 
Q 47.65625 -1.421875 41.21875 -1.421875 
Q 24.65625 -1.421875 15.125 8.703125 
Q 5.609375 18.84375 5.609375 36.375 
Q 5.609375 53.953125 15.125 64.078125 
Q 24.65625 74.21875 41.21875 74.21875 
Q 47.75 74.21875 53.53125 72.484375 
Q 59.328125 70.75 64.40625 67.28125 
z
" id="DejaVuSans-67"/>
       <path d="M 8.015625 75.875 
L 15.828125 75.875 
Q 23.140625 64.359375 26.78125 53.3125 
Q 30.421875 42.28125 30.421875 31.390625 
Q 30.421875 20.453125 26.78125 9.375 
Q 23.140625 -1.703125 15.828125 -13.1875 
L 8.015625 -13.1875 
Q 14.5 -2 17.703125 9.0625 
Q 20.90625 20.125 20.90625 31.390625 
Q 20.90625 42.671875 17.703125 53.65625 
Q 14.5 64.65625 8.015625 75.875 
z
" id="DejaVuSans-41"/>
      </defs>
      <use xlink:href="#DejaVuSans-68"/>
      <use x="77.001953" xlink:href="#DejaVuSans-97"/>
      <use x="138.28125" xlink:href="#DejaVuSans-105"/>
      <use x="166.064453" xlink:href="#DejaVuSans-108"/>
      <use x="193.847656" xlink:href="#DejaVuSans-121"/>
      <use x="253.027344" xlink:href="#DejaVuSans-32"/>
      <use x="284.814453" xlink:href="#DejaVuSans-83"/>
      <use x="348.291016" xlink:href="#DejaVuSans-73"/>
      <use x="377.783203" xlink:href="#DejaVuSans-84"/>
      <use x="438.867188" xlink:href="#DejaVuSans-32"/>
      <use x="470.654297" xlink:href="#DejaVuSans-118"/>
      <use x="529.833984" xlink:href="#DejaVuSans-97"/>
      <use x="591.113281" xlink:href="#DejaVuSans-114"/>
      <use x="632.226562" xlink:href="#DejaVuSans-105"/>
      <use x="660.009766" xlink:href="#DejaVuSans-97"/>
      <use x="721.289062" xlink:href="#DejaVuSans-98"/>
      <use x="784.765625" xlink:href="#DejaVuSans-105"/>
      <use x="812.548828" xlink:href="#DejaVuSans-108"/>
      <use x="840.332031" xlink:href="#DejaVuSans-105"/>
      <use x="868.115234" xlink:href="#DejaVuSans-116"/>
      <use x="907.324219" xlink:href="#DejaVuSans-121"/>
      <use x="966.503906" xlink:href="#DejaVuSans-32"/>
      <use x="998.291016" xlink:href="#DejaVuSans-40"/>
      <use x="1037.304688" xlink:href="#DejaVuSans-45"/>
      <use x="1073.388672" xlink:href="#DejaVuSans-50"/>
      <use x="1137.011719" xlink:href="#DejaVuSans-53"/>
      <use x="1200.634766" xlink:href="#DejaVuSans-176"/>
      <use x="1250.634766" xlink:href="#DejaVuSans-67"/>
      <use x="1320.458984" xlink:href="#DejaVuSans-41"/>
     </g>
    </g>
    <g id="line2d_31">
     <path d="M 55.965625 38.775781 
L 75.965625 38.775781 
" style="fill:none;stroke:#008000;stroke-dasharray:7.4,3.2;stroke-dashoffset:0;stroke-width:2;"/>
    </g>
    <g id="line2d_32"/>
    <g id="text_16">
     <!-- Open water error (5%) -->
     <g transform="translate(83.965625 42.275781)scale(0.1 -0.1)">
      <defs>
       <path d="M 39.40625 66.21875 
Q 28.65625 66.21875 22.328125 58.203125 
Q 16.015625 50.203125 16.015625 36.375 
Q 16.015625 22.609375 22.328125 14.59375 
Q 28.65625 6.59375 39.40625 6.59375 
Q 50.140625 6.59375 56.421875 14.59375 
Q 62.703125 22.609375 62.703125 36.375 
Q 62.703125 50.203125 56.421875 58.203125 
Q 50.140625 66.21875 39.40625 66.21875 
z
M 39.40625 74.21875 
Q 54.734375 74.21875 63.90625 63.9375 
Q 73.09375 53.65625 73.09375 36.375 
Q 73.09375 19.140625 63.90625 8.859375 
Q 54.734375 -1.421875 39.40625 -1.421875 
Q 24.03125 -1.421875 14.8125 8.828125 
Q 5.609375 19.09375 5.609375 36.375 
Q 5.609375 53.65625 14.8125 63.9375 
Q 24.03125 74.21875 39.40625 74.21875 
z
" id="DejaVuSans-79"/>
       <path d="M 18.109375 8.203125 
L 18.109375 -20.796875 
L 9.078125 -20.796875 
L 9.078125 54.6875 
L 18.109375 54.6875 
L 18.109375 46.390625 
Q 20.953125 51.265625 25.265625 53.625 
Q 29.59375 56 35.59375 56 
Q 45.5625 56 51.78125 48.09375 
Q 58.015625 40.1875 58.015625 27.296875 
Q 58.015625 14.40625 51.78125 6.484375 
Q 45.5625 -1.421875 35.59375 -1.421875 
Q 29.59375 -1.421875 25.265625 0.953125 
Q 20.953125 3.328125 18.109375 8.203125 
z
M 48.6875 27.296875 
Q 48.6875 37.203125 44.609375 42.84375 
Q 40.53125 48.484375 33.40625 48.484375 
Q 26.265625 48.484375 22.1875 42.84375 
Q 18.109375 37.203125 18.109375 27.296875 
Q 18.109375 17.390625 22.1875 11.75 
Q 26.265625 6.109375 33.40625 6.109375 
Q 40.53125 6.109375 44.609375 11.75 
Q 48.6875 17.390625 48.6875 27.296875 
z
" id="DejaVuSans-112"/>
       <path d="M 4.203125 54.6875 
L 13.1875 54.6875 
L 24.421875 12.015625 
L 35.59375 54.6875 
L 46.1875 54.6875 
L 57.421875 12.015625 
L 68.609375 54.6875 
L 77.59375 54.6875 
L 63.28125 0 
L 52.6875 0 
L 40.921875 44.828125 
L 29.109375 0 
L 18.5 0 
z
" id="DejaVuSans-119"/>
       <path d="M 72.703125 32.078125 
Q 68.453125 32.078125 66.03125 28.46875 
Q 63.625 24.859375 63.625 18.40625 
Q 63.625 12.0625 66.03125 8.421875 
Q 68.453125 4.78125 72.703125 4.78125 
Q 76.859375 4.78125 79.265625 8.421875 
Q 81.6875 12.0625 81.6875 18.40625 
Q 81.6875 24.8125 79.265625 28.4375 
Q 76.859375 32.078125 72.703125 32.078125 
z
M 72.703125 38.28125 
Q 80.421875 38.28125 84.953125 32.90625 
Q 89.5 27.546875 89.5 18.40625 
Q 89.5 9.28125 84.9375 3.921875 
Q 80.375 -1.421875 72.703125 -1.421875 
Q 64.890625 -1.421875 60.34375 3.921875 
Q 55.8125 9.28125 55.8125 18.40625 
Q 55.8125 27.59375 60.375 32.9375 
Q 64.9375 38.28125 72.703125 38.28125 
z
M 22.3125 68.015625 
Q 18.109375 68.015625 15.6875 64.375 
Q 13.28125 60.75 13.28125 54.390625 
Q 13.28125 47.953125 15.671875 44.328125 
Q 18.0625 40.71875 22.3125 40.71875 
Q 26.5625 40.71875 28.96875 44.328125 
Q 31.390625 47.953125 31.390625 54.390625 
Q 31.390625 60.6875 28.953125 64.34375 
Q 26.515625 68.015625 22.3125 68.015625 
z
M 66.40625 74.21875 
L 74.21875 74.21875 
L 28.609375 -1.421875 
L 20.796875 -1.421875 
z
M 22.3125 74.21875 
Q 30.03125 74.21875 34.609375 68.875 
Q 39.203125 63.53125 39.203125 54.390625 
Q 39.203125 45.171875 34.640625 39.84375 
Q 30.078125 34.515625 22.3125 34.515625 
Q 14.546875 34.515625 10.03125 39.859375 
Q 5.515625 45.21875 5.515625 54.390625 
Q 5.515625 63.484375 10.046875 68.84375 
Q 14.59375 74.21875 22.3125 74.21875 
z
" id="DejaVuSans-37"/>
      </defs>
      <use xlink:href="#DejaVuSans-79"/>
      <use x="78.710938" xlink:href="#DejaVuSans-112"/>
      <use x="142.1875" xlink:href="#DejaVuSans-101"/>
      <use x="203.710938" xlink:href="#DejaVuSans-110"/>
      <use x="267.089844" xlink:href="#DejaVuSans-32"/>
      <use x="298.876953" xlink:href="#DejaVuSans-119"/>
      <use x="380.664062" xlink:href="#DejaVuSans-97"/>
      <use x="441.943359" xlink:href="#DejaVuSans-116"/>
      <use x="481.152344" xlink:href="#DejaVuSans-101"/>
      <use x="542.675781" xlink:href="#DejaVuSans-114"/>
      <use x="583.789062" xlink:href="#DejaVuSans-32"/>
      <use x="615.576172" xlink:href="#DejaVuSans-101"/>
      <use x="677.099609" xlink:href="#DejaVuSans-114"/>
      <use x="716.462891" xlink:href="#DejaVuSans-114"/>
      <use x="755.326172" xlink:href="#DejaVuSans-111"/>
      <use x="816.507812" xlink:href="#DejaVuSans-114"/>
      <use x="857.621094" xlink:href="#DejaVuSans-32"/>
      <use x="889.408203" xlink:href="#DejaVuSans-40"/>
      <use x="928.421875" xlink:href="#DejaVuSans-53"/>
      <use x="992.044922" xlink:href="#DejaVuSans-37"/>
      <use x="1087.064453" xlink:href="#DejaVuSans-41"/>
     </g>
    </g>
    <g id="line2d_33">
     <path d="M 55.965625 53.453906 
L 75.965625 53.453906 
" style="fill:none;stroke:#ff0000;stroke-dasharray:7.4,3.2;stroke-dashoffset:0;stroke-width:2;"/>
    </g>
    <g id="line2d_34"/>
    <g id="text_17">
     <!-- retrieval error -->
     <g transform="translate(83.965625 56.953906)scale(0.1 -0.1)">
      <use xlink:href="#DejaVuSans-114"/>
      <use x="38.863281" xlink:href="#DejaVuSans-101"/>
      <use x="100.386719" xlink:href="#DejaVuSans-116"/>
      <use x="139.595703" xlink:href="#DejaVuSans-114"/>
      <use x="180.708984" xlink:href="#DejaVuSans-105"/>
      <use x="208.492188" xlink:href="#DejaVuSans-101"/>
      <use x="270.015625" xlink:href="#DejaVuSans-118"/>
      <use x="329.195312" xlink:href="#DejaVuSans-97"/>
      <use x="390.474609" xlink:href="#DejaVuSans-108"/>
      <use x="418.257812" xlink:href="#DejaVuSans-32"/>
      <use x="450.044922" xlink:href="#DejaVuSans-101"/>
      <use x="511.568359" xlink:href="#DejaVuSans-114"/>
      <use x="550.931641" xlink:href="#DejaVuSans-114"/>
      <use x="589.794922" xlink:href="#DejaVuSans-111"/>
      <use x="650.976562" xlink:href="#DejaVuSans-114"/>
     </g>
    </g>
    <g id="line2d_35">
     <path d="M 55.965625 68.132031 
L 75.965625 68.132031 
" style="fill:none;stroke:#000000;stroke-dasharray:7.4,3.2;stroke-dashoffset:0;stroke-width:2;"/>
    </g>
    <g id="line2d_36"/>
    <g id="text_18">
     <!-- Total uncertainty -->
     <g transform="translate(83.965625 71.632031)scale(0.1 -0.1)">
      <use xlink:href="#DejaVuSans-84"/>
      <use x="44.083984" xlink:href="#DejaVuSans-111"/>
      <use x="105.265625" xlink:href="#DejaVuSans-116"/>
      <use x="144.474609" xlink:href="#DejaVuSans-97"/>
      <use x="205.753906" xlink:href="#DejaVuSans-108"/>
      <use x="233.537109" xlink:href="#DejaVuSans-32"/>
      <use x="265.324219" xlink:href="#DejaVuSans-117"/>
      <use x="328.703125" xlink:href="#DejaVuSans-110"/>
      <use x="392.082031" xlink:href="#DejaVuSans-99"/>
      <use x="447.0625" xlink:href="#DejaVuSans-101"/>
      <use x="508.585938" xlink:href="#DejaVuSans-114"/>
      <use x="549.699219" xlink:href="#DejaVuSans-116"/>
      <use x="588.908203" xlink:href="#DejaVuSans-97"/>
      <use x="650.1875" xlink:href="#DejaVuSans-105"/>
      <use x="677.970703" xlink:href="#DejaVuSans-110"/>
      <use x="741.349609" xlink:href="#DejaVuSans-116"/>
      <use x="780.558594" xlink:href="#DejaVuSans-121"/>
     </g>
    </g>
   </g>
  </g>
  <g id="axes_2">
   <g id="patch_8">
    <path d="M 362.356929 253.607914 
L 604.965625 253.607914 
L 604.965625 10.999219 
L 362.356929 10.999219 
z
" style="fill:#ffffff;"/>
   </g>
   <g id="matplotlib.axis_3">
    <g id="xtick_7">
     <g id="line2d_37">
      <path clip-path="url(#p3fab775605)" d="M 362.356929 253.607914 
L 362.356929 10.999219 
" style="fill:none;stroke:#b0b0b0;stroke-dasharray:2.96,1.28;stroke-dashoffset:0;stroke-opacity:0.3;stroke-width:0.8;"/>
     </g>
     <g id="line2d_38">
      <g>
       <use style="stroke:#000000;stroke-width:0.8;" x="362.356929" xlink:href="#m1d497fcf32" y="253.607914"/>
      </g>
     </g>
     <g id="text_19">
      <!-- 0 -->
      <g transform="translate(359.175679 268.206352)scale(0.1 -0.1)">
       <use xlink:href="#DejaVuSans-48"/>
      </g>
     </g>
    </g>
    <g id="xtick_8">
     <g id="line2d_39">
      <path clip-path="url(#p3fab775605)" d="M 410.878668 253.607914 
L 410.878668 10.999219 
" style="fill:none;stroke:#b0b0b0;stroke-dasharray:2.96,1.28;stroke-dashoffset:0;stroke-opacity:0.3;stroke-width:0.8;"/>
     </g>
     <g id="line2d_40">
      <g>
       <use style="stroke:#000000;stroke-width:0.8;" x="410.878668" xlink:href="#m1d497fcf32" y="253.607914"/>
      </g>
     </g>
     <g id="text_20">
      <!-- 20 -->
      <g transform="translate(404.516168 268.206352)scale(0.1 -0.1)">
       <use xlink:href="#DejaVuSans-50"/>
       <use x="63.623047" xlink:href="#DejaVuSans-48"/>
      </g>
     </g>
    </g>
    <g id="xtick_9">
     <g id="line2d_41">
      <path clip-path="url(#p3fab775605)" d="M 459.400408 253.607914 
L 459.400408 10.999219 
" style="fill:none;stroke:#b0b0b0;stroke-dasharray:2.96,1.28;stroke-dashoffset:0;stroke-opacity:0.3;stroke-width:0.8;"/>
     </g>
     <g id="line2d_42">
      <g>
       <use style="stroke:#000000;stroke-width:0.8;" x="459.400408" xlink:href="#m1d497fcf32" y="253.607914"/>
      </g>
     </g>
     <g id="text_21">
      <!-- 40 -->
      <g transform="translate(453.037908 268.206352)scale(0.1 -0.1)">
       <use xlink:href="#DejaVuSans-52"/>
       <use x="63.623047" xlink:href="#DejaVuSans-48"/>
      </g>
     </g>
    </g>
    <g id="xtick_10">
     <g id="line2d_43">
      <path clip-path="url(#p3fab775605)" d="M 507.922147 253.607914 
L 507.922147 10.999219 
" style="fill:none;stroke:#b0b0b0;stroke-dasharray:2.96,1.28;stroke-dashoffset:0;stroke-opacity:0.3;stroke-width:0.8;"/>
     </g>
     <g id="line2d_44">
      <g>
       <use style="stroke:#000000;stroke-width:0.8;" x="507.922147" xlink:href="#m1d497fcf32" y="253.607914"/>
      </g>
     </g>
     <g id="text_22">
      <!-- 60 -->
      <g transform="translate(501.559647 268.206352)scale(0.1 -0.1)">
       <use xlink:href="#DejaVuSans-54"/>
       <use x="63.623047" xlink:href="#DejaVuSans-48"/>
      </g>
     </g>
    </g>
    <g id="xtick_11">
     <g id="line2d_45">
      <path clip-path="url(#p3fab775605)" d="M 556.443886 253.607914 
L 556.443886 10.999219 
" style="fill:none;stroke:#b0b0b0;stroke-dasharray:2.96,1.28;stroke-dashoffset:0;stroke-opacity:0.3;stroke-width:0.8;"/>
     </g>
     <g id="line2d_46">
      <g>
       <use style="stroke:#000000;stroke-width:0.8;" x="556.443886" xlink:href="#m1d497fcf32" y="253.607914"/>
      </g>
     </g>
     <g id="text_23">
      <!-- 80 -->
      <g transform="translate(550.081386 268.206352)scale(0.1 -0.1)">
       <use xlink:href="#DejaVuSans-56"/>
       <use x="63.623047" xlink:href="#DejaVuSans-48"/>
      </g>
     </g>
    </g>
    <g id="xtick_12">
     <g id="line2d_47">
      <path clip-path="url(#p3fab775605)" d="M 604.965625 253.607914 
L 604.965625 10.999219 
" style="fill:none;stroke:#b0b0b0;stroke-dasharray:2.96,1.28;stroke-dashoffset:0;stroke-opacity:0.3;stroke-width:0.8;"/>
     </g>
     <g id="line2d_48">
      <g>
       <use style="stroke:#000000;stroke-width:0.8;" x="604.965625" xlink:href="#m1d497fcf32" y="253.607914"/>
      </g>
     </g>
     <g id="text_24">
      <!-- 100 -->
      <g transform="translate(595.421875 268.206352)scale(0.1 -0.1)">
       <use xlink:href="#DejaVuSans-49"/>
       <use x="63.623047" xlink:href="#DejaVuSans-48"/>
       <use x="127.246094" xlink:href="#DejaVuSans-48"/>
      </g>
     </g>
    </g>
    <g id="text_25">
     <!-- Ice thickness [cm] -->
     <g transform="translate(438.04409 281.884477)scale(0.1 -0.1)">
      <use xlink:href="#DejaVuSans-73"/>
      <use x="29.492188" xlink:href="#DejaVuSans-99"/>
      <use x="84.472656" xlink:href="#DejaVuSans-101"/>
      <use x="145.996094" xlink:href="#DejaVuSans-32"/>
      <use x="177.783203" xlink:href="#DejaVuSans-116"/>
      <use x="216.992188" xlink:href="#DejaVuSans-104"/>
      <use x="280.371094" xlink:href="#DejaVuSans-105"/>
      <use x="308.154297" xlink:href="#DejaVuSans-99"/>
      <use x="363.134766" xlink:href="#DejaVuSans-107"/>
      <use x="421.044922" xlink:href="#DejaVuSans-110"/>
      <use x="484.423828" xlink:href="#DejaVuSans-101"/>
      <use x="545.947266" xlink:href="#DejaVuSans-115"/>
      <use x="598.046875" xlink:href="#DejaVuSans-115"/>
      <use x="650.146484" xlink:href="#DejaVuSans-32"/>
      <use x="681.933594" xlink:href="#DejaVuSans-91"/>
      <use x="720.947266" xlink:href="#DejaVuSans-99"/>
      <use x="775.927734" xlink:href="#DejaVuSans-109"/>
      <use x="873.339844" xlink:href="#DejaVuSans-93"/>
     </g>
    </g>
   </g>
   <g id="matplotlib.axis_4">
    <g id="ytick_7">
     <g id="line2d_49">
      <path clip-path="url(#p3fab775605)" d="M 362.356929 253.607914 
L 604.965625 253.607914 
" style="fill:none;stroke:#b0b0b0;stroke-dasharray:2.96,1.28;stroke-dashoffset:0;stroke-opacity:0.3;stroke-width:0.8;"/>
     </g>
     <g id="line2d_50">
      <g>
       <use style="stroke:#000000;stroke-width:0.8;" x="362.356929" xlink:href="#mdae64e72b4" y="253.607914"/>
      </g>
     </g>
     <g id="text_26">
      <!-- 0 -->
      <g transform="translate(348.994429 257.407133)scale(0.1 -0.1)">
       <use xlink:href="#DejaVuSans-48"/>
      </g>
     </g>
    </g>
    <g id="ytick_8">
     <g id="line2d_51">
      <path clip-path="url(#p3fab775605)" d="M 362.356929 205.086175 
L 604.965625 205.086175 
" style="fill:none;stroke:#b0b0b0;stroke-dasharray:2.96,1.28;stroke-dashoffset:0;stroke-opacity:0.3;stroke-width:0.8;"/>
     </g>
     <g id="line2d_52">
      <g>
       <use style="stroke:#000000;stroke-width:0.8;" x="362.356929" xlink:href="#mdae64e72b4" y="205.086175"/>
      </g>
     </g>
     <g id="text_27">
      <!-- 20 -->
      <g transform="translate(342.631929 208.885394)scale(0.1 -0.1)">
       <use xlink:href="#DejaVuSans-50"/>
       <use x="63.623047" xlink:href="#DejaVuSans-48"/>
      </g>
     </g>
    </g>
    <g id="ytick_9">
     <g id="line2d_53">
      <path clip-path="url(#p3fab775605)" d="M 362.356929 156.564436 
L 604.965625 156.564436 
" style="fill:none;stroke:#b0b0b0;stroke-dasharray:2.96,1.28;stroke-dashoffset:0;stroke-opacity:0.3;stroke-width:0.8;"/>
     </g>
     <g id="line2d_54">
      <g>
       <use style="stroke:#000000;stroke-width:0.8;" x="362.356929" xlink:href="#mdae64e72b4" y="156.564436"/>
      </g>
     </g>
     <g id="text_28">
      <!-- 40 -->
      <g transform="translate(342.631929 160.363655)scale(0.1 -0.1)">
       <use xlink:href="#DejaVuSans-52"/>
       <use x="63.623047" xlink:href="#DejaVuSans-48"/>
      </g>
     </g>
    </g>
    <g id="ytick_10">
     <g id="line2d_55">
      <path clip-path="url(#p3fab775605)" d="M 362.356929 108.042697 
L 604.965625 108.042697 
" style="fill:none;stroke:#b0b0b0;stroke-dasharray:2.96,1.28;stroke-dashoffset:0;stroke-opacity:0.3;stroke-width:0.8;"/>
     </g>
     <g id="line2d_56">
      <g>
       <use style="stroke:#000000;stroke-width:0.8;" x="362.356929" xlink:href="#mdae64e72b4" y="108.042697"/>
      </g>
     </g>
     <g id="text_29">
      <!-- 60 -->
      <g transform="translate(342.631929 111.841916)scale(0.1 -0.1)">
       <use xlink:href="#DejaVuSans-54"/>
       <use x="63.623047" xlink:href="#DejaVuSans-48"/>
      </g>
     </g>
    </g>
    <g id="ytick_11">
     <g id="line2d_57">
      <path clip-path="url(#p3fab775605)" d="M 362.356929 59.520958 
L 604.965625 59.520958 
" style="fill:none;stroke:#b0b0b0;stroke-dasharray:2.96,1.28;stroke-dashoffset:0;stroke-opacity:0.3;stroke-width:0.8;"/>
     </g>
     <g id="line2d_58">
      <g>
       <use style="stroke:#000000;stroke-width:0.8;" x="362.356929" xlink:href="#mdae64e72b4" y="59.520958"/>
      </g>
     </g>
     <g id="text_30">
      <!-- 80 -->
      <g transform="translate(342.631929 63.320177)scale(0.1 -0.1)">
       <use xlink:href="#DejaVuSans-56"/>
       <use x="63.623047" xlink:href="#DejaVuSans-48"/>
      </g>
     </g>
    </g>
    <g id="ytick_12">
     <g id="line2d_59">
      <path clip-path="url(#p3fab775605)" d="M 362.356929 10.999219 
L 604.965625 10.999219 
" style="fill:none;stroke:#b0b0b0;stroke-dasharray:2.96,1.28;stroke-dashoffset:0;stroke-opacity:0.3;stroke-width:0.8;"/>
     </g>
     <g id="line2d_60">
      <g>
       <use style="stroke:#000000;stroke-width:0.8;" x="362.356929" xlink:href="#mdae64e72b4" y="10.999219"/>
      </g>
     </g>
     <g id="text_31">
      <!-- 100 -->
      <g transform="translate(336.269429 14.798438)scale(0.1 -0.1)">
       <use xlink:href="#DejaVuSans-49"/>
       <use x="63.623047" xlink:href="#DejaVuSans-48"/>
       <use x="127.246094" xlink:href="#DejaVuSans-48"/>
      </g>
     </g>
    </g>
    <g id="text_32">
     <!-- Relative SIT error -->
     <g transform="translate(330.189742 175.451223)rotate(-90)scale(0.1 -0.1)">
      <defs>
       <path d="M 44.390625 34.1875 
Q 47.5625 33.109375 50.5625 29.59375 
Q 53.5625 26.078125 56.59375 19.921875 
L 66.609375 0 
L 56 0 
L 46.6875 18.703125 
Q 43.0625 26.03125 39.671875 28.421875 
Q 36.28125 30.8125 30.421875 30.8125 
L 19.671875 30.8125 
L 19.671875 0 
L 9.8125 0 
L 9.8125 72.90625 
L 32.078125 72.90625 
Q 44.578125 72.90625 50.734375 67.671875 
Q 56.890625 62.453125 56.890625 51.90625 
Q 56.890625 45.015625 53.6875 40.46875 
Q 50.484375 35.9375 44.390625 34.1875 
z
M 19.671875 64.796875 
L 19.671875 38.921875 
L 32.078125 38.921875 
Q 39.203125 38.921875 42.84375 42.21875 
Q 46.484375 45.515625 46.484375 51.90625 
Q 46.484375 58.296875 42.84375 61.546875 
Q 39.203125 64.796875 32.078125 64.796875 
z
" id="DejaVuSans-82"/>
      </defs>
      <use xlink:href="#DejaVuSans-82"/>
      <use x="64.982422" xlink:href="#DejaVuSans-101"/>
      <use x="126.505859" xlink:href="#DejaVuSans-108"/>
      <use x="154.289062" xlink:href="#DejaVuSans-97"/>
      <use x="215.568359" xlink:href="#DejaVuSans-116"/>
      <use x="254.777344" xlink:href="#DejaVuSans-105"/>
      <use x="282.560547" xlink:href="#DejaVuSans-118"/>
      <use x="341.740234" xlink:href="#DejaVuSans-101"/>
      <use x="403.263672" xlink:href="#DejaVuSans-32"/>
      <use x="435.050781" xlink:href="#DejaVuSans-83"/>
      <use x="498.527344" xlink:href="#DejaVuSans-73"/>
      <use x="528.019531" xlink:href="#DejaVuSans-84"/>
      <use x="589.103516" xlink:href="#DejaVuSans-32"/>
      <use x="620.890625" xlink:href="#DejaVuSans-101"/>
      <use x="682.414062" xlink:href="#DejaVuSans-114"/>
      <use x="721.777344" xlink:href="#DejaVuSans-114"/>
      <use x="760.640625" xlink:href="#DejaVuSans-111"/>
      <use x="821.822266" xlink:href="#DejaVuSans-114"/>
     </g>
    </g>
   </g>
   <g id="line2d_61">
    <path clip-path="url(#p3fab775605)" d="M 371.58334 -1 
L 372.061277 19.502891 
L 374.487364 79.12932 
L 376.913451 116.856123 
L 379.339538 142.282655 
L 381.765625 160.165361 
L 384.191712 173.119605 
L 386.617799 182.696287 
L 389.043886 189.873731 
L 391.469973 195.298933 
L 393.89606 199.416693 
L 396.322147 202.54168 
L 398.748234 204.904418 
L 401.174321 206.674656 
L 403.600408 207.985729 
L 406.026495 208.928864 
L 408.452582 209.582014 
L 410.878668 210.002628 
L 413.304755 210.232001 
L 415.730842 210.307128 
L 418.156929 210.252065 
L 420.583016 210.090071 
L 423.009103 209.831976 
L 425.43519 209.493516 
L 427.861277 209.077415 
L 430.287364 208.60078 
L 432.713451 208.060369 
L 435.139538 207.461414 
L 437.565625 206.810972 
L 439.991712 206.106209 
L 442.417799 205.347649 
L 444.843886 204.536347 
L 447.269973 203.671627 
L 449.69606 202.757603 
L 452.122147 201.790127 
L 454.548234 200.75694 
L 456.974321 199.672586 
L 459.400408 198.524591 
L 461.826495 197.316252 
L 464.252582 196.042774 
L 466.678668 194.700995 
L 469.104755 193.275134 
L 471.530842 191.785319 
L 473.956929 190.195813 
L 476.383016 188.52923 
L 478.809103 186.775326 
L 481.23519 184.899082 
L 483.661277 182.918107 
L 486.087364 180.817322 
L 488.513451 178.578216 
L 490.939538 176.208948 
L 493.365625 173.671015 
L 495.791712 170.949433 
L 498.217799 168.029294 
L 500.643886 164.898062 
L 503.069973 161.509277 
L 505.49606 157.837124 
L 507.922147 153.844998 
L 510.348234 149.466625 
L 512.774321 144.701546 
L 515.200408 139.470485 
L 517.626495 133.671166 
L 520.052582 127.343959 
L 522.478668 120.489554 
L 524.904755 113.176704 
L 527.330842 105.697565 
L 529.756929 98.459354 
L 532.183016 91.815732 
L 534.609103 86.161281 
L 537.03519 81.56764 
L 539.461277 77.998706 
L 541.887364 75.297651 
L 544.313451 73.36711 
L 546.739538 71.985997 
L 549.165625 71.046746 
L 551.591712 70.46014 
L 554.017799 70.092536 
L 556.443886 69.892244 
L 558.869973 69.794791 
L 561.29606 69.728563 
L 563.722147 69.62714 
L 566.148234 69.62617 
L 568.574321 69.472074 
L 571.000408 69.261942 
L 573.426495 68.927129 
L 575.852582 68.476176 
L 578.278668 67.933343 
L 580.704755 67.292811 
L 583.130842 66.462938 
L 585.556929 65.497609 
L 587.983016 64.452172 
L 590.409103 63.351026 
L 592.83519 62.093805 
L 595.261277 60.774592 
L 597.687364 59.403822 
L 600.113451 57.963383 
L 602.539538 56.542074 
L 604.965625 55.084966 
" style="fill:none;stroke:#1f77b4;stroke-linecap:square;stroke-width:1.5;"/>
   </g>
   <g id="patch_9">
    <path d="M 362.356929 253.607914 
L 362.356929 10.999219 
" style="fill:none;stroke:#000000;stroke-linecap:square;stroke-linejoin:miter;stroke-width:0.8;"/>
   </g>
   <g id="patch_10">
    <path d="M 604.965625 253.607914 
L 604.965625 10.999219 
" style="fill:none;stroke:#000000;stroke-linecap:square;stroke-linejoin:miter;stroke-width:0.8;"/>
   </g>
   <g id="patch_11">
    <path d="M 362.356929 253.607914 
L 604.965625 253.607914 
" style="fill:none;stroke:#000000;stroke-linecap:square;stroke-linejoin:miter;stroke-width:0.8;"/>
   </g>
   <g id="patch_12">
    <path d="M 362.356929 10.999219 
L 604.965625 10.999219 
" style="fill:none;stroke:#000000;stroke-linecap:square;stroke-linejoin:miter;stroke-width:0.8;"/>
   </g>
  </g>
 </g>
 <defs>
  <clipPath id="pedfc45c756">
   <rect height="242.608696" width="242.608696" x="46.965625" y="10.999219"/>
  </clipPath>
  <clipPath id="p3fab775605">
   <rect height="242.608696" width="242.608696" x="362.356929" y="10.999219"/>
  </clipPath>
 </defs>
</svg>