<?xml version="1.0" encoding="utf-8" standalone="no"?>
<!DOCTYPE svg PUBLIC "-//W3C//DTD SVG 1.1//EN"
  "http://www.w3.org/Graphics/SVG/1.1/DTD/svg11.dtd">
<!-- Created with matplotlib (https://matplotlib.org/) -->
<svg height="325.755469pt" version="1.1" viewBox="0 0 340.909375 325.755469" width="340.909375pt" xmlns="http://www.w3.org/2000/svg" xmlns:xlink="http://www.w3.org/1999/xlink">
 <metadata>
  <rdf:RDF xmlns:cc="http://creativecommons.org/ns#" xmlns:dc="http://purl.org/dc/elements/1.1/" xmlns:rdf="http://www.w3.org/1999/02/22-rdf-syntax-ns#">
   <cc:Work>
    <dc:type rdf:resource="http://purl.org/dc/dcmitype/StillImage"/>
    <dc:date>2023-02-09T19:19:27.018886</dc:date>
    <dc:format>image/svg+xml</dc:format>
    <dc:creator>
     <cc:Agent>
      <dc:title>Matplotlib v3.3.2, https://matplotlib.org/</dc:title>
     </cc:Agent>
    </dc:creator>
   </cc:Work>
  </rdf:RDF>
 </metadata>
 <defs>
  <style type="text/css">*{stroke-linecap:butt;stroke-linejoin:round;}</style>
 </defs>
 <g id="figure_1">
  <g id="patch_1">
   <path d="M 0 325.755469 
L 340.909375 325.755469 
L 340.909375 0 
L 0 0 
z
" style="fill:#ffffff;"/>
  </g>
  <g id="axes_1">
   <g id="patch_2">
    <path d="M 46.965625 288.199219 
L 324.165625 288.199219 
L 324.165625 10.999219 
L 46.965625 10.999219 
z
" style="fill:#ffffff;"/>
   </g>
   <g id="matplotlib.axis_1">
    <g id="xtick_1">
     <g id="line2d_1">
      <path clip-path="url(#pe8bc3057b1)" d="M 46.965625 288.199219 
L 46.965625 10.999219 
" style="fill:none;stroke:#b0b0b0;stroke-linecap:square;stroke-width:0.8;"/>
     </g>
     <g id="line2d_2">
      <defs>
       <path d="M 0 0 
L 0 3.5 
" id="m4272ea8072" style="stroke:#000000;stroke-width:0.8;"/>
      </defs>
      <g>
       <use style="stroke:#000000;stroke-width:0.8;" x="46.965625" xlink:href="#m4272ea8072" y="288.199219"/>
      </g>
     </g>
     <g id="text_1">
      <!-- 0 -->
      <g transform="translate(43.784375 302.797656)scale(0.1 -0.1)">
       <defs>
        <path d="M 31.78125 66.40625 
Q 24.171875 66.40625 20.328125 58.90625 
Q 16.5 51.421875 16.5 36.375 
Q 16.5 21.390625 20.328125 13.890625 
Q 24.171875 6.390625 31.78125 6.390625 
Q 39.453125 6.390625 43.28125 13.890625 
Q 47.125 21.390625 47.125 36.375 
Q 47.125 51.421875 43.28125 58.90625 
Q 39.453125 66.40625 31.78125 66.40625 
z
M 31.78125 74.21875 
Q 44.046875 74.21875 50.515625 64.515625 
Q 56.984375 54.828125 56.984375 36.375 
Q 56.984375 17.96875 50.515625 8.265625 
Q 44.046875 -1.421875 31.78125 -1.421875 
Q 19.53125 -1.421875 13.0625 8.265625 
Q 6.59375 17.96875 6.59375 36.375 
Q 6.59375 54.828125 13.0625 64.515625 
Q 19.53125 74.21875 31.78125 74.21875 
z
" id="DejaVuSans-48"/>
       </defs>
       <use xlink:href="#DejaVuSans-48"/>
      </g>
     </g>
    </g>
    <g id="xtick_2">
     <g id="line2d_3">
      <path clip-path="url(#pe8bc3057b1)" d="M 102.405625 288.199219 
L 102.405625 10.999219 
" style="fill:none;stroke:#b0b0b0;stroke-linecap:square;stroke-width:0.8;"/>
     </g>
     <g id="line2d_4">
      <g>
       <use style="stroke:#000000;stroke-width:0.8;" x="102.405625" xlink:href="#m4272ea8072" y="288.199219"/>
      </g>
     </g>
     <g id="text_2">
      <!-- 20 -->
      <g transform="translate(96.043125 302.797656)scale(0.1 -0.1)">
       <defs>
        <path d="M 19.1875 8.296875 
L 53.609375 8.296875 
L 53.609375 0 
L 7.328125 0 
L 7.328125 8.296875 
Q 12.9375 14.109375 22.625 23.890625 
Q 32.328125 33.6875 34.8125 36.53125 
Q 39.546875 41.84375 41.421875 45.53125 
Q 43.3125 49.21875 43.3125 52.78125 
Q 43.3125 58.59375 39.234375 62.25 
Q 35.15625 65.921875 28.609375 65.921875 
Q 23.96875 65.921875 18.8125 64.3125 
Q 13.671875 62.703125 7.8125 59.421875 
L 7.8125 69.390625 
Q 13.765625 71.78125 18.9375 73 
Q 24.125 74.21875 28.421875 74.21875 
Q 39.75 74.21875 46.484375 68.546875 
Q 53.21875 62.890625 53.21875 53.421875 
Q 53.21875 48.921875 51.53125 44.890625 
Q 49.859375 40.875 45.40625 35.40625 
Q 44.1875 33.984375 37.640625 27.21875 
Q 31.109375 20.453125 19.1875 8.296875 
z
" id="DejaVuSans-50"/>
       </defs>
       <use xlink:href="#DejaVuSans-50"/>
       <use x="63.623047" xlink:href="#DejaVuSans-48"/>
      </g>
     </g>
    </g>
    <g id="xtick_3">
     <g id="line2d_5">
      <path clip-path="url(#pe8bc3057b1)" d="M 157.845625 288.199219 
L 157.845625 10.999219 
" style="fill:none;stroke:#b0b0b0;stroke-linecap:square;stroke-width:0.8;"/>
     </g>
     <g id="line2d_6">
      <g>
       <use style="stroke:#000000;stroke-width:0.8;" x="157.845625" xlink:href="#m4272ea8072" y="288.199219"/>
      </g>
     </g>
     <g id="text_3">
      <!-- 40 -->
      <g transform="translate(151.483125 302.797656)scale(0.1 -0.1)">
       <defs>
        <path d="M 37.796875 64.3125 
L 12.890625 25.390625 
L 37.796875 25.390625 
z
M 35.203125 72.90625 
L 47.609375 72.90625 
L 47.609375 25.390625 
L 58.015625 25.390625 
L 58.015625 17.1875 
L 47.609375 17.1875 
L 47.609375 0 
L 37.796875 0 
L 37.796875 17.1875 
L 4.890625 17.1875 
L 4.890625 26.703125 
z
" id="DejaVuSans-52"/>
       </defs>
       <use xlink:href="#DejaVuSans-52"/>
       <use x="63.623047" xlink:href="#DejaVuSans-48"/>
      </g>
     </g>
    </g>
    <g id="xtick_4">
     <g id="line2d_7">
      <path clip-path="url(#pe8bc3057b1)" d="M 213.285625 288.199219 
L 213.285625 10.999219 
" style="fill:none;stroke:#b0b0b0;stroke-linecap:square;stroke-width:0.8;"/>
     </g>
     <g id="line2d_8">
      <g>
       <use style="stroke:#000000;stroke-width:0.8;" x="213.285625" xlink:href="#m4272ea8072" y="288.199219"/>
      </g>
     </g>
     <g id="text_4">
      <!-- 60 -->
      <g transform="translate(206.923125 302.797656)scale(0.1 -0.1)">
       <defs>
        <path d="M 33.015625 40.375 
Q 26.375 40.375 22.484375 35.828125 
Q 18.609375 31.296875 18.609375 23.390625 
Q 18.609375 15.53125 22.484375 10.953125 
Q 26.375 6.390625 33.015625 6.390625 
Q 39.65625 6.390625 43.53125 10.953125 
Q 47.40625 15.53125 47.40625 23.390625 
Q 47.40625 31.296875 43.53125 35.828125 
Q 39.65625 40.375 33.015625 40.375 
z
M 52.59375 71.296875 
L 52.59375 62.3125 
Q 48.875 64.0625 45.09375 64.984375 
Q 41.3125 65.921875 37.59375 65.921875 
Q 27.828125 65.921875 22.671875 59.328125 
Q 17.53125 52.734375 16.796875 39.40625 
Q 19.671875 43.65625 24.015625 45.921875 
Q 28.375 48.1875 33.59375 48.1875 
Q 44.578125 48.1875 50.953125 41.515625 
Q 57.328125 34.859375 57.328125 23.390625 
Q 57.328125 12.15625 50.6875 5.359375 
Q 44.046875 -1.421875 33.015625 -1.421875 
Q 20.359375 -1.421875 13.671875 8.265625 
Q 6.984375 17.96875 6.984375 36.375 
Q 6.984375 53.65625 15.1875 63.9375 
Q 23.390625 74.21875 37.203125 74.21875 
Q 40.921875 74.21875 44.703125 73.484375 
Q 48.484375 72.75 52.59375 71.296875 
z
" id="DejaVuSans-54"/>
       </defs>
       <use xlink:href="#DejaVuSans-54"/>
       <use x="63.623047" xlink:href="#DejaVuSans-48"/>
      </g>
     </g>
    </g>
    <g id="xtick_5">
     <g id="line2d_9">
      <path clip-path="url(#pe8bc3057b1)" d="M 268.725625 288.199219 
L 268.725625 10.999219 
" style="fill:none;stroke:#b0b0b0;stroke-linecap:square;stroke-width:0.8;"/>
     </g>
     <g id="line2d_10">
      <g>
       <use style="stroke:#000000;stroke-width:0.8;" x="268.725625" xlink:href="#m4272ea8072" y="288.199219"/>
      </g>
     </g>
     <g id="text_5">
      <!-- 80 -->
      <g transform="translate(262.363125 302.797656)scale(0.1 -0.1)">
       <defs>
        <path d="M 31.78125 34.625 
Q 24.75 34.625 20.71875 30.859375 
Q 16.703125 27.09375 16.703125 20.515625 
Q 16.703125 13.921875 20.71875 10.15625 
Q 24.75 6.390625 31.78125 6.390625 
Q 38.8125 6.390625 42.859375 10.171875 
Q 46.921875 13.96875 46.921875 20.515625 
Q 46.921875 27.09375 42.890625 30.859375 
Q 38.875 34.625 31.78125 34.625 
z
M 21.921875 38.8125 
Q 15.578125 40.375 12.03125 44.71875 
Q 8.5 49.078125 8.5 55.328125 
Q 8.5 64.0625 14.71875 69.140625 
Q 20.953125 74.21875 31.78125 74.21875 
Q 42.671875 74.21875 48.875 69.140625 
Q 55.078125 64.0625 55.078125 55.328125 
Q 55.078125 49.078125 51.53125 44.71875 
Q 48 40.375 41.703125 38.8125 
Q 48.828125 37.15625 52.796875 32.3125 
Q 56.78125 27.484375 56.78125 20.515625 
Q 56.78125 9.90625 50.3125 4.234375 
Q 43.84375 -1.421875 31.78125 -1.421875 
Q 19.734375 -1.421875 13.25 4.234375 
Q 6.78125 9.90625 6.78125 20.515625 
Q 6.78125 27.484375 10.78125 32.3125 
Q 14.796875 37.15625 21.921875 38.8125 
z
M 18.3125 54.390625 
Q 18.3125 48.734375 21.84375 45.5625 
Q 25.390625 42.390625 31.78125 42.390625 
Q 38.140625 42.390625 41.71875 45.5625 
Q 45.3125 48.734375 45.3125 54.390625 
Q 45.3125 60.0625 41.71875 63.234375 
Q 38.140625 66.40625 31.78125 66.40625 
Q 25.390625 66.40625 21.84375 63.234375 
Q 18.3125 60.0625 18.3125 54.390625 
z
" id="DejaVuSans-56"/>
       </defs>
       <use xlink:href="#DejaVuSans-56"/>
       <use x="63.623047" xlink:href="#DejaVuSans-48"/>
      </g>
     </g>
    </g>
    <g id="xtick_6">
     <g id="line2d_11">
      <path clip-path="url(#pe8bc3057b1)" d="M 324.165625 288.199219 
L 324.165625 10.999219 
" style="fill:none;stroke:#b0b0b0;stroke-linecap:square;stroke-width:0.8;"/>
     </g>
     <g id="line2d_12">
      <g>
       <use style="stroke:#000000;stroke-width:0.8;" x="324.165625" xlink:href="#m4272ea8072" y="288.199219"/>
      </g>
     </g>
     <g id="text_6">
      <!-- 100 -->
      <g transform="translate(314.621875 302.797656)scale(0.1 -0.1)">
       <defs>
        <path d="M 12.40625 8.296875 
L 28.515625 8.296875 
L 28.515625 63.921875 
L 10.984375 60.40625 
L 10.984375 69.390625 
L 28.421875 72.90625 
L 38.28125 72.90625 
L 38.28125 8.296875 
L 54.390625 8.296875 
L 54.390625 0 
L 12.40625 0 
z
" id="DejaVuSans-49"/>
       </defs>
       <use xlink:href="#DejaVuSans-49"/>
       <use x="63.623047" xlink:href="#DejaVuSans-48"/>
       <use x="127.246094" xlink:href="#DejaVuSans-48"/>
      </g>
     </g>
    </g>
    <g id="text_7">
     <!-- ice thickness RRDP [cm] -->
     <g transform="translate(124.632031 316.475781)scale(0.1 -0.1)">
      <defs>
       <path d="M 9.421875 54.6875 
L 18.40625 54.6875 
L 18.40625 0 
L 9.421875 0 
z
M 9.421875 75.984375 
L 18.40625 75.984375 
L 18.40625 64.59375 
L 9.421875 64.59375 
z
" id="DejaVuSans-105"/>
       <path d="M 48.78125 52.59375 
L 48.78125 44.1875 
Q 44.96875 46.296875 41.140625 47.34375 
Q 37.3125 48.390625 33.40625 48.390625 
Q 24.65625 48.390625 19.8125 42.84375 
Q 14.984375 37.3125 14.984375 27.296875 
Q 14.984375 17.28125 19.8125 11.734375 
Q 24.65625 6.203125 33.40625 6.203125 
Q 37.3125 6.203125 41.140625 7.25 
Q 44.96875 8.296875 48.78125 10.40625 
L 48.78125 2.09375 
Q 45.015625 0.34375 40.984375 -0.53125 
Q 36.96875 -1.421875 32.421875 -1.421875 
Q 20.0625 -1.421875 12.78125 6.34375 
Q 5.515625 14.109375 5.515625 27.296875 
Q 5.515625 40.671875 12.859375 48.328125 
Q 20.21875 56 33.015625 56 
Q 37.15625 56 41.109375 55.140625 
Q 45.0625 54.296875 48.78125 52.59375 
z
" id="DejaVuSans-99"/>
       <path d="M 56.203125 29.59375 
L 56.203125 25.203125 
L 14.890625 25.203125 
Q 15.484375 15.921875 20.484375 11.0625 
Q 25.484375 6.203125 34.421875 6.203125 
Q 39.59375 6.203125 44.453125 7.46875 
Q 49.3125 8.734375 54.109375 11.28125 
L 54.109375 2.78125 
Q 49.265625 0.734375 44.1875 -0.34375 
Q 39.109375 -1.421875 33.890625 -1.421875 
Q 20.796875 -1.421875 13.15625 6.1875 
Q 5.515625 13.8125 5.515625 26.8125 
Q 5.515625 40.234375 12.765625 48.109375 
Q 20.015625 56 32.328125 56 
Q 43.359375 56 49.78125 48.890625 
Q 56.203125 41.796875 56.203125 29.59375 
z
M 47.21875 32.234375 
Q 47.125 39.59375 43.09375 43.984375 
Q 39.0625 48.390625 32.421875 48.390625 
Q 24.90625 48.390625 20.390625 44.140625 
Q 15.875 39.890625 15.1875 32.171875 
z
" id="DejaVuSans-101"/>
       <path id="DejaVuSans-32"/>
       <path d="M 18.3125 70.21875 
L 18.3125 54.6875 
L 36.8125 54.6875 
L 36.8125 47.703125 
L 18.3125 47.703125 
L 18.3125 18.015625 
Q 18.3125 11.328125 20.140625 9.421875 
Q 21.96875 7.515625 27.59375 7.515625 
L 36.8125 7.515625 
L 36.8125 0 
L 27.59375 0 
Q 17.1875 0 13.234375 3.875 
Q 9.28125 7.765625 9.28125 18.015625 
L 9.28125 47.703125 
L 2.6875 47.703125 
L 2.6875 54.6875 
L 9.28125 54.6875 
L 9.28125 70.21875 
z
" id="DejaVuSans-116"/>
       <path d="M 54.890625 33.015625 
L 54.890625 0 
L 45.90625 0 
L 45.90625 32.71875 
Q 45.90625 40.484375 42.875 44.328125 
Q 39.84375 48.1875 33.796875 48.1875 
Q 26.515625 48.1875 22.3125 43.546875 
Q 18.109375 38.921875 18.109375 30.90625 
L 18.109375 0 
L 9.078125 0 
L 9.078125 75.984375 
L 18.109375 75.984375 
L 18.109375 46.1875 
Q 21.34375 51.125 25.703125 53.5625 
Q 30.078125 56 35.796875 56 
Q 45.21875 56 50.046875 50.171875 
Q 54.890625 44.34375 54.890625 33.015625 
z
" id="DejaVuSans-104"/>
       <path d="M 9.078125 75.984375 
L 18.109375 75.984375 
L 18.109375 31.109375 
L 44.921875 54.6875 
L 56.390625 54.6875 
L 27.390625 29.109375 
L 57.625 0 
L 45.90625 0 
L 18.109375 26.703125 
L 18.109375 0 
L 9.078125 0 
z
" id="DejaVuSans-107"/>
       <path d="M 54.890625 33.015625 
L 54.890625 0 
L 45.90625 0 
L 45.90625 32.71875 
Q 45.90625 40.484375 42.875 44.328125 
Q 39.84375 48.1875 33.796875 48.1875 
Q 26.515625 48.1875 22.3125 43.546875 
Q 18.109375 38.921875 18.109375 30.90625 
L 18.109375 0 
L 9.078125 0 
L 9.078125 54.6875 
L 18.109375 54.6875 
L 18.109375 46.1875 
Q 21.34375 51.125 25.703125 53.5625 
Q 30.078125 56 35.796875 56 
Q 45.21875 56 50.046875 50.171875 
Q 54.890625 44.34375 54.890625 33.015625 
z
" id="DejaVuSans-110"/>
       <path d="M 44.28125 53.078125 
L 44.28125 44.578125 
Q 40.484375 46.53125 36.375 47.5 
Q 32.28125 48.484375 27.875 48.484375 
Q 21.1875 48.484375 17.84375 46.4375 
Q 14.5 44.390625 14.5 40.28125 
Q 14.5 37.15625 16.890625 35.375 
Q 19.28125 33.59375 26.515625 31.984375 
L 29.59375 31.296875 
Q 39.15625 29.25 43.1875 25.515625 
Q 47.21875 21.78125 47.21875 15.09375 
Q 47.21875 7.46875 41.1875 3.015625 
Q 35.15625 -1.421875 24.609375 -1.421875 
Q 20.21875 -1.421875 15.453125 -0.5625 
Q 10.6875 0.296875 5.421875 2 
L 5.421875 11.28125 
Q 10.40625 8.6875 15.234375 7.390625 
Q 20.0625 6.109375 24.8125 6.109375 
Q 31.15625 6.109375 34.5625 8.28125 
Q 37.984375 10.453125 37.984375 14.40625 
Q 37.984375 18.0625 35.515625 20.015625 
Q 33.0625 21.96875 24.703125 23.78125 
L 21.578125 24.515625 
Q 13.234375 26.265625 9.515625 29.90625 
Q 5.8125 33.546875 5.8125 39.890625 
Q 5.8125 47.609375 11.28125 51.796875 
Q 16.75 56 26.8125 56 
Q 31.78125 56 36.171875 55.265625 
Q 40.578125 54.546875 44.28125 53.078125 
z
" id="DejaVuSans-115"/>
       <path d="M 44.390625 34.1875 
Q 47.5625 33.109375 50.5625 29.59375 
Q 53.5625 26.078125 56.59375 19.921875 
L 66.609375 0 
L 56 0 
L 46.6875 18.703125 
Q 43.0625 26.03125 39.671875 28.421875 
Q 36.28125 30.8125 30.421875 30.8125 
L 19.671875 30.8125 
L 19.671875 0 
L 9.8125 0 
L 9.8125 72.90625 
L 32.078125 72.90625 
Q 44.578125 72.90625 50.734375 67.671875 
Q 56.890625 62.453125 56.890625 51.90625 
Q 56.890625 45.015625 53.6875 40.46875 
Q 50.484375 35.9375 44.390625 34.1875 
z
M 19.671875 64.796875 
L 19.671875 38.921875 
L 32.078125 38.921875 
Q 39.203125 38.921875 42.84375 42.21875 
Q 46.484375 45.515625 46.484375 51.90625 
Q 46.484375 58.296875 42.84375 61.546875 
Q 39.203125 64.796875 32.078125 64.796875 
z
" id="DejaVuSans-82"/>
       <path d="M 19.671875 64.796875 
L 19.671875 8.109375 
L 31.59375 8.109375 
Q 46.6875 8.109375 53.6875 14.9375 
Q 60.6875 21.78125 60.6875 36.53125 
Q 60.6875 51.171875 53.6875 57.984375 
Q 46.6875 64.796875 31.59375 64.796875 
z
M 9.8125 72.90625 
L 30.078125 72.90625 
Q 51.265625 72.90625 61.171875 64.09375 
Q 71.09375 55.28125 71.09375 36.53125 
Q 71.09375 17.671875 61.125 8.828125 
Q 51.171875 0 30.078125 0 
L 9.8125 0 
z
" id="DejaVuSans-68"/>
       <path d="M 19.671875 64.796875 
L 19.671875 37.40625 
L 32.078125 37.40625 
Q 38.96875 37.40625 42.71875 40.96875 
Q 46.484375 44.53125 46.484375 51.125 
Q 46.484375 57.671875 42.71875 61.234375 
Q 38.96875 64.796875 32.078125 64.796875 
z
M 9.8125 72.90625 
L 32.078125 72.90625 
Q 44.34375 72.90625 50.609375 67.359375 
Q 56.890625 61.8125 56.890625 51.125 
Q 56.890625 40.328125 50.609375 34.8125 
Q 44.34375 29.296875 32.078125 29.296875 
L 19.671875 29.296875 
L 19.671875 0 
L 9.8125 0 
z
" id="DejaVuSans-80"/>
       <path d="M 8.59375 75.984375 
L 29.296875 75.984375 
L 29.296875 69 
L 17.578125 69 
L 17.578125 -6.203125 
L 29.296875 -6.203125 
L 29.296875 -13.1875 
L 8.59375 -13.1875 
z
" id="DejaVuSans-91"/>
       <path d="M 52 44.1875 
Q 55.375 50.25 60.0625 53.125 
Q 64.75 56 71.09375 56 
Q 79.640625 56 84.28125 50.015625 
Q 88.921875 44.046875 88.921875 33.015625 
L 88.921875 0 
L 79.890625 0 
L 79.890625 32.71875 
Q 79.890625 40.578125 77.09375 44.375 
Q 74.3125 48.1875 68.609375 48.1875 
Q 61.625 48.1875 57.5625 43.546875 
Q 53.515625 38.921875 53.515625 30.90625 
L 53.515625 0 
L 44.484375 0 
L 44.484375 32.71875 
Q 44.484375 40.625 41.703125 44.40625 
Q 38.921875 48.1875 33.109375 48.1875 
Q 26.21875 48.1875 22.15625 43.53125 
Q 18.109375 38.875 18.109375 30.90625 
L 18.109375 0 
L 9.078125 0 
L 9.078125 54.6875 
L 18.109375 54.6875 
L 18.109375 46.1875 
Q 21.1875 51.21875 25.484375 53.609375 
Q 29.78125 56 35.6875 56 
Q 41.65625 56 45.828125 52.96875 
Q 50 49.953125 52 44.1875 
z
" id="DejaVuSans-109"/>
       <path d="M 30.421875 75.984375 
L 30.421875 -13.1875 
L 9.71875 -13.1875 
L 9.71875 -6.203125 
L 21.390625 -6.203125 
L 21.390625 69 
L 9.71875 69 
L 9.71875 75.984375 
z
" id="DejaVuSans-93"/>
      </defs>
      <use xlink:href="#DejaVuSans-105"/>
      <use x="27.783203" xlink:href="#DejaVuSans-99"/>
      <use x="82.763672" xlink:href="#DejaVuSans-101"/>
      <use x="144.287109" xlink:href="#DejaVuSans-32"/>
      <use x="176.074219" xlink:href="#DejaVuSans-116"/>
      <use x="215.283203" xlink:href="#DejaVuSans-104"/>
      <use x="278.662109" xlink:href="#DejaVuSans-105"/>
      <use x="306.445312" xlink:href="#DejaVuSans-99"/>
      <use x="361.425781" xlink:href="#DejaVuSans-107"/>
      <use x="419.335938" xlink:href="#DejaVuSans-110"/>
      <use x="482.714844" xlink:href="#DejaVuSans-101"/>
      <use x="544.238281" xlink:href="#DejaVuSans-115"/>
      <use x="596.337891" xlink:href="#DejaVuSans-115"/>
      <use x="648.4375" xlink:href="#DejaVuSans-32"/>
      <use x="680.224609" xlink:href="#DejaVuSans-82"/>
      <use x="749.707031" xlink:href="#DejaVuSans-82"/>
      <use x="819.189453" xlink:href="#DejaVuSans-68"/>
      <use x="896.191406" xlink:href="#DejaVuSans-80"/>
      <use x="956.494141" xlink:href="#DejaVuSans-32"/>
      <use x="988.28125" xlink:href="#DejaVuSans-91"/>
      <use x="1027.294922" xlink:href="#DejaVuSans-99"/>
      <use x="1082.275391" xlink:href="#DejaVuSans-109"/>
      <use x="1179.6875" xlink:href="#DejaVuSans-93"/>
     </g>
    </g>
   </g>
   <g id="matplotlib.axis_2">
    <g id="ytick_1">
     <g id="line2d_13">
      <path clip-path="url(#pe8bc3057b1)" d="M 46.965625 288.199219 
L 324.165625 288.199219 
" style="fill:none;stroke:#b0b0b0;stroke-linecap:square;stroke-width:0.8;"/>
     </g>
     <g id="line2d_14">
      <defs>
       <path d="M 0 0 
L -3.5 0 
" id="m72afcaca62" style="stroke:#000000;stroke-width:0.8;"/>
      </defs>
      <g>
       <use style="stroke:#000000;stroke-width:0.8;" x="46.965625" xlink:href="#m72afcaca62" y="288.199219"/>
      </g>
     </g>
     <g id="text_8">
      <!-- 0 -->
      <g transform="translate(33.603125 291.998438)scale(0.1 -0.1)">
       <use xlink:href="#DejaVuSans-48"/>
      </g>
     </g>
    </g>
    <g id="ytick_2">
     <g id="line2d_15">
      <path clip-path="url(#pe8bc3057b1)" d="M 46.965625 232.759219 
L 324.165625 232.759219 
" style="fill:none;stroke:#b0b0b0;stroke-linecap:square;stroke-width:0.8;"/>
     </g>
     <g id="line2d_16">
      <g>
       <use style="stroke:#000000;stroke-width:0.8;" x="46.965625" xlink:href="#m72afcaca62" y="232.759219"/>
      </g>
     </g>
     <g id="text_9">
      <!-- 20 -->
      <g transform="translate(27.240625 236.558438)scale(0.1 -0.1)">
       <use xlink:href="#DejaVuSans-50"/>
       <use x="63.623047" xlink:href="#DejaVuSans-48"/>
      </g>
     </g>
    </g>
    <g id="ytick_3">
     <g id="line2d_17">
      <path clip-path="url(#pe8bc3057b1)" d="M 46.965625 177.319219 
L 324.165625 177.319219 
" style="fill:none;stroke:#b0b0b0;stroke-linecap:square;stroke-width:0.8;"/>
     </g>
     <g id="line2d_18">
      <g>
       <use style="stroke:#000000;stroke-width:0.8;" x="46.965625" xlink:href="#m72afcaca62" y="177.319219"/>
      </g>
     </g>
     <g id="text_10">
      <!-- 40 -->
      <g transform="translate(27.240625 181.118437)scale(0.1 -0.1)">
       <use xlink:href="#DejaVuSans-52"/>
       <use x="63.623047" xlink:href="#DejaVuSans-48"/>
      </g>
     </g>
    </g>
    <g id="ytick_4">
     <g id="line2d_19">
      <path clip-path="url(#pe8bc3057b1)" d="M 46.965625 121.879219 
L 324.165625 121.879219 
" style="fill:none;stroke:#b0b0b0;stroke-linecap:square;stroke-width:0.8;"/>
     </g>
     <g id="line2d_20">
      <g>
       <use style="stroke:#000000;stroke-width:0.8;" x="46.965625" xlink:href="#m72afcaca62" y="121.879219"/>
      </g>
     </g>
     <g id="text_11">
      <!-- 60 -->
      <g transform="translate(27.240625 125.678437)scale(0.1 -0.1)">
       <use xlink:href="#DejaVuSans-54"/>
       <use x="63.623047" xlink:href="#DejaVuSans-48"/>
      </g>
     </g>
    </g>
    <g id="ytick_5">
     <g id="line2d_21">
      <path clip-path="url(#pe8bc3057b1)" d="M 46.965625 66.439219 
L 324.165625 66.439219 
" style="fill:none;stroke:#b0b0b0;stroke-linecap:square;stroke-width:0.8;"/>
     </g>
     <g id="line2d_22">
      <g>
       <use style="stroke:#000000;stroke-width:0.8;" x="46.965625" xlink:href="#m72afcaca62" y="66.439219"/>
      </g>
     </g>
     <g id="text_12">
      <!-- 80 -->
      <g transform="translate(27.240625 70.238437)scale(0.1 -0.1)">
       <use xlink:href="#DejaVuSans-56"/>
       <use x="63.623047" xlink:href="#DejaVuSans-48"/>
      </g>
     </g>
    </g>
    <g id="ytick_6">
     <g id="line2d_23">
      <path clip-path="url(#pe8bc3057b1)" d="M 46.965625 10.999219 
L 324.165625 10.999219 
" style="fill:none;stroke:#b0b0b0;stroke-linecap:square;stroke-width:0.8;"/>
     </g>
     <g id="line2d_24">
      <g>
       <use style="stroke:#000000;stroke-width:0.8;" x="46.965625" xlink:href="#m72afcaca62" y="10.999219"/>
      </g>
     </g>
     <g id="text_13">
      <!-- 100 -->
      <g transform="translate(20.878125 14.798438)scale(0.1 -0.1)">
       <use xlink:href="#DejaVuSans-49"/>
       <use x="63.623047" xlink:href="#DejaVuSans-48"/>
       <use x="127.246094" xlink:href="#DejaVuSans-48"/>
      </g>
     </g>
    </g>
    <g id="text_14">
     <!-- ice thickness CIMR retrieval [cm] -->
     <g transform="translate(14.798438 231.976562)rotate(-90)scale(0.1 -0.1)">
      <defs>
       <path d="M 64.40625 67.28125 
L 64.40625 56.890625 
Q 59.421875 61.53125 53.78125 63.8125 
Q 48.140625 66.109375 41.796875 66.109375 
Q 29.296875 66.109375 22.65625 58.46875 
Q 16.015625 50.828125 16.015625 36.375 
Q 16.015625 21.96875 22.65625 14.328125 
Q 29.296875 6.6875 41.796875 6.6875 
Q 48.140625 6.6875 53.78125 8.984375 
Q 59.421875 11.28125 64.40625 15.921875 
L 64.40625 5.609375 
Q 59.234375 2.09375 53.4375 0.328125 
Q 47.65625 -1.421875 41.21875 -1.421875 
Q 24.65625 -1.421875 15.125 8.703125 
Q 5.609375 18.84375 5.609375 36.375 
Q 5.609375 53.953125 15.125 64.078125 
Q 24.65625 74.21875 41.21875 74.21875 
Q 47.75 74.21875 53.53125 72.484375 
Q 59.328125 70.75 64.40625 67.28125 
z
" id="DejaVuSans-67"/>
       <path d="M 9.8125 72.90625 
L 19.671875 72.90625 
L 19.671875 0 
L 9.8125 0 
z
" id="DejaVuSans-73"/>
       <path d="M 9.8125 72.90625 
L 24.515625 72.90625 
L 43.109375 23.296875 
L 61.8125 72.90625 
L 76.515625 72.90625 
L 76.515625 0 
L 66.890625 0 
L 66.890625 64.015625 
L 48.09375 14.015625 
L 38.1875 14.015625 
L 19.390625 64.015625 
L 19.390625 0 
L 9.8125 0 
z
" id="DejaVuSans-77"/>
       <path d="M 41.109375 46.296875 
Q 39.59375 47.171875 37.8125 47.578125 
Q 36.03125 48 33.890625 48 
Q 26.265625 48 22.1875 43.046875 
Q 18.109375 38.09375 18.109375 28.8125 
L 18.109375 0 
L 9.078125 0 
L 9.078125 54.6875 
L 18.109375 54.6875 
L 18.109375 46.1875 
Q 20.953125 51.171875 25.484375 53.578125 
Q 30.03125 56 36.53125 56 
Q 37.453125 56 38.578125 55.875 
Q 39.703125 55.765625 41.0625 55.515625 
z
" id="DejaVuSans-114"/>
       <path d="M 2.984375 54.6875 
L 12.5 54.6875 
L 29.59375 8.796875 
L 46.6875 54.6875 
L 56.203125 54.6875 
L 35.6875 0 
L 23.484375 0 
z
" id="DejaVuSans-118"/>
       <path d="M 34.28125 27.484375 
Q 23.390625 27.484375 19.1875 25 
Q 14.984375 22.515625 14.984375 16.5 
Q 14.984375 11.71875 18.140625 8.90625 
Q 21.296875 6.109375 26.703125 6.109375 
Q 34.1875 6.109375 38.703125 11.40625 
Q 43.21875 16.703125 43.21875 25.484375 
L 43.21875 27.484375 
z
M 52.203125 31.203125 
L 52.203125 0 
L 43.21875 0 
L 43.21875 8.296875 
Q 40.140625 3.328125 35.546875 0.953125 
Q 30.953125 -1.421875 24.3125 -1.421875 
Q 15.921875 -1.421875 10.953125 3.296875 
Q 6 8.015625 6 15.921875 
Q 6 25.140625 12.171875 29.828125 
Q 18.359375 34.515625 30.609375 34.515625 
L 43.21875 34.515625 
L 43.21875 35.40625 
Q 43.21875 41.609375 39.140625 45 
Q 35.0625 48.390625 27.6875 48.390625 
Q 23 48.390625 18.546875 47.265625 
Q 14.109375 46.140625 10.015625 43.890625 
L 10.015625 52.203125 
Q 14.9375 54.109375 19.578125 55.046875 
Q 24.21875 56 28.609375 56 
Q 40.484375 56 46.34375 49.84375 
Q 52.203125 43.703125 52.203125 31.203125 
z
" id="DejaVuSans-97"/>
       <path d="M 9.421875 75.984375 
L 18.40625 75.984375 
L 18.40625 0 
L 9.421875 0 
z
" id="DejaVuSans-108"/>
      </defs>
      <use xlink:href="#DejaVuSans-105"/>
      <use x="27.783203" xlink:href="#DejaVuSans-99"/>
      <use x="82.763672" xlink:href="#DejaVuSans-101"/>
      <use x="144.287109" xlink:href="#DejaVuSans-32"/>
      <use x="176.074219" xlink:href="#DejaVuSans-116"/>
      <use x="215.283203" xlink:href="#DejaVuSans-104"/>
      <use x="278.662109" xlink:href="#DejaVuSans-105"/>
      <use x="306.445312" xlink:href="#DejaVuSans-99"/>
      <use x="361.425781" xlink:href="#DejaVuSans-107"/>
      <use x="419.335938" xlink:href="#DejaVuSans-110"/>
      <use x="482.714844" xlink:href="#DejaVuSans-101"/>
      <use x="544.238281" xlink:href="#DejaVuSans-115"/>
      <use x="596.337891" xlink:href="#DejaVuSans-115"/>
      <use x="648.4375" xlink:href="#DejaVuSans-32"/>
      <use x="680.224609" xlink:href="#DejaVuSans-67"/>
      <use x="750.048828" xlink:href="#DejaVuSans-73"/>
      <use x="779.541016" xlink:href="#DejaVuSans-77"/>
      <use x="865.820312" xlink:href="#DejaVuSans-82"/>
      <use x="935.302734" xlink:href="#DejaVuSans-32"/>
      <use x="967.089844" xlink:href="#DejaVuSans-114"/>
      <use x="1005.953125" xlink:href="#DejaVuSans-101"/>
      <use x="1067.476562" xlink:href="#DejaVuSans-116"/>
      <use x="1106.685547" xlink:href="#DejaVuSans-114"/>
      <use x="1147.798828" xlink:href="#DejaVuSans-105"/>
      <use x="1175.582031" xlink:href="#DejaVuSans-101"/>
      <use x="1237.105469" xlink:href="#DejaVuSans-118"/>
      <use x="1296.285156" xlink:href="#DejaVuSans-97"/>
      <use x="1357.564453" xlink:href="#DejaVuSans-108"/>
      <use x="1385.347656" xlink:href="#DejaVuSans-32"/>
      <use x="1417.134766" xlink:href="#DejaVuSans-91"/>
      <use x="1456.148438" xlink:href="#DejaVuSans-99"/>
      <use x="1511.128906" xlink:href="#DejaVuSans-109"/>
      <use x="1608.541016" xlink:href="#DejaVuSans-93"/>
     </g>
    </g>
   </g>
   <g id="line2d_25">
    <path clip-path="url(#pe8bc3057b1)" d="M 96.861625 218.53502 
L 130.125625 190.290587 
L 74.685625 250.48748 
L 119.037625 197.880412 
L 77.457625 250.369253 
L 102.405625 229.929412 
L 99.633625 216.280501 
L 113.493625 203.546332 
L 66.369625 265.359528 
L 96.861625 211.238251 
L 130.125625 158.989171 
L 80.229625 240.697622 
L 96.861625 228.032352 
L 143.985625 152.497511 
L 80.229625 251.544518 
L 83.001625 234.33953 
L 132.897625 160.964917 
L 88.545625 244.941904 
L 105.177625 203.96793 
L 66.369625 263.202739 
L 66.369625 259.481883 
L 71.913625 260.371101 
L 132.897625 190.03456 
L 99.633625 220.980501 
L 152.301625 198.300953 
L 113.493625 203.396631 
L 88.545625 237.937132 
L 91.317625 234.417687 
L 116.265625 203.087176 
L 88.545625 230.24204 
L 88.545625 246.468941 
L 113.493625 233.40482 
L 99.633625 227.521885 
L 132.897625 184.435821 
L 132.897625 184.499299 
L 110.721625 197.065252 
L 105.177625 215.825049 
L 130.125625 165.15921 
L 160.617625 157.814832 
L 177.249625 124.463613 
L 113.493625 217.085611 
L 121.809625 176.536542 
L 107.949625 220.143653 
L 132.897625 184.599805 
L 157.845625 161.565839 
L 107.949625 222.080254 
L 99.633625 222.437316 
L 113.493625 219.384564 
L 105.177625 200.575044 
L 135.669625 169.877724 
L 166.161625 118.97067 
L 113.493625 201.417711 
L 113.493625 199.494335 
L 99.633625 232.271741 
L 160.617625 160.94217 
L 121.809625 196.311983 
L 105.177625 225.262077 
L 91.317625 229.69018 
L 94.089625 234.085619 
L 85.773625 243.107793 
L 135.669625 179.096283 
L 141.213625 120.443354 
L 155.073625 168.432547 
L 94.089625 223.907355 
L 88.545625 234.851319 
L 80.229625 247.957495 
L 102.405625 198.786029 
L 105.177625 203.622506 
L 130.125625 164.223442 
L 152.301625 149.109914 
L 80.229625 249.352419 
L 177.249625 144.444298 
L 130.125625 168.237882 
L 160.617625 118.454384 
L 174.477625 78.268725 
L 160.617625 136.171029 
L 130.125625 168.11939 
L 127.353625 179.189913 
L 155.073625 151.58396 
L 143.985625 163.938321 
L 163.389625 145.159481 
L 138.441625 129.237141 
L 171.705625 111.80403 
L 143.985625 117.483174 
L 121.809625 192.651431 
L 157.845625 81.563222 
L 168.933625 179.354955 
L 116.265625 219.187254 
L 88.545625 239.835911 
L 166.161625 11.955617 
L 177.249625 152.199166 
L 135.669625 165.863813 
L 152.301625 89.051482 
L 163.389625 163.561686 
L 113.493625 194.125703 
L 146.757625 171.174787 
L 132.897625 101.569298 
L 174.477625 124.785234 
L 180.021625 158.663318 
L 96.861625 215.948301 
L 132.897625 166.39544 
L 141.213625 164.609069 
L 119.037625 190.848663 
L 138.441625 171.720695 
L 177.249625 127.772921 
L 132.897625 140.089724 
L 132.897625 101.943817 
L 121.809625 167.154528 
L 113.493625 139.717321 
L 166.161625 126.560495 
L 157.845625 121.676939 
L 141.213625 113.97497 
L 185.565625 131.833382 
L 110.721625 202.45187 
L 80.229625 249.24887 
L 91.317625 253.355221 
L 113.493625 186.561797 
L 83.001625 239.270165 
L 88.545625 245.026409 
L 113.493625 204.569911 
L 159.160927 -1 
M 174.477625 -1 
L 174.477625 112.790051 
L 152.301625 146.181473 
L 130.125625 127.478807 
L 121.809625 179.566547 
L 163.389625 165.427933 
L 185.565625 77.820149 
L 110.721625 175.030003 
L 119.037625 212.788166 
L 124.581625 187.114583 
L 110.721625 212.816202 
L 107.949625 185.912737 
L 132.897625 208.563721 
L 171.705625 153.039188 
L 124.581625 213.945578 
L 138.441625 178.885219 
L 107.949625 193.19734 
L 124.581625 153.384084 
L 174.477625 108.687272 
L 116.265625 212.776 
L 171.705625 83.981724 
L 127.353625 175.38971 
L 141.213625 74.637797 
L 119.037625 208.089225 
L 85.773625 220.785307 
L 119.037625 177.502991 
L 163.389625 94.14716 
L 110.721625 217.162842 
L 130.125625 185.084881 
L 113.493625 172.581877 
L 130.125625 202.251386 
L 113.493625 200.696709 
L 143.985625 157.979874 
L 182.793625 40.757596 
L 162.594174 -1 
M 142.874175 -1 
L 152.301625 105.193879 
L 152.301625 105.193879 
" style="fill:none;"/>
    <defs>
     <path d="M 0 2.5 
C 0.663008 2.5 1.29895 2.236584 1.767767 1.767767 
C 2.236584 1.29895 2.5 0.663008 2.5 0 
C 2.5 -0.663008 2.236584 -1.29895 1.767767 -1.767767 
C 1.29895 -2.236584 0.663008 -2.5 0 -2.5 
C -0.663008 -2.5 -1.29895 -2.236584 -1.767767 -1.767767 
C -2.236584 -1.29895 -2.5 -0.663008 -2.5 0 
C -2.5 0.663008 -2.236584 1.29895 -1.767767 1.767767 
C -1.29895 2.236584 -0.663008 2.5 0 2.5 
z
" id="m1e75523b5e" style="stroke:#1f77b4;"/>
    </defs>
    <g clip-path="url(#pe8bc3057b1)">
     <use style="fill:#1f77b4;stroke:#1f77b4;" x="96.861625" xlink:href="#m1e75523b5e" y="218.53502"/>
     <use style="fill:#1f77b4;stroke:#1f77b4;" x="130.125625" xlink:href="#m1e75523b5e" y="190.290587"/>
     <use style="fill:#1f77b4;stroke:#1f77b4;" x="74.685625" xlink:href="#m1e75523b5e" y="250.48748"/>
     <use style="fill:#1f77b4;stroke:#1f77b4;" x="119.037625" xlink:href="#m1e75523b5e" y="197.880412"/>
     <use style="fill:#1f77b4;stroke:#1f77b4;" x="77.457625" xlink:href="#m1e75523b5e" y="250.369253"/>
     <use style="fill:#1f77b4;stroke:#1f77b4;" x="102.405625" xlink:href="#m1e75523b5e" y="229.929412"/>
     <use style="fill:#1f77b4;stroke:#1f77b4;" x="99.633625" xlink:href="#m1e75523b5e" y="216.280501"/>
     <use style="fill:#1f77b4;stroke:#1f77b4;" x="113.493625" xlink:href="#m1e75523b5e" y="203.546332"/>
     <use style="fill:#1f77b4;stroke:#1f77b4;" x="66.369625" xlink:href="#m1e75523b5e" y="265.359528"/>
     <use style="fill:#1f77b4;stroke:#1f77b4;" x="96.861625" xlink:href="#m1e75523b5e" y="211.238251"/>
     <use style="fill:#1f77b4;stroke:#1f77b4;" x="130.125625" xlink:href="#m1e75523b5e" y="158.989171"/>
     <use style="fill:#1f77b4;stroke:#1f77b4;" x="80.229625" xlink:href="#m1e75523b5e" y="240.697622"/>
     <use style="fill:#1f77b4;stroke:#1f77b4;" x="96.861625" xlink:href="#m1e75523b5e" y="228.032352"/>
     <use style="fill:#1f77b4;stroke:#1f77b4;" x="143.985625" xlink:href="#m1e75523b5e" y="152.497511"/>
     <use style="fill:#1f77b4;stroke:#1f77b4;" x="80.229625" xlink:href="#m1e75523b5e" y="251.544518"/>
     <use style="fill:#1f77b4;stroke:#1f77b4;" x="83.001625" xlink:href="#m1e75523b5e" y="234.33953"/>
     <use style="fill:#1f77b4;stroke:#1f77b4;" x="132.897625" xlink:href="#m1e75523b5e" y="160.964917"/>
     <use style="fill:#1f77b4;stroke:#1f77b4;" x="88.545625" xlink:href="#m1e75523b5e" y="244.941904"/>
     <use style="fill:#1f77b4;stroke:#1f77b4;" x="105.177625" xlink:href="#m1e75523b5e" y="203.96793"/>
     <use style="fill:#1f77b4;stroke:#1f77b4;" x="66.369625" xlink:href="#m1e75523b5e" y="263.202739"/>
     <use style="fill:#1f77b4;stroke:#1f77b4;" x="66.369625" xlink:href="#m1e75523b5e" y="259.481883"/>
     <use style="fill:#1f77b4;stroke:#1f77b4;" x="71.913625" xlink:href="#m1e75523b5e" y="260.371101"/>
     <use style="fill:#1f77b4;stroke:#1f77b4;" x="132.897625" xlink:href="#m1e75523b5e" y="190.03456"/>
     <use style="fill:#1f77b4;stroke:#1f77b4;" x="99.633625" xlink:href="#m1e75523b5e" y="220.980501"/>
     <use style="fill:#1f77b4;stroke:#1f77b4;" x="152.301625" xlink:href="#m1e75523b5e" y="198.300953"/>
     <use style="fill:#1f77b4;stroke:#1f77b4;" x="113.493625" xlink:href="#m1e75523b5e" y="203.396631"/>
     <use style="fill:#1f77b4;stroke:#1f77b4;" x="88.545625" xlink:href="#m1e75523b5e" y="237.937132"/>
     <use style="fill:#1f77b4;stroke:#1f77b4;" x="91.317625" xlink:href="#m1e75523b5e" y="234.417687"/>
     <use style="fill:#1f77b4;stroke:#1f77b4;" x="116.265625" xlink:href="#m1e75523b5e" y="203.087176"/>
     <use style="fill:#1f77b4;stroke:#1f77b4;" x="88.545625" xlink:href="#m1e75523b5e" y="230.24204"/>
     <use style="fill:#1f77b4;stroke:#1f77b4;" x="88.545625" xlink:href="#m1e75523b5e" y="246.468941"/>
     <use style="fill:#1f77b4;stroke:#1f77b4;" x="113.493625" xlink:href="#m1e75523b5e" y="233.40482"/>
     <use style="fill:#1f77b4;stroke:#1f77b4;" x="99.633625" xlink:href="#m1e75523b5e" y="227.521885"/>
     <use style="fill:#1f77b4;stroke:#1f77b4;" x="132.897625" xlink:href="#m1e75523b5e" y="184.435821"/>
     <use style="fill:#1f77b4;stroke:#1f77b4;" x="132.897625" xlink:href="#m1e75523b5e" y="184.499299"/>
     <use style="fill:#1f77b4;stroke:#1f77b4;" x="110.721625" xlink:href="#m1e75523b5e" y="197.065252"/>
     <use style="fill:#1f77b4;stroke:#1f77b4;" x="105.177625" xlink:href="#m1e75523b5e" y="215.825049"/>
     <use style="fill:#1f77b4;stroke:#1f77b4;" x="130.125625" xlink:href="#m1e75523b5e" y="165.15921"/>
     <use style="fill:#1f77b4;stroke:#1f77b4;" x="160.617625" xlink:href="#m1e75523b5e" y="157.814832"/>
     <use style="fill:#1f77b4;stroke:#1f77b4;" x="177.249625" xlink:href="#m1e75523b5e" y="124.463613"/>
     <use style="fill:#1f77b4;stroke:#1f77b4;" x="113.493625" xlink:href="#m1e75523b5e" y="217.085611"/>
     <use style="fill:#1f77b4;stroke:#1f77b4;" x="121.809625" xlink:href="#m1e75523b5e" y="176.536542"/>
     <use style="fill:#1f77b4;stroke:#1f77b4;" x="107.949625" xlink:href="#m1e75523b5e" y="220.143653"/>
     <use style="fill:#1f77b4;stroke:#1f77b4;" x="132.897625" xlink:href="#m1e75523b5e" y="184.599805"/>
     <use style="fill:#1f77b4;stroke:#1f77b4;" x="157.845625" xlink:href="#m1e75523b5e" y="161.565839"/>
     <use style="fill:#1f77b4;stroke:#1f77b4;" x="107.949625" xlink:href="#m1e75523b5e" y="222.080254"/>
     <use style="fill:#1f77b4;stroke:#1f77b4;" x="99.633625" xlink:href="#m1e75523b5e" y="222.437316"/>
     <use style="fill:#1f77b4;stroke:#1f77b4;" x="113.493625" xlink:href="#m1e75523b5e" y="219.384564"/>
     <use style="fill:#1f77b4;stroke:#1f77b4;" x="105.177625" xlink:href="#m1e75523b5e" y="200.575044"/>
     <use style="fill:#1f77b4;stroke:#1f77b4;" x="135.669625" xlink:href="#m1e75523b5e" y="169.877724"/>
     <use style="fill:#1f77b4;stroke:#1f77b4;" x="166.161625" xlink:href="#m1e75523b5e" y="118.97067"/>
     <use style="fill:#1f77b4;stroke:#1f77b4;" x="113.493625" xlink:href="#m1e75523b5e" y="201.417711"/>
     <use style="fill:#1f77b4;stroke:#1f77b4;" x="113.493625" xlink:href="#m1e75523b5e" y="199.494335"/>
     <use style="fill:#1f77b4;stroke:#1f77b4;" x="99.633625" xlink:href="#m1e75523b5e" y="232.271741"/>
     <use style="fill:#1f77b4;stroke:#1f77b4;" x="160.617625" xlink:href="#m1e75523b5e" y="160.94217"/>
     <use style="fill:#1f77b4;stroke:#1f77b4;" x="121.809625" xlink:href="#m1e75523b5e" y="196.311983"/>
     <use style="fill:#1f77b4;stroke:#1f77b4;" x="105.177625" xlink:href="#m1e75523b5e" y="225.262077"/>
     <use style="fill:#1f77b4;stroke:#1f77b4;" x="91.317625" xlink:href="#m1e75523b5e" y="229.69018"/>
     <use style="fill:#1f77b4;stroke:#1f77b4;" x="94.089625" xlink:href="#m1e75523b5e" y="234.085619"/>
     <use style="fill:#1f77b4;stroke:#1f77b4;" x="85.773625" xlink:href="#m1e75523b5e" y="243.107793"/>
     <use style="fill:#1f77b4;stroke:#1f77b4;" x="135.669625" xlink:href="#m1e75523b5e" y="179.096283"/>
     <use style="fill:#1f77b4;stroke:#1f77b4;" x="141.213625" xlink:href="#m1e75523b5e" y="120.443354"/>
     <use style="fill:#1f77b4;stroke:#1f77b4;" x="155.073625" xlink:href="#m1e75523b5e" y="168.432547"/>
     <use style="fill:#1f77b4;stroke:#1f77b4;" x="94.089625" xlink:href="#m1e75523b5e" y="223.907355"/>
     <use style="fill:#1f77b4;stroke:#1f77b4;" x="88.545625" xlink:href="#m1e75523b5e" y="234.851319"/>
     <use style="fill:#1f77b4;stroke:#1f77b4;" x="80.229625" xlink:href="#m1e75523b5e" y="247.957495"/>
     <use style="fill:#1f77b4;stroke:#1f77b4;" x="102.405625" xlink:href="#m1e75523b5e" y="198.786029"/>
     <use style="fill:#1f77b4;stroke:#1f77b4;" x="105.177625" xlink:href="#m1e75523b5e" y="203.622506"/>
     <use style="fill:#1f77b4;stroke:#1f77b4;" x="130.125625" xlink:href="#m1e75523b5e" y="164.223442"/>
     <use style="fill:#1f77b4;stroke:#1f77b4;" x="152.301625" xlink:href="#m1e75523b5e" y="149.109914"/>
     <use style="fill:#1f77b4;stroke:#1f77b4;" x="80.229625" xlink:href="#m1e75523b5e" y="249.352419"/>
     <use style="fill:#1f77b4;stroke:#1f77b4;" x="177.249625" xlink:href="#m1e75523b5e" y="144.444298"/>
     <use style="fill:#1f77b4;stroke:#1f77b4;" x="130.125625" xlink:href="#m1e75523b5e" y="168.237882"/>
     <use style="fill:#1f77b4;stroke:#1f77b4;" x="160.617625" xlink:href="#m1e75523b5e" y="118.454384"/>
     <use style="fill:#1f77b4;stroke:#1f77b4;" x="174.477625" xlink:href="#m1e75523b5e" y="78.268725"/>
     <use style="fill:#1f77b4;stroke:#1f77b4;" x="160.617625" xlink:href="#m1e75523b5e" y="136.171029"/>
     <use style="fill:#1f77b4;stroke:#1f77b4;" x="130.125625" xlink:href="#m1e75523b5e" y="168.11939"/>
     <use style="fill:#1f77b4;stroke:#1f77b4;" x="127.353625" xlink:href="#m1e75523b5e" y="179.189913"/>
     <use style="fill:#1f77b4;stroke:#1f77b4;" x="155.073625" xlink:href="#m1e75523b5e" y="151.58396"/>
     <use style="fill:#1f77b4;stroke:#1f77b4;" x="143.985625" xlink:href="#m1e75523b5e" y="163.938321"/>
     <use style="fill:#1f77b4;stroke:#1f77b4;" x="163.389625" xlink:href="#m1e75523b5e" y="145.159481"/>
     <use style="fill:#1f77b4;stroke:#1f77b4;" x="138.441625" xlink:href="#m1e75523b5e" y="129.237141"/>
     <use style="fill:#1f77b4;stroke:#1f77b4;" x="171.705625" xlink:href="#m1e75523b5e" y="111.80403"/>
     <use style="fill:#1f77b4;stroke:#1f77b4;" x="143.985625" xlink:href="#m1e75523b5e" y="117.483174"/>
     <use style="fill:#1f77b4;stroke:#1f77b4;" x="121.809625" xlink:href="#m1e75523b5e" y="192.651431"/>
     <use style="fill:#1f77b4;stroke:#1f77b4;" x="157.845625" xlink:href="#m1e75523b5e" y="81.563222"/>
     <use style="fill:#1f77b4;stroke:#1f77b4;" x="168.933625" xlink:href="#m1e75523b5e" y="179.354955"/>
     <use style="fill:#1f77b4;stroke:#1f77b4;" x="116.265625" xlink:href="#m1e75523b5e" y="219.187254"/>
     <use style="fill:#1f77b4;stroke:#1f77b4;" x="88.545625" xlink:href="#m1e75523b5e" y="239.835911"/>
     <use style="fill:#1f77b4;stroke:#1f77b4;" x="166.161625" xlink:href="#m1e75523b5e" y="11.955617"/>
     <use style="fill:#1f77b4;stroke:#1f77b4;" x="177.249625" xlink:href="#m1e75523b5e" y="152.199166"/>
     <use style="fill:#1f77b4;stroke:#1f77b4;" x="135.669625" xlink:href="#m1e75523b5e" y="165.863813"/>
     <use style="fill:#1f77b4;stroke:#1f77b4;" x="152.301625" xlink:href="#m1e75523b5e" y="89.051482"/>
     <use style="fill:#1f77b4;stroke:#1f77b4;" x="163.389625" xlink:href="#m1e75523b5e" y="163.561686"/>
     <use style="fill:#1f77b4;stroke:#1f77b4;" x="113.493625" xlink:href="#m1e75523b5e" y="194.125703"/>
     <use style="fill:#1f77b4;stroke:#1f77b4;" x="146.757625" xlink:href="#m1e75523b5e" y="171.174787"/>
     <use style="fill:#1f77b4;stroke:#1f77b4;" x="132.897625" xlink:href="#m1e75523b5e" y="101.569298"/>
     <use style="fill:#1f77b4;stroke:#1f77b4;" x="174.477625" xlink:href="#m1e75523b5e" y="124.785234"/>
     <use style="fill:#1f77b4;stroke:#1f77b4;" x="180.021625" xlink:href="#m1e75523b5e" y="158.663318"/>
     <use style="fill:#1f77b4;stroke:#1f77b4;" x="96.861625" xlink:href="#m1e75523b5e" y="215.948301"/>
     <use style="fill:#1f77b4;stroke:#1f77b4;" x="132.897625" xlink:href="#m1e75523b5e" y="166.39544"/>
     <use style="fill:#1f77b4;stroke:#1f77b4;" x="141.213625" xlink:href="#m1e75523b5e" y="164.609069"/>
     <use style="fill:#1f77b4;stroke:#1f77b4;" x="119.037625" xlink:href="#m1e75523b5e" y="190.848663"/>
     <use style="fill:#1f77b4;stroke:#1f77b4;" x="138.441625" xlink:href="#m1e75523b5e" y="171.720695"/>
     <use style="fill:#1f77b4;stroke:#1f77b4;" x="177.249625" xlink:href="#m1e75523b5e" y="127.772921"/>
     <use style="fill:#1f77b4;stroke:#1f77b4;" x="132.897625" xlink:href="#m1e75523b5e" y="140.089724"/>
     <use style="fill:#1f77b4;stroke:#1f77b4;" x="132.897625" xlink:href="#m1e75523b5e" y="101.943817"/>
     <use style="fill:#1f77b4;stroke:#1f77b4;" x="121.809625" xlink:href="#m1e75523b5e" y="167.154528"/>
     <use style="fill:#1f77b4;stroke:#1f77b4;" x="113.493625" xlink:href="#m1e75523b5e" y="139.717321"/>
     <use style="fill:#1f77b4;stroke:#1f77b4;" x="166.161625" xlink:href="#m1e75523b5e" y="126.560495"/>
     <use style="fill:#1f77b4;stroke:#1f77b4;" x="157.845625" xlink:href="#m1e75523b5e" y="121.676939"/>
     <use style="fill:#1f77b4;stroke:#1f77b4;" x="141.213625" xlink:href="#m1e75523b5e" y="113.97497"/>
     <use style="fill:#1f77b4;stroke:#1f77b4;" x="185.565625" xlink:href="#m1e75523b5e" y="131.833382"/>
     <use style="fill:#1f77b4;stroke:#1f77b4;" x="110.721625" xlink:href="#m1e75523b5e" y="202.45187"/>
     <use style="fill:#1f77b4;stroke:#1f77b4;" x="80.229625" xlink:href="#m1e75523b5e" y="249.24887"/>
     <use style="fill:#1f77b4;stroke:#1f77b4;" x="91.317625" xlink:href="#m1e75523b5e" y="253.355221"/>
     <use style="fill:#1f77b4;stroke:#1f77b4;" x="113.493625" xlink:href="#m1e75523b5e" y="186.561797"/>
     <use style="fill:#1f77b4;stroke:#1f77b4;" x="83.001625" xlink:href="#m1e75523b5e" y="239.270165"/>
     <use style="fill:#1f77b4;stroke:#1f77b4;" x="88.545625" xlink:href="#m1e75523b5e" y="245.026409"/>
     <use style="fill:#1f77b4;stroke:#1f77b4;" x="113.493625" xlink:href="#m1e75523b5e" y="204.569911"/>
     <use style="fill:#1f77b4;stroke:#1f77b4;" x="159.160927" xlink:href="#m1e75523b5e" y="-1"/>
     <use style="fill:#1f77b4;stroke:#1f77b4;" x="174.477625" xlink:href="#m1e75523b5e" y="-1"/>
     <use style="fill:#1f77b4;stroke:#1f77b4;" x="174.477625" xlink:href="#m1e75523b5e" y="112.790051"/>
     <use style="fill:#1f77b4;stroke:#1f77b4;" x="152.301625" xlink:href="#m1e75523b5e" y="146.181473"/>
     <use style="fill:#1f77b4;stroke:#1f77b4;" x="130.125625" xlink:href="#m1e75523b5e" y="127.478807"/>
     <use style="fill:#1f77b4;stroke:#1f77b4;" x="121.809625" xlink:href="#m1e75523b5e" y="179.566547"/>
     <use style="fill:#1f77b4;stroke:#1f77b4;" x="163.389625" xlink:href="#m1e75523b5e" y="165.427933"/>
     <use style="fill:#1f77b4;stroke:#1f77b4;" x="185.565625" xlink:href="#m1e75523b5e" y="77.820149"/>
     <use style="fill:#1f77b4;stroke:#1f77b4;" x="110.721625" xlink:href="#m1e75523b5e" y="175.030003"/>
     <use style="fill:#1f77b4;stroke:#1f77b4;" x="119.037625" xlink:href="#m1e75523b5e" y="212.788166"/>
     <use style="fill:#1f77b4;stroke:#1f77b4;" x="124.581625" xlink:href="#m1e75523b5e" y="187.114583"/>
     <use style="fill:#1f77b4;stroke:#1f77b4;" x="110.721625" xlink:href="#m1e75523b5e" y="212.816202"/>
     <use style="fill:#1f77b4;stroke:#1f77b4;" x="107.949625" xlink:href="#m1e75523b5e" y="185.912737"/>
     <use style="fill:#1f77b4;stroke:#1f77b4;" x="132.897625" xlink:href="#m1e75523b5e" y="208.563721"/>
     <use style="fill:#1f77b4;stroke:#1f77b4;" x="171.705625" xlink:href="#m1e75523b5e" y="153.039188"/>
     <use style="fill:#1f77b4;stroke:#1f77b4;" x="124.581625" xlink:href="#m1e75523b5e" y="213.945578"/>
     <use style="fill:#1f77b4;stroke:#1f77b4;" x="138.441625" xlink:href="#m1e75523b5e" y="178.885219"/>
     <use style="fill:#1f77b4;stroke:#1f77b4;" x="107.949625" xlink:href="#m1e75523b5e" y="193.19734"/>
     <use style="fill:#1f77b4;stroke:#1f77b4;" x="124.581625" xlink:href="#m1e75523b5e" y="153.384084"/>
     <use style="fill:#1f77b4;stroke:#1f77b4;" x="174.477625" xlink:href="#m1e75523b5e" y="108.687272"/>
     <use style="fill:#1f77b4;stroke:#1f77b4;" x="116.265625" xlink:href="#m1e75523b5e" y="212.776"/>
     <use style="fill:#1f77b4;stroke:#1f77b4;" x="171.705625" xlink:href="#m1e75523b5e" y="83.981724"/>
     <use style="fill:#1f77b4;stroke:#1f77b4;" x="127.353625" xlink:href="#m1e75523b5e" y="175.38971"/>
     <use style="fill:#1f77b4;stroke:#1f77b4;" x="141.213625" xlink:href="#m1e75523b5e" y="74.637797"/>
     <use style="fill:#1f77b4;stroke:#1f77b4;" x="119.037625" xlink:href="#m1e75523b5e" y="208.089225"/>
     <use style="fill:#1f77b4;stroke:#1f77b4;" x="85.773625" xlink:href="#m1e75523b5e" y="220.785307"/>
     <use style="fill:#1f77b4;stroke:#1f77b4;" x="119.037625" xlink:href="#m1e75523b5e" y="177.502991"/>
     <use style="fill:#1f77b4;stroke:#1f77b4;" x="163.389625" xlink:href="#m1e75523b5e" y="94.14716"/>
     <use style="fill:#1f77b4;stroke:#1f77b4;" x="110.721625" xlink:href="#m1e75523b5e" y="217.162842"/>
     <use style="fill:#1f77b4;stroke:#1f77b4;" x="130.125625" xlink:href="#m1e75523b5e" y="185.084881"/>
     <use style="fill:#1f77b4;stroke:#1f77b4;" x="113.493625" xlink:href="#m1e75523b5e" y="172.581877"/>
     <use style="fill:#1f77b4;stroke:#1f77b4;" x="130.125625" xlink:href="#m1e75523b5e" y="202.251386"/>
     <use style="fill:#1f77b4;stroke:#1f77b4;" x="113.493625" xlink:href="#m1e75523b5e" y="200.696709"/>
     <use style="fill:#1f77b4;stroke:#1f77b4;" x="143.985625" xlink:href="#m1e75523b5e" y="157.979874"/>
     <use style="fill:#1f77b4;stroke:#1f77b4;" x="182.793625" xlink:href="#m1e75523b5e" y="40.757596"/>
     <use style="fill:#1f77b4;stroke:#1f77b4;" x="162.594174" xlink:href="#m1e75523b5e" y="-1"/>
     <use style="fill:#1f77b4;stroke:#1f77b4;" x="142.874175" xlink:href="#m1e75523b5e" y="-1"/>
     <use style="fill:#1f77b4;stroke:#1f77b4;" x="152.301625" xlink:href="#m1e75523b5e" y="105.193879"/>
    </g>
   </g>
   <g id="line2d_26">
    <path clip-path="url(#pe8bc3057b1)" d="M 46.965625 288.199219 
L 324.165625 10.999219 
" style="fill:none;stroke:#000000;stroke-linecap:square;stroke-width:1.5;"/>
   </g>
   <g id="line2d_27">
    <path clip-path="url(#pe8bc3057b1)" d="M 46.965625 296.422323 
L 49.737625 292.26339 
L 52.509625 288.104457 
L 55.281625 283.945524 
L 58.053625 279.786591 
L 60.825625 275.627658 
L 63.597625 271.468725 
L 66.369625 267.309792 
L 69.141625 263.150859 
L 71.913625 258.991926 
L 74.685625 254.832992 
L 77.457625 250.674059 
L 80.229625 246.515126 
L 83.001625 242.356193 
L 85.773625 238.19726 
L 88.545625 234.038327 
L 91.317625 229.879394 
L 94.089625 225.720461 
L 96.861625 221.561528 
L 99.633625 217.402595 
L 102.405625 213.243662 
L 105.177625 209.084728 
L 107.949625 204.925795 
L 110.721625 200.766862 
L 113.493625 196.607929 
L 116.265625 192.448996 
L 119.037625 188.290063 
L 121.809625 184.13113 
L 124.581625 179.972197 
L 127.353625 175.813264 
L 130.125625 171.654331 
L 132.897625 167.495398 
L 135.669625 163.336465 
L 138.441625 159.177531 
L 141.213625 155.018598 
L 143.985625 150.859665 
L 146.757625 146.700732 
L 149.529625 142.541799 
L 152.301625 138.382866 
L 155.073625 134.223933 
L 157.845625 130.065 
L 160.617625 125.906067 
L 163.389625 121.747134 
L 166.161625 117.588201 
L 168.933625 113.429267 
L 171.705625 109.270334 
L 174.477625 105.111401 
L 177.249625 100.952468 
L 180.021625 96.793535 
L 182.793625 92.634602 
L 185.565625 88.475669 
L 188.337625 84.316736 
L 191.109625 80.157803 
L 193.881625 75.99887 
L 196.653625 71.839937 
L 199.425625 67.681004 
L 202.197625 63.52207 
L 204.969625 59.363137 
L 207.741625 55.204204 
L 210.513625 51.045271 
L 213.285625 46.886338 
L 216.057625 42.727405 
L 218.829625 38.568472 
L 221.601625 34.409539 
L 224.373625 30.250606 
L 227.145625 26.091673 
L 229.917625 21.93274 
L 232.689625 17.773806 
L 235.461625 13.614873 
L 238.233625 9.45594 
L 241.005625 5.297007 
L 243.777625 1.138074 
L 245.202688 -1 
" style="fill:none;stroke:#ff7f0e;stroke-linecap:square;stroke-width:1.5;"/>
   </g>
   <g id="patch_3">
    <path d="M 46.965625 288.199219 
L 46.965625 10.999219 
" style="fill:none;stroke:#000000;stroke-linecap:square;stroke-linejoin:miter;stroke-width:0.8;"/>
   </g>
   <g id="patch_4">
    <path d="M 324.165625 288.199219 
L 324.165625 10.999219 
" style="fill:none;stroke:#000000;stroke-linecap:square;stroke-linejoin:miter;stroke-width:0.8;"/>
   </g>
   <g id="patch_5">
    <path d="M 46.965625 288.199219 
L 324.165625 288.199219 
" style="fill:none;stroke:#000000;stroke-linecap:square;stroke-linejoin:miter;stroke-width:0.8;"/>
   </g>
   <g id="patch_6">
    <path d="M 46.965625 10.999219 
L 324.165625 10.999219 
" style="fill:none;stroke:#000000;stroke-linecap:square;stroke-linejoin:miter;stroke-width:0.8;"/>
   </g>
   <g id="text_15">
    <!-- y=mx+b -->
    <g transform="translate(204.545625 227.010938)scale(0.1 -0.1)">
     <defs>
      <path d="M 32.171875 -5.078125 
Q 28.375 -14.84375 24.75 -17.8125 
Q 21.140625 -20.796875 15.09375 -20.796875 
L 7.90625 -20.796875 
L 7.90625 -13.28125 
L 13.1875 -13.28125 
Q 16.890625 -13.28125 18.9375 -11.515625 
Q 21 -9.765625 23.484375 -3.21875 
L 25.09375 0.875 
L 2.984375 54.6875 
L 12.5 54.6875 
L 29.59375 11.921875 
L 46.6875 54.6875 
L 56.203125 54.6875 
z
" id="DejaVuSans-121"/>
      <path d="M 10.59375 45.40625 
L 73.1875 45.40625 
L 73.1875 37.203125 
L 10.59375 37.203125 
z
M 10.59375 25.484375 
L 73.1875 25.484375 
L 73.1875 17.1875 
L 10.59375 17.1875 
z
" id="DejaVuSans-61"/>
      <path d="M 54.890625 54.6875 
L 35.109375 28.078125 
L 55.90625 0 
L 45.3125 0 
L 29.390625 21.484375 
L 13.484375 0 
L 2.875 0 
L 24.125 28.609375 
L 4.6875 54.6875 
L 15.28125 54.6875 
L 29.78125 35.203125 
L 44.28125 54.6875 
z
" id="DejaVuSans-120"/>
      <path d="M 46 62.703125 
L 46 35.5 
L 73.1875 35.5 
L 73.1875 27.203125 
L 46 27.203125 
L 46 0 
L 37.796875 0 
L 37.796875 27.203125 
L 10.59375 27.203125 
L 10.59375 35.5 
L 37.796875 35.5 
L 37.796875 62.703125 
z
" id="DejaVuSans-43"/>
      <path d="M 48.6875 27.296875 
Q 48.6875 37.203125 44.609375 42.84375 
Q 40.53125 48.484375 33.40625 48.484375 
Q 26.265625 48.484375 22.1875 42.84375 
Q 18.109375 37.203125 18.109375 27.296875 
Q 18.109375 17.390625 22.1875 11.75 
Q 26.265625 6.109375 33.40625 6.109375 
Q 40.53125 6.109375 44.609375 11.75 
Q 48.6875 17.390625 48.6875 27.296875 
z
M 18.109375 46.390625 
Q 20.953125 51.265625 25.265625 53.625 
Q 29.59375 56 35.59375 56 
Q 45.5625 56 51.78125 48.09375 
Q 58.015625 40.1875 58.015625 27.296875 
Q 58.015625 14.40625 51.78125 6.484375 
Q 45.5625 -1.421875 35.59375 -1.421875 
Q 29.59375 -1.421875 25.265625 0.953125 
Q 20.953125 3.328125 18.109375 8.203125 
L 18.109375 0 
L 9.078125 0 
L 9.078125 75.984375 
L 18.109375 75.984375 
z
" id="DejaVuSans-98"/>
     </defs>
     <use xlink:href="#DejaVuSans-121"/>
     <use x="59.179688" xlink:href="#DejaVuSans-61"/>
     <use x="142.96875" xlink:href="#DejaVuSans-109"/>
     <use x="240.380859" xlink:href="#DejaVuSans-120"/>
     <use x="299.560547" xlink:href="#DejaVuSans-43"/>
     <use x="383.349609" xlink:href="#DejaVuSans-98"/>
    </g>
    <!--  m=1.50 -->
    <g transform="translate(204.545625 238.20875)scale(0.1 -0.1)">
     <defs>
      <path d="M 10.6875 12.40625 
L 21 12.40625 
L 21 0 
L 10.6875 0 
z
" id="DejaVuSans-46"/>
      <path d="M 10.796875 72.90625 
L 49.515625 72.90625 
L 49.515625 64.59375 
L 19.828125 64.59375 
L 19.828125 46.734375 
Q 21.96875 47.46875 24.109375 47.828125 
Q 26.265625 48.1875 28.421875 48.1875 
Q 40.625 48.1875 47.75 41.5 
Q 54.890625 34.8125 54.890625 23.390625 
Q 54.890625 11.625 47.5625 5.09375 
Q 40.234375 -1.421875 26.90625 -1.421875 
Q 22.3125 -1.421875 17.546875 -0.640625 
Q 12.796875 0.140625 7.71875 1.703125 
L 7.71875 11.625 
Q 12.109375 9.234375 16.796875 8.0625 
Q 21.484375 6.890625 26.703125 6.890625 
Q 35.15625 6.890625 40.078125 11.328125 
Q 45.015625 15.765625 45.015625 23.390625 
Q 45.015625 31 40.078125 35.4375 
Q 35.15625 39.890625 26.703125 39.890625 
Q 22.75 39.890625 18.8125 39.015625 
Q 14.890625 38.140625 10.796875 36.28125 
z
" id="DejaVuSans-53"/>
     </defs>
     <use xlink:href="#DejaVuSans-32"/>
     <use x="31.787109" xlink:href="#DejaVuSans-109"/>
     <use x="129.199219" xlink:href="#DejaVuSans-61"/>
     <use x="212.988281" xlink:href="#DejaVuSans-49"/>
     <use x="276.611328" xlink:href="#DejaVuSans-46"/>
     <use x="308.398438" xlink:href="#DejaVuSans-53"/>
     <use x="372.021484" xlink:href="#DejaVuSans-48"/>
    </g>
    <!-- b=-2.97 -->
    <g transform="translate(204.545625 249.406563)scale(0.1 -0.1)">
     <defs>
      <path d="M 4.890625 31.390625 
L 31.203125 31.390625 
L 31.203125 23.390625 
L 4.890625 23.390625 
z
" id="DejaVuSans-45"/>
      <path d="M 10.984375 1.515625 
L 10.984375 10.5 
Q 14.703125 8.734375 18.5 7.8125 
Q 22.3125 6.890625 25.984375 6.890625 
Q 35.75 6.890625 40.890625 13.453125 
Q 46.046875 20.015625 46.78125 33.40625 
Q 43.953125 29.203125 39.59375 26.953125 
Q 35.25 24.703125 29.984375 24.703125 
Q 19.046875 24.703125 12.671875 31.3125 
Q 6.296875 37.9375 6.296875 49.421875 
Q 6.296875 60.640625 12.9375 67.421875 
Q 19.578125 74.21875 30.609375 74.21875 
Q 43.265625 74.21875 49.921875 64.515625 
Q 56.59375 54.828125 56.59375 36.375 
Q 56.59375 19.140625 48.40625 8.859375 
Q 40.234375 -1.421875 26.421875 -1.421875 
Q 22.703125 -1.421875 18.890625 -0.6875 
Q 15.09375 0.046875 10.984375 1.515625 
z
M 30.609375 32.421875 
Q 37.25 32.421875 41.125 36.953125 
Q 45.015625 41.5 45.015625 49.421875 
Q 45.015625 57.28125 41.125 61.84375 
Q 37.25 66.40625 30.609375 66.40625 
Q 23.96875 66.40625 20.09375 61.84375 
Q 16.21875 57.28125 16.21875 49.421875 
Q 16.21875 41.5 20.09375 36.953125 
Q 23.96875 32.421875 30.609375 32.421875 
z
" id="DejaVuSans-57"/>
      <path d="M 8.203125 72.90625 
L 55.078125 72.90625 
L 55.078125 68.703125 
L 28.609375 0 
L 18.3125 0 
L 43.21875 64.59375 
L 8.203125 64.59375 
z
" id="DejaVuSans-55"/>
     </defs>
     <use xlink:href="#DejaVuSans-98"/>
     <use x="63.476562" xlink:href="#DejaVuSans-61"/>
     <use x="147.265625" xlink:href="#DejaVuSans-45"/>
     <use x="183.349609" xlink:href="#DejaVuSans-50"/>
     <use x="246.972656" xlink:href="#DejaVuSans-46"/>
     <use x="278.759766" xlink:href="#DejaVuSans-57"/>
     <use x="342.382812" xlink:href="#DejaVuSans-55"/>
    </g>
    <!-- r=0.80 -->
    <g transform="translate(204.545625 260.604375)scale(0.1 -0.1)">
     <use xlink:href="#DejaVuSans-114"/>
     <use x="41.113281" xlink:href="#DejaVuSans-61"/>
     <use x="124.902344" xlink:href="#DejaVuSans-48"/>
     <use x="188.525391" xlink:href="#DejaVuSans-46"/>
     <use x="220.3125" xlink:href="#DejaVuSans-56"/>
     <use x="283.935547" xlink:href="#DejaVuSans-48"/>
    </g>
   </g>
  </g>
 </g>
 <defs>
  <clipPath id="pe8bc3057b1">
   <rect height="277.2" width="277.2" x="46.965625" y="10.999219"/>
  </clipPath>
 </defs>
</svg>